<?xml version="1.0" encoding="utf-8"?>
<!-- Generator: Adobe Illustrator 21.0.2, SVG Export Plug-In . SVG Version: 6.00 Build 0)  -->
<svg version="1.1" id="Livello_1" xmlns="http://www.w3.org/2000/svg" xmlns:xlink="http://www.w3.org/1999/xlink" x="0px" y="0px"
	 width="28px" height="28px" viewBox="0 0 28 28" style="enable-background:new 0 0 28 28;" xml:space="preserve">
<style type="text/css">
	.st0{fill-rule:evenodd;clip-rule:evenodd;fill:#FFFFFF;}
</style>
<g id="grid">
</g>
<path class="st0" d="M14,5.9c-4.6,0-8.3,3.7-8.3,8.3c0,3.7,2.4,6.8,5.7,7.9c0.4,0.1,0.6-0.2,0.6-0.4c0-0.2,0-0.7,0-1.4
	c-2.3,0.5-2.8-1.1-2.8-1.1c-0.4-1-0.9-1.2-0.9-1.2c-0.8-0.5,0.1-0.5,0.1-0.5c0.8,0.1,1.3,0.9,1.3,0.9c0.7,1.3,1.9,0.9,2.4,0.7
	c0.1-0.5,0.3-0.9,0.5-1.1c-1.8-0.2-3.8-0.9-3.8-4.1c0-0.9,0.3-1.7,0.9-2.2c-0.1-0.2-0.4-1.1,0.1-2.2c0,0,0.7-0.2,2.3,0.9
	c0.7-0.2,1.4-0.3,2.1-0.3c0.7,0,1.4,0.1,2.1,0.3c1.6-1.1,2.3-0.9,2.3-0.9c0.5,1.1,0.2,2,0.1,2.2c0.5,0.6,0.9,1.3,0.9,2.2
	c0,3.2-1.9,3.9-3.8,4.1c0.3,0.3,0.6,0.8,0.6,1.5c0,1.1,0,2,0,2.3c0,0.2,0.2,0.5,0.6,0.4c3.3-1.1,5.7-4.2,5.7-7.9
	C22.3,9.6,18.6,5.9,14,5.9z"/>
</svg>
