<?xml version="1.0" encoding="utf-8"?>
<!-- Generator: Adobe Illustrator 19.1.0, SVG Export Plug-In . SVG Version: 6.00 Build 0)  -->
<svg version="1.0" id="Livello_1" xmlns="http://www.w3.org/2000/svg" xmlns:xlink="http://www.w3.org/1999/xlink" x="0px" y="0px"
	 width="28px" height="28px" viewBox="0 0 28 28" enable-background="new 0 0 28 28" xml:space="preserve">
<g>
	<g>
		<path fill="#FFFFFF" d="M20.002,12.591H8.795c-1.781,0-3.225,1.445-3.225,3.226v2.592c0,1.781,1.444,3.226,3.225,3.226h11.206
			c1.781,0,3.225-1.445,3.225-3.226v-2.592C23.227,14.036,21.783,12.591,20.002,12.591z M11.15,14.609h-1.042v5.177H9.101v-5.177
			H8.06v-0.881h3.09V14.609z M14.093,19.786H13.2v-0.49c-0.166,0.181-0.337,0.319-0.516,0.413c-0.178,0.097-0.351,0.143-0.519,0.143
			c-0.207,0-0.361-0.066-0.467-0.2c-0.104-0.134-0.157-0.332-0.157-0.599v-3.736h0.893v3.428c0,0.106,0.019,0.182,0.055,0.229
			c0.039,0.049,0.1,0.071,0.184,0.071c0.064,0,0.148-0.031,0.249-0.093c0.101-0.063,0.193-0.143,0.277-0.24v-3.395h0.893V19.786z
			 M17.334,18.863c0,0.316-0.07,0.558-0.21,0.728c-0.139,0.169-0.343,0.252-0.607,0.252c-0.176,0-0.332-0.031-0.468-0.097
			c-0.136-0.065-0.265-0.165-0.382-0.303v0.342h-0.903v-6.057h0.903v1.951c0.121-0.135,0.249-0.24,0.382-0.31
			c0.137-0.072,0.274-0.107,0.413-0.107c0.283,0,0.498,0.094,0.647,0.285c0.15,0.191,0.224,0.47,0.224,0.835V18.863z M20.432,17.659
			h-1.709v0.842c0,0.235,0.028,0.398,0.087,0.49c0.059,0.091,0.16,0.136,0.303,0.136c0.149,0,0.251-0.039,0.311-0.116
			c0.058-0.078,0.089-0.247,0.089-0.51v-0.203h0.919v0.229c0,0.458-0.111,0.803-0.337,1.036c-0.222,0.23-0.557,0.345-1.002,0.345
			c-0.4,0-0.716-0.122-0.945-0.368c-0.229-0.244-0.345-0.583-0.345-1.013v-2.007c0-0.386,0.127-0.704,0.38-0.948
			c0.253-0.244,0.577-0.365,0.978-0.365c0.409,0,0.723,0.113,0.943,0.339c0.219,0.226,0.329,0.551,0.329,0.974V17.659z"/>
		<path fill="#FFFFFF" d="M19.121,15.988c-0.143,0-0.244,0.04-0.306,0.124c-0.063,0.078-0.092,0.213-0.092,0.401v0.452h0.79v-0.452
			c0-0.188-0.032-0.322-0.094-0.401C19.358,16.028,19.257,15.988,19.121,15.988z"/>
		<path fill="#FFFFFF" d="M16.041,15.973c-0.064,0-0.127,0.014-0.19,0.043c-0.062,0.029-0.123,0.076-0.184,0.137v2.784
			c0.072,0.072,0.143,0.127,0.212,0.159c0.069,0.031,0.14,0.048,0.216,0.048c0.11,0,0.19-0.032,0.241-0.096
			c0.051-0.063,0.077-0.165,0.077-0.308v-2.308c0-0.152-0.031-0.265-0.094-0.344C16.254,16.012,16.161,15.973,16.041,15.973z"/>
		<polygon fill="#FFFFFF" points="10.263,11.038 11.395,11.038 11.395,8.27 12.712,4.365 11.562,4.365 10.861,7.032 10.79,7.032 
			10.055,4.365 8.914,4.365 10.263,8.395 		"/>
		<path fill="#FFFFFF" d="M14.246,11.163c0.457,0,0.816-0.12,1.077-0.359c0.259-0.241,0.39-0.57,0.39-0.991V7.269
			c0-0.375-0.133-0.683-0.397-0.921c-0.266-0.237-0.608-0.357-1.024-0.357c-0.457,0-0.821,0.113-1.092,0.339
			c-0.27,0.226-0.406,0.528-0.406,0.911v2.552c0,0.419,0.132,0.75,0.396,0.998C13.454,11.038,13.806,11.163,14.246,11.163z
			 M13.829,7.204c0-0.107,0.038-0.193,0.114-0.261c0.078-0.066,0.177-0.098,0.3-0.098c0.133,0,0.24,0.032,0.323,0.098
			c0.082,0.068,0.123,0.154,0.123,0.261v2.682c0,0.132-0.04,0.236-0.121,0.311c-0.08,0.075-0.188,0.113-0.325,0.113
			c-0.133,0-0.236-0.036-0.307-0.111c-0.071-0.074-0.107-0.178-0.107-0.313V7.204z"/>
		<path fill="#FFFFFF" d="M17.231,11.11c0.189,0,0.383-0.054,0.583-0.157c0.202-0.105,0.395-0.259,0.579-0.46v0.545h1.006V6.116
			h-1.006v3.737c-0.094,0.107-0.197,0.195-0.309,0.265c-0.114,0.069-0.207,0.104-0.281,0.104c-0.094,0-0.163-0.026-0.204-0.079
			c-0.042-0.052-0.065-0.136-0.065-0.252V6.116h-1.004v4.114c0,0.294,0.059,0.513,0.176,0.658
			C16.823,11.036,16.997,11.11,17.231,11.11z"/>
	</g>
</g>
</svg>
