<?xml version="1.0" encoding="utf-8"?>
<!-- Generator: Adobe Illustrator 19.1.0, SVG Export Plug-In . SVG Version: 6.00 Build 0)  -->
<svg version="1.0" id="Livello_1" xmlns="http://www.w3.org/2000/svg" xmlns:xlink="http://www.w3.org/1999/xlink" x="0px" y="0px"
	 width="28px" height="28px" viewBox="0 0 28 28" enable-background="new 0 0 28 28" xml:space="preserve">
<g>
	<g>
		<path fill="#FFFFFF" d="M21.046,12.126h-2.103v-2.103c0-0.161-0.13-0.291-0.291-0.291h-0.599c-0.161,0-0.291,0.13-0.291,0.291
			v2.103h-2.103c-0.16,0-0.291,0.131-0.291,0.291v0.599c0,0.161,0.131,0.291,0.291,0.291h2.103v2.104
			c0,0.161,0.13,0.291,0.291,0.291h0.599c0.16,0,0.291-0.13,0.291-0.291v-2.104h2.103c0.16,0,0.291-0.13,0.291-0.291v-0.599
			C21.337,12.257,21.207,12.126,21.046,12.126z"/>
		<path fill="#FFFFFF" d="M13.978,13.97c-0.442-0.313-0.845-0.772-0.852-0.914c0-0.257,0.023-0.38,0.599-0.829
			c0.746-0.584,1.156-1.351,1.156-2.162c0-0.735-0.225-1.388-0.607-1.847h0.296c0.062,0,0.121-0.019,0.171-0.055l0.827-0.599
			c0.103-0.074,0.146-0.205,0.106-0.325c-0.039-0.12-0.15-0.202-0.277-0.202h-3.7c-0.405,0-0.816,0.071-1.22,0.21
			C9.13,7.713,8.188,8.862,8.188,10.042c0,1.671,1.295,2.938,3.025,2.978c-0.034,0.132-0.051,0.263-0.051,0.391
			c0,0.258,0.065,0.501,0.2,0.737c-0.016,0-0.031,0-0.048,0c-1.65,0-3.139,0.809-3.704,2.014c-0.147,0.313-0.222,0.63-0.222,0.943
			c0,0.304,0.078,0.597,0.231,0.872c0.355,0.635,1.118,1.129,2.15,1.389c0.532,0.135,1.104,0.203,1.698,0.203
			c0.534,0,1.042-0.069,1.513-0.205c1.467-0.426,2.415-1.505,2.415-2.752C15.394,15.416,15.01,14.7,13.978,13.97z M9.304,16.708
			c0-0.87,1.105-1.633,2.365-1.633l0.034,0c0.274,0.003,0.541,0.044,0.794,0.121c0.086,0.06,0.17,0.116,0.25,0.171
			c0.583,0.398,0.969,0.66,1.076,1.081c0.025,0.106,0.038,0.212,0.038,0.315c0,1.083-0.808,1.633-2.402,1.633
			C10.251,18.395,9.304,17.654,9.304,16.708z M10.451,8.488c0.197-0.225,0.455-0.343,0.744-0.343l0.033,0.001
			c0.818,0.024,1.6,0.935,1.745,2.032c0.081,0.614-0.056,1.191-0.364,1.543c-0.197,0.225-0.451,0.344-0.753,0.344c0,0,0,0-0.001,0
			h-0.013c-0.801-0.024-1.6-0.971-1.743-2.066C10.017,9.385,10.146,8.835,10.451,8.488z"/>
	</g>
</g>
</svg>
