<?xml version="1.0" encoding="utf-8"?>
<!-- Generator: Adobe Illustrator 21.0.2, SVG Export Plug-In . SVG Version: 6.00 Build 0)  -->
<svg version="1.1" id="Livello_1" xmlns="http://www.w3.org/2000/svg" xmlns:xlink="http://www.w3.org/1999/xlink" x="0px" y="0px"
	 width="28px" height="28px" viewBox="0 0 28 28" style="enable-background:new 0 0 28 28;" xml:space="preserve">
<style type="text/css">
	.st0{fill:#FFFFFF;}
</style>
<g id="grid">
</g>
<g>
	<path class="st0" d="M14,8.3c1.9,0,2.1,0,2.8,0c0.7,0,1.1,0.1,1.3,0.2c0.3,0.1,0.6,0.3,0.8,0.5c0.2,0.2,0.4,0.5,0.5,0.8
		c0.1,0.2,0.2,0.6,0.2,1.3c0,0.7,0,1,0,2.8s0,2.1,0,2.8c0,0.7-0.1,1.1-0.2,1.3c-0.1,0.3-0.3,0.6-0.5,0.8c-0.2,0.2-0.5,0.4-0.8,0.5
		c-0.2,0.1-0.6,0.2-1.3,0.2c-0.7,0-1,0-2.8,0s-2.1,0-2.8,0c-0.7,0-1.1-0.1-1.3-0.2c-0.3-0.1-0.6-0.3-0.8-0.5
		c-0.2-0.2-0.4-0.5-0.5-0.8c-0.1-0.2-0.2-0.6-0.2-1.3c0-0.7,0-1,0-2.8s0-2.1,0-2.8c0-0.7,0.1-1.1,0.2-1.3c0.1-0.3,0.3-0.6,0.5-0.8
		c0.2-0.2,0.5-0.4,0.8-0.5c0.2-0.1,0.6-0.2,1.3-0.2C11.9,8.3,12.1,8.3,14,8.3 M14,7c-1.9,0-2.1,0-2.9,0c-0.7,0-1.3,0.2-1.7,0.3
		C9,7.5,8.6,7.8,8.2,8.2C7.8,8.6,7.5,9,7.4,9.4c-0.2,0.4-0.3,1-0.3,1.7c0,0.7,0,1,0,2.9c0,1.9,0,2.1,0,2.9c0,0.7,0.2,1.3,0.3,1.7
		c0.2,0.5,0.4,0.9,0.8,1.2c0.4,0.4,0.8,0.6,1.2,0.8c0.4,0.2,1,0.3,1.7,0.3c0.7,0,1,0,2.9,0s2.1,0,2.9,0c0.7,0,1.3-0.2,1.7-0.3
		c0.5-0.2,0.9-0.4,1.2-0.8c0.4-0.4,0.6-0.8,0.8-1.2c0.2-0.4,0.3-1,0.3-1.7c0-0.7,0-1,0-2.9s0-2.1,0-2.9c0-0.7-0.2-1.3-0.3-1.7
		c-0.2-0.5-0.4-0.9-0.8-1.2c-0.4-0.4-0.8-0.6-1.2-0.8c-0.4-0.2-1-0.3-1.7-0.3C16.1,7,15.9,7,14,7L14,7z"/>
	<path class="st0" d="M14,10.4c-2,0-3.6,1.6-3.6,3.6s1.6,3.6,3.6,3.6s3.6-1.6,3.6-3.6S16,10.4,14,10.4z M14,16.3
		c-1.3,0-2.3-1-2.3-2.3s1-2.3,2.3-2.3s2.3,1,2.3,2.3S15.3,16.3,14,16.3z"/>
	<circle class="st0" cx="17.7" cy="10.3" r="0.8"/>
</g>
</svg>
