<?xml version="1.0" encoding="utf-8"?>
<!-- Generator: Adobe Illustrator 19.1.0, SVG Export Plug-In . SVG Version: 6.00 Build 0)  -->
<svg version="1.0" id="Livello_1" xmlns="http://www.w3.org/2000/svg" xmlns:xlink="http://www.w3.org/1999/xlink" x="0px" y="0px"
	 width="28px" height="28px" viewBox="0 0 28 28" enable-background="new 0 0 28 28" xml:space="preserve">
<g>
	<path fill="#FFFFFF" d="M20.897,9.722c-0.507,0.225-1.053,0.377-1.625,0.446c0.584-0.35,1.033-0.905,1.244-1.566
		c-0.547,0.324-1.152,0.56-1.797,0.687c-0.516-0.55-1.252-0.894-2.066-0.894c-1.563,0-2.83,1.267-2.83,2.83
		c0,0.222,0.025,0.438,0.073,0.645c-2.352-0.118-4.437-1.244-5.833-2.957C7.82,9.331,7.68,9.817,7.68,10.336
		c0,0.982,0.5,1.848,1.259,2.356c-0.464-0.015-0.9-0.142-1.282-0.354c0,0.012,0,0.024,0,0.036c0,1.371,0.975,2.515,2.27,2.775
		c-0.237,0.065-0.488,0.099-0.746,0.099c-0.183,0-0.36-0.018-0.533-0.051c0.36,1.124,1.405,1.943,2.643,1.965
		c-0.969,0.759-2.189,1.211-3.515,1.211c-0.228,0-0.453-0.014-0.675-0.04c1.253,0.803,2.74,1.271,4.338,1.271
		c5.205,0,8.052-4.312,8.052-8.052c0-0.122-0.002-0.245-0.008-0.366C20.038,10.788,20.518,10.29,20.897,9.722z"/>
</g>
</svg>
