G75*
%MOIN*%
%OFA0B0*%
%FSLAX25Y25*%
%IPPOS*%
%LPD*%
%AMOC8*
5,1,8,0,0,1.08239X$1,22.5*
%
%ADD10C,0.05937*%
%ADD11R,0.06299X0.07874*%
%ADD12C,0.05600*%
%ADD13C,0.07800*%
%ADD14C,0.05937*%
%ADD15C,0.01200*%
%ADD16C,0.01600*%
%ADD17R,0.03962X0.03962*%
D10*
X0033624Y0025300D02*
X0039561Y0025300D01*
X0039561Y0035300D02*
X0033624Y0035300D01*
X0033624Y0045300D02*
X0039561Y0045300D01*
X0039561Y0055300D02*
X0033624Y0055300D01*
X0033624Y0065300D02*
X0039561Y0065300D01*
X0039561Y0075300D02*
X0033624Y0075300D01*
X0033624Y0085300D02*
X0039561Y0085300D01*
X0039561Y0095300D02*
X0033624Y0095300D01*
X0033624Y0105300D02*
X0039561Y0105300D01*
X0039561Y0115300D02*
X0033624Y0115300D01*
X0033624Y0130300D02*
X0039561Y0130300D01*
X0039561Y0140300D02*
X0033624Y0140300D01*
X0033624Y0150300D02*
X0039561Y0150300D01*
X0039561Y0160300D02*
X0033624Y0160300D01*
X0033624Y0170300D02*
X0039561Y0170300D01*
X0039561Y0180300D02*
X0033624Y0180300D01*
X0033624Y0190300D02*
X0039561Y0190300D01*
X0039561Y0200300D02*
X0033624Y0200300D01*
X0033624Y0220300D02*
X0039561Y0220300D01*
X0039561Y0230300D02*
X0033624Y0230300D01*
X0033624Y0240300D02*
X0039561Y0240300D01*
X0039561Y0250300D02*
X0033624Y0250300D01*
X0033624Y0260300D02*
X0039561Y0260300D01*
X0039561Y0270300D02*
X0033624Y0270300D01*
X0033624Y0280300D02*
X0039561Y0280300D01*
X0039561Y0290300D02*
X0033624Y0290300D01*
X0085656Y0210300D02*
X0091593Y0210300D01*
X0101593Y0210300D02*
X0107530Y0210300D01*
X0107530Y0200300D02*
X0101593Y0200300D01*
X0101593Y0190300D02*
X0107530Y0190300D01*
X0107530Y0180300D02*
X0101593Y0180300D01*
X0101593Y0170300D02*
X0107530Y0170300D01*
X0107530Y0160300D02*
X0101593Y0160300D01*
X0101593Y0150300D02*
X0107530Y0150300D01*
X0107530Y0140300D02*
X0101593Y0140300D01*
X0101593Y0130300D02*
X0107530Y0130300D01*
X0107530Y0120300D02*
X0101593Y0120300D01*
X0101593Y0110300D02*
X0107530Y0110300D01*
X0107530Y0100300D02*
X0101593Y0100300D01*
X0101593Y0090300D02*
X0107530Y0090300D01*
X0107530Y0080300D02*
X0101593Y0080300D01*
X0101593Y0070300D02*
X0107530Y0070300D01*
X0107530Y0060300D02*
X0101593Y0060300D01*
X0101593Y0050300D02*
X0107530Y0050300D01*
X0091593Y0050300D02*
X0085656Y0050300D01*
X0085656Y0060300D02*
X0091593Y0060300D01*
X0091593Y0070300D02*
X0085656Y0070300D01*
X0085656Y0080300D02*
X0091593Y0080300D01*
X0091593Y0090300D02*
X0085656Y0090300D01*
X0085656Y0100300D02*
X0091593Y0100300D01*
X0091593Y0110300D02*
X0085656Y0110300D01*
X0085656Y0120300D02*
X0091593Y0120300D01*
X0091593Y0130300D02*
X0085656Y0130300D01*
X0085656Y0140300D02*
X0091593Y0140300D01*
X0091593Y0150300D02*
X0085656Y0150300D01*
X0085656Y0160300D02*
X0091593Y0160300D01*
X0091593Y0170300D02*
X0085656Y0170300D01*
X0085656Y0180300D02*
X0091593Y0180300D01*
X0091593Y0190300D02*
X0085656Y0190300D01*
X0085656Y0200300D02*
X0091593Y0200300D01*
X0153624Y0200300D02*
X0159561Y0200300D01*
X0159561Y0190300D02*
X0153624Y0190300D01*
X0153624Y0180300D02*
X0159561Y0180300D01*
X0159561Y0170300D02*
X0153624Y0170300D01*
X0153624Y0160300D02*
X0159561Y0160300D01*
X0159561Y0150300D02*
X0153624Y0150300D01*
X0153624Y0210300D02*
X0159561Y0210300D01*
X0159561Y0220300D02*
X0153624Y0220300D01*
X0203624Y0220300D02*
X0209561Y0220300D01*
X0209561Y0210300D02*
X0203624Y0210300D01*
X0203624Y0200300D02*
X0209561Y0200300D01*
X0209561Y0190300D02*
X0203624Y0190300D01*
X0203624Y0180300D02*
X0209561Y0180300D01*
X0209561Y0170300D02*
X0203624Y0170300D01*
X0203624Y0160300D02*
X0209561Y0160300D01*
X0209561Y0150300D02*
X0203624Y0150300D01*
X0223624Y0150300D02*
X0229561Y0150300D01*
X0229561Y0160300D02*
X0223624Y0160300D01*
X0223624Y0170300D02*
X0229561Y0170300D01*
X0229561Y0180300D02*
X0223624Y0180300D01*
X0223624Y0190300D02*
X0229561Y0190300D01*
X0229561Y0200300D02*
X0223624Y0200300D01*
X0223624Y0210300D02*
X0229561Y0210300D01*
X0229561Y0220300D02*
X0223624Y0220300D01*
X0223624Y0240300D02*
X0229561Y0240300D01*
X0229561Y0250300D02*
X0223624Y0250300D01*
X0223624Y0260300D02*
X0229561Y0260300D01*
X0229561Y0270300D02*
X0223624Y0270300D01*
X0223624Y0280300D02*
X0229561Y0280300D01*
X0229561Y0290300D02*
X0223624Y0290300D01*
X0223624Y0300300D02*
X0229561Y0300300D01*
X0229561Y0310300D02*
X0223624Y0310300D01*
X0223624Y0130300D02*
X0229561Y0130300D01*
X0229561Y0120300D02*
X0223624Y0120300D01*
X0223624Y0110300D02*
X0229561Y0110300D01*
X0229561Y0100300D02*
X0223624Y0100300D01*
X0223624Y0090300D02*
X0229561Y0090300D01*
X0229561Y0080300D02*
X0223624Y0080300D01*
X0223624Y0070300D02*
X0229561Y0070300D01*
X0229561Y0060300D02*
X0223624Y0060300D01*
D11*
X0073355Y0090300D03*
X0062331Y0090300D03*
X0061081Y0170300D03*
X0061081Y0180300D03*
X0061081Y0190300D03*
X0072105Y0190300D03*
X0072105Y0180300D03*
X0072105Y0170300D03*
X0072105Y0210300D03*
X0061081Y0210300D03*
D12*
X0166593Y0237500D02*
X0166593Y0243100D01*
X0176593Y0243100D02*
X0176593Y0237500D01*
X0186593Y0237500D02*
X0186593Y0243100D01*
X0196593Y0243100D02*
X0196593Y0237500D01*
D13*
X0206693Y0034200D02*
X0206693Y0026400D01*
X0226493Y0026400D02*
X0226493Y0034200D01*
D14*
X0206593Y0320300D03*
X0206593Y0330300D03*
X0196593Y0330300D03*
X0196593Y0320300D03*
X0186593Y0320300D03*
X0186593Y0330300D03*
X0176593Y0330300D03*
X0176593Y0320300D03*
X0166593Y0320300D03*
X0166593Y0330300D03*
X0156593Y0330300D03*
X0156593Y0320300D03*
X0146593Y0320300D03*
X0146593Y0330300D03*
X0136593Y0330300D03*
X0136593Y0320300D03*
X0126593Y0320300D03*
X0126593Y0330300D03*
X0116593Y0330300D03*
X0116593Y0320300D03*
X0106593Y0320300D03*
X0106593Y0330300D03*
X0096593Y0330300D03*
X0096593Y0320300D03*
X0086593Y0320300D03*
X0086593Y0330300D03*
X0076593Y0330300D03*
X0076593Y0320300D03*
X0066593Y0320300D03*
X0066593Y0330300D03*
X0056593Y0330300D03*
X0056593Y0320300D03*
X0046593Y0320300D03*
X0046593Y0330300D03*
X0036593Y0330300D03*
X0036593Y0320300D03*
D15*
X0021793Y0340061D02*
X0021793Y0020500D01*
X0031707Y0020500D01*
X0030697Y0020918D01*
X0029243Y0022372D01*
X0028456Y0024272D01*
X0028456Y0026328D01*
X0029243Y0028228D01*
X0030697Y0029682D01*
X0032189Y0030300D01*
X0030697Y0030918D01*
X0029243Y0032372D01*
X0028456Y0034272D01*
X0028456Y0036328D01*
X0029243Y0038228D01*
X0030697Y0039682D01*
X0032189Y0040300D01*
X0030697Y0040918D01*
X0029243Y0042372D01*
X0028456Y0044272D01*
X0028456Y0046328D01*
X0029243Y0048228D01*
X0030697Y0049682D01*
X0032189Y0050300D01*
X0030697Y0050918D01*
X0029243Y0052372D01*
X0028456Y0054272D01*
X0028456Y0056328D01*
X0029243Y0058228D01*
X0030697Y0059682D01*
X0032189Y0060300D01*
X0030697Y0060918D01*
X0029243Y0062372D01*
X0028456Y0064272D01*
X0028456Y0066328D01*
X0029243Y0068228D01*
X0030697Y0069682D01*
X0032189Y0070300D01*
X0030697Y0070918D01*
X0029243Y0072372D01*
X0028456Y0074272D01*
X0028456Y0074477D01*
X0024219Y0078714D01*
X0023793Y0079743D01*
X0023793Y0118357D01*
X0024219Y0119386D01*
X0029219Y0124386D01*
X0029219Y0124386D01*
X0030007Y0125174D01*
X0031036Y0125600D01*
X0031465Y0125600D01*
X0030697Y0125918D01*
X0029243Y0127372D01*
X0028456Y0129272D01*
X0028456Y0131328D01*
X0029243Y0133228D01*
X0030697Y0134682D01*
X0032189Y0135300D01*
X0030697Y0135918D01*
X0029243Y0137372D01*
X0028456Y0139272D01*
X0028456Y0141328D01*
X0029243Y0143228D01*
X0030697Y0144682D01*
X0032189Y0145300D01*
X0030697Y0145918D01*
X0029243Y0147372D01*
X0028456Y0149272D01*
X0028456Y0151328D01*
X0029243Y0153228D01*
X0030697Y0154682D01*
X0032189Y0155300D01*
X0030697Y0155918D01*
X0029243Y0157372D01*
X0028456Y0159272D01*
X0028456Y0161328D01*
X0029243Y0163228D01*
X0030697Y0164682D01*
X0032189Y0165300D01*
X0030697Y0165918D01*
X0029243Y0167372D01*
X0028456Y0169272D01*
X0028456Y0171328D01*
X0029243Y0173228D01*
X0030697Y0174682D01*
X0032189Y0175300D01*
X0030697Y0175918D01*
X0029243Y0177372D01*
X0028456Y0179272D01*
X0028456Y0181328D01*
X0029243Y0183228D01*
X0030697Y0184682D01*
X0032189Y0185300D01*
X0030697Y0185918D01*
X0029243Y0187372D01*
X0028456Y0189272D01*
X0028456Y0191328D01*
X0029243Y0193228D01*
X0030697Y0194682D01*
X0032189Y0195300D01*
X0030697Y0195918D01*
X0029243Y0197372D01*
X0028456Y0199272D01*
X0028456Y0201328D01*
X0029243Y0203228D01*
X0030697Y0204682D01*
X0032596Y0205468D01*
X0040589Y0205468D01*
X0042489Y0204682D01*
X0043943Y0203228D01*
X0044730Y0201328D01*
X0044730Y0199272D01*
X0043943Y0197372D01*
X0042489Y0195918D01*
X0040996Y0195300D01*
X0042489Y0194682D01*
X0043943Y0193228D01*
X0044730Y0191328D01*
X0044730Y0189272D01*
X0043943Y0187372D01*
X0042489Y0185918D01*
X0040996Y0185300D01*
X0042489Y0184682D01*
X0043943Y0183228D01*
X0044730Y0181328D01*
X0044730Y0179272D01*
X0043943Y0177372D01*
X0042489Y0175918D01*
X0040996Y0175300D01*
X0042489Y0174682D01*
X0043943Y0173228D01*
X0044730Y0171328D01*
X0044730Y0169272D01*
X0043943Y0167372D01*
X0042489Y0165918D01*
X0040996Y0165300D01*
X0042489Y0164682D01*
X0043943Y0163228D01*
X0044730Y0161328D01*
X0044730Y0159272D01*
X0043943Y0157372D01*
X0042489Y0155918D01*
X0040996Y0155300D01*
X0042154Y0154821D01*
X0048576Y0161243D01*
X0047412Y0162408D01*
X0047412Y0168192D01*
X0048700Y0169481D01*
X0054485Y0169481D01*
X0055394Y0168573D01*
X0055731Y0168910D01*
X0055731Y0175148D01*
X0055883Y0175300D01*
X0055731Y0175452D01*
X0055731Y0185148D01*
X0055883Y0185300D01*
X0055731Y0185452D01*
X0055731Y0195148D01*
X0057020Y0196437D01*
X0058281Y0196437D01*
X0058281Y0204163D01*
X0057020Y0204163D01*
X0055731Y0205452D01*
X0055731Y0215148D01*
X0057020Y0216437D01*
X0058770Y0216437D01*
X0059495Y0217162D01*
X0064219Y0221886D01*
X0064219Y0221886D01*
X0065007Y0222674D01*
X0066036Y0223100D01*
X0140433Y0223100D01*
X0150007Y0232674D01*
X0151036Y0233100D01*
X0164150Y0233100D01*
X0163761Y0233261D01*
X0162354Y0234668D01*
X0161593Y0236505D01*
X0161593Y0244095D01*
X0162354Y0245932D01*
X0163761Y0247339D01*
X0165598Y0248100D01*
X0167587Y0248100D01*
X0169425Y0247339D01*
X0170832Y0245932D01*
X0171593Y0244095D01*
X0171593Y0236505D01*
X0172354Y0234668D01*
X0173761Y0233261D01*
X0174150Y0233100D01*
X0169036Y0233100D01*
X0169425Y0233261D01*
X0170832Y0234668D01*
X0171593Y0236505D01*
X0171593Y0244095D01*
X0172354Y0245932D01*
X0173761Y0247339D01*
X0175598Y0248100D01*
X0177587Y0248100D01*
X0179425Y0247339D01*
X0180832Y0245932D01*
X0181593Y0244095D01*
X0181593Y0236505D01*
X0182354Y0234668D01*
X0183761Y0233261D01*
X0184150Y0233100D01*
X0179036Y0233100D01*
X0179425Y0233261D01*
X0180832Y0234668D01*
X0181593Y0236505D01*
X0181593Y0244095D01*
X0182354Y0245932D01*
X0183761Y0247339D01*
X0185598Y0248100D01*
X0187587Y0248100D01*
X0189425Y0247339D01*
X0190832Y0245932D01*
X0191593Y0244095D01*
X0191593Y0236505D01*
X0192354Y0234668D01*
X0193761Y0233261D01*
X0194150Y0233100D01*
X0189036Y0233100D01*
X0189425Y0233261D01*
X0190832Y0234668D01*
X0191593Y0236505D01*
X0191593Y0244095D01*
X0192354Y0245932D01*
X0193761Y0247339D01*
X0195598Y0248100D01*
X0197587Y0248100D01*
X0199425Y0247339D01*
X0200832Y0245932D01*
X0201593Y0244095D01*
X0201593Y0236505D01*
X0200832Y0234668D01*
X0199425Y0233261D01*
X0199036Y0233100D01*
X0212150Y0233100D01*
X0213179Y0232674D01*
X0218179Y0227674D01*
X0218179Y0227674D01*
X0218967Y0226886D01*
X0219393Y0225857D01*
X0219393Y0223378D01*
X0220697Y0224682D01*
X0222596Y0225468D01*
X0230589Y0225468D01*
X0232489Y0224682D01*
X0233943Y0223228D01*
X0234730Y0221328D01*
X0234730Y0219272D01*
X0233943Y0217372D01*
X0232489Y0215918D01*
X0230996Y0215300D01*
X0232489Y0214682D01*
X0233943Y0213228D01*
X0234730Y0211328D01*
X0234730Y0209272D01*
X0233943Y0207372D01*
X0232489Y0205918D01*
X0230996Y0205300D01*
X0232489Y0204682D01*
X0233943Y0203228D01*
X0234730Y0201328D01*
X0234730Y0199272D01*
X0233943Y0197372D01*
X0232489Y0195918D01*
X0230996Y0195300D01*
X0232489Y0194682D01*
X0233943Y0193228D01*
X0234730Y0191328D01*
X0234730Y0189272D01*
X0233943Y0187372D01*
X0232489Y0185918D01*
X0230996Y0185300D01*
X0232489Y0184682D01*
X0233943Y0183228D01*
X0234730Y0181328D01*
X0234730Y0179272D01*
X0233943Y0177372D01*
X0232489Y0175918D01*
X0230996Y0175300D01*
X0232489Y0174682D01*
X0233943Y0173228D01*
X0234730Y0171328D01*
X0234730Y0169272D01*
X0233943Y0167372D01*
X0232489Y0165918D01*
X0230996Y0165300D01*
X0232489Y0164682D01*
X0233943Y0163228D01*
X0234730Y0161328D01*
X0234730Y0159272D01*
X0233943Y0157372D01*
X0232489Y0155918D01*
X0230996Y0155300D01*
X0232489Y0154682D01*
X0233943Y0153228D01*
X0234730Y0151328D01*
X0234730Y0149272D01*
X0233943Y0147372D01*
X0232489Y0145918D01*
X0230589Y0145131D01*
X0222596Y0145131D01*
X0220697Y0145918D01*
X0219315Y0147300D01*
X0213871Y0147300D01*
X0212489Y0145918D01*
X0210589Y0145131D01*
X0202596Y0145131D01*
X0200697Y0145918D01*
X0199243Y0147372D01*
X0198456Y0149272D01*
X0198456Y0151328D01*
X0199243Y0153228D01*
X0200697Y0154682D01*
X0202189Y0155300D01*
X0200697Y0155918D01*
X0199243Y0157372D01*
X0198456Y0159272D01*
X0198456Y0161328D01*
X0199243Y0163228D01*
X0200697Y0164682D01*
X0202189Y0165300D01*
X0200697Y0165918D01*
X0199243Y0167372D01*
X0198456Y0169272D01*
X0198456Y0171328D01*
X0199243Y0173228D01*
X0200697Y0174682D01*
X0202189Y0175300D01*
X0200697Y0175918D01*
X0199243Y0177372D01*
X0198456Y0179272D01*
X0198456Y0181328D01*
X0199243Y0183228D01*
X0200697Y0184682D01*
X0202190Y0185300D01*
X0200697Y0185918D01*
X0199243Y0187372D01*
X0198456Y0189272D01*
X0198456Y0191328D01*
X0199243Y0193228D01*
X0200697Y0194682D01*
X0202190Y0195300D01*
X0200697Y0195918D01*
X0199243Y0197372D01*
X0198456Y0199272D01*
X0198456Y0201328D01*
X0198941Y0202500D01*
X0173353Y0202500D01*
X0193179Y0182674D01*
X0193967Y0181886D01*
X0194393Y0180857D01*
X0194393Y0111460D01*
X0212753Y0093100D01*
X0219190Y0093100D01*
X0219243Y0093228D01*
X0220697Y0094682D01*
X0222190Y0095300D01*
X0220697Y0095918D01*
X0219243Y0097372D01*
X0218456Y0099272D01*
X0218456Y0101328D01*
X0219243Y0103228D01*
X0220697Y0104682D01*
X0222596Y0105468D01*
X0230589Y0105468D01*
X0232489Y0104682D01*
X0233943Y0103228D01*
X0234730Y0101328D01*
X0234730Y0099272D01*
X0233943Y0097372D01*
X0232489Y0095918D01*
X0230996Y0095300D01*
X0232489Y0094682D01*
X0233943Y0093228D01*
X0234730Y0091328D01*
X0234730Y0089272D01*
X0233943Y0087372D01*
X0232489Y0085918D01*
X0230996Y0085300D01*
X0232489Y0084682D01*
X0233943Y0083228D01*
X0234730Y0081328D01*
X0234730Y0079272D01*
X0233943Y0077372D01*
X0232489Y0075918D01*
X0230996Y0075300D01*
X0232489Y0074682D01*
X0233943Y0073228D01*
X0234730Y0071328D01*
X0234730Y0069272D01*
X0233943Y0067372D01*
X0232489Y0065918D01*
X0230996Y0065300D01*
X0232489Y0064682D01*
X0233943Y0063228D01*
X0234730Y0061328D01*
X0234730Y0059272D01*
X0233943Y0057372D01*
X0232489Y0055918D01*
X0230589Y0055131D01*
X0222596Y0055131D01*
X0220697Y0055918D01*
X0219243Y0057372D01*
X0218456Y0059272D01*
X0218456Y0061328D01*
X0219243Y0063228D01*
X0220697Y0064682D01*
X0222189Y0065300D01*
X0220697Y0065918D01*
X0219243Y0067372D01*
X0218456Y0069272D01*
X0218456Y0071328D01*
X0219243Y0073228D01*
X0220697Y0074682D01*
X0222190Y0075300D01*
X0220697Y0075918D01*
X0219243Y0077372D01*
X0218456Y0079272D01*
X0218456Y0081328D01*
X0219243Y0083228D01*
X0220697Y0084682D01*
X0222190Y0085300D01*
X0220697Y0085918D01*
X0219243Y0087372D01*
X0219190Y0087500D01*
X0211036Y0087500D01*
X0210007Y0087926D01*
X0209219Y0088714D01*
X0189219Y0108714D01*
X0188793Y0109743D01*
X0188793Y0179140D01*
X0164219Y0203714D01*
X0162154Y0205779D01*
X0160996Y0205300D01*
X0162489Y0204682D01*
X0163943Y0203228D01*
X0164730Y0201328D01*
X0164730Y0199272D01*
X0163943Y0197372D01*
X0162489Y0195918D01*
X0160996Y0195300D01*
X0162489Y0194682D01*
X0163943Y0193228D01*
X0164730Y0191328D01*
X0164730Y0189272D01*
X0163943Y0187372D01*
X0162489Y0185918D01*
X0160996Y0185300D01*
X0162489Y0184682D01*
X0163943Y0183228D01*
X0164730Y0181328D01*
X0164730Y0179272D01*
X0163943Y0177372D01*
X0162489Y0175918D01*
X0160996Y0175300D01*
X0162489Y0174682D01*
X0163943Y0173228D01*
X0164730Y0171328D01*
X0164730Y0169272D01*
X0164121Y0167801D01*
X0164429Y0167674D01*
X0168179Y0163924D01*
X0168967Y0163136D01*
X0169393Y0162107D01*
X0169393Y0134743D01*
X0168967Y0133714D01*
X0158967Y0123714D01*
X0158179Y0122926D01*
X0157150Y0122500D01*
X0111536Y0122500D01*
X0111764Y0122054D01*
X0111986Y0121370D01*
X0112094Y0120684D01*
X0101977Y0120684D01*
X0101977Y0119916D01*
X0112094Y0119916D01*
X0111986Y0119230D01*
X0111764Y0118546D01*
X0111437Y0117906D01*
X0111015Y0117324D01*
X0110506Y0116815D01*
X0109924Y0116393D01*
X0109284Y0116066D01*
X0108600Y0115844D01*
X0107889Y0115731D01*
X0101977Y0115731D01*
X0101977Y0119916D01*
X0101209Y0119916D01*
X0101209Y0115735D01*
X0100523Y0115844D01*
X0099839Y0116066D01*
X0099198Y0116393D01*
X0098617Y0116815D01*
X0098108Y0117324D01*
X0097686Y0117906D01*
X0097359Y0118546D01*
X0097137Y0119230D01*
X0097028Y0119916D01*
X0101209Y0119916D01*
X0101209Y0120684D01*
X0097028Y0120684D01*
X0097137Y0121370D01*
X0097359Y0122054D01*
X0097586Y0122500D01*
X0096276Y0122500D01*
X0096761Y0121328D01*
X0096761Y0119272D01*
X0095974Y0117372D01*
X0094521Y0115918D01*
X0093028Y0115300D01*
X0094521Y0114682D01*
X0095974Y0113228D01*
X0096761Y0111328D01*
X0096761Y0109272D01*
X0095974Y0107372D01*
X0094521Y0105918D01*
X0093028Y0105300D01*
X0094521Y0104682D01*
X0095974Y0103228D01*
X0096761Y0101328D01*
X0096761Y0099272D01*
X0095974Y0097372D01*
X0094521Y0095918D01*
X0093028Y0095300D01*
X0094521Y0094682D01*
X0095974Y0093228D01*
X0096761Y0091328D01*
X0096761Y0089272D01*
X0096708Y0089144D01*
X0097414Y0088439D01*
X0097359Y0088546D01*
X0097137Y0089230D01*
X0097028Y0089916D01*
X0101209Y0089916D01*
X0101209Y0090684D01*
X0101209Y0094865D01*
X0100523Y0094756D01*
X0099839Y0094534D01*
X0099198Y0094207D01*
X0098617Y0093785D01*
X0098108Y0093276D01*
X0097686Y0092694D01*
X0097359Y0092054D01*
X0097137Y0091370D01*
X0097028Y0090684D01*
X0101209Y0090684D01*
X0101977Y0090684D01*
X0112094Y0090684D01*
X0111986Y0091370D01*
X0111764Y0092054D01*
X0111437Y0092694D01*
X0111015Y0093276D01*
X0110506Y0093785D01*
X0109924Y0094207D01*
X0109284Y0094534D01*
X0108600Y0094756D01*
X0107889Y0094868D01*
X0101977Y0094868D01*
X0101977Y0090684D01*
X0101977Y0089916D01*
X0112094Y0089916D01*
X0111986Y0089230D01*
X0111764Y0088546D01*
X0111536Y0088100D01*
X0112150Y0088100D01*
X0113179Y0087674D01*
X0113967Y0086886D01*
X0118967Y0081886D01*
X0119393Y0080857D01*
X0119393Y0044743D01*
X0118967Y0043714D01*
X0118179Y0042926D01*
X0108179Y0032926D01*
X0107150Y0032500D01*
X0056036Y0032500D01*
X0055007Y0032926D01*
X0054219Y0033714D01*
X0044417Y0043516D01*
X0043943Y0042372D01*
X0042489Y0040918D01*
X0040996Y0040300D01*
X0042489Y0039682D01*
X0043943Y0038228D01*
X0044730Y0036328D01*
X0044730Y0034272D01*
X0043943Y0032372D01*
X0042489Y0030918D01*
X0040996Y0030300D01*
X0042489Y0029682D01*
X0043943Y0028228D01*
X0044730Y0026328D01*
X0044730Y0024272D01*
X0043943Y0022372D01*
X0042489Y0020918D01*
X0041479Y0020500D01*
X0204997Y0020500D01*
X0203237Y0021229D01*
X0201522Y0022945D01*
X0200593Y0025187D01*
X0200593Y0035413D01*
X0201522Y0037655D01*
X0203237Y0039371D01*
X0205479Y0040300D01*
X0207906Y0040300D01*
X0210148Y0039371D01*
X0211864Y0037655D01*
X0212793Y0035413D01*
X0212793Y0025187D01*
X0211864Y0022945D01*
X0210148Y0021229D01*
X0208389Y0020500D01*
X0240094Y0020500D01*
X0240094Y0340061D01*
X0021793Y0340061D01*
X0021793Y0338898D02*
X0240094Y0338898D01*
X0240094Y0337700D02*
X0021793Y0337700D01*
X0021793Y0336501D02*
X0240094Y0336501D01*
X0240094Y0335303D02*
X0208022Y0335303D01*
X0207621Y0335468D02*
X0205565Y0335468D01*
X0203665Y0334682D01*
X0202211Y0333228D01*
X0201593Y0331735D01*
X0200974Y0333228D01*
X0199521Y0334682D01*
X0197621Y0335468D01*
X0195565Y0335468D01*
X0193665Y0334682D01*
X0192211Y0333228D01*
X0191593Y0331735D01*
X0190974Y0333228D01*
X0189521Y0334682D01*
X0187621Y0335468D01*
X0185565Y0335468D01*
X0183665Y0334682D01*
X0182211Y0333228D01*
X0181593Y0331735D01*
X0180974Y0333228D01*
X0179521Y0334682D01*
X0177621Y0335468D01*
X0175565Y0335468D01*
X0173665Y0334682D01*
X0172211Y0333228D01*
X0171593Y0331735D01*
X0170974Y0333228D01*
X0169521Y0334682D01*
X0167621Y0335468D01*
X0165565Y0335468D01*
X0163665Y0334682D01*
X0162211Y0333228D01*
X0161593Y0331735D01*
X0160974Y0333228D01*
X0159521Y0334682D01*
X0157621Y0335468D01*
X0155565Y0335468D01*
X0153665Y0334682D01*
X0152211Y0333228D01*
X0151593Y0331735D01*
X0150974Y0333228D01*
X0149521Y0334682D01*
X0147621Y0335468D01*
X0145565Y0335468D01*
X0143665Y0334682D01*
X0142211Y0333228D01*
X0141593Y0331735D01*
X0140974Y0333228D01*
X0139521Y0334682D01*
X0137621Y0335468D01*
X0135565Y0335468D01*
X0133665Y0334682D01*
X0132211Y0333228D01*
X0131593Y0331735D01*
X0130974Y0333228D01*
X0129521Y0334682D01*
X0127621Y0335468D01*
X0125565Y0335468D01*
X0123665Y0334682D01*
X0122211Y0333228D01*
X0121593Y0331735D01*
X0120974Y0333228D01*
X0119521Y0334682D01*
X0117621Y0335468D01*
X0115565Y0335468D01*
X0113665Y0334682D01*
X0112211Y0333228D01*
X0111593Y0331735D01*
X0110974Y0333228D01*
X0109521Y0334682D01*
X0107621Y0335468D01*
X0105565Y0335468D01*
X0103665Y0334682D01*
X0102211Y0333228D01*
X0101593Y0331735D01*
X0100974Y0333228D01*
X0099521Y0334682D01*
X0097621Y0335468D01*
X0095565Y0335468D01*
X0093665Y0334682D01*
X0092211Y0333228D01*
X0091593Y0331735D01*
X0090974Y0333228D01*
X0089521Y0334682D01*
X0087621Y0335468D01*
X0085565Y0335468D01*
X0083665Y0334682D01*
X0082211Y0333228D01*
X0081593Y0331735D01*
X0080974Y0333228D01*
X0079521Y0334682D01*
X0077621Y0335468D01*
X0075565Y0335468D01*
X0073665Y0334682D01*
X0072211Y0333228D01*
X0071593Y0331735D01*
X0070974Y0333228D01*
X0069521Y0334682D01*
X0067621Y0335468D01*
X0065565Y0335468D01*
X0063665Y0334682D01*
X0062211Y0333228D01*
X0061593Y0331735D01*
X0060974Y0333228D01*
X0059521Y0334682D01*
X0057621Y0335468D01*
X0055565Y0335468D01*
X0053665Y0334682D01*
X0052211Y0333228D01*
X0051593Y0331735D01*
X0050974Y0333228D01*
X0049521Y0334682D01*
X0047621Y0335468D01*
X0045565Y0335468D01*
X0043665Y0334682D01*
X0042211Y0333228D01*
X0041593Y0331735D01*
X0040974Y0333228D01*
X0039521Y0334682D01*
X0037621Y0335468D01*
X0035565Y0335468D01*
X0033665Y0334682D01*
X0032211Y0333228D01*
X0031424Y0331328D01*
X0031424Y0329272D01*
X0032211Y0327372D01*
X0033665Y0325918D01*
X0035158Y0325300D01*
X0033665Y0324682D01*
X0032211Y0323228D01*
X0031424Y0321328D01*
X0031424Y0319272D01*
X0032211Y0317372D01*
X0033665Y0315918D01*
X0035565Y0315131D01*
X0037621Y0315131D01*
X0039521Y0315918D01*
X0040974Y0317372D01*
X0041593Y0318865D01*
X0042211Y0317372D01*
X0043665Y0315918D01*
X0045565Y0315131D01*
X0047621Y0315131D01*
X0049521Y0315918D01*
X0050974Y0317372D01*
X0051593Y0318865D01*
X0052211Y0317372D01*
X0053665Y0315918D01*
X0055565Y0315131D01*
X0057621Y0315131D01*
X0059521Y0315918D01*
X0060974Y0317372D01*
X0061593Y0318865D01*
X0062211Y0317372D01*
X0063665Y0315918D01*
X0065565Y0315131D01*
X0067621Y0315131D01*
X0069521Y0315918D01*
X0070974Y0317372D01*
X0071593Y0318865D01*
X0072211Y0317372D01*
X0073665Y0315918D01*
X0075565Y0315131D01*
X0077621Y0315131D01*
X0079521Y0315918D01*
X0080974Y0317372D01*
X0081593Y0318865D01*
X0082211Y0317372D01*
X0083665Y0315918D01*
X0085565Y0315131D01*
X0087621Y0315131D01*
X0089521Y0315918D01*
X0090974Y0317372D01*
X0091593Y0318865D01*
X0092211Y0317372D01*
X0093665Y0315918D01*
X0095565Y0315131D01*
X0097621Y0315131D01*
X0099521Y0315918D01*
X0100974Y0317372D01*
X0101593Y0318865D01*
X0102211Y0317372D01*
X0103665Y0315918D01*
X0105565Y0315131D01*
X0107621Y0315131D01*
X0109521Y0315918D01*
X0110974Y0317372D01*
X0111593Y0318865D01*
X0112211Y0317372D01*
X0113665Y0315918D01*
X0115565Y0315131D01*
X0117621Y0315131D01*
X0119521Y0315918D01*
X0120974Y0317372D01*
X0121593Y0318865D01*
X0122211Y0317372D01*
X0123665Y0315918D01*
X0125565Y0315131D01*
X0127621Y0315131D01*
X0129521Y0315918D01*
X0130974Y0317372D01*
X0131593Y0318865D01*
X0132211Y0317372D01*
X0133665Y0315918D01*
X0135565Y0315131D01*
X0137621Y0315131D01*
X0139521Y0315918D01*
X0140974Y0317372D01*
X0141593Y0318865D01*
X0142211Y0317372D01*
X0143665Y0315918D01*
X0145565Y0315131D01*
X0147621Y0315131D01*
X0149521Y0315918D01*
X0150974Y0317372D01*
X0151593Y0318865D01*
X0152211Y0317372D01*
X0153665Y0315918D01*
X0155565Y0315131D01*
X0157621Y0315131D01*
X0159521Y0315918D01*
X0160974Y0317372D01*
X0161593Y0318865D01*
X0162211Y0317372D01*
X0163665Y0315918D01*
X0165565Y0315131D01*
X0167621Y0315131D01*
X0169521Y0315918D01*
X0170974Y0317372D01*
X0171593Y0318865D01*
X0172211Y0317372D01*
X0173665Y0315918D01*
X0175565Y0315131D01*
X0177621Y0315131D01*
X0179521Y0315918D01*
X0180974Y0317372D01*
X0181593Y0318865D01*
X0182211Y0317372D01*
X0183665Y0315918D01*
X0185565Y0315131D01*
X0187621Y0315131D01*
X0189521Y0315918D01*
X0190974Y0317372D01*
X0191593Y0318865D01*
X0192211Y0317372D01*
X0193665Y0315918D01*
X0195565Y0315131D01*
X0197621Y0315131D01*
X0199521Y0315918D01*
X0200974Y0317372D01*
X0201593Y0318865D01*
X0202211Y0317372D01*
X0203665Y0315918D01*
X0205565Y0315131D01*
X0207621Y0315131D01*
X0209521Y0315918D01*
X0210974Y0317372D01*
X0211761Y0319272D01*
X0211761Y0321328D01*
X0210974Y0323228D01*
X0209521Y0324682D01*
X0208028Y0325300D01*
X0209521Y0325918D01*
X0210974Y0327372D01*
X0211761Y0329272D01*
X0211761Y0331328D01*
X0210974Y0333228D01*
X0209521Y0334682D01*
X0207621Y0335468D01*
X0205164Y0335303D02*
X0198022Y0335303D01*
X0200098Y0334104D02*
X0203088Y0334104D01*
X0202078Y0332905D02*
X0201108Y0332905D01*
X0195164Y0335303D02*
X0188022Y0335303D01*
X0190098Y0334104D02*
X0193088Y0334104D01*
X0192078Y0332905D02*
X0191108Y0332905D01*
X0185164Y0335303D02*
X0178022Y0335303D01*
X0180098Y0334104D02*
X0183088Y0334104D01*
X0182078Y0332905D02*
X0181108Y0332905D01*
X0175164Y0335303D02*
X0168022Y0335303D01*
X0170098Y0334104D02*
X0173088Y0334104D01*
X0172078Y0332905D02*
X0171108Y0332905D01*
X0165164Y0335303D02*
X0158022Y0335303D01*
X0160098Y0334104D02*
X0163088Y0334104D01*
X0162078Y0332905D02*
X0161108Y0332905D01*
X0155164Y0335303D02*
X0148022Y0335303D01*
X0150098Y0334104D02*
X0153088Y0334104D01*
X0152078Y0332905D02*
X0151108Y0332905D01*
X0145164Y0335303D02*
X0138022Y0335303D01*
X0140098Y0334104D02*
X0143088Y0334104D01*
X0142078Y0332905D02*
X0141108Y0332905D01*
X0135164Y0335303D02*
X0128022Y0335303D01*
X0130098Y0334104D02*
X0133088Y0334104D01*
X0132078Y0332905D02*
X0131108Y0332905D01*
X0125164Y0335303D02*
X0118022Y0335303D01*
X0120098Y0334104D02*
X0123088Y0334104D01*
X0122078Y0332905D02*
X0121108Y0332905D01*
X0115164Y0335303D02*
X0108022Y0335303D01*
X0110098Y0334104D02*
X0113088Y0334104D01*
X0112078Y0332905D02*
X0111108Y0332905D01*
X0105164Y0335303D02*
X0098022Y0335303D01*
X0100098Y0334104D02*
X0103088Y0334104D01*
X0102078Y0332905D02*
X0101108Y0332905D01*
X0095164Y0335303D02*
X0088022Y0335303D01*
X0090098Y0334104D02*
X0093088Y0334104D01*
X0092078Y0332905D02*
X0091108Y0332905D01*
X0085164Y0335303D02*
X0078022Y0335303D01*
X0080098Y0334104D02*
X0083088Y0334104D01*
X0082078Y0332905D02*
X0081108Y0332905D01*
X0075164Y0335303D02*
X0068022Y0335303D01*
X0070098Y0334104D02*
X0073088Y0334104D01*
X0072078Y0332905D02*
X0071108Y0332905D01*
X0065164Y0335303D02*
X0058022Y0335303D01*
X0060098Y0334104D02*
X0063088Y0334104D01*
X0062078Y0332905D02*
X0061108Y0332905D01*
X0055164Y0335303D02*
X0048022Y0335303D01*
X0050098Y0334104D02*
X0053088Y0334104D01*
X0052078Y0332905D02*
X0051108Y0332905D01*
X0045164Y0335303D02*
X0038022Y0335303D01*
X0040098Y0334104D02*
X0043088Y0334104D01*
X0042078Y0332905D02*
X0041108Y0332905D01*
X0035164Y0335303D02*
X0021793Y0335303D01*
X0021793Y0334104D02*
X0033088Y0334104D01*
X0032078Y0332905D02*
X0021793Y0332905D01*
X0021793Y0331707D02*
X0031581Y0331707D01*
X0031424Y0330508D02*
X0021793Y0330508D01*
X0021793Y0329310D02*
X0031424Y0329310D01*
X0031905Y0328111D02*
X0021793Y0328111D01*
X0021793Y0326913D02*
X0032671Y0326913D01*
X0034157Y0325714D02*
X0021793Y0325714D01*
X0021793Y0324516D02*
X0033499Y0324516D01*
X0032301Y0323317D02*
X0021793Y0323317D01*
X0021793Y0322119D02*
X0031752Y0322119D01*
X0031424Y0320920D02*
X0021793Y0320920D01*
X0021793Y0319722D02*
X0031424Y0319722D01*
X0031734Y0318523D02*
X0021793Y0318523D01*
X0021793Y0317325D02*
X0032259Y0317325D01*
X0033457Y0316126D02*
X0021793Y0316126D01*
X0021793Y0314928D02*
X0221291Y0314928D01*
X0220697Y0314682D02*
X0222596Y0315468D01*
X0230589Y0315468D01*
X0232489Y0314682D01*
X0233943Y0313228D01*
X0234730Y0311328D01*
X0234730Y0309272D01*
X0233943Y0307372D01*
X0232489Y0305918D01*
X0230996Y0305300D01*
X0232489Y0304682D01*
X0233943Y0303228D01*
X0234730Y0301328D01*
X0234730Y0299272D01*
X0233943Y0297372D01*
X0232489Y0295918D01*
X0230996Y0295300D01*
X0232489Y0294682D01*
X0233943Y0293228D01*
X0234730Y0291328D01*
X0234730Y0289272D01*
X0233943Y0287372D01*
X0232489Y0285918D01*
X0230996Y0285300D01*
X0232489Y0284682D01*
X0233943Y0283228D01*
X0234730Y0281328D01*
X0234730Y0279272D01*
X0233943Y0277372D01*
X0232489Y0275918D01*
X0230996Y0275300D01*
X0232489Y0274682D01*
X0233943Y0273228D01*
X0234730Y0271328D01*
X0234730Y0269272D01*
X0233943Y0267372D01*
X0232489Y0265918D01*
X0230996Y0265300D01*
X0232489Y0264682D01*
X0233943Y0263228D01*
X0234730Y0261328D01*
X0234730Y0259272D01*
X0233943Y0257372D01*
X0232489Y0255918D01*
X0230996Y0255300D01*
X0232489Y0254682D01*
X0233943Y0253228D01*
X0234730Y0251328D01*
X0234730Y0249272D01*
X0233943Y0247372D01*
X0232489Y0245918D01*
X0230996Y0245300D01*
X0232489Y0244682D01*
X0233943Y0243228D01*
X0234730Y0241328D01*
X0234730Y0239272D01*
X0233943Y0237372D01*
X0232489Y0235918D01*
X0230589Y0235131D01*
X0222596Y0235131D01*
X0220697Y0235918D01*
X0219243Y0237372D01*
X0218456Y0239272D01*
X0218456Y0241328D01*
X0219243Y0243228D01*
X0220697Y0244682D01*
X0222190Y0245300D01*
X0220697Y0245918D01*
X0219243Y0247372D01*
X0218456Y0249272D01*
X0218456Y0251328D01*
X0219243Y0253228D01*
X0220697Y0254682D01*
X0222190Y0255300D01*
X0220697Y0255918D01*
X0219243Y0257372D01*
X0218456Y0259272D01*
X0218456Y0261328D01*
X0219243Y0263228D01*
X0220697Y0264682D01*
X0222190Y0265300D01*
X0220697Y0265918D01*
X0219243Y0267372D01*
X0218456Y0269272D01*
X0218456Y0271328D01*
X0219243Y0273228D01*
X0220697Y0274682D01*
X0222190Y0275300D01*
X0220697Y0275918D01*
X0219243Y0277372D01*
X0218456Y0279272D01*
X0218456Y0281328D01*
X0219243Y0283228D01*
X0220697Y0284682D01*
X0222190Y0285300D01*
X0220697Y0285918D01*
X0219243Y0287372D01*
X0218456Y0289272D01*
X0218456Y0291328D01*
X0219243Y0293228D01*
X0220697Y0294682D01*
X0222190Y0295300D01*
X0220697Y0295918D01*
X0219243Y0297372D01*
X0218456Y0299272D01*
X0218456Y0301328D01*
X0219243Y0303228D01*
X0220697Y0304682D01*
X0222190Y0305300D01*
X0220697Y0305918D01*
X0219243Y0307372D01*
X0218456Y0309272D01*
X0218456Y0311328D01*
X0219243Y0313228D01*
X0220697Y0314682D01*
X0219744Y0313729D02*
X0021793Y0313729D01*
X0021793Y0312531D02*
X0218954Y0312531D01*
X0218458Y0311332D02*
X0021793Y0311332D01*
X0021793Y0310134D02*
X0218456Y0310134D01*
X0218595Y0308935D02*
X0021793Y0308935D01*
X0021793Y0307737D02*
X0219092Y0307737D01*
X0220077Y0306538D02*
X0021793Y0306538D01*
X0021793Y0305340D02*
X0222094Y0305340D01*
X0220156Y0304141D02*
X0021793Y0304141D01*
X0021793Y0302943D02*
X0219125Y0302943D01*
X0218628Y0301744D02*
X0021793Y0301744D01*
X0021793Y0300546D02*
X0218456Y0300546D01*
X0218456Y0299347D02*
X0021793Y0299347D01*
X0021793Y0298149D02*
X0218921Y0298149D01*
X0219665Y0296950D02*
X0021793Y0296950D01*
X0021793Y0295752D02*
X0221099Y0295752D01*
X0220568Y0294553D02*
X0042618Y0294553D01*
X0042489Y0294682D02*
X0040589Y0295468D01*
X0032596Y0295468D01*
X0030697Y0294682D01*
X0029243Y0293228D01*
X0028456Y0291328D01*
X0028456Y0289272D01*
X0029243Y0287372D01*
X0030697Y0285918D01*
X0032189Y0285300D01*
X0030697Y0284682D01*
X0029243Y0283228D01*
X0028456Y0281328D01*
X0028456Y0279272D01*
X0029243Y0277372D01*
X0030697Y0275918D01*
X0032189Y0275300D01*
X0030697Y0274682D01*
X0029243Y0273228D01*
X0028456Y0271328D01*
X0028456Y0269272D01*
X0029243Y0267372D01*
X0030697Y0265918D01*
X0032189Y0265300D01*
X0030697Y0264682D01*
X0029243Y0263228D01*
X0028456Y0261328D01*
X0028456Y0259272D01*
X0029243Y0257372D01*
X0030697Y0255918D01*
X0032189Y0255300D01*
X0030697Y0254682D01*
X0029243Y0253228D01*
X0028456Y0251328D01*
X0028456Y0249272D01*
X0029243Y0247372D01*
X0030697Y0245918D01*
X0032190Y0245300D01*
X0030697Y0244682D01*
X0029243Y0243228D01*
X0028456Y0241328D01*
X0028456Y0239272D01*
X0029243Y0237372D01*
X0030697Y0235918D01*
X0032190Y0235300D01*
X0030697Y0234682D01*
X0029243Y0233228D01*
X0028456Y0231328D01*
X0028456Y0229272D01*
X0029243Y0227372D01*
X0030697Y0225918D01*
X0032189Y0225300D01*
X0030697Y0224682D01*
X0029243Y0223228D01*
X0028456Y0221328D01*
X0028456Y0219272D01*
X0029243Y0217372D01*
X0030697Y0215918D01*
X0032596Y0215131D01*
X0040589Y0215131D01*
X0042489Y0215918D01*
X0043943Y0217372D01*
X0044730Y0219272D01*
X0044730Y0221328D01*
X0043943Y0223228D01*
X0042489Y0224682D01*
X0040996Y0225300D01*
X0042489Y0225918D01*
X0043943Y0227372D01*
X0044730Y0229272D01*
X0044730Y0231328D01*
X0043943Y0233228D01*
X0042489Y0234682D01*
X0040996Y0235300D01*
X0042489Y0235918D01*
X0043943Y0237372D01*
X0044730Y0239272D01*
X0044730Y0241328D01*
X0043943Y0243228D01*
X0042489Y0244682D01*
X0040996Y0245300D01*
X0042489Y0245918D01*
X0043943Y0247372D01*
X0044730Y0249272D01*
X0044730Y0251328D01*
X0043943Y0253228D01*
X0042489Y0254682D01*
X0040996Y0255300D01*
X0042489Y0255918D01*
X0043943Y0257372D01*
X0044730Y0259272D01*
X0044730Y0261328D01*
X0043943Y0263228D01*
X0042489Y0264682D01*
X0040996Y0265300D01*
X0042489Y0265918D01*
X0043943Y0267372D01*
X0044730Y0269272D01*
X0044730Y0271328D01*
X0043943Y0273228D01*
X0042489Y0274682D01*
X0040996Y0275300D01*
X0042489Y0275918D01*
X0043943Y0277372D01*
X0044730Y0279272D01*
X0044730Y0281328D01*
X0043943Y0283228D01*
X0042489Y0284682D01*
X0040996Y0285300D01*
X0042489Y0285918D01*
X0043943Y0287372D01*
X0044730Y0289272D01*
X0044730Y0291328D01*
X0043943Y0293228D01*
X0042489Y0294682D01*
X0043816Y0293355D02*
X0219370Y0293355D01*
X0218799Y0292156D02*
X0044387Y0292156D01*
X0044730Y0290958D02*
X0218456Y0290958D01*
X0218456Y0289759D02*
X0044730Y0289759D01*
X0044435Y0288561D02*
X0218750Y0288561D01*
X0219253Y0287362D02*
X0043933Y0287362D01*
X0042734Y0286164D02*
X0220451Y0286164D01*
X0221381Y0284965D02*
X0041805Y0284965D01*
X0043404Y0283767D02*
X0219782Y0283767D01*
X0218969Y0282568D02*
X0044216Y0282568D01*
X0044713Y0281370D02*
X0218473Y0281370D01*
X0218456Y0280171D02*
X0044730Y0280171D01*
X0044606Y0278972D02*
X0218580Y0278972D01*
X0219076Y0277774D02*
X0044109Y0277774D01*
X0043146Y0276575D02*
X0220040Y0276575D01*
X0222004Y0275377D02*
X0041182Y0275377D01*
X0042992Y0274178D02*
X0220193Y0274178D01*
X0219140Y0272980D02*
X0044046Y0272980D01*
X0044542Y0271781D02*
X0218644Y0271781D01*
X0218456Y0270583D02*
X0044730Y0270583D01*
X0044730Y0269384D02*
X0218456Y0269384D01*
X0218906Y0268186D02*
X0044280Y0268186D01*
X0043558Y0266987D02*
X0219628Y0266987D01*
X0221009Y0265789D02*
X0042176Y0265789D01*
X0042580Y0264590D02*
X0220605Y0264590D01*
X0219407Y0263392D02*
X0043779Y0263392D01*
X0044371Y0262193D02*
X0218814Y0262193D01*
X0218456Y0260995D02*
X0044730Y0260995D01*
X0044730Y0259796D02*
X0218456Y0259796D01*
X0218735Y0258598D02*
X0044451Y0258598D01*
X0043954Y0257399D02*
X0219232Y0257399D01*
X0220414Y0256201D02*
X0042772Y0256201D01*
X0041715Y0255002D02*
X0221471Y0255002D01*
X0219819Y0253804D02*
X0043367Y0253804D01*
X0044201Y0252605D02*
X0218985Y0252605D01*
X0218488Y0251407D02*
X0044697Y0251407D01*
X0044730Y0250208D02*
X0218456Y0250208D01*
X0218564Y0249010D02*
X0044621Y0249010D01*
X0044125Y0247811D02*
X0164901Y0247811D01*
X0163034Y0246613D02*
X0043183Y0246613D01*
X0041272Y0245414D02*
X0162139Y0245414D01*
X0161643Y0244216D02*
X0042955Y0244216D01*
X0044030Y0243017D02*
X0161593Y0243017D01*
X0161593Y0241819D02*
X0044527Y0241819D01*
X0044730Y0240620D02*
X0161593Y0240620D01*
X0161593Y0239422D02*
X0044730Y0239422D01*
X0044295Y0238223D02*
X0161593Y0238223D01*
X0161593Y0237025D02*
X0043595Y0237025D01*
X0042266Y0235826D02*
X0161874Y0235826D01*
X0162394Y0234628D02*
X0042543Y0234628D01*
X0043742Y0233429D02*
X0163593Y0233429D01*
X0169593Y0233429D02*
X0173593Y0233429D01*
X0172394Y0234628D02*
X0170791Y0234628D01*
X0171311Y0235826D02*
X0171874Y0235826D01*
X0171593Y0237025D02*
X0171593Y0237025D01*
X0171593Y0238223D02*
X0171593Y0238223D01*
X0171593Y0239422D02*
X0171593Y0239422D01*
X0171593Y0240620D02*
X0171593Y0240620D01*
X0171593Y0241819D02*
X0171593Y0241819D01*
X0171593Y0243017D02*
X0171593Y0243017D01*
X0171543Y0244216D02*
X0171643Y0244216D01*
X0172139Y0245414D02*
X0171046Y0245414D01*
X0170151Y0246613D02*
X0173034Y0246613D01*
X0174901Y0247811D02*
X0168285Y0247811D01*
X0178285Y0247811D02*
X0184901Y0247811D01*
X0183034Y0246613D02*
X0180151Y0246613D01*
X0181046Y0245414D02*
X0182139Y0245414D01*
X0181643Y0244216D02*
X0181543Y0244216D01*
X0181593Y0243017D02*
X0181593Y0243017D01*
X0181593Y0241819D02*
X0181593Y0241819D01*
X0181593Y0240620D02*
X0181593Y0240620D01*
X0181593Y0239422D02*
X0181593Y0239422D01*
X0181593Y0238223D02*
X0181593Y0238223D01*
X0181593Y0237025D02*
X0181593Y0237025D01*
X0181311Y0235826D02*
X0181874Y0235826D01*
X0182394Y0234628D02*
X0180791Y0234628D01*
X0179593Y0233429D02*
X0183593Y0233429D01*
X0189593Y0233429D02*
X0193593Y0233429D01*
X0192394Y0234628D02*
X0190791Y0234628D01*
X0191311Y0235826D02*
X0191874Y0235826D01*
X0191593Y0237025D02*
X0191593Y0237025D01*
X0191593Y0238223D02*
X0191593Y0238223D01*
X0191593Y0239422D02*
X0191593Y0239422D01*
X0191593Y0240620D02*
X0191593Y0240620D01*
X0191593Y0241819D02*
X0191593Y0241819D01*
X0191593Y0243017D02*
X0191593Y0243017D01*
X0191543Y0244216D02*
X0191643Y0244216D01*
X0192139Y0245414D02*
X0191046Y0245414D01*
X0190151Y0246613D02*
X0193034Y0246613D01*
X0194901Y0247811D02*
X0188285Y0247811D01*
X0198285Y0247811D02*
X0219061Y0247811D01*
X0220002Y0246613D02*
X0200151Y0246613D01*
X0201046Y0245414D02*
X0221914Y0245414D01*
X0220231Y0244216D02*
X0201543Y0244216D01*
X0201593Y0243017D02*
X0219155Y0243017D01*
X0218659Y0241819D02*
X0201593Y0241819D01*
X0201593Y0240620D02*
X0218456Y0240620D01*
X0218456Y0239422D02*
X0201593Y0239422D01*
X0201593Y0238223D02*
X0218890Y0238223D01*
X0219590Y0237025D02*
X0201593Y0237025D01*
X0201311Y0235826D02*
X0220919Y0235826D01*
X0216019Y0229834D02*
X0240094Y0229834D01*
X0240094Y0231032D02*
X0214821Y0231032D01*
X0213622Y0232231D02*
X0240094Y0232231D01*
X0240094Y0233429D02*
X0199593Y0233429D01*
X0200791Y0234628D02*
X0240094Y0234628D01*
X0240094Y0235826D02*
X0232266Y0235826D01*
X0233595Y0237025D02*
X0240094Y0237025D01*
X0240094Y0238223D02*
X0234295Y0238223D01*
X0234730Y0239422D02*
X0240094Y0239422D01*
X0240094Y0240620D02*
X0234730Y0240620D01*
X0234527Y0241819D02*
X0240094Y0241819D01*
X0240094Y0243017D02*
X0234030Y0243017D01*
X0232955Y0244216D02*
X0240094Y0244216D01*
X0240094Y0245414D02*
X0231272Y0245414D01*
X0233183Y0246613D02*
X0240094Y0246613D01*
X0240094Y0247811D02*
X0234125Y0247811D01*
X0234621Y0249010D02*
X0240094Y0249010D01*
X0240094Y0250208D02*
X0234730Y0250208D01*
X0234697Y0251407D02*
X0240094Y0251407D01*
X0240094Y0252605D02*
X0234201Y0252605D01*
X0233367Y0253804D02*
X0240094Y0253804D01*
X0240094Y0255002D02*
X0231715Y0255002D01*
X0232772Y0256201D02*
X0240094Y0256201D01*
X0240094Y0257399D02*
X0233954Y0257399D01*
X0234451Y0258598D02*
X0240094Y0258598D01*
X0240094Y0259796D02*
X0234730Y0259796D01*
X0234730Y0260995D02*
X0240094Y0260995D01*
X0240094Y0262193D02*
X0234371Y0262193D01*
X0233779Y0263392D02*
X0240094Y0263392D01*
X0240094Y0264590D02*
X0232580Y0264590D01*
X0232176Y0265789D02*
X0240094Y0265789D01*
X0240094Y0266987D02*
X0233558Y0266987D01*
X0234280Y0268186D02*
X0240094Y0268186D01*
X0240094Y0269384D02*
X0234730Y0269384D01*
X0234730Y0270583D02*
X0240094Y0270583D01*
X0240094Y0271781D02*
X0234542Y0271781D01*
X0234046Y0272980D02*
X0240094Y0272980D01*
X0240094Y0274178D02*
X0232992Y0274178D01*
X0231182Y0275377D02*
X0240094Y0275377D01*
X0240094Y0276575D02*
X0233146Y0276575D01*
X0234109Y0277774D02*
X0240094Y0277774D01*
X0240094Y0278972D02*
X0234606Y0278972D01*
X0234730Y0280171D02*
X0240094Y0280171D01*
X0240094Y0281370D02*
X0234713Y0281370D01*
X0234216Y0282568D02*
X0240094Y0282568D01*
X0240094Y0283767D02*
X0233404Y0283767D01*
X0231805Y0284965D02*
X0240094Y0284965D01*
X0240094Y0286164D02*
X0232734Y0286164D01*
X0233933Y0287362D02*
X0240094Y0287362D01*
X0240094Y0288561D02*
X0234435Y0288561D01*
X0234730Y0289759D02*
X0240094Y0289759D01*
X0240094Y0290958D02*
X0234730Y0290958D01*
X0234387Y0292156D02*
X0240094Y0292156D01*
X0240094Y0293355D02*
X0233816Y0293355D01*
X0232618Y0294553D02*
X0240094Y0294553D01*
X0240094Y0295752D02*
X0232087Y0295752D01*
X0233521Y0296950D02*
X0240094Y0296950D01*
X0240094Y0298149D02*
X0234265Y0298149D01*
X0234730Y0299347D02*
X0240094Y0299347D01*
X0240094Y0300546D02*
X0234730Y0300546D01*
X0234558Y0301744D02*
X0240094Y0301744D01*
X0240094Y0302943D02*
X0234061Y0302943D01*
X0233029Y0304141D02*
X0240094Y0304141D01*
X0240094Y0305340D02*
X0231092Y0305340D01*
X0233109Y0306538D02*
X0240094Y0306538D01*
X0240094Y0307737D02*
X0234094Y0307737D01*
X0234590Y0308935D02*
X0240094Y0308935D01*
X0240094Y0310134D02*
X0234730Y0310134D01*
X0234728Y0311332D02*
X0240094Y0311332D01*
X0240094Y0312531D02*
X0234232Y0312531D01*
X0233441Y0313729D02*
X0240094Y0313729D01*
X0240094Y0314928D02*
X0231895Y0314928D01*
X0240094Y0316126D02*
X0209729Y0316126D01*
X0210927Y0317325D02*
X0240094Y0317325D01*
X0240094Y0318523D02*
X0211451Y0318523D01*
X0211761Y0319722D02*
X0240094Y0319722D01*
X0240094Y0320920D02*
X0211761Y0320920D01*
X0211434Y0322119D02*
X0240094Y0322119D01*
X0240094Y0323317D02*
X0210885Y0323317D01*
X0209686Y0324516D02*
X0240094Y0324516D01*
X0240094Y0325714D02*
X0209028Y0325714D01*
X0210515Y0326913D02*
X0240094Y0326913D01*
X0240094Y0328111D02*
X0211281Y0328111D01*
X0211761Y0329310D02*
X0240094Y0329310D01*
X0240094Y0330508D02*
X0211761Y0330508D01*
X0211604Y0331707D02*
X0240094Y0331707D01*
X0240094Y0332905D02*
X0211108Y0332905D01*
X0210098Y0334104D02*
X0240094Y0334104D01*
X0203457Y0316126D02*
X0199729Y0316126D01*
X0200927Y0317325D02*
X0202259Y0317325D01*
X0201734Y0318523D02*
X0201451Y0318523D01*
X0193457Y0316126D02*
X0189729Y0316126D01*
X0190927Y0317325D02*
X0192259Y0317325D01*
X0191734Y0318523D02*
X0191451Y0318523D01*
X0183457Y0316126D02*
X0179729Y0316126D01*
X0180927Y0317325D02*
X0182259Y0317325D01*
X0181734Y0318523D02*
X0181451Y0318523D01*
X0173457Y0316126D02*
X0169729Y0316126D01*
X0170927Y0317325D02*
X0172259Y0317325D01*
X0171734Y0318523D02*
X0171451Y0318523D01*
X0163457Y0316126D02*
X0159729Y0316126D01*
X0160927Y0317325D02*
X0162259Y0317325D01*
X0161734Y0318523D02*
X0161451Y0318523D01*
X0153457Y0316126D02*
X0149729Y0316126D01*
X0150927Y0317325D02*
X0152259Y0317325D01*
X0151734Y0318523D02*
X0151451Y0318523D01*
X0143457Y0316126D02*
X0139729Y0316126D01*
X0140927Y0317325D02*
X0142259Y0317325D01*
X0141734Y0318523D02*
X0141451Y0318523D01*
X0133457Y0316126D02*
X0129729Y0316126D01*
X0130927Y0317325D02*
X0132259Y0317325D01*
X0131734Y0318523D02*
X0131451Y0318523D01*
X0123457Y0316126D02*
X0119729Y0316126D01*
X0120927Y0317325D02*
X0122259Y0317325D01*
X0121734Y0318523D02*
X0121451Y0318523D01*
X0113457Y0316126D02*
X0109729Y0316126D01*
X0110927Y0317325D02*
X0112259Y0317325D01*
X0111734Y0318523D02*
X0111451Y0318523D01*
X0103457Y0316126D02*
X0099729Y0316126D01*
X0100927Y0317325D02*
X0102259Y0317325D01*
X0101734Y0318523D02*
X0101451Y0318523D01*
X0093457Y0316126D02*
X0089729Y0316126D01*
X0090927Y0317325D02*
X0092259Y0317325D01*
X0091734Y0318523D02*
X0091451Y0318523D01*
X0083457Y0316126D02*
X0079729Y0316126D01*
X0080927Y0317325D02*
X0082259Y0317325D01*
X0081734Y0318523D02*
X0081451Y0318523D01*
X0073457Y0316126D02*
X0069729Y0316126D01*
X0070927Y0317325D02*
X0072259Y0317325D01*
X0071734Y0318523D02*
X0071451Y0318523D01*
X0063457Y0316126D02*
X0059729Y0316126D01*
X0060927Y0317325D02*
X0062259Y0317325D01*
X0061734Y0318523D02*
X0061451Y0318523D01*
X0053457Y0316126D02*
X0049729Y0316126D01*
X0050927Y0317325D02*
X0052259Y0317325D01*
X0051734Y0318523D02*
X0051451Y0318523D01*
X0043457Y0316126D02*
X0039729Y0316126D01*
X0040927Y0317325D02*
X0042259Y0317325D01*
X0041734Y0318523D02*
X0041451Y0318523D01*
X0030568Y0294553D02*
X0021793Y0294553D01*
X0021793Y0293355D02*
X0029370Y0293355D01*
X0028799Y0292156D02*
X0021793Y0292156D01*
X0021793Y0290958D02*
X0028456Y0290958D01*
X0028456Y0289759D02*
X0021793Y0289759D01*
X0021793Y0288561D02*
X0028750Y0288561D01*
X0029253Y0287362D02*
X0021793Y0287362D01*
X0021793Y0286164D02*
X0030451Y0286164D01*
X0031381Y0284965D02*
X0021793Y0284965D01*
X0021793Y0283767D02*
X0029782Y0283767D01*
X0028969Y0282568D02*
X0021793Y0282568D01*
X0021793Y0281370D02*
X0028473Y0281370D01*
X0028456Y0280171D02*
X0021793Y0280171D01*
X0021793Y0278972D02*
X0028580Y0278972D01*
X0029076Y0277774D02*
X0021793Y0277774D01*
X0021793Y0276575D02*
X0030040Y0276575D01*
X0032004Y0275377D02*
X0021793Y0275377D01*
X0021793Y0274178D02*
X0030193Y0274178D01*
X0029140Y0272980D02*
X0021793Y0272980D01*
X0021793Y0271781D02*
X0028644Y0271781D01*
X0028456Y0270583D02*
X0021793Y0270583D01*
X0021793Y0269384D02*
X0028456Y0269384D01*
X0028906Y0268186D02*
X0021793Y0268186D01*
X0021793Y0266987D02*
X0029628Y0266987D01*
X0031009Y0265789D02*
X0021793Y0265789D01*
X0021793Y0264590D02*
X0030605Y0264590D01*
X0029407Y0263392D02*
X0021793Y0263392D01*
X0021793Y0262193D02*
X0028814Y0262193D01*
X0028456Y0260995D02*
X0021793Y0260995D01*
X0021793Y0259796D02*
X0028456Y0259796D01*
X0028735Y0258598D02*
X0021793Y0258598D01*
X0021793Y0257399D02*
X0029232Y0257399D01*
X0030414Y0256201D02*
X0021793Y0256201D01*
X0021793Y0255002D02*
X0031471Y0255002D01*
X0029819Y0253804D02*
X0021793Y0253804D01*
X0021793Y0252605D02*
X0028985Y0252605D01*
X0028488Y0251407D02*
X0021793Y0251407D01*
X0021793Y0250208D02*
X0028456Y0250208D01*
X0028564Y0249010D02*
X0021793Y0249010D01*
X0021793Y0247811D02*
X0029061Y0247811D01*
X0030002Y0246613D02*
X0021793Y0246613D01*
X0021793Y0245414D02*
X0031914Y0245414D01*
X0030231Y0244216D02*
X0021793Y0244216D01*
X0021793Y0243017D02*
X0029155Y0243017D01*
X0028659Y0241819D02*
X0021793Y0241819D01*
X0021793Y0240620D02*
X0028456Y0240620D01*
X0028456Y0239422D02*
X0021793Y0239422D01*
X0021793Y0238223D02*
X0028890Y0238223D01*
X0029590Y0237025D02*
X0021793Y0237025D01*
X0021793Y0235826D02*
X0030919Y0235826D01*
X0030643Y0234628D02*
X0021793Y0234628D01*
X0021793Y0233429D02*
X0029444Y0233429D01*
X0028830Y0232231D02*
X0021793Y0232231D01*
X0021793Y0231032D02*
X0028456Y0231032D01*
X0028456Y0229834D02*
X0021793Y0229834D01*
X0021793Y0228635D02*
X0028720Y0228635D01*
X0029216Y0227437D02*
X0021793Y0227437D01*
X0021793Y0226238D02*
X0030377Y0226238D01*
X0031561Y0225039D02*
X0021793Y0225039D01*
X0021793Y0223841D02*
X0029856Y0223841D01*
X0029000Y0222642D02*
X0021793Y0222642D01*
X0021793Y0221444D02*
X0028504Y0221444D01*
X0028456Y0220245D02*
X0021793Y0220245D01*
X0021793Y0219047D02*
X0028549Y0219047D01*
X0029045Y0217848D02*
X0021793Y0217848D01*
X0021793Y0216650D02*
X0029965Y0216650D01*
X0031824Y0215451D02*
X0021793Y0215451D01*
X0021793Y0214253D02*
X0055731Y0214253D01*
X0055731Y0213054D02*
X0021793Y0213054D01*
X0021793Y0211856D02*
X0055731Y0211856D01*
X0055731Y0210657D02*
X0021793Y0210657D01*
X0021793Y0209459D02*
X0055731Y0209459D01*
X0055731Y0208260D02*
X0021793Y0208260D01*
X0021793Y0207062D02*
X0055731Y0207062D01*
X0055731Y0205863D02*
X0021793Y0205863D01*
X0021793Y0204665D02*
X0030680Y0204665D01*
X0029481Y0203466D02*
X0021793Y0203466D01*
X0021793Y0202268D02*
X0028845Y0202268D01*
X0028456Y0201069D02*
X0021793Y0201069D01*
X0021793Y0199871D02*
X0028456Y0199871D01*
X0028704Y0198672D02*
X0021793Y0198672D01*
X0021793Y0197474D02*
X0029201Y0197474D01*
X0030340Y0196275D02*
X0021793Y0196275D01*
X0021793Y0195077D02*
X0031650Y0195077D01*
X0029893Y0193878D02*
X0021793Y0193878D01*
X0021793Y0192680D02*
X0029016Y0192680D01*
X0028519Y0191481D02*
X0021793Y0191481D01*
X0021793Y0190283D02*
X0028456Y0190283D01*
X0028534Y0189084D02*
X0021793Y0189084D01*
X0021793Y0187886D02*
X0029030Y0187886D01*
X0029928Y0186687D02*
X0021793Y0186687D01*
X0021793Y0185489D02*
X0031734Y0185489D01*
X0030305Y0184290D02*
X0021793Y0184290D01*
X0021793Y0183092D02*
X0029186Y0183092D01*
X0028690Y0181893D02*
X0021793Y0181893D01*
X0021793Y0180695D02*
X0028456Y0180695D01*
X0028456Y0179496D02*
X0021793Y0179496D01*
X0021793Y0178298D02*
X0028859Y0178298D01*
X0029516Y0177099D02*
X0021793Y0177099D01*
X0021793Y0175901D02*
X0030740Y0175901D01*
X0030746Y0174702D02*
X0021793Y0174702D01*
X0021793Y0173503D02*
X0029518Y0173503D01*
X0028861Y0172305D02*
X0021793Y0172305D01*
X0021793Y0171106D02*
X0028456Y0171106D01*
X0028456Y0169908D02*
X0021793Y0169908D01*
X0021793Y0168709D02*
X0028689Y0168709D01*
X0029185Y0167511D02*
X0021793Y0167511D01*
X0021793Y0166312D02*
X0030303Y0166312D01*
X0031740Y0165114D02*
X0021793Y0165114D01*
X0021793Y0163915D02*
X0029930Y0163915D01*
X0029031Y0162717D02*
X0021793Y0162717D01*
X0021793Y0161518D02*
X0028535Y0161518D01*
X0028456Y0160320D02*
X0021793Y0160320D01*
X0021793Y0159121D02*
X0028518Y0159121D01*
X0029015Y0157923D02*
X0021793Y0157923D01*
X0021793Y0156724D02*
X0029891Y0156724D01*
X0031644Y0155526D02*
X0021793Y0155526D01*
X0021793Y0154327D02*
X0030342Y0154327D01*
X0029202Y0153129D02*
X0021793Y0153129D01*
X0021793Y0151930D02*
X0028705Y0151930D01*
X0028456Y0150732D02*
X0021793Y0150732D01*
X0021793Y0149533D02*
X0028456Y0149533D01*
X0028844Y0148335D02*
X0021793Y0148335D01*
X0021793Y0147136D02*
X0029479Y0147136D01*
X0030677Y0145938D02*
X0021793Y0145938D01*
X0021793Y0144739D02*
X0030836Y0144739D01*
X0029556Y0143541D02*
X0021793Y0143541D01*
X0021793Y0142342D02*
X0028876Y0142342D01*
X0028456Y0141144D02*
X0021793Y0141144D01*
X0021793Y0139945D02*
X0028456Y0139945D01*
X0028673Y0138747D02*
X0021793Y0138747D01*
X0021793Y0137548D02*
X0029170Y0137548D01*
X0030265Y0136350D02*
X0021793Y0136350D01*
X0021793Y0135151D02*
X0031830Y0135151D01*
X0029968Y0133953D02*
X0021793Y0133953D01*
X0021793Y0132754D02*
X0029047Y0132754D01*
X0028550Y0131556D02*
X0021793Y0131556D01*
X0021793Y0130357D02*
X0028456Y0130357D01*
X0028503Y0129159D02*
X0021793Y0129159D01*
X0021793Y0127960D02*
X0028999Y0127960D01*
X0029853Y0126762D02*
X0021793Y0126762D01*
X0021793Y0125563D02*
X0030947Y0125563D01*
X0029198Y0124365D02*
X0021793Y0124365D01*
X0021793Y0123166D02*
X0027999Y0123166D01*
X0026801Y0121968D02*
X0021793Y0121968D01*
X0021793Y0120769D02*
X0025602Y0120769D01*
X0024404Y0119570D02*
X0021793Y0119570D01*
X0021793Y0118372D02*
X0023799Y0118372D01*
X0023793Y0117173D02*
X0021793Y0117173D01*
X0021793Y0115975D02*
X0023793Y0115975D01*
X0023793Y0114776D02*
X0021793Y0114776D01*
X0021793Y0113578D02*
X0023793Y0113578D01*
X0023793Y0112379D02*
X0021793Y0112379D01*
X0021793Y0111181D02*
X0023793Y0111181D01*
X0023793Y0109982D02*
X0021793Y0109982D01*
X0021793Y0108784D02*
X0023793Y0108784D01*
X0023793Y0107585D02*
X0021793Y0107585D01*
X0021793Y0106387D02*
X0023793Y0106387D01*
X0023793Y0105188D02*
X0021793Y0105188D01*
X0021793Y0103990D02*
X0023793Y0103990D01*
X0023793Y0102791D02*
X0021793Y0102791D01*
X0021793Y0101593D02*
X0023793Y0101593D01*
X0023793Y0100394D02*
X0021793Y0100394D01*
X0021793Y0099196D02*
X0023793Y0099196D01*
X0023793Y0097997D02*
X0021793Y0097997D01*
X0021793Y0096799D02*
X0023793Y0096799D01*
X0023793Y0095600D02*
X0021793Y0095600D01*
X0021793Y0094402D02*
X0023793Y0094402D01*
X0023793Y0093203D02*
X0021793Y0093203D01*
X0021793Y0092005D02*
X0023793Y0092005D01*
X0023793Y0090806D02*
X0021793Y0090806D01*
X0021793Y0089608D02*
X0023793Y0089608D01*
X0023793Y0088409D02*
X0021793Y0088409D01*
X0021793Y0087211D02*
X0023793Y0087211D01*
X0023793Y0086012D02*
X0021793Y0086012D01*
X0021793Y0084814D02*
X0023793Y0084814D01*
X0023793Y0083615D02*
X0021793Y0083615D01*
X0021793Y0082417D02*
X0023793Y0082417D01*
X0023793Y0081218D02*
X0021793Y0081218D01*
X0021793Y0080020D02*
X0023793Y0080020D01*
X0024175Y0078821D02*
X0021793Y0078821D01*
X0021793Y0077623D02*
X0025310Y0077623D01*
X0026509Y0076424D02*
X0021793Y0076424D01*
X0021793Y0075226D02*
X0027707Y0075226D01*
X0028557Y0074027D02*
X0021793Y0074027D01*
X0021793Y0072829D02*
X0029054Y0072829D01*
X0029985Y0071630D02*
X0021793Y0071630D01*
X0021793Y0070432D02*
X0031872Y0070432D01*
X0030248Y0069233D02*
X0021793Y0069233D01*
X0021793Y0068034D02*
X0029163Y0068034D01*
X0028666Y0066836D02*
X0021793Y0066836D01*
X0021793Y0065637D02*
X0028456Y0065637D01*
X0028456Y0064439D02*
X0021793Y0064439D01*
X0021793Y0063240D02*
X0028883Y0063240D01*
X0029573Y0062042D02*
X0021793Y0062042D01*
X0021793Y0060843D02*
X0030878Y0060843D01*
X0030660Y0059645D02*
X0021793Y0059645D01*
X0021793Y0058446D02*
X0029461Y0058446D01*
X0028837Y0057248D02*
X0021793Y0057248D01*
X0021793Y0056049D02*
X0028456Y0056049D01*
X0028456Y0054851D02*
X0021793Y0054851D01*
X0021793Y0053652D02*
X0028712Y0053652D01*
X0029209Y0052454D02*
X0021793Y0052454D01*
X0021793Y0051255D02*
X0030360Y0051255D01*
X0031602Y0050057D02*
X0021793Y0050057D01*
X0021793Y0048858D02*
X0029873Y0048858D01*
X0029007Y0047660D02*
X0021793Y0047660D01*
X0021793Y0046461D02*
X0028511Y0046461D01*
X0028456Y0045263D02*
X0021793Y0045263D01*
X0021793Y0044064D02*
X0028542Y0044064D01*
X0029038Y0042866D02*
X0021793Y0042866D01*
X0021793Y0041667D02*
X0029948Y0041667D01*
X0031782Y0040469D02*
X0021793Y0040469D01*
X0021793Y0039270D02*
X0030285Y0039270D01*
X0029178Y0038072D02*
X0021793Y0038072D01*
X0021793Y0036873D02*
X0028682Y0036873D01*
X0028456Y0035675D02*
X0021793Y0035675D01*
X0021793Y0034476D02*
X0028456Y0034476D01*
X0028868Y0033278D02*
X0021793Y0033278D01*
X0021793Y0032079D02*
X0029536Y0032079D01*
X0030788Y0030881D02*
X0021793Y0030881D01*
X0021793Y0029682D02*
X0030698Y0029682D01*
X0029499Y0028484D02*
X0021793Y0028484D01*
X0021793Y0027285D02*
X0028852Y0027285D01*
X0028456Y0026087D02*
X0021793Y0026087D01*
X0021793Y0024888D02*
X0028456Y0024888D01*
X0028697Y0023690D02*
X0021793Y0023690D01*
X0021793Y0022491D02*
X0029194Y0022491D01*
X0030322Y0021293D02*
X0021793Y0021293D01*
X0042863Y0021293D02*
X0203174Y0021293D01*
X0201975Y0022491D02*
X0043992Y0022491D01*
X0044489Y0023690D02*
X0201213Y0023690D01*
X0200717Y0024888D02*
X0044730Y0024888D01*
X0044730Y0026087D02*
X0200593Y0026087D01*
X0200593Y0027285D02*
X0044333Y0027285D01*
X0043687Y0028484D02*
X0200593Y0028484D01*
X0200593Y0029682D02*
X0042488Y0029682D01*
X0042398Y0030881D02*
X0200593Y0030881D01*
X0200593Y0032079D02*
X0043650Y0032079D01*
X0044318Y0033278D02*
X0054655Y0033278D01*
X0053457Y0034476D02*
X0044730Y0034476D01*
X0044730Y0035675D02*
X0052258Y0035675D01*
X0051060Y0036873D02*
X0044504Y0036873D01*
X0044008Y0038072D02*
X0049861Y0038072D01*
X0048663Y0039270D02*
X0042900Y0039270D01*
X0041404Y0040469D02*
X0047464Y0040469D01*
X0046266Y0041667D02*
X0043238Y0041667D01*
X0044147Y0042866D02*
X0045067Y0042866D01*
X0046593Y0045300D02*
X0056593Y0035300D01*
X0106593Y0035300D01*
X0116593Y0045300D01*
X0116593Y0080300D01*
X0111593Y0085300D01*
X0096593Y0085300D01*
X0091593Y0090300D01*
X0096481Y0092005D02*
X0097343Y0092005D01*
X0097048Y0090806D02*
X0096761Y0090806D01*
X0096761Y0089608D02*
X0097077Y0089608D01*
X0098055Y0093203D02*
X0095985Y0093203D01*
X0094800Y0094402D02*
X0099580Y0094402D01*
X0101209Y0094402D02*
X0101977Y0094402D01*
X0101977Y0093203D02*
X0101209Y0093203D01*
X0101209Y0092005D02*
X0101977Y0092005D01*
X0101977Y0090806D02*
X0101209Y0090806D01*
X0101209Y0095735D02*
X0101209Y0099916D01*
X0101977Y0099916D01*
X0101977Y0100684D01*
X0112094Y0100684D01*
X0111986Y0101370D01*
X0111764Y0102054D01*
X0111437Y0102694D01*
X0111015Y0103276D01*
X0110506Y0103785D01*
X0109924Y0104207D01*
X0109284Y0104534D01*
X0108600Y0104756D01*
X0107889Y0104868D01*
X0101977Y0104868D01*
X0101977Y0100684D01*
X0101209Y0100684D01*
X0101209Y0104865D01*
X0100523Y0104756D01*
X0099839Y0104534D01*
X0099198Y0104207D01*
X0098617Y0103785D01*
X0098108Y0103276D01*
X0097686Y0102694D01*
X0097359Y0102054D01*
X0097137Y0101370D01*
X0097028Y0100684D01*
X0101209Y0100684D01*
X0101209Y0099916D01*
X0097028Y0099916D01*
X0097137Y0099230D01*
X0097359Y0098546D01*
X0097686Y0097906D01*
X0098108Y0097324D01*
X0098617Y0096815D01*
X0099198Y0096393D01*
X0099839Y0096066D01*
X0100523Y0095844D01*
X0101209Y0095735D01*
X0101977Y0095731D02*
X0101977Y0099916D01*
X0112094Y0099916D01*
X0111986Y0099230D01*
X0111764Y0098546D01*
X0111437Y0097906D01*
X0111015Y0097324D01*
X0110506Y0096815D01*
X0109924Y0096393D01*
X0109284Y0096066D01*
X0108600Y0095844D01*
X0107889Y0095731D01*
X0101977Y0095731D01*
X0101977Y0096799D02*
X0101209Y0096799D01*
X0101209Y0097997D02*
X0101977Y0097997D01*
X0101977Y0099196D02*
X0101209Y0099196D01*
X0101209Y0100394D02*
X0096761Y0100394D01*
X0096730Y0099196D02*
X0097148Y0099196D01*
X0097639Y0097997D02*
X0096233Y0097997D01*
X0095401Y0096799D02*
X0098639Y0096799D01*
X0097209Y0101593D02*
X0096652Y0101593D01*
X0096155Y0102791D02*
X0097756Y0102791D01*
X0098899Y0103990D02*
X0095212Y0103990D01*
X0093297Y0105188D02*
X0192745Y0105188D01*
X0193943Y0103990D02*
X0110224Y0103990D01*
X0111367Y0102791D02*
X0195142Y0102791D01*
X0196340Y0101593D02*
X0111913Y0101593D01*
X0111975Y0099196D02*
X0198737Y0099196D01*
X0197539Y0100394D02*
X0101977Y0100394D01*
X0101977Y0101593D02*
X0101209Y0101593D01*
X0101209Y0102791D02*
X0101977Y0102791D01*
X0101977Y0103990D02*
X0101209Y0103990D01*
X0101209Y0105735D02*
X0101209Y0109916D01*
X0101977Y0109916D01*
X0101977Y0110684D01*
X0112094Y0110684D01*
X0111986Y0111370D01*
X0111764Y0112054D01*
X0111437Y0112694D01*
X0111015Y0113276D01*
X0110506Y0113785D01*
X0109924Y0114207D01*
X0109284Y0114534D01*
X0108600Y0114756D01*
X0107889Y0114868D01*
X0101977Y0114868D01*
X0101977Y0110684D01*
X0101209Y0110684D01*
X0101209Y0114865D01*
X0100523Y0114756D01*
X0099839Y0114534D01*
X0099198Y0114207D01*
X0098617Y0113785D01*
X0098108Y0113276D01*
X0097686Y0112694D01*
X0097359Y0112054D01*
X0097137Y0111370D01*
X0097028Y0110684D01*
X0101209Y0110684D01*
X0101209Y0109916D01*
X0097028Y0109916D01*
X0097137Y0109230D01*
X0097359Y0108546D01*
X0097686Y0107906D01*
X0098108Y0107324D01*
X0098617Y0106815D01*
X0099198Y0106393D01*
X0099839Y0106066D01*
X0100523Y0105844D01*
X0101209Y0105735D01*
X0101209Y0106387D02*
X0101977Y0106387D01*
X0101977Y0105731D02*
X0107889Y0105731D01*
X0108600Y0105844D01*
X0109284Y0106066D01*
X0109924Y0106393D01*
X0110506Y0106815D01*
X0111015Y0107324D01*
X0111437Y0107906D01*
X0111764Y0108546D01*
X0111986Y0109230D01*
X0112094Y0109916D01*
X0101977Y0109916D01*
X0101977Y0105731D01*
X0101977Y0107585D02*
X0101209Y0107585D01*
X0101209Y0108784D02*
X0101977Y0108784D01*
X0101977Y0109982D02*
X0188793Y0109982D01*
X0188793Y0111181D02*
X0112016Y0111181D01*
X0111598Y0112379D02*
X0188793Y0112379D01*
X0188793Y0113578D02*
X0110713Y0113578D01*
X0108471Y0114776D02*
X0188793Y0114776D01*
X0188793Y0115975D02*
X0109003Y0115975D01*
X0110864Y0117173D02*
X0188793Y0117173D01*
X0188793Y0118372D02*
X0111675Y0118372D01*
X0112040Y0119570D02*
X0188793Y0119570D01*
X0188793Y0120769D02*
X0112081Y0120769D01*
X0111792Y0121968D02*
X0188793Y0121968D01*
X0188793Y0123166D02*
X0158419Y0123166D01*
X0159617Y0124365D02*
X0188793Y0124365D01*
X0188793Y0125563D02*
X0160816Y0125563D01*
X0162014Y0126762D02*
X0188793Y0126762D01*
X0188793Y0127960D02*
X0163213Y0127960D01*
X0164411Y0129159D02*
X0188793Y0129159D01*
X0188793Y0130357D02*
X0165610Y0130357D01*
X0166808Y0131556D02*
X0188793Y0131556D01*
X0188793Y0132754D02*
X0168007Y0132754D01*
X0169065Y0133953D02*
X0188793Y0133953D01*
X0188793Y0135151D02*
X0169393Y0135151D01*
X0169393Y0136350D02*
X0188793Y0136350D01*
X0188793Y0137548D02*
X0169393Y0137548D01*
X0169393Y0138747D02*
X0188793Y0138747D01*
X0188793Y0139945D02*
X0169393Y0139945D01*
X0169393Y0141144D02*
X0188793Y0141144D01*
X0188793Y0142342D02*
X0169393Y0142342D01*
X0169393Y0143541D02*
X0188793Y0143541D01*
X0188793Y0144739D02*
X0169393Y0144739D01*
X0169393Y0145938D02*
X0188793Y0145938D01*
X0188793Y0147136D02*
X0169393Y0147136D01*
X0169393Y0148335D02*
X0188793Y0148335D01*
X0188793Y0149533D02*
X0169393Y0149533D01*
X0169393Y0150732D02*
X0188793Y0150732D01*
X0188793Y0151930D02*
X0169393Y0151930D01*
X0169393Y0153129D02*
X0188793Y0153129D01*
X0188793Y0154327D02*
X0169393Y0154327D01*
X0169393Y0155526D02*
X0188793Y0155526D01*
X0188793Y0156724D02*
X0169393Y0156724D01*
X0169393Y0157923D02*
X0188793Y0157923D01*
X0188793Y0159121D02*
X0169393Y0159121D01*
X0169393Y0160320D02*
X0188793Y0160320D01*
X0188793Y0161518D02*
X0169393Y0161518D01*
X0169140Y0162717D02*
X0188793Y0162717D01*
X0188793Y0163915D02*
X0168187Y0163915D01*
X0166989Y0165114D02*
X0188793Y0165114D01*
X0188793Y0166312D02*
X0165790Y0166312D01*
X0164592Y0167511D02*
X0188793Y0167511D01*
X0188793Y0168709D02*
X0164497Y0168709D01*
X0164730Y0169908D02*
X0188793Y0169908D01*
X0188793Y0171106D02*
X0164730Y0171106D01*
X0164325Y0172305D02*
X0188793Y0172305D01*
X0188793Y0173503D02*
X0163667Y0173503D01*
X0162440Y0174702D02*
X0188793Y0174702D01*
X0188793Y0175901D02*
X0162446Y0175901D01*
X0163670Y0177099D02*
X0188793Y0177099D01*
X0188793Y0178298D02*
X0164326Y0178298D01*
X0164730Y0179496D02*
X0188437Y0179496D01*
X0187238Y0180695D02*
X0164730Y0180695D01*
X0164496Y0181893D02*
X0186040Y0181893D01*
X0184841Y0183092D02*
X0163999Y0183092D01*
X0162881Y0184290D02*
X0183643Y0184290D01*
X0182444Y0185489D02*
X0161452Y0185489D01*
X0163258Y0186687D02*
X0181246Y0186687D01*
X0180047Y0187886D02*
X0164156Y0187886D01*
X0164652Y0189084D02*
X0178849Y0189084D01*
X0177650Y0190283D02*
X0164730Y0190283D01*
X0164666Y0191481D02*
X0176452Y0191481D01*
X0175253Y0192680D02*
X0164170Y0192680D01*
X0163293Y0193878D02*
X0174055Y0193878D01*
X0172856Y0195077D02*
X0161535Y0195077D01*
X0162846Y0196275D02*
X0171658Y0196275D01*
X0170459Y0197474D02*
X0163985Y0197474D01*
X0164481Y0198672D02*
X0169261Y0198672D01*
X0168062Y0199871D02*
X0164730Y0199871D01*
X0164730Y0201069D02*
X0166864Y0201069D01*
X0165665Y0202268D02*
X0164341Y0202268D01*
X0164467Y0203466D02*
X0163704Y0203466D01*
X0163268Y0204665D02*
X0162506Y0204665D01*
X0166593Y0205300D02*
X0161593Y0210300D01*
X0166593Y0205300D02*
X0211593Y0205300D01*
X0216593Y0210300D01*
X0216593Y0225300D01*
X0211593Y0230300D01*
X0151593Y0230300D01*
X0141593Y0220300D01*
X0066593Y0220300D01*
X0061081Y0214788D01*
X0061081Y0210300D01*
X0061081Y0170300D01*
X0061081Y0180300D01*
X0061081Y0190300D01*
X0066431Y0190283D02*
X0066755Y0190283D01*
X0066755Y0191481D02*
X0066431Y0191481D01*
X0066431Y0192680D02*
X0066755Y0192680D01*
X0066755Y0193878D02*
X0066431Y0193878D01*
X0066431Y0195077D02*
X0066755Y0195077D01*
X0066755Y0195148D02*
X0066755Y0185452D01*
X0066907Y0185300D01*
X0066755Y0185148D01*
X0066755Y0175452D01*
X0066907Y0175300D01*
X0066755Y0175148D01*
X0066755Y0165452D01*
X0068044Y0164163D01*
X0076166Y0164163D01*
X0077454Y0165452D01*
X0077454Y0167500D01*
X0081221Y0167500D01*
X0081274Y0167372D01*
X0082728Y0165918D01*
X0084221Y0165300D01*
X0082728Y0164682D01*
X0081274Y0163228D01*
X0081221Y0163100D01*
X0057841Y0163100D01*
X0058904Y0164163D01*
X0065142Y0164163D01*
X0066431Y0165452D01*
X0066431Y0175148D01*
X0066279Y0175300D01*
X0066431Y0175452D01*
X0066431Y0185148D01*
X0066279Y0185300D01*
X0066431Y0185452D01*
X0066431Y0195148D01*
X0065142Y0196437D01*
X0063881Y0196437D01*
X0063881Y0204163D01*
X0065142Y0204163D01*
X0066431Y0205452D01*
X0066431Y0215148D01*
X0065916Y0215663D01*
X0067753Y0217500D01*
X0142150Y0217500D01*
X0143179Y0217926D01*
X0152753Y0227500D01*
X0210433Y0227500D01*
X0213793Y0224140D01*
X0213793Y0223378D01*
X0212489Y0224682D01*
X0210589Y0225468D01*
X0202596Y0225468D01*
X0200697Y0224682D01*
X0199243Y0223228D01*
X0198456Y0221328D01*
X0198456Y0219272D01*
X0198941Y0218100D01*
X0163568Y0218100D01*
X0163795Y0218546D01*
X0164017Y0219230D01*
X0164126Y0219916D01*
X0156977Y0219916D01*
X0156977Y0220684D01*
X0164126Y0220684D01*
X0164017Y0221370D01*
X0163795Y0222054D01*
X0163469Y0222694D01*
X0163046Y0223276D01*
X0162538Y0223785D01*
X0161956Y0224207D01*
X0161315Y0224534D01*
X0160631Y0224756D01*
X0159921Y0224868D01*
X0156977Y0224868D01*
X0156977Y0220684D01*
X0156209Y0220684D01*
X0156209Y0224868D01*
X0153265Y0224868D01*
X0152555Y0224756D01*
X0151871Y0224534D01*
X0151230Y0224207D01*
X0150648Y0223785D01*
X0150140Y0223276D01*
X0149717Y0222694D01*
X0149391Y0222054D01*
X0149168Y0221370D01*
X0149060Y0220684D01*
X0156209Y0220684D01*
X0156209Y0219916D01*
X0149060Y0219916D01*
X0149168Y0219230D01*
X0149391Y0218546D01*
X0149717Y0217906D01*
X0149937Y0217603D01*
X0145007Y0212674D01*
X0144219Y0211886D01*
X0143793Y0210857D01*
X0143793Y0169743D01*
X0144219Y0168714D01*
X0149219Y0163714D01*
X0149937Y0162997D01*
X0149717Y0162694D01*
X0149391Y0162054D01*
X0149168Y0161370D01*
X0149060Y0160684D01*
X0156209Y0160684D01*
X0156209Y0159916D01*
X0156977Y0159916D01*
X0156977Y0155731D01*
X0159921Y0155731D01*
X0160631Y0155844D01*
X0161315Y0156066D01*
X0161956Y0156393D01*
X0162538Y0156815D01*
X0163046Y0157324D01*
X0163469Y0157906D01*
X0163793Y0158542D01*
X0163793Y0153378D01*
X0162489Y0154682D01*
X0160589Y0155468D01*
X0152596Y0155468D01*
X0150697Y0154682D01*
X0149243Y0153228D01*
X0148456Y0151328D01*
X0148456Y0149272D01*
X0149243Y0147372D01*
X0150697Y0145918D01*
X0152596Y0145131D01*
X0160589Y0145131D01*
X0162489Y0145918D01*
X0163793Y0147222D01*
X0163793Y0136460D01*
X0155433Y0128100D01*
X0111536Y0128100D01*
X0111764Y0128546D01*
X0111986Y0129230D01*
X0112094Y0129916D01*
X0101977Y0129916D01*
X0101977Y0130684D01*
X0112094Y0130684D01*
X0111986Y0131370D01*
X0111764Y0132054D01*
X0111437Y0132694D01*
X0111015Y0133276D01*
X0110506Y0133785D01*
X0109924Y0134207D01*
X0109284Y0134534D01*
X0108600Y0134756D01*
X0107889Y0134868D01*
X0101977Y0134868D01*
X0101977Y0130684D01*
X0101209Y0130684D01*
X0101209Y0134865D01*
X0100523Y0134756D01*
X0099839Y0134534D01*
X0099198Y0134207D01*
X0098617Y0133785D01*
X0098108Y0133276D01*
X0097686Y0132694D01*
X0097359Y0132054D01*
X0097137Y0131370D01*
X0097028Y0130684D01*
X0101209Y0130684D01*
X0101209Y0129916D01*
X0097028Y0129916D01*
X0097137Y0129230D01*
X0097359Y0128546D01*
X0097414Y0128439D01*
X0096708Y0129144D01*
X0096761Y0129272D01*
X0096761Y0131328D01*
X0095974Y0133228D01*
X0094521Y0134682D01*
X0093028Y0135300D01*
X0094521Y0135918D01*
X0095974Y0137372D01*
X0096761Y0139272D01*
X0096761Y0141328D01*
X0095974Y0143228D01*
X0094521Y0144682D01*
X0093028Y0145300D01*
X0094521Y0145918D01*
X0095974Y0147372D01*
X0096761Y0149272D01*
X0096761Y0151328D01*
X0095974Y0153228D01*
X0094521Y0154682D01*
X0093028Y0155300D01*
X0094521Y0155918D01*
X0095974Y0157372D01*
X0096761Y0159272D01*
X0096761Y0161328D01*
X0095974Y0163228D01*
X0094521Y0164682D01*
X0093028Y0165300D01*
X0094521Y0165918D01*
X0095974Y0167372D01*
X0096761Y0169272D01*
X0096761Y0171328D01*
X0095974Y0173228D01*
X0094521Y0174682D01*
X0093028Y0175300D01*
X0094521Y0175918D01*
X0095974Y0177372D01*
X0096761Y0179272D01*
X0096761Y0181328D01*
X0095974Y0183228D01*
X0094521Y0184682D01*
X0093028Y0185300D01*
X0094521Y0185918D01*
X0095974Y0187372D01*
X0096761Y0189272D01*
X0096761Y0191328D01*
X0095974Y0193228D01*
X0094521Y0194682D01*
X0093028Y0195300D01*
X0094521Y0195918D01*
X0095974Y0197372D01*
X0096761Y0199272D01*
X0096761Y0201328D01*
X0095974Y0203228D01*
X0094521Y0204682D01*
X0093028Y0205300D01*
X0094521Y0205918D01*
X0095974Y0207372D01*
X0096761Y0209272D01*
X0096761Y0211328D01*
X0095974Y0213228D01*
X0094521Y0214682D01*
X0092621Y0215468D01*
X0084628Y0215468D01*
X0082728Y0214682D01*
X0081274Y0213228D01*
X0081221Y0213100D01*
X0077454Y0213100D01*
X0077454Y0215148D01*
X0076166Y0216437D01*
X0068044Y0216437D01*
X0066755Y0215148D01*
X0066755Y0205452D01*
X0068044Y0204163D01*
X0076166Y0204163D01*
X0077454Y0205452D01*
X0077454Y0207500D01*
X0081221Y0207500D01*
X0081274Y0207372D01*
X0082728Y0205918D01*
X0084221Y0205300D01*
X0082728Y0204682D01*
X0081274Y0203228D01*
X0080487Y0201328D01*
X0080487Y0199272D01*
X0081274Y0197372D01*
X0082728Y0195918D01*
X0084221Y0195300D01*
X0082728Y0194682D01*
X0081274Y0193228D01*
X0081221Y0193100D01*
X0077454Y0193100D01*
X0077454Y0195148D01*
X0076166Y0196437D01*
X0068044Y0196437D01*
X0066755Y0195148D01*
X0067882Y0196275D02*
X0065304Y0196275D01*
X0063881Y0197474D02*
X0081232Y0197474D01*
X0080736Y0198672D02*
X0063881Y0198672D01*
X0063881Y0199871D02*
X0080487Y0199871D01*
X0080487Y0201069D02*
X0063881Y0201069D01*
X0063881Y0202268D02*
X0080877Y0202268D01*
X0081513Y0203466D02*
X0063881Y0203466D01*
X0065644Y0204665D02*
X0067542Y0204665D01*
X0066755Y0205863D02*
X0066431Y0205863D01*
X0066431Y0207062D02*
X0066755Y0207062D01*
X0066755Y0208260D02*
X0066431Y0208260D01*
X0066431Y0209459D02*
X0066755Y0209459D01*
X0066755Y0210657D02*
X0066431Y0210657D01*
X0066431Y0211856D02*
X0066755Y0211856D01*
X0066755Y0213054D02*
X0066431Y0213054D01*
X0066431Y0214253D02*
X0066755Y0214253D01*
X0067058Y0215451D02*
X0066128Y0215451D01*
X0066903Y0216650D02*
X0148983Y0216650D01*
X0149759Y0217848D02*
X0142991Y0217848D01*
X0144300Y0219047D02*
X0149228Y0219047D01*
X0149192Y0221444D02*
X0146697Y0221444D01*
X0147895Y0222642D02*
X0149691Y0222642D01*
X0149094Y0223841D02*
X0150726Y0223841D01*
X0150292Y0225039D02*
X0201561Y0225039D01*
X0199856Y0223841D02*
X0162460Y0223841D01*
X0163495Y0222642D02*
X0199000Y0222642D01*
X0198504Y0221444D02*
X0163993Y0221444D01*
X0163958Y0219047D02*
X0198549Y0219047D01*
X0198456Y0220245D02*
X0156977Y0220245D01*
X0156209Y0220245D02*
X0145498Y0220245D01*
X0142373Y0225039D02*
X0041625Y0225039D01*
X0042809Y0226238D02*
X0143571Y0226238D01*
X0144770Y0227437D02*
X0043970Y0227437D01*
X0044466Y0228635D02*
X0145968Y0228635D01*
X0147167Y0229834D02*
X0044730Y0229834D01*
X0044730Y0231032D02*
X0148365Y0231032D01*
X0149564Y0232231D02*
X0044356Y0232231D01*
X0043330Y0223841D02*
X0141174Y0223841D01*
X0147784Y0215451D02*
X0092662Y0215451D01*
X0094949Y0214253D02*
X0099288Y0214253D01*
X0099198Y0214207D02*
X0098617Y0213785D01*
X0098108Y0213276D01*
X0097686Y0212694D01*
X0097359Y0212054D01*
X0097137Y0211370D01*
X0097028Y0210684D01*
X0101209Y0210684D01*
X0101209Y0214865D01*
X0100523Y0214756D01*
X0099839Y0214534D01*
X0099198Y0214207D01*
X0097947Y0213054D02*
X0096046Y0213054D01*
X0096543Y0211856D02*
X0097295Y0211856D01*
X0096761Y0210657D02*
X0101209Y0210657D01*
X0101209Y0210684D02*
X0101209Y0209916D01*
X0101977Y0209916D01*
X0101977Y0210684D01*
X0112094Y0210684D01*
X0111986Y0211370D01*
X0111764Y0212054D01*
X0111437Y0212694D01*
X0111015Y0213276D01*
X0110506Y0213785D01*
X0109924Y0214207D01*
X0109284Y0214534D01*
X0108600Y0214756D01*
X0107889Y0214868D01*
X0101977Y0214868D01*
X0101977Y0210684D01*
X0101209Y0210684D01*
X0101209Y0209916D02*
X0097028Y0209916D01*
X0097137Y0209230D01*
X0097359Y0208546D01*
X0097686Y0207906D01*
X0098108Y0207324D01*
X0098617Y0206815D01*
X0099198Y0206393D01*
X0099839Y0206066D01*
X0100523Y0205844D01*
X0101209Y0205735D01*
X0101209Y0209916D01*
X0101209Y0209459D02*
X0101977Y0209459D01*
X0101977Y0209916D02*
X0101977Y0205731D01*
X0107889Y0205731D01*
X0108600Y0205844D01*
X0109284Y0206066D01*
X0109924Y0206393D01*
X0110506Y0206815D01*
X0111015Y0207324D01*
X0111437Y0207906D01*
X0111764Y0208546D01*
X0111986Y0209230D01*
X0112094Y0209916D01*
X0101977Y0209916D01*
X0101977Y0210657D02*
X0143793Y0210657D01*
X0143793Y0209459D02*
X0112022Y0209459D01*
X0111618Y0208260D02*
X0143793Y0208260D01*
X0143793Y0207062D02*
X0110753Y0207062D01*
X0108659Y0205863D02*
X0143793Y0205863D01*
X0143793Y0204665D02*
X0108880Y0204665D01*
X0108600Y0204756D02*
X0107889Y0204868D01*
X0101977Y0204868D01*
X0101977Y0200684D01*
X0112094Y0200684D01*
X0111986Y0201370D01*
X0111764Y0202054D01*
X0111437Y0202694D01*
X0111015Y0203276D01*
X0110506Y0203785D01*
X0109924Y0204207D01*
X0109284Y0204534D01*
X0108600Y0204756D01*
X0110824Y0203466D02*
X0143793Y0203466D01*
X0143793Y0202268D02*
X0111655Y0202268D01*
X0112033Y0201069D02*
X0143793Y0201069D01*
X0143793Y0199871D02*
X0112087Y0199871D01*
X0112094Y0199916D02*
X0101977Y0199916D01*
X0101977Y0200684D01*
X0101209Y0200684D01*
X0101209Y0204865D01*
X0100523Y0204756D01*
X0099839Y0204534D01*
X0099198Y0204207D01*
X0098617Y0203785D01*
X0098108Y0203276D01*
X0097686Y0202694D01*
X0097359Y0202054D01*
X0097137Y0201370D01*
X0097028Y0200684D01*
X0101209Y0200684D01*
X0101209Y0199916D01*
X0101977Y0199916D01*
X0101977Y0195731D01*
X0107889Y0195731D01*
X0108600Y0195844D01*
X0109284Y0196066D01*
X0109924Y0196393D01*
X0110506Y0196815D01*
X0111015Y0197324D01*
X0111437Y0197906D01*
X0111764Y0198546D01*
X0111986Y0199230D01*
X0112094Y0199916D01*
X0111805Y0198672D02*
X0143793Y0198672D01*
X0143793Y0197474D02*
X0111123Y0197474D01*
X0109694Y0196275D02*
X0143793Y0196275D01*
X0143793Y0195077D02*
X0093567Y0195077D01*
X0094877Y0196275D02*
X0099429Y0196275D01*
X0099198Y0196393D02*
X0099839Y0196066D01*
X0100523Y0195844D01*
X0101209Y0195735D01*
X0101209Y0199916D01*
X0097028Y0199916D01*
X0097137Y0199230D01*
X0097359Y0198546D01*
X0097686Y0197906D01*
X0098108Y0197324D01*
X0098617Y0196815D01*
X0099198Y0196393D01*
X0097999Y0197474D02*
X0096017Y0197474D01*
X0096513Y0198672D02*
X0097318Y0198672D01*
X0097035Y0199871D02*
X0096761Y0199871D01*
X0096761Y0201069D02*
X0097089Y0201069D01*
X0097468Y0202268D02*
X0096372Y0202268D01*
X0095736Y0203466D02*
X0098298Y0203466D01*
X0100242Y0204665D02*
X0094537Y0204665D01*
X0094388Y0205863D02*
X0100464Y0205863D01*
X0101209Y0205863D02*
X0101977Y0205863D01*
X0101977Y0204665D02*
X0101209Y0204665D01*
X0101209Y0203466D02*
X0101977Y0203466D01*
X0101977Y0202268D02*
X0101209Y0202268D01*
X0101209Y0201069D02*
X0101977Y0201069D01*
X0101977Y0199871D02*
X0101209Y0199871D01*
X0101209Y0198672D02*
X0101977Y0198672D01*
X0101977Y0197474D02*
X0101209Y0197474D01*
X0101209Y0196275D02*
X0101977Y0196275D01*
X0101977Y0194868D02*
X0101977Y0190684D01*
X0112094Y0190684D01*
X0111986Y0191370D01*
X0111764Y0192054D01*
X0111437Y0192694D01*
X0111015Y0193276D01*
X0110506Y0193785D01*
X0109924Y0194207D01*
X0109284Y0194534D01*
X0108600Y0194756D01*
X0107889Y0194868D01*
X0101977Y0194868D01*
X0101209Y0194865D02*
X0100523Y0194756D01*
X0099839Y0194534D01*
X0099198Y0194207D01*
X0098617Y0193785D01*
X0098108Y0193276D01*
X0097686Y0192694D01*
X0097359Y0192054D01*
X0097137Y0191370D01*
X0097028Y0190684D01*
X0101209Y0190684D01*
X0101209Y0194865D01*
X0101209Y0193878D02*
X0101977Y0193878D01*
X0101977Y0192680D02*
X0101209Y0192680D01*
X0101209Y0191481D02*
X0101977Y0191481D01*
X0101977Y0190684D02*
X0101209Y0190684D01*
X0101209Y0189916D01*
X0101977Y0189916D01*
X0101977Y0190684D01*
X0101977Y0190283D02*
X0143793Y0190283D01*
X0143793Y0191481D02*
X0111950Y0191481D01*
X0111445Y0192680D02*
X0143793Y0192680D01*
X0143793Y0193878D02*
X0110377Y0193878D01*
X0112094Y0189916D02*
X0101977Y0189916D01*
X0101977Y0185731D01*
X0107889Y0185731D01*
X0108600Y0185844D01*
X0109284Y0186066D01*
X0109924Y0186393D01*
X0110506Y0186815D01*
X0111015Y0187324D01*
X0111437Y0187906D01*
X0111764Y0188546D01*
X0111986Y0189230D01*
X0112094Y0189916D01*
X0111938Y0189084D02*
X0143793Y0189084D01*
X0143793Y0187886D02*
X0111423Y0187886D01*
X0110330Y0186687D02*
X0143793Y0186687D01*
X0143793Y0185489D02*
X0093483Y0185489D01*
X0094912Y0184290D02*
X0099361Y0184290D01*
X0099198Y0184207D02*
X0098617Y0183785D01*
X0098108Y0183276D01*
X0097686Y0182694D01*
X0097359Y0182054D01*
X0097137Y0181370D01*
X0097028Y0180684D01*
X0101209Y0180684D01*
X0101209Y0184865D01*
X0100523Y0184756D01*
X0099839Y0184534D01*
X0099198Y0184207D01*
X0097974Y0183092D02*
X0096031Y0183092D01*
X0096527Y0181893D02*
X0097307Y0181893D01*
X0097030Y0180695D02*
X0096761Y0180695D01*
X0097028Y0179916D02*
X0097137Y0179230D01*
X0097359Y0178546D01*
X0097686Y0177906D01*
X0098108Y0177324D01*
X0098617Y0176815D01*
X0099198Y0176393D01*
X0099839Y0176066D01*
X0100523Y0175844D01*
X0101209Y0175735D01*
X0101209Y0179916D01*
X0101977Y0179916D01*
X0101977Y0180684D01*
X0112094Y0180684D01*
X0111986Y0181370D01*
X0111764Y0182054D01*
X0111437Y0182694D01*
X0111015Y0183276D01*
X0110506Y0183785D01*
X0109924Y0184207D01*
X0109284Y0184534D01*
X0108600Y0184756D01*
X0107889Y0184868D01*
X0101977Y0184868D01*
X0101977Y0180684D01*
X0101209Y0180684D01*
X0101209Y0179916D01*
X0097028Y0179916D01*
X0097095Y0179496D02*
X0096761Y0179496D01*
X0096358Y0178298D02*
X0097486Y0178298D01*
X0098333Y0177099D02*
X0095701Y0177099D01*
X0094478Y0175901D02*
X0100349Y0175901D01*
X0101209Y0175901D02*
X0101977Y0175901D01*
X0101977Y0175731D02*
X0107889Y0175731D01*
X0108600Y0175844D01*
X0109284Y0176066D01*
X0109924Y0176393D01*
X0110506Y0176815D01*
X0111015Y0177324D01*
X0111437Y0177906D01*
X0111764Y0178546D01*
X0111986Y0179230D01*
X0112094Y0179916D01*
X0101977Y0179916D01*
X0101977Y0175731D01*
X0101977Y0174868D02*
X0101977Y0170684D01*
X0112094Y0170684D01*
X0111986Y0171370D01*
X0111764Y0172054D01*
X0111437Y0172694D01*
X0111015Y0173276D01*
X0110506Y0173785D01*
X0109924Y0174207D01*
X0109284Y0174534D01*
X0108600Y0174756D01*
X0107889Y0174868D01*
X0101977Y0174868D01*
X0101977Y0174702D02*
X0101209Y0174702D01*
X0101209Y0174865D02*
X0100523Y0174756D01*
X0099839Y0174534D01*
X0099198Y0174207D01*
X0098617Y0173785D01*
X0098108Y0173276D01*
X0097686Y0172694D01*
X0097359Y0172054D01*
X0097137Y0171370D01*
X0097028Y0170684D01*
X0101209Y0170684D01*
X0101209Y0174865D01*
X0100357Y0174702D02*
X0094471Y0174702D01*
X0095699Y0173503D02*
X0098336Y0173503D01*
X0097487Y0172305D02*
X0096357Y0172305D01*
X0096761Y0171106D02*
X0097095Y0171106D01*
X0097028Y0169916D02*
X0097137Y0169230D01*
X0097359Y0168546D01*
X0097686Y0167906D01*
X0098108Y0167324D01*
X0098617Y0166815D01*
X0099198Y0166393D01*
X0099839Y0166066D01*
X0100523Y0165844D01*
X0101209Y0165735D01*
X0101209Y0169916D01*
X0101977Y0169916D01*
X0101977Y0170684D01*
X0101209Y0170684D01*
X0101209Y0169916D01*
X0097028Y0169916D01*
X0097029Y0169908D02*
X0096761Y0169908D01*
X0096528Y0168709D02*
X0097306Y0168709D01*
X0097972Y0167511D02*
X0096032Y0167511D01*
X0094915Y0166312D02*
X0099356Y0166312D01*
X0099839Y0164534D02*
X0099198Y0164207D01*
X0098617Y0163785D01*
X0098108Y0163276D01*
X0097686Y0162694D01*
X0097359Y0162054D01*
X0097137Y0161370D01*
X0097028Y0160684D01*
X0101209Y0160684D01*
X0101209Y0164865D01*
X0100523Y0164756D01*
X0099839Y0164534D01*
X0098797Y0163915D02*
X0095287Y0163915D01*
X0096186Y0162717D02*
X0097702Y0162717D01*
X0097185Y0161518D02*
X0096683Y0161518D01*
X0096761Y0160320D02*
X0101209Y0160320D01*
X0101209Y0160684D02*
X0101209Y0159916D01*
X0101977Y0159916D01*
X0101977Y0160684D01*
X0112094Y0160684D01*
X0111986Y0161370D01*
X0111764Y0162054D01*
X0111437Y0162694D01*
X0111015Y0163276D01*
X0110506Y0163785D01*
X0109924Y0164207D01*
X0109284Y0164534D01*
X0108600Y0164756D01*
X0107889Y0164868D01*
X0101977Y0164868D01*
X0101977Y0160684D01*
X0101209Y0160684D01*
X0101593Y0160300D02*
X0156593Y0160300D01*
X0156209Y0160320D02*
X0101977Y0160320D01*
X0101977Y0159916D02*
X0112094Y0159916D01*
X0111986Y0159230D01*
X0111764Y0158546D01*
X0111437Y0157906D01*
X0111015Y0157324D01*
X0110506Y0156815D01*
X0109924Y0156393D01*
X0109284Y0156066D01*
X0108600Y0155844D01*
X0107889Y0155731D01*
X0101977Y0155731D01*
X0101977Y0159916D01*
X0101209Y0159916D02*
X0101209Y0155735D01*
X0100523Y0155844D01*
X0099839Y0156066D01*
X0099198Y0156393D01*
X0098617Y0156815D01*
X0098108Y0157324D01*
X0097686Y0157906D01*
X0097359Y0158546D01*
X0097137Y0159230D01*
X0097028Y0159916D01*
X0101209Y0159916D01*
X0101209Y0159121D02*
X0101977Y0159121D01*
X0101977Y0157923D02*
X0101209Y0157923D01*
X0101209Y0156724D02*
X0101977Y0156724D01*
X0101977Y0154868D02*
X0101977Y0150684D01*
X0112094Y0150684D01*
X0111986Y0151370D01*
X0111764Y0152054D01*
X0111437Y0152694D01*
X0111015Y0153276D01*
X0110506Y0153785D01*
X0109924Y0154207D01*
X0109284Y0154534D01*
X0108600Y0154756D01*
X0107889Y0154868D01*
X0101977Y0154868D01*
X0101977Y0154327D02*
X0101209Y0154327D01*
X0101209Y0154865D02*
X0100523Y0154756D01*
X0099839Y0154534D01*
X0099198Y0154207D01*
X0098617Y0153785D01*
X0098108Y0153276D01*
X0097686Y0152694D01*
X0097359Y0152054D01*
X0097137Y0151370D01*
X0097028Y0150684D01*
X0101209Y0150684D01*
X0101209Y0154865D01*
X0101209Y0153129D02*
X0101977Y0153129D01*
X0101977Y0151930D02*
X0101209Y0151930D01*
X0101209Y0150732D02*
X0101977Y0150732D01*
X0101977Y0150684D02*
X0101209Y0150684D01*
X0101209Y0149916D01*
X0101977Y0149916D01*
X0101977Y0150684D01*
X0101977Y0149916D02*
X0112094Y0149916D01*
X0111986Y0149230D01*
X0111764Y0148546D01*
X0111437Y0147906D01*
X0111015Y0147324D01*
X0110506Y0146815D01*
X0109924Y0146393D01*
X0109284Y0146066D01*
X0108600Y0145844D01*
X0107889Y0145731D01*
X0101977Y0145731D01*
X0101977Y0149916D01*
X0101977Y0149533D02*
X0101209Y0149533D01*
X0101209Y0149916D02*
X0101209Y0145735D01*
X0100523Y0145844D01*
X0099839Y0146066D01*
X0099198Y0146393D01*
X0098617Y0146815D01*
X0098108Y0147324D01*
X0097686Y0147906D01*
X0097359Y0148546D01*
X0097137Y0149230D01*
X0097028Y0149916D01*
X0101209Y0149916D01*
X0101209Y0148335D02*
X0101977Y0148335D01*
X0101977Y0147136D02*
X0101209Y0147136D01*
X0101209Y0145938D02*
X0101977Y0145938D01*
X0101977Y0144868D02*
X0101977Y0140684D01*
X0112094Y0140684D01*
X0111986Y0141370D01*
X0111764Y0142054D01*
X0111437Y0142694D01*
X0111015Y0143276D01*
X0110506Y0143785D01*
X0109924Y0144207D01*
X0109284Y0144534D01*
X0108600Y0144756D01*
X0107889Y0144868D01*
X0101977Y0144868D01*
X0101977Y0144739D02*
X0101209Y0144739D01*
X0101209Y0144865D02*
X0100523Y0144756D01*
X0099839Y0144534D01*
X0099198Y0144207D01*
X0098617Y0143785D01*
X0098108Y0143276D01*
X0097686Y0142694D01*
X0097359Y0142054D01*
X0097137Y0141370D01*
X0097028Y0140684D01*
X0101209Y0140684D01*
X0101209Y0144865D01*
X0100471Y0144739D02*
X0094382Y0144739D01*
X0094540Y0145938D02*
X0100235Y0145938D01*
X0098296Y0147136D02*
X0095738Y0147136D01*
X0096373Y0148335D02*
X0097467Y0148335D01*
X0097089Y0149533D02*
X0096761Y0149533D01*
X0096761Y0150732D02*
X0097036Y0150732D01*
X0097319Y0151930D02*
X0096512Y0151930D01*
X0096015Y0153129D02*
X0098001Y0153129D01*
X0099434Y0154327D02*
X0094875Y0154327D01*
X0093573Y0155526D02*
X0163793Y0155526D01*
X0163793Y0156724D02*
X0162412Y0156724D01*
X0163477Y0157923D02*
X0163793Y0157923D01*
X0163793Y0154327D02*
X0162843Y0154327D01*
X0163707Y0147136D02*
X0163793Y0147136D01*
X0163793Y0145938D02*
X0162508Y0145938D01*
X0163793Y0144739D02*
X0108651Y0144739D01*
X0108888Y0145938D02*
X0150677Y0145938D01*
X0149479Y0147136D02*
X0110827Y0147136D01*
X0111656Y0148335D02*
X0148844Y0148335D01*
X0148456Y0149533D02*
X0112034Y0149533D01*
X0112087Y0150732D02*
X0148456Y0150732D01*
X0148705Y0151930D02*
X0111804Y0151930D01*
X0111122Y0153129D02*
X0149202Y0153129D01*
X0150342Y0154327D02*
X0109689Y0154327D01*
X0110381Y0156724D02*
X0150773Y0156724D01*
X0150648Y0156815D02*
X0151230Y0156393D01*
X0151871Y0156066D01*
X0152555Y0155844D01*
X0153265Y0155731D01*
X0156209Y0155731D01*
X0156209Y0159916D01*
X0149060Y0159916D01*
X0149168Y0159230D01*
X0149391Y0158546D01*
X0149717Y0157906D01*
X0150140Y0157324D01*
X0150648Y0156815D01*
X0149708Y0157923D02*
X0111446Y0157923D01*
X0111951Y0159121D02*
X0149204Y0159121D01*
X0149217Y0161518D02*
X0111938Y0161518D01*
X0111421Y0162717D02*
X0149733Y0162717D01*
X0149018Y0163915D02*
X0110326Y0163915D01*
X0109284Y0166066D02*
X0109924Y0166393D01*
X0110506Y0166815D01*
X0111015Y0167324D01*
X0111437Y0167906D01*
X0111764Y0168546D01*
X0111986Y0169230D01*
X0112094Y0169916D01*
X0101977Y0169916D01*
X0101977Y0165731D01*
X0107889Y0165731D01*
X0108600Y0165844D01*
X0109284Y0166066D01*
X0109767Y0166312D02*
X0146621Y0166312D01*
X0147819Y0165114D02*
X0093477Y0165114D01*
X0091593Y0160300D02*
X0051593Y0160300D01*
X0041593Y0150300D01*
X0036593Y0150300D01*
X0041541Y0155526D02*
X0042859Y0155526D01*
X0043295Y0156724D02*
X0044057Y0156724D01*
X0044171Y0157923D02*
X0045256Y0157923D01*
X0044667Y0159121D02*
X0046454Y0159121D01*
X0047653Y0160320D02*
X0044730Y0160320D01*
X0044651Y0161518D02*
X0048301Y0161518D01*
X0047412Y0162717D02*
X0044155Y0162717D01*
X0043255Y0163915D02*
X0047412Y0163915D01*
X0047412Y0165114D02*
X0041445Y0165114D01*
X0042883Y0166312D02*
X0047412Y0166312D01*
X0047412Y0167511D02*
X0044000Y0167511D01*
X0044497Y0168709D02*
X0047929Y0168709D01*
X0044730Y0169908D02*
X0055731Y0169908D01*
X0055731Y0171106D02*
X0044730Y0171106D01*
X0044325Y0172305D02*
X0055731Y0172305D01*
X0055731Y0173503D02*
X0043667Y0173503D01*
X0042440Y0174702D02*
X0055731Y0174702D01*
X0055731Y0175901D02*
X0042446Y0175901D01*
X0043670Y0177099D02*
X0055731Y0177099D01*
X0055731Y0178298D02*
X0044326Y0178298D01*
X0044730Y0179496D02*
X0055731Y0179496D01*
X0055731Y0180695D02*
X0044730Y0180695D01*
X0044496Y0181893D02*
X0055731Y0181893D01*
X0055731Y0183092D02*
X0043999Y0183092D01*
X0042881Y0184290D02*
X0055731Y0184290D01*
X0055731Y0185489D02*
X0041452Y0185489D01*
X0043258Y0186687D02*
X0055731Y0186687D01*
X0055731Y0187886D02*
X0044156Y0187886D01*
X0044652Y0189084D02*
X0055731Y0189084D01*
X0055731Y0190283D02*
X0044730Y0190283D01*
X0044666Y0191481D02*
X0055731Y0191481D01*
X0055731Y0192680D02*
X0044170Y0192680D01*
X0043293Y0193878D02*
X0055731Y0193878D01*
X0055731Y0195077D02*
X0041535Y0195077D01*
X0042846Y0196275D02*
X0056858Y0196275D01*
X0058281Y0197474D02*
X0043985Y0197474D01*
X0044481Y0198672D02*
X0058281Y0198672D01*
X0058281Y0199871D02*
X0044730Y0199871D01*
X0044730Y0201069D02*
X0058281Y0201069D01*
X0058281Y0202268D02*
X0044341Y0202268D01*
X0043704Y0203466D02*
X0058281Y0203466D01*
X0056518Y0204665D02*
X0042506Y0204665D01*
X0041362Y0215451D02*
X0056035Y0215451D01*
X0058983Y0216650D02*
X0043221Y0216650D01*
X0044140Y0217848D02*
X0060181Y0217848D01*
X0061380Y0219047D02*
X0044637Y0219047D01*
X0044730Y0220245D02*
X0062579Y0220245D01*
X0063777Y0221444D02*
X0044682Y0221444D01*
X0044185Y0222642D02*
X0064976Y0222642D01*
X0072105Y0210300D02*
X0091593Y0210300D01*
X0096342Y0208260D02*
X0097505Y0208260D01*
X0097101Y0209459D02*
X0096761Y0209459D01*
X0095664Y0207062D02*
X0098370Y0207062D01*
X0101209Y0207062D02*
X0101977Y0207062D01*
X0101977Y0208260D02*
X0101209Y0208260D01*
X0101209Y0211856D02*
X0101977Y0211856D01*
X0101977Y0213054D02*
X0101209Y0213054D01*
X0101209Y0214253D02*
X0101977Y0214253D01*
X0109835Y0214253D02*
X0146586Y0214253D01*
X0145387Y0213054D02*
X0111176Y0213054D01*
X0111828Y0211856D02*
X0144207Y0211856D01*
X0146593Y0210300D02*
X0146593Y0170300D01*
X0151593Y0165300D01*
X0162843Y0165300D01*
X0166593Y0161550D01*
X0166593Y0135300D01*
X0156593Y0125300D01*
X0096593Y0125300D01*
X0091593Y0130300D01*
X0052843Y0130300D01*
X0045343Y0122800D01*
X0031593Y0122800D01*
X0026593Y0117800D01*
X0026593Y0080300D01*
X0031593Y0075300D01*
X0036593Y0075300D01*
X0040996Y0080300D02*
X0042154Y0080779D01*
X0044219Y0078714D01*
X0045007Y0077926D01*
X0046036Y0077500D01*
X0067150Y0077500D01*
X0068179Y0077926D01*
X0074093Y0083840D01*
X0078850Y0079083D01*
X0079050Y0078601D01*
X0079893Y0077757D01*
X0080996Y0077300D01*
X0081346Y0077300D01*
X0082728Y0075918D01*
X0084221Y0075300D01*
X0082728Y0074682D01*
X0081274Y0073228D01*
X0080487Y0071328D01*
X0080487Y0069272D01*
X0081274Y0067372D01*
X0082728Y0065918D01*
X0084221Y0065300D01*
X0082728Y0064682D01*
X0081274Y0063228D01*
X0080487Y0061328D01*
X0080487Y0059272D01*
X0081274Y0057372D01*
X0082728Y0055918D01*
X0084221Y0055300D01*
X0082728Y0054682D01*
X0081274Y0053228D01*
X0080487Y0051328D01*
X0080487Y0049272D01*
X0081274Y0047372D01*
X0082728Y0045918D01*
X0084628Y0045131D01*
X0092621Y0045131D01*
X0094521Y0045918D01*
X0095974Y0047372D01*
X0096761Y0049272D01*
X0096761Y0051328D01*
X0095974Y0053228D01*
X0094521Y0054682D01*
X0093028Y0055300D01*
X0094521Y0055918D01*
X0095974Y0057372D01*
X0096761Y0059272D01*
X0096761Y0061328D01*
X0095974Y0063228D01*
X0094521Y0064682D01*
X0093028Y0065300D01*
X0094521Y0065918D01*
X0095974Y0067372D01*
X0096761Y0069272D01*
X0096761Y0071328D01*
X0095974Y0073228D01*
X0094521Y0074682D01*
X0093028Y0075300D01*
X0094521Y0075918D01*
X0095974Y0077372D01*
X0096761Y0079272D01*
X0096761Y0081328D01*
X0096276Y0082500D01*
X0097586Y0082500D01*
X0097359Y0082054D01*
X0097137Y0081370D01*
X0097028Y0080684D01*
X0101209Y0080684D01*
X0101209Y0079916D01*
X0101977Y0079916D01*
X0101977Y0080684D01*
X0112094Y0080684D01*
X0112065Y0080868D01*
X0113793Y0079140D01*
X0113793Y0046460D01*
X0105433Y0038100D01*
X0057753Y0038100D01*
X0049393Y0046460D01*
X0049393Y0060857D01*
X0048967Y0061886D01*
X0048179Y0062674D01*
X0044730Y0066123D01*
X0044730Y0066328D01*
X0043943Y0068228D01*
X0042489Y0069682D01*
X0040996Y0070300D01*
X0042489Y0070918D01*
X0043943Y0072372D01*
X0044730Y0074272D01*
X0044730Y0076328D01*
X0043943Y0078228D01*
X0042489Y0079682D01*
X0040996Y0080300D01*
X0041673Y0080020D02*
X0042913Y0080020D01*
X0043350Y0078821D02*
X0044112Y0078821D01*
X0044194Y0077623D02*
X0045740Y0077623D01*
X0044690Y0076424D02*
X0082222Y0076424D01*
X0084041Y0075226D02*
X0044730Y0075226D01*
X0044628Y0074027D02*
X0082074Y0074027D01*
X0081109Y0072829D02*
X0044132Y0072829D01*
X0043201Y0071630D02*
X0080612Y0071630D01*
X0080487Y0070432D02*
X0041314Y0070432D01*
X0042938Y0069233D02*
X0080503Y0069233D01*
X0081000Y0068034D02*
X0044023Y0068034D01*
X0044519Y0066836D02*
X0081810Y0066836D01*
X0083406Y0065637D02*
X0045215Y0065637D01*
X0046414Y0064439D02*
X0082485Y0064439D01*
X0081287Y0063240D02*
X0047612Y0063240D01*
X0048811Y0062042D02*
X0080783Y0062042D01*
X0080487Y0060843D02*
X0049393Y0060843D01*
X0049393Y0059645D02*
X0080487Y0059645D01*
X0080829Y0058446D02*
X0049393Y0058446D01*
X0049393Y0057248D02*
X0081399Y0057248D01*
X0082597Y0056049D02*
X0049393Y0056049D01*
X0049393Y0054851D02*
X0083137Y0054851D01*
X0081699Y0053652D02*
X0049393Y0053652D01*
X0049393Y0052454D02*
X0080954Y0052454D01*
X0080487Y0051255D02*
X0049393Y0051255D01*
X0049393Y0050057D02*
X0080487Y0050057D01*
X0080659Y0048858D02*
X0049393Y0048858D01*
X0049393Y0047660D02*
X0081155Y0047660D01*
X0082185Y0046461D02*
X0049393Y0046461D01*
X0050590Y0045263D02*
X0084311Y0045263D01*
X0092938Y0045263D02*
X0112596Y0045263D01*
X0113793Y0046461D02*
X0110019Y0046461D01*
X0109924Y0046393D02*
X0110506Y0046815D01*
X0111015Y0047324D01*
X0111437Y0047906D01*
X0111764Y0048546D01*
X0111986Y0049230D01*
X0112094Y0049916D01*
X0101977Y0049916D01*
X0101977Y0050684D01*
X0112094Y0050684D01*
X0111986Y0051370D01*
X0111764Y0052054D01*
X0111437Y0052694D01*
X0111015Y0053276D01*
X0110506Y0053785D01*
X0109924Y0054207D01*
X0109284Y0054534D01*
X0108600Y0054756D01*
X0107889Y0054868D01*
X0101977Y0054868D01*
X0101977Y0050684D01*
X0101209Y0050684D01*
X0101209Y0054865D01*
X0100523Y0054756D01*
X0099839Y0054534D01*
X0099198Y0054207D01*
X0098617Y0053785D01*
X0098108Y0053276D01*
X0097686Y0052694D01*
X0097359Y0052054D01*
X0097137Y0051370D01*
X0097028Y0050684D01*
X0101209Y0050684D01*
X0101209Y0049916D01*
X0101977Y0049916D01*
X0101977Y0045731D01*
X0107889Y0045731D01*
X0108600Y0045844D01*
X0109284Y0046066D01*
X0109924Y0046393D01*
X0111259Y0047660D02*
X0113793Y0047660D01*
X0113793Y0048858D02*
X0111865Y0048858D01*
X0113793Y0050057D02*
X0101977Y0050057D01*
X0101209Y0050057D02*
X0096761Y0050057D01*
X0097028Y0049916D02*
X0097137Y0049230D01*
X0097359Y0048546D01*
X0097686Y0047906D01*
X0098108Y0047324D01*
X0098617Y0046815D01*
X0099198Y0046393D01*
X0099839Y0046066D01*
X0100523Y0045844D01*
X0101209Y0045735D01*
X0101209Y0049916D01*
X0097028Y0049916D01*
X0097258Y0048858D02*
X0096590Y0048858D01*
X0096094Y0047660D02*
X0097864Y0047660D01*
X0099104Y0046461D02*
X0095064Y0046461D01*
X0096761Y0051255D02*
X0097119Y0051255D01*
X0097563Y0052454D02*
X0096295Y0052454D01*
X0095550Y0053652D02*
X0098484Y0053652D01*
X0101209Y0053652D02*
X0101977Y0053652D01*
X0101977Y0052454D02*
X0101209Y0052454D01*
X0101209Y0051255D02*
X0101977Y0051255D01*
X0101977Y0048858D02*
X0101209Y0048858D01*
X0101209Y0047660D02*
X0101977Y0047660D01*
X0101977Y0046461D02*
X0101209Y0046461D01*
X0101209Y0054851D02*
X0101977Y0054851D01*
X0101122Y0054851D02*
X0094112Y0054851D01*
X0094652Y0056049D02*
X0099891Y0056049D01*
X0099839Y0056066D02*
X0100523Y0055844D01*
X0101209Y0055735D01*
X0101209Y0059916D01*
X0101977Y0059916D01*
X0101977Y0060684D01*
X0112094Y0060684D01*
X0111986Y0061370D01*
X0111764Y0062054D01*
X0111437Y0062694D01*
X0111015Y0063276D01*
X0110506Y0063785D01*
X0109924Y0064207D01*
X0109284Y0064534D01*
X0108600Y0064756D01*
X0107889Y0064868D01*
X0101977Y0064868D01*
X0101977Y0060684D01*
X0101209Y0060684D01*
X0101209Y0064865D01*
X0100523Y0064756D01*
X0099839Y0064534D01*
X0099198Y0064207D01*
X0098617Y0063785D01*
X0098108Y0063276D01*
X0097686Y0062694D01*
X0097359Y0062054D01*
X0097137Y0061370D01*
X0097028Y0060684D01*
X0101209Y0060684D01*
X0101209Y0059916D01*
X0097028Y0059916D01*
X0097137Y0059230D01*
X0097359Y0058546D01*
X0097686Y0057906D01*
X0098108Y0057324D01*
X0098617Y0056815D01*
X0099198Y0056393D01*
X0099839Y0056066D01*
X0101209Y0056049D02*
X0101977Y0056049D01*
X0101977Y0055731D02*
X0107889Y0055731D01*
X0108600Y0055844D01*
X0109284Y0056066D01*
X0109924Y0056393D01*
X0110506Y0056815D01*
X0111015Y0057324D01*
X0111437Y0057906D01*
X0111764Y0058546D01*
X0111986Y0059230D01*
X0112094Y0059916D01*
X0101977Y0059916D01*
X0101977Y0055731D01*
X0101977Y0057248D02*
X0101209Y0057248D01*
X0101209Y0058446D02*
X0101977Y0058446D01*
X0101977Y0059645D02*
X0101209Y0059645D01*
X0101209Y0060843D02*
X0101977Y0060843D01*
X0101977Y0062042D02*
X0101209Y0062042D01*
X0101209Y0063240D02*
X0101977Y0063240D01*
X0101977Y0064439D02*
X0101209Y0064439D01*
X0101209Y0065735D02*
X0101209Y0069916D01*
X0101977Y0069916D01*
X0101977Y0070684D01*
X0112094Y0070684D01*
X0111986Y0071370D01*
X0111764Y0072054D01*
X0111437Y0072694D01*
X0111015Y0073276D01*
X0110506Y0073785D01*
X0109924Y0074207D01*
X0109284Y0074534D01*
X0108600Y0074756D01*
X0107889Y0074868D01*
X0101977Y0074868D01*
X0101977Y0070684D01*
X0101209Y0070684D01*
X0101209Y0074865D01*
X0100523Y0074756D01*
X0099839Y0074534D01*
X0099198Y0074207D01*
X0098617Y0073785D01*
X0098108Y0073276D01*
X0097686Y0072694D01*
X0097359Y0072054D01*
X0097137Y0071370D01*
X0097028Y0070684D01*
X0101209Y0070684D01*
X0101209Y0069916D01*
X0097028Y0069916D01*
X0097137Y0069230D01*
X0097359Y0068546D01*
X0097686Y0067906D01*
X0098108Y0067324D01*
X0098617Y0066815D01*
X0099198Y0066393D01*
X0099839Y0066066D01*
X0100523Y0065844D01*
X0101209Y0065735D01*
X0101977Y0065731D02*
X0101977Y0069916D01*
X0112094Y0069916D01*
X0111986Y0069230D01*
X0111764Y0068546D01*
X0111437Y0067906D01*
X0111015Y0067324D01*
X0110506Y0066815D01*
X0109924Y0066393D01*
X0109284Y0066066D01*
X0108600Y0065844D01*
X0107889Y0065731D01*
X0101977Y0065731D01*
X0101977Y0066836D02*
X0101209Y0066836D01*
X0101209Y0068034D02*
X0101977Y0068034D01*
X0101977Y0069233D02*
X0101209Y0069233D01*
X0101209Y0070432D02*
X0096761Y0070432D01*
X0096745Y0069233D02*
X0097136Y0069233D01*
X0097620Y0068034D02*
X0096249Y0068034D01*
X0095438Y0066836D02*
X0098596Y0066836D01*
X0099653Y0064439D02*
X0094763Y0064439D01*
X0093842Y0065637D02*
X0113793Y0065637D01*
X0113793Y0064439D02*
X0109470Y0064439D01*
X0111040Y0063240D02*
X0113793Y0063240D01*
X0113793Y0062042D02*
X0111767Y0062042D01*
X0112069Y0060843D02*
X0113793Y0060843D01*
X0113793Y0059645D02*
X0112052Y0059645D01*
X0111713Y0058446D02*
X0113793Y0058446D01*
X0113793Y0057248D02*
X0110939Y0057248D01*
X0109232Y0056049D02*
X0113793Y0056049D01*
X0113793Y0054851D02*
X0108001Y0054851D01*
X0110638Y0053652D02*
X0113793Y0053652D01*
X0113793Y0052454D02*
X0111560Y0052454D01*
X0112004Y0051255D02*
X0113793Y0051255D01*
X0119393Y0051255D02*
X0240094Y0051255D01*
X0240094Y0050057D02*
X0119393Y0050057D01*
X0119393Y0048858D02*
X0240094Y0048858D01*
X0240094Y0047660D02*
X0119393Y0047660D01*
X0119393Y0046461D02*
X0240094Y0046461D01*
X0240094Y0045263D02*
X0119393Y0045263D01*
X0119112Y0044064D02*
X0240094Y0044064D01*
X0240094Y0042866D02*
X0118118Y0042866D01*
X0116920Y0041667D02*
X0240094Y0041667D01*
X0240094Y0040469D02*
X0115721Y0040469D01*
X0114523Y0039270D02*
X0203136Y0039270D01*
X0201938Y0038072D02*
X0113324Y0038072D01*
X0112126Y0036873D02*
X0201198Y0036873D01*
X0200701Y0035675D02*
X0110927Y0035675D01*
X0109729Y0034476D02*
X0200593Y0034476D01*
X0200593Y0033278D02*
X0108530Y0033278D01*
X0106603Y0039270D02*
X0056582Y0039270D01*
X0055384Y0040469D02*
X0107802Y0040469D01*
X0109000Y0041667D02*
X0054185Y0041667D01*
X0052987Y0042866D02*
X0110199Y0042866D01*
X0111397Y0044064D02*
X0051788Y0044064D01*
X0046593Y0045300D02*
X0046593Y0060300D01*
X0041593Y0065300D01*
X0036593Y0065300D01*
X0046593Y0080300D02*
X0066593Y0080300D01*
X0074093Y0087800D01*
X0081593Y0080300D01*
X0080217Y0077623D02*
X0067446Y0077623D01*
X0069074Y0078821D02*
X0078958Y0078821D01*
X0077913Y0080020D02*
X0070272Y0080020D01*
X0071471Y0081218D02*
X0076715Y0081218D01*
X0075516Y0082417D02*
X0072669Y0082417D01*
X0073868Y0083615D02*
X0074318Y0083615D01*
X0074093Y0087800D02*
X0073355Y0088538D01*
X0062331Y0090300D02*
X0054093Y0090300D01*
X0046593Y0080300D02*
X0041593Y0085300D01*
X0036593Y0085300D01*
X0041593Y0095300D02*
X0046593Y0100300D01*
X0091593Y0100300D01*
X0093753Y0095600D02*
X0202333Y0095600D01*
X0203531Y0094402D02*
X0109543Y0094402D01*
X0111068Y0093203D02*
X0204730Y0093203D01*
X0205928Y0092005D02*
X0111780Y0092005D01*
X0112075Y0090806D02*
X0207127Y0090806D01*
X0208325Y0089608D02*
X0112046Y0089608D01*
X0111694Y0088409D02*
X0209524Y0088409D01*
X0211593Y0090300D02*
X0226593Y0090300D01*
X0232583Y0086012D02*
X0240094Y0086012D01*
X0240094Y0084814D02*
X0232170Y0084814D01*
X0233556Y0083615D02*
X0240094Y0083615D01*
X0240094Y0082417D02*
X0234279Y0082417D01*
X0234730Y0081218D02*
X0240094Y0081218D01*
X0240094Y0080020D02*
X0234730Y0080020D01*
X0234543Y0078821D02*
X0240094Y0078821D01*
X0240094Y0077623D02*
X0234047Y0077623D01*
X0232995Y0076424D02*
X0240094Y0076424D01*
X0240094Y0075226D02*
X0231176Y0075226D01*
X0233144Y0074027D02*
X0240094Y0074027D01*
X0240094Y0072829D02*
X0234108Y0072829D01*
X0234605Y0071630D02*
X0240094Y0071630D01*
X0240094Y0070432D02*
X0234730Y0070432D01*
X0234714Y0069233D02*
X0240094Y0069233D01*
X0240094Y0068034D02*
X0234217Y0068034D01*
X0233407Y0066836D02*
X0240094Y0066836D01*
X0240094Y0065637D02*
X0231811Y0065637D01*
X0232732Y0064439D02*
X0240094Y0064439D01*
X0240094Y0063240D02*
X0233930Y0063240D01*
X0234434Y0062042D02*
X0240094Y0062042D01*
X0240094Y0060843D02*
X0234730Y0060843D01*
X0234730Y0059645D02*
X0240094Y0059645D01*
X0240094Y0058446D02*
X0234388Y0058446D01*
X0233819Y0057248D02*
X0240094Y0057248D01*
X0240094Y0056049D02*
X0232620Y0056049D01*
X0240094Y0054851D02*
X0119393Y0054851D01*
X0119393Y0056049D02*
X0220566Y0056049D01*
X0219367Y0057248D02*
X0119393Y0057248D01*
X0119393Y0058446D02*
X0218798Y0058446D01*
X0218456Y0059645D02*
X0119393Y0059645D01*
X0119393Y0060843D02*
X0218456Y0060843D01*
X0218752Y0062042D02*
X0119393Y0062042D01*
X0119393Y0063240D02*
X0219255Y0063240D01*
X0220454Y0064439D02*
X0119393Y0064439D01*
X0119393Y0065637D02*
X0221375Y0065637D01*
X0219779Y0066836D02*
X0119393Y0066836D01*
X0119393Y0068034D02*
X0218968Y0068034D01*
X0218472Y0069233D02*
X0119393Y0069233D01*
X0119393Y0070432D02*
X0218456Y0070432D01*
X0218581Y0071630D02*
X0119393Y0071630D01*
X0119393Y0072829D02*
X0219077Y0072829D01*
X0220042Y0074027D02*
X0119393Y0074027D01*
X0119393Y0075226D02*
X0222010Y0075226D01*
X0220191Y0076424D02*
X0119393Y0076424D01*
X0119393Y0077623D02*
X0219139Y0077623D01*
X0218643Y0078821D02*
X0119393Y0078821D01*
X0119393Y0080020D02*
X0218456Y0080020D01*
X0218456Y0081218D02*
X0119243Y0081218D01*
X0118436Y0082417D02*
X0218907Y0082417D01*
X0219630Y0083615D02*
X0117237Y0083615D01*
X0116039Y0084814D02*
X0221015Y0084814D01*
X0220603Y0086012D02*
X0114840Y0086012D01*
X0113642Y0087211D02*
X0219404Y0087211D01*
X0219233Y0093203D02*
X0212649Y0093203D01*
X0211451Y0094402D02*
X0220417Y0094402D01*
X0221465Y0095600D02*
X0210252Y0095600D01*
X0209054Y0096799D02*
X0219816Y0096799D01*
X0218984Y0097997D02*
X0207855Y0097997D01*
X0206657Y0099196D02*
X0218487Y0099196D01*
X0218456Y0100394D02*
X0205458Y0100394D01*
X0204260Y0101593D02*
X0218566Y0101593D01*
X0219062Y0102791D02*
X0203061Y0102791D01*
X0201863Y0103990D02*
X0220005Y0103990D01*
X0221920Y0105188D02*
X0200664Y0105188D01*
X0199466Y0106387D02*
X0221241Y0106387D01*
X0221230Y0106393D02*
X0221871Y0106066D01*
X0222555Y0105844D01*
X0223265Y0105731D01*
X0226209Y0105731D01*
X0226209Y0109916D01*
X0226977Y0109916D01*
X0226977Y0110684D01*
X0234126Y0110684D01*
X0234017Y0111370D01*
X0233795Y0112054D01*
X0233469Y0112694D01*
X0233046Y0113276D01*
X0232538Y0113785D01*
X0231956Y0114207D01*
X0231315Y0114534D01*
X0230631Y0114756D01*
X0229921Y0114868D01*
X0226977Y0114868D01*
X0226977Y0110684D01*
X0226209Y0110684D01*
X0226209Y0114868D01*
X0223265Y0114868D01*
X0222555Y0114756D01*
X0221871Y0114534D01*
X0221230Y0114207D01*
X0220648Y0113785D01*
X0220140Y0113276D01*
X0219717Y0112694D01*
X0219391Y0112054D01*
X0219168Y0111370D01*
X0219060Y0110684D01*
X0226209Y0110684D01*
X0226209Y0109916D01*
X0219060Y0109916D01*
X0219168Y0109230D01*
X0219391Y0108546D01*
X0219717Y0107906D01*
X0220140Y0107324D01*
X0220648Y0106815D01*
X0221230Y0106393D01*
X0219950Y0107585D02*
X0198267Y0107585D01*
X0197069Y0108784D02*
X0219313Y0108784D01*
X0219138Y0111181D02*
X0194672Y0111181D01*
X0194393Y0112379D02*
X0219557Y0112379D01*
X0220441Y0113578D02*
X0194393Y0113578D01*
X0194393Y0114776D02*
X0222684Y0114776D01*
X0222596Y0115131D02*
X0220697Y0115918D01*
X0219243Y0117372D01*
X0218456Y0119272D01*
X0218456Y0121328D01*
X0219243Y0123228D01*
X0220697Y0124682D01*
X0222190Y0125300D01*
X0220697Y0125918D01*
X0219243Y0127372D01*
X0218456Y0129272D01*
X0218456Y0131328D01*
X0219243Y0133228D01*
X0220697Y0134682D01*
X0222596Y0135468D01*
X0230589Y0135468D01*
X0232489Y0134682D01*
X0233943Y0133228D01*
X0234730Y0131328D01*
X0234730Y0129272D01*
X0233943Y0127372D01*
X0232489Y0125918D01*
X0230996Y0125300D01*
X0232489Y0124682D01*
X0233943Y0123228D01*
X0234730Y0121328D01*
X0234730Y0119272D01*
X0233943Y0117372D01*
X0232489Y0115918D01*
X0230589Y0115131D01*
X0222596Y0115131D01*
X0220640Y0115975D02*
X0194393Y0115975D01*
X0194393Y0117173D02*
X0219442Y0117173D01*
X0218829Y0118372D02*
X0194393Y0118372D01*
X0194393Y0119570D02*
X0218456Y0119570D01*
X0218456Y0120769D02*
X0194393Y0120769D01*
X0194393Y0121968D02*
X0218721Y0121968D01*
X0219217Y0123166D02*
X0194393Y0123166D01*
X0194393Y0124365D02*
X0220380Y0124365D01*
X0221554Y0125563D02*
X0194393Y0125563D01*
X0194393Y0126762D02*
X0219853Y0126762D01*
X0218999Y0127960D02*
X0194393Y0127960D01*
X0194393Y0129159D02*
X0218503Y0129159D01*
X0218456Y0130357D02*
X0194393Y0130357D01*
X0194393Y0131556D02*
X0218550Y0131556D01*
X0219047Y0132754D02*
X0194393Y0132754D01*
X0194393Y0133953D02*
X0219968Y0133953D01*
X0221830Y0135151D02*
X0194393Y0135151D01*
X0194393Y0136350D02*
X0240094Y0136350D01*
X0240094Y0137548D02*
X0194393Y0137548D01*
X0194393Y0138747D02*
X0240094Y0138747D01*
X0240094Y0139945D02*
X0194393Y0139945D01*
X0194393Y0141144D02*
X0240094Y0141144D01*
X0240094Y0142342D02*
X0194393Y0142342D01*
X0194393Y0143541D02*
X0240094Y0143541D01*
X0240094Y0144739D02*
X0194393Y0144739D01*
X0194393Y0145938D02*
X0200677Y0145938D01*
X0199479Y0147136D02*
X0194393Y0147136D01*
X0194393Y0148335D02*
X0198844Y0148335D01*
X0198456Y0149533D02*
X0194393Y0149533D01*
X0194393Y0150732D02*
X0198456Y0150732D01*
X0198705Y0151930D02*
X0194393Y0151930D01*
X0194393Y0153129D02*
X0199202Y0153129D01*
X0200342Y0154327D02*
X0194393Y0154327D01*
X0194393Y0155526D02*
X0201644Y0155526D01*
X0199891Y0156724D02*
X0194393Y0156724D01*
X0194393Y0157923D02*
X0199015Y0157923D01*
X0198518Y0159121D02*
X0194393Y0159121D01*
X0194393Y0160320D02*
X0198456Y0160320D01*
X0198535Y0161518D02*
X0194393Y0161518D01*
X0194393Y0162717D02*
X0199031Y0162717D01*
X0199930Y0163915D02*
X0194393Y0163915D01*
X0194393Y0165114D02*
X0201740Y0165114D01*
X0200303Y0166312D02*
X0194393Y0166312D01*
X0194393Y0167511D02*
X0199185Y0167511D01*
X0198689Y0168709D02*
X0194393Y0168709D01*
X0194393Y0169908D02*
X0198456Y0169908D01*
X0198456Y0171106D02*
X0194393Y0171106D01*
X0194393Y0172305D02*
X0198861Y0172305D01*
X0199518Y0173503D02*
X0194393Y0173503D01*
X0194393Y0174702D02*
X0200746Y0174702D01*
X0200740Y0175901D02*
X0194393Y0175901D01*
X0194393Y0177099D02*
X0199516Y0177099D01*
X0198859Y0178298D02*
X0194393Y0178298D01*
X0194393Y0179496D02*
X0198456Y0179496D01*
X0198456Y0180695D02*
X0194393Y0180695D01*
X0193960Y0181893D02*
X0198690Y0181893D01*
X0199186Y0183092D02*
X0192761Y0183092D01*
X0191563Y0184290D02*
X0200305Y0184290D01*
X0201734Y0185489D02*
X0190364Y0185489D01*
X0189166Y0186687D02*
X0199928Y0186687D01*
X0199030Y0187886D02*
X0187967Y0187886D01*
X0186769Y0189084D02*
X0198534Y0189084D01*
X0198456Y0190283D02*
X0185570Y0190283D01*
X0184371Y0191481D02*
X0198519Y0191481D01*
X0199016Y0192680D02*
X0183173Y0192680D01*
X0181974Y0193878D02*
X0199893Y0193878D01*
X0201650Y0195077D02*
X0180776Y0195077D01*
X0179577Y0196275D02*
X0200340Y0196275D01*
X0199201Y0197474D02*
X0178379Y0197474D01*
X0177180Y0198672D02*
X0198704Y0198672D01*
X0198456Y0199871D02*
X0175982Y0199871D01*
X0174783Y0201069D02*
X0198456Y0201069D01*
X0198845Y0202268D02*
X0173585Y0202268D01*
X0166593Y0205300D02*
X0191593Y0180300D01*
X0191593Y0110300D01*
X0211593Y0090300D01*
X0201134Y0096799D02*
X0110483Y0096799D01*
X0111484Y0097997D02*
X0199936Y0097997D01*
X0191546Y0106387D02*
X0109913Y0106387D01*
X0111205Y0107585D02*
X0190348Y0107585D01*
X0189190Y0108784D02*
X0111841Y0108784D01*
X0101977Y0111181D02*
X0101209Y0111181D01*
X0101209Y0112379D02*
X0101977Y0112379D01*
X0101977Y0113578D02*
X0101209Y0113578D01*
X0101209Y0114776D02*
X0101977Y0114776D01*
X0101977Y0115975D02*
X0101209Y0115975D01*
X0100120Y0115975D02*
X0094577Y0115975D01*
X0094292Y0114776D02*
X0100652Y0114776D01*
X0101209Y0117173D02*
X0101977Y0117173D01*
X0101977Y0118372D02*
X0101209Y0118372D01*
X0101209Y0119570D02*
X0101977Y0119570D01*
X0098259Y0117173D02*
X0095776Y0117173D01*
X0096389Y0118372D02*
X0097448Y0118372D01*
X0097083Y0119570D02*
X0096761Y0119570D01*
X0096761Y0120769D02*
X0097042Y0120769D01*
X0097331Y0121968D02*
X0096496Y0121968D01*
X0091593Y0120300D02*
X0056593Y0120300D01*
X0041593Y0105300D01*
X0036593Y0105300D01*
X0036593Y0130300D02*
X0041593Y0130300D01*
X0051593Y0140300D01*
X0091593Y0140300D01*
X0096341Y0142342D02*
X0097506Y0142342D01*
X0097101Y0141144D02*
X0096761Y0141144D01*
X0096761Y0139945D02*
X0101209Y0139945D01*
X0101209Y0139916D02*
X0097028Y0139916D01*
X0097137Y0139230D01*
X0097359Y0138546D01*
X0097686Y0137906D01*
X0098108Y0137324D01*
X0098617Y0136815D01*
X0099198Y0136393D01*
X0099839Y0136066D01*
X0100523Y0135844D01*
X0101209Y0135735D01*
X0101209Y0139916D01*
X0101977Y0139916D01*
X0101977Y0140684D01*
X0101209Y0140684D01*
X0101209Y0139916D01*
X0101977Y0139916D02*
X0101977Y0135731D01*
X0107889Y0135731D01*
X0108600Y0135844D01*
X0109284Y0136066D01*
X0109924Y0136393D01*
X0110506Y0136815D01*
X0111015Y0137324D01*
X0111437Y0137906D01*
X0111764Y0138546D01*
X0111986Y0139230D01*
X0112094Y0139916D01*
X0101977Y0139916D01*
X0101977Y0139945D02*
X0163793Y0139945D01*
X0163793Y0138747D02*
X0111829Y0138747D01*
X0111177Y0137548D02*
X0163793Y0137548D01*
X0163683Y0136350D02*
X0109840Y0136350D01*
X0110275Y0133953D02*
X0161286Y0133953D01*
X0162484Y0135151D02*
X0093387Y0135151D01*
X0094952Y0136350D02*
X0099283Y0136350D01*
X0097945Y0137548D02*
X0096047Y0137548D01*
X0096544Y0138747D02*
X0097294Y0138747D01*
X0101209Y0138747D02*
X0101977Y0138747D01*
X0101977Y0137548D02*
X0101209Y0137548D01*
X0101209Y0136350D02*
X0101977Y0136350D01*
X0101977Y0133953D02*
X0101209Y0133953D01*
X0101209Y0132754D02*
X0101977Y0132754D01*
X0101977Y0131556D02*
X0101209Y0131556D01*
X0101209Y0130357D02*
X0096761Y0130357D01*
X0096714Y0129159D02*
X0097160Y0129159D01*
X0097197Y0131556D02*
X0096667Y0131556D01*
X0096171Y0132754D02*
X0097729Y0132754D01*
X0098848Y0133953D02*
X0095250Y0133953D01*
X0101209Y0141144D02*
X0101977Y0141144D01*
X0101977Y0142342D02*
X0101209Y0142342D01*
X0101209Y0143541D02*
X0101977Y0143541D01*
X0098373Y0143541D02*
X0095662Y0143541D01*
X0091593Y0150300D02*
X0051593Y0150300D01*
X0041593Y0140300D01*
X0036593Y0140300D01*
X0051593Y0165300D02*
X0056081Y0165300D01*
X0061081Y0170300D01*
X0066431Y0169908D02*
X0066755Y0169908D01*
X0066755Y0171106D02*
X0066431Y0171106D01*
X0066431Y0172305D02*
X0066755Y0172305D01*
X0066755Y0173503D02*
X0066431Y0173503D01*
X0066431Y0174702D02*
X0066755Y0174702D01*
X0066755Y0175901D02*
X0066431Y0175901D01*
X0066431Y0177099D02*
X0066755Y0177099D01*
X0066755Y0178298D02*
X0066431Y0178298D01*
X0066431Y0179496D02*
X0066755Y0179496D01*
X0066755Y0180695D02*
X0066431Y0180695D01*
X0066431Y0181893D02*
X0066755Y0181893D01*
X0066755Y0183092D02*
X0066431Y0183092D01*
X0066431Y0184290D02*
X0066755Y0184290D01*
X0066755Y0185489D02*
X0066431Y0185489D01*
X0066431Y0186687D02*
X0066755Y0186687D01*
X0066755Y0187886D02*
X0066431Y0187886D01*
X0066431Y0189084D02*
X0066755Y0189084D01*
X0072105Y0190300D02*
X0091593Y0190300D01*
X0095289Y0186687D02*
X0098793Y0186687D01*
X0098617Y0186815D02*
X0099198Y0186393D01*
X0099839Y0186066D01*
X0100523Y0185844D01*
X0101209Y0185735D01*
X0101209Y0189916D01*
X0097028Y0189916D01*
X0097137Y0189230D01*
X0097359Y0188546D01*
X0097686Y0187906D01*
X0098108Y0187324D01*
X0098617Y0186815D01*
X0097700Y0187886D02*
X0096187Y0187886D01*
X0096684Y0189084D02*
X0097184Y0189084D01*
X0096761Y0190283D02*
X0101209Y0190283D01*
X0101209Y0189084D02*
X0101977Y0189084D01*
X0101977Y0187886D02*
X0101209Y0187886D01*
X0101209Y0186687D02*
X0101977Y0186687D01*
X0101977Y0184290D02*
X0101209Y0184290D01*
X0101209Y0183092D02*
X0101977Y0183092D01*
X0101977Y0181893D02*
X0101209Y0181893D01*
X0101209Y0180695D02*
X0101977Y0180695D01*
X0101977Y0179496D02*
X0101209Y0179496D01*
X0101209Y0178298D02*
X0101977Y0178298D01*
X0101977Y0177099D02*
X0101209Y0177099D01*
X0101209Y0173503D02*
X0101977Y0173503D01*
X0101977Y0172305D02*
X0101209Y0172305D01*
X0101209Y0171106D02*
X0101977Y0171106D01*
X0101977Y0169908D02*
X0101209Y0169908D01*
X0101209Y0168709D02*
X0101977Y0168709D01*
X0101977Y0167511D02*
X0101209Y0167511D01*
X0101209Y0166312D02*
X0101977Y0166312D01*
X0101977Y0163915D02*
X0101209Y0163915D01*
X0101209Y0162717D02*
X0101977Y0162717D01*
X0101977Y0161518D02*
X0101209Y0161518D01*
X0097172Y0159121D02*
X0096699Y0159121D01*
X0096203Y0157923D02*
X0097677Y0157923D01*
X0098742Y0156724D02*
X0095327Y0156724D01*
X0091593Y0170300D02*
X0072105Y0170300D01*
X0066755Y0168709D02*
X0066431Y0168709D01*
X0066431Y0167511D02*
X0066755Y0167511D01*
X0066755Y0166312D02*
X0066431Y0166312D01*
X0066093Y0165114D02*
X0067093Y0165114D01*
X0058656Y0163915D02*
X0081962Y0163915D01*
X0083772Y0165114D02*
X0077116Y0165114D01*
X0077454Y0166312D02*
X0082334Y0166312D01*
X0091593Y0180300D02*
X0072105Y0180300D01*
X0077454Y0193878D02*
X0081925Y0193878D01*
X0083682Y0195077D02*
X0077454Y0195077D01*
X0076327Y0196275D02*
X0082371Y0196275D01*
X0082711Y0204665D02*
X0076667Y0204665D01*
X0077454Y0205863D02*
X0082861Y0205863D01*
X0081585Y0207062D02*
X0077454Y0207062D01*
X0077454Y0214253D02*
X0082299Y0214253D01*
X0084586Y0215451D02*
X0077151Y0215451D01*
X0095324Y0193878D02*
X0098745Y0193878D01*
X0097678Y0192680D02*
X0096202Y0192680D01*
X0096698Y0191481D02*
X0097173Y0191481D01*
X0109762Y0184290D02*
X0143793Y0184290D01*
X0143793Y0183092D02*
X0111149Y0183092D01*
X0111816Y0181893D02*
X0143793Y0181893D01*
X0143793Y0180695D02*
X0112093Y0180695D01*
X0112028Y0179496D02*
X0143793Y0179496D01*
X0143793Y0178298D02*
X0111637Y0178298D01*
X0110790Y0177099D02*
X0143793Y0177099D01*
X0143793Y0175901D02*
X0108774Y0175901D01*
X0108766Y0174702D02*
X0143793Y0174702D01*
X0143793Y0173503D02*
X0110787Y0173503D01*
X0111636Y0172305D02*
X0143793Y0172305D01*
X0143793Y0171106D02*
X0112028Y0171106D01*
X0112093Y0169908D02*
X0143793Y0169908D01*
X0144224Y0168709D02*
X0111817Y0168709D01*
X0111150Y0167511D02*
X0145422Y0167511D01*
X0156209Y0159121D02*
X0156977Y0159121D01*
X0156977Y0157923D02*
X0156209Y0157923D01*
X0156209Y0156724D02*
X0156977Y0156724D01*
X0163793Y0143541D02*
X0110750Y0143541D01*
X0111617Y0142342D02*
X0163793Y0142342D01*
X0163793Y0141144D02*
X0112022Y0141144D01*
X0111394Y0132754D02*
X0160087Y0132754D01*
X0158889Y0131556D02*
X0111926Y0131556D01*
X0111963Y0129159D02*
X0156492Y0129159D01*
X0157690Y0130357D02*
X0101977Y0130357D01*
X0098410Y0113578D02*
X0095624Y0113578D01*
X0096326Y0112379D02*
X0097525Y0112379D01*
X0097107Y0111181D02*
X0096761Y0111181D01*
X0096761Y0109982D02*
X0101209Y0109982D01*
X0097918Y0107585D02*
X0096063Y0107585D01*
X0096559Y0108784D02*
X0097282Y0108784D01*
X0099210Y0106387D02*
X0094989Y0106387D01*
X0096310Y0082417D02*
X0097544Y0082417D01*
X0097113Y0081218D02*
X0096761Y0081218D01*
X0096761Y0080020D02*
X0101209Y0080020D01*
X0101209Y0079916D02*
X0097028Y0079916D01*
X0097137Y0079230D01*
X0097359Y0078546D01*
X0097686Y0077906D01*
X0098108Y0077324D01*
X0098617Y0076815D01*
X0099198Y0076393D01*
X0099839Y0076066D01*
X0100523Y0075844D01*
X0101209Y0075735D01*
X0101209Y0079916D01*
X0101977Y0079916D02*
X0101977Y0075731D01*
X0107889Y0075731D01*
X0108600Y0075844D01*
X0109284Y0076066D01*
X0109924Y0076393D01*
X0110506Y0076815D01*
X0111015Y0077324D01*
X0111437Y0077906D01*
X0111764Y0078546D01*
X0111986Y0079230D01*
X0112094Y0079916D01*
X0101977Y0079916D01*
X0101977Y0080020D02*
X0112913Y0080020D01*
X0113793Y0078821D02*
X0111853Y0078821D01*
X0111232Y0077623D02*
X0113793Y0077623D01*
X0113793Y0076424D02*
X0109968Y0076424D01*
X0110172Y0074027D02*
X0113793Y0074027D01*
X0113793Y0072829D02*
X0111340Y0072829D01*
X0111901Y0071630D02*
X0113793Y0071630D01*
X0113793Y0070432D02*
X0101977Y0070432D01*
X0101977Y0071630D02*
X0101209Y0071630D01*
X0101209Y0072829D02*
X0101977Y0072829D01*
X0101977Y0074027D02*
X0101209Y0074027D01*
X0098950Y0074027D02*
X0095175Y0074027D01*
X0096140Y0072829D02*
X0097783Y0072829D01*
X0097221Y0071630D02*
X0096636Y0071630D01*
X0095026Y0076424D02*
X0099155Y0076424D01*
X0097891Y0077623D02*
X0096078Y0077623D01*
X0096575Y0078821D02*
X0097270Y0078821D01*
X0101209Y0078821D02*
X0101977Y0078821D01*
X0101977Y0077623D02*
X0101209Y0077623D01*
X0101209Y0076424D02*
X0101977Y0076424D01*
X0111503Y0068034D02*
X0113793Y0068034D01*
X0113793Y0066836D02*
X0110527Y0066836D01*
X0111986Y0069233D02*
X0113793Y0069233D01*
X0113793Y0075226D02*
X0093207Y0075226D01*
X0095962Y0063240D02*
X0098082Y0063240D01*
X0097355Y0062042D02*
X0096466Y0062042D01*
X0096761Y0060843D02*
X0097053Y0060843D01*
X0097071Y0059645D02*
X0096761Y0059645D01*
X0096419Y0058446D02*
X0097410Y0058446D01*
X0098184Y0057248D02*
X0095850Y0057248D01*
X0119393Y0053652D02*
X0240094Y0053652D01*
X0240094Y0052454D02*
X0119393Y0052454D01*
X0195870Y0109982D02*
X0226209Y0109982D01*
X0226977Y0109982D02*
X0240094Y0109982D01*
X0240094Y0108784D02*
X0233872Y0108784D01*
X0233795Y0108546D02*
X0234017Y0109230D01*
X0234126Y0109916D01*
X0226977Y0109916D01*
X0226977Y0105731D01*
X0229921Y0105731D01*
X0230631Y0105844D01*
X0231315Y0106066D01*
X0231956Y0106393D01*
X0232538Y0106815D01*
X0233046Y0107324D01*
X0233469Y0107906D01*
X0233795Y0108546D01*
X0233236Y0107585D02*
X0240094Y0107585D01*
X0240094Y0106387D02*
X0231944Y0106387D01*
X0231266Y0105188D02*
X0240094Y0105188D01*
X0240094Y0103990D02*
X0233181Y0103990D01*
X0234124Y0102791D02*
X0240094Y0102791D01*
X0240094Y0101593D02*
X0234620Y0101593D01*
X0234730Y0100394D02*
X0240094Y0100394D01*
X0240094Y0099196D02*
X0234698Y0099196D01*
X0234202Y0097997D02*
X0240094Y0097997D01*
X0240094Y0096799D02*
X0233370Y0096799D01*
X0231721Y0095600D02*
X0240094Y0095600D01*
X0240094Y0094402D02*
X0232769Y0094402D01*
X0233953Y0093203D02*
X0240094Y0093203D01*
X0240094Y0092005D02*
X0234450Y0092005D01*
X0234730Y0090806D02*
X0240094Y0090806D01*
X0240094Y0089608D02*
X0234730Y0089608D01*
X0234373Y0088409D02*
X0240094Y0088409D01*
X0240094Y0087211D02*
X0233781Y0087211D01*
X0226977Y0106387D02*
X0226209Y0106387D01*
X0226209Y0107585D02*
X0226977Y0107585D01*
X0226977Y0108784D02*
X0226209Y0108784D01*
X0226209Y0111181D02*
X0226977Y0111181D01*
X0226977Y0112379D02*
X0226209Y0112379D01*
X0226209Y0113578D02*
X0226977Y0113578D01*
X0226977Y0114776D02*
X0226209Y0114776D01*
X0230502Y0114776D02*
X0240094Y0114776D01*
X0240094Y0113578D02*
X0232744Y0113578D01*
X0233629Y0112379D02*
X0240094Y0112379D01*
X0240094Y0111181D02*
X0234047Y0111181D01*
X0232546Y0115975D02*
X0240094Y0115975D01*
X0240094Y0117173D02*
X0233744Y0117173D01*
X0234357Y0118372D02*
X0240094Y0118372D01*
X0240094Y0119570D02*
X0234730Y0119570D01*
X0234730Y0120769D02*
X0240094Y0120769D01*
X0240094Y0121968D02*
X0234465Y0121968D01*
X0233969Y0123166D02*
X0240094Y0123166D01*
X0240094Y0124365D02*
X0232806Y0124365D01*
X0231631Y0125563D02*
X0240094Y0125563D01*
X0240094Y0126762D02*
X0233332Y0126762D01*
X0234186Y0127960D02*
X0240094Y0127960D01*
X0240094Y0129159D02*
X0234683Y0129159D01*
X0234730Y0130357D02*
X0240094Y0130357D01*
X0240094Y0131556D02*
X0234636Y0131556D01*
X0234139Y0132754D02*
X0240094Y0132754D01*
X0240094Y0133953D02*
X0233218Y0133953D01*
X0231356Y0135151D02*
X0240094Y0135151D01*
X0240094Y0145938D02*
X0232508Y0145938D01*
X0233707Y0147136D02*
X0240094Y0147136D01*
X0240094Y0148335D02*
X0234342Y0148335D01*
X0234730Y0149533D02*
X0240094Y0149533D01*
X0240094Y0150732D02*
X0234730Y0150732D01*
X0234480Y0151930D02*
X0240094Y0151930D01*
X0240094Y0153129D02*
X0233984Y0153129D01*
X0232843Y0154327D02*
X0240094Y0154327D01*
X0240094Y0155526D02*
X0231541Y0155526D01*
X0233295Y0156724D02*
X0240094Y0156724D01*
X0240094Y0157923D02*
X0234171Y0157923D01*
X0234667Y0159121D02*
X0240094Y0159121D01*
X0240094Y0160320D02*
X0234730Y0160320D01*
X0234651Y0161518D02*
X0240094Y0161518D01*
X0240094Y0162717D02*
X0234155Y0162717D01*
X0233255Y0163915D02*
X0240094Y0163915D01*
X0240094Y0165114D02*
X0231445Y0165114D01*
X0232883Y0166312D02*
X0240094Y0166312D01*
X0240094Y0167511D02*
X0234000Y0167511D01*
X0234497Y0168709D02*
X0240094Y0168709D01*
X0240094Y0169908D02*
X0234730Y0169908D01*
X0234730Y0171106D02*
X0240094Y0171106D01*
X0240094Y0172305D02*
X0234325Y0172305D01*
X0233667Y0173503D02*
X0240094Y0173503D01*
X0240094Y0174702D02*
X0232440Y0174702D01*
X0232446Y0175901D02*
X0240094Y0175901D01*
X0240094Y0177099D02*
X0233670Y0177099D01*
X0234326Y0178298D02*
X0240094Y0178298D01*
X0240094Y0179496D02*
X0234730Y0179496D01*
X0234730Y0180695D02*
X0240094Y0180695D01*
X0240094Y0181893D02*
X0234496Y0181893D01*
X0233999Y0183092D02*
X0240094Y0183092D01*
X0240094Y0184290D02*
X0232881Y0184290D01*
X0231452Y0185489D02*
X0240094Y0185489D01*
X0240094Y0186687D02*
X0233258Y0186687D01*
X0234156Y0187886D02*
X0240094Y0187886D01*
X0240094Y0189084D02*
X0234652Y0189084D01*
X0234730Y0190283D02*
X0240094Y0190283D01*
X0240094Y0191481D02*
X0234666Y0191481D01*
X0234170Y0192680D02*
X0240094Y0192680D01*
X0240094Y0193878D02*
X0233293Y0193878D01*
X0231535Y0195077D02*
X0240094Y0195077D01*
X0240094Y0196275D02*
X0232846Y0196275D01*
X0233985Y0197474D02*
X0240094Y0197474D01*
X0240094Y0198672D02*
X0234481Y0198672D01*
X0234730Y0199871D02*
X0240094Y0199871D01*
X0240094Y0201069D02*
X0234730Y0201069D01*
X0234341Y0202268D02*
X0240094Y0202268D01*
X0240094Y0203466D02*
X0233704Y0203466D01*
X0232506Y0204665D02*
X0240094Y0204665D01*
X0240094Y0205863D02*
X0232356Y0205863D01*
X0233633Y0207062D02*
X0240094Y0207062D01*
X0240094Y0208260D02*
X0234311Y0208260D01*
X0234730Y0209459D02*
X0240094Y0209459D01*
X0240094Y0210657D02*
X0234730Y0210657D01*
X0234511Y0211856D02*
X0240094Y0211856D01*
X0240094Y0213054D02*
X0234015Y0213054D01*
X0232918Y0214253D02*
X0240094Y0214253D01*
X0240094Y0215451D02*
X0231362Y0215451D01*
X0233221Y0216650D02*
X0240094Y0216650D01*
X0240094Y0217848D02*
X0234140Y0217848D01*
X0234637Y0219047D02*
X0240094Y0219047D01*
X0240094Y0220245D02*
X0234730Y0220245D01*
X0234682Y0221444D02*
X0240094Y0221444D01*
X0240094Y0222642D02*
X0234185Y0222642D01*
X0233330Y0223841D02*
X0240094Y0223841D01*
X0240094Y0225039D02*
X0231625Y0225039D01*
X0240094Y0226238D02*
X0219235Y0226238D01*
X0219393Y0225039D02*
X0221561Y0225039D01*
X0219856Y0223841D02*
X0219393Y0223841D01*
X0218416Y0227437D02*
X0240094Y0227437D01*
X0240094Y0228635D02*
X0217218Y0228635D01*
X0213793Y0223841D02*
X0213330Y0223841D01*
X0212894Y0225039D02*
X0211625Y0225039D01*
X0211695Y0226238D02*
X0151491Y0226238D01*
X0152689Y0227437D02*
X0210497Y0227437D01*
X0206593Y0220300D02*
X0201593Y0215300D01*
X0151593Y0215300D01*
X0146593Y0210300D01*
X0156209Y0221444D02*
X0156977Y0221444D01*
X0156977Y0222642D02*
X0156209Y0222642D01*
X0156209Y0223841D02*
X0156977Y0223841D01*
X0212508Y0145938D02*
X0220677Y0145938D01*
X0219479Y0147136D02*
X0213707Y0147136D01*
X0210249Y0039270D02*
X0224329Y0039270D01*
X0224382Y0039297D02*
X0223610Y0038904D01*
X0222910Y0038395D01*
X0222298Y0037783D01*
X0221789Y0037083D01*
X0221396Y0036311D01*
X0221128Y0035488D01*
X0220993Y0034633D01*
X0220993Y0030900D01*
X0225893Y0030900D01*
X0225893Y0039674D01*
X0225205Y0039565D01*
X0224382Y0039297D01*
X0225893Y0039270D02*
X0227093Y0039270D01*
X0227093Y0039674D02*
X0227093Y0030900D01*
X0231993Y0030900D01*
X0231993Y0034633D01*
X0231857Y0035488D01*
X0231590Y0036311D01*
X0231197Y0037083D01*
X0230688Y0037783D01*
X0230076Y0038395D01*
X0229375Y0038904D01*
X0228604Y0039297D01*
X0227781Y0039565D01*
X0227093Y0039674D01*
X0227093Y0038072D02*
X0225893Y0038072D01*
X0225893Y0036873D02*
X0227093Y0036873D01*
X0227093Y0035675D02*
X0225893Y0035675D01*
X0225893Y0034476D02*
X0227093Y0034476D01*
X0227093Y0033278D02*
X0225893Y0033278D01*
X0225893Y0032079D02*
X0227093Y0032079D01*
X0227093Y0030900D02*
X0225893Y0030900D01*
X0225893Y0029700D01*
X0227093Y0029700D01*
X0227093Y0030900D01*
X0227093Y0030881D02*
X0240094Y0030881D01*
X0240094Y0032079D02*
X0231993Y0032079D01*
X0231993Y0033278D02*
X0240094Y0033278D01*
X0240094Y0034476D02*
X0231993Y0034476D01*
X0231797Y0035675D02*
X0240094Y0035675D01*
X0240094Y0036873D02*
X0231304Y0036873D01*
X0230399Y0038072D02*
X0240094Y0038072D01*
X0240094Y0039270D02*
X0228657Y0039270D01*
X0222586Y0038072D02*
X0211448Y0038072D01*
X0212188Y0036873D02*
X0221682Y0036873D01*
X0221189Y0035675D02*
X0212685Y0035675D01*
X0212793Y0034476D02*
X0220993Y0034476D01*
X0220993Y0033278D02*
X0212793Y0033278D01*
X0212793Y0032079D02*
X0220993Y0032079D01*
X0220993Y0029700D02*
X0220993Y0025967D01*
X0221128Y0025112D01*
X0221396Y0024289D01*
X0221789Y0023517D01*
X0222298Y0022817D01*
X0222910Y0022205D01*
X0223610Y0021696D01*
X0224382Y0021303D01*
X0225205Y0021035D01*
X0225893Y0020926D01*
X0225893Y0029700D01*
X0220993Y0029700D01*
X0220993Y0029682D02*
X0212793Y0029682D01*
X0212793Y0028484D02*
X0220993Y0028484D01*
X0220993Y0027285D02*
X0212793Y0027285D01*
X0212793Y0026087D02*
X0220993Y0026087D01*
X0221201Y0024888D02*
X0212669Y0024888D01*
X0212173Y0023690D02*
X0221701Y0023690D01*
X0222624Y0022491D02*
X0211411Y0022491D01*
X0210212Y0021293D02*
X0224414Y0021293D01*
X0225893Y0021293D02*
X0227093Y0021293D01*
X0227093Y0020926D02*
X0227781Y0021035D01*
X0228604Y0021303D01*
X0229375Y0021696D01*
X0230076Y0022205D01*
X0230688Y0022817D01*
X0231197Y0023517D01*
X0231590Y0024289D01*
X0231857Y0025112D01*
X0231993Y0025967D01*
X0231993Y0029700D01*
X0227093Y0029700D01*
X0227093Y0020926D01*
X0228572Y0021293D02*
X0240094Y0021293D01*
X0240094Y0022491D02*
X0230362Y0022491D01*
X0231285Y0023690D02*
X0240094Y0023690D01*
X0240094Y0024888D02*
X0231785Y0024888D01*
X0231993Y0026087D02*
X0240094Y0026087D01*
X0240094Y0027285D02*
X0231993Y0027285D01*
X0231993Y0028484D02*
X0240094Y0028484D01*
X0240094Y0029682D02*
X0231993Y0029682D01*
X0227093Y0029682D02*
X0225893Y0029682D01*
X0225893Y0028484D02*
X0227093Y0028484D01*
X0227093Y0027285D02*
X0225893Y0027285D01*
X0225893Y0026087D02*
X0227093Y0026087D01*
X0227093Y0024888D02*
X0225893Y0024888D01*
X0225893Y0023690D02*
X0227093Y0023690D01*
X0227093Y0022491D02*
X0225893Y0022491D01*
X0225893Y0030881D02*
X0212793Y0030881D01*
X0055531Y0168709D02*
X0055257Y0168709D01*
D16*
X0041593Y0095300D02*
X0036593Y0095300D01*
X0073355Y0090300D02*
X0073355Y0088538D01*
X0081593Y0080300D02*
X0091593Y0080300D01*
X0156593Y0210300D02*
X0161593Y0210300D01*
X0206593Y0190300D02*
X0226593Y0190300D01*
X0226593Y0180300D02*
X0206593Y0180300D01*
X0206593Y0170300D02*
X0226593Y0170300D01*
X0226593Y0160300D02*
X0206593Y0160300D01*
X0206593Y0150300D02*
X0226593Y0150300D01*
D17*
X0054093Y0090300D03*
X0051593Y0165300D03*
M02*
