%
M48
M72
T01C0.02362
T02C0.03937
T03C0.05200
%
T01
X54093Y90300
X51593Y165300
T02
X36593Y25300
X36593Y35300
X36593Y45300
X36593Y55300
X36593Y65300
X36593Y75300
X36593Y85300
X36593Y95300
X36593Y105300
X36593Y115300
X36593Y130300
X36593Y140300
X36593Y150300
X36593Y160300
X36593Y170300
X36593Y180300
X36593Y190300
X36593Y200300
X36593Y220300
X36593Y230300
X36593Y240300
X36593Y250300
X36593Y260300
X36593Y270300
X36593Y280300
X36593Y290300
X36593Y320300
X36593Y330300
X46593Y330300
X46593Y320300
X56593Y320300
X56593Y330300
X66593Y330300
X66593Y320300
X76593Y320300
X76593Y330300
X86593Y330300
X86593Y320300
X96593Y320300
X106593Y320300
X106593Y330300
X96593Y330300
X116593Y330300
X116593Y320300
X126593Y320300
X126593Y330300
X136593Y330300
X136593Y320300
X146593Y320300
X146593Y330300
X156593Y330300
X156593Y320300
X166593Y320300
X166593Y330300
X176593Y330300
X176593Y320300
X186593Y320300
X186593Y330300
X196593Y330300
X196593Y320300
X206593Y320300
X206593Y330300
X226593Y310300
X226593Y300300
X226593Y290300
X226593Y280300
X226593Y270300
X226593Y260300
X226593Y250300
X226593Y240300
X226593Y220300
X226593Y210300
X226593Y200300
X226593Y190300
X226593Y180300
X226593Y170300
X226593Y160300
X226593Y150300
X226593Y130300
X226593Y120300
X226593Y110300
X226593Y100300
X226593Y90300
X226593Y80300
X226593Y70300
X226593Y60300
X206593Y150300
X206593Y160300
X206593Y170300
X206593Y180300
X206593Y190300
X206593Y200300
X206593Y210300
X206593Y220300
X196593Y240300
X186593Y240300
X176593Y240300
X166593Y240300
X156593Y220300
X156593Y210300
X156593Y200300
X156593Y190300
X156593Y180300
X156593Y170300
X156593Y160300
X156593Y150300
X101593Y150300
X101593Y140300
X101593Y130300
X101593Y120300
X101593Y110300
X101593Y100300
X101593Y90300
X101593Y80300
X101593Y70300
X101593Y60300
X101593Y50300
X91593Y50300
X91593Y60300
X91593Y70300
X91593Y80300
X91593Y90300
X91593Y100300
X91593Y110300
X91593Y120300
X91593Y130300
X91593Y140300
X91593Y150300
X91593Y160300
X101593Y160300
X101593Y170300
X101593Y180300
X101593Y190300
X101593Y200300
X101593Y210300
X91593Y210300
X91593Y200300
X91593Y190300
X91593Y180300
X91593Y170300
T03
X206693Y30300
X226493Y30300
M30
