G75*
%MOIN*%
%OFA0B0*%
%FSLAX25Y25*%
%IPPOS*%
%LPD*%
%AMOC8*
5,1,8,0,0,1.08239X$1,22.5*
%
%ADD10C,0.06737*%
%ADD11C,0.06400*%
%ADD12C,0.08600*%
%ADD13C,0.06737*%
%ADD14R,0.04762X0.04762*%
D10*
X0033624Y0025300D02*
X0039561Y0025300D01*
X0039561Y0035300D02*
X0033624Y0035300D01*
X0033624Y0045300D02*
X0039561Y0045300D01*
X0039561Y0055300D02*
X0033624Y0055300D01*
X0033624Y0065300D02*
X0039561Y0065300D01*
X0039561Y0075300D02*
X0033624Y0075300D01*
X0033624Y0085300D02*
X0039561Y0085300D01*
X0039561Y0095300D02*
X0033624Y0095300D01*
X0033624Y0105300D02*
X0039561Y0105300D01*
X0039561Y0115300D02*
X0033624Y0115300D01*
X0033624Y0130300D02*
X0039561Y0130300D01*
X0039561Y0140300D02*
X0033624Y0140300D01*
X0033624Y0150300D02*
X0039561Y0150300D01*
X0039561Y0160300D02*
X0033624Y0160300D01*
X0033624Y0170300D02*
X0039561Y0170300D01*
X0039561Y0180300D02*
X0033624Y0180300D01*
X0033624Y0190300D02*
X0039561Y0190300D01*
X0039561Y0200300D02*
X0033624Y0200300D01*
X0033624Y0220300D02*
X0039561Y0220300D01*
X0039561Y0230300D02*
X0033624Y0230300D01*
X0033624Y0240300D02*
X0039561Y0240300D01*
X0039561Y0250300D02*
X0033624Y0250300D01*
X0033624Y0260300D02*
X0039561Y0260300D01*
X0039561Y0270300D02*
X0033624Y0270300D01*
X0033624Y0280300D02*
X0039561Y0280300D01*
X0039561Y0290300D02*
X0033624Y0290300D01*
X0085656Y0210300D02*
X0091593Y0210300D01*
X0101593Y0210300D02*
X0107530Y0210300D01*
X0107530Y0200300D02*
X0101593Y0200300D01*
X0101593Y0190300D02*
X0107530Y0190300D01*
X0107530Y0180300D02*
X0101593Y0180300D01*
X0101593Y0170300D02*
X0107530Y0170300D01*
X0107530Y0160300D02*
X0101593Y0160300D01*
X0101593Y0150300D02*
X0107530Y0150300D01*
X0107530Y0140300D02*
X0101593Y0140300D01*
X0101593Y0130300D02*
X0107530Y0130300D01*
X0107530Y0120300D02*
X0101593Y0120300D01*
X0101593Y0110300D02*
X0107530Y0110300D01*
X0107530Y0100300D02*
X0101593Y0100300D01*
X0101593Y0090300D02*
X0107530Y0090300D01*
X0107530Y0080300D02*
X0101593Y0080300D01*
X0101593Y0070300D02*
X0107530Y0070300D01*
X0107530Y0060300D02*
X0101593Y0060300D01*
X0101593Y0050300D02*
X0107530Y0050300D01*
X0091593Y0050300D02*
X0085656Y0050300D01*
X0085656Y0060300D02*
X0091593Y0060300D01*
X0091593Y0070300D02*
X0085656Y0070300D01*
X0085656Y0080300D02*
X0091593Y0080300D01*
X0091593Y0090300D02*
X0085656Y0090300D01*
X0085656Y0100300D02*
X0091593Y0100300D01*
X0091593Y0110300D02*
X0085656Y0110300D01*
X0085656Y0120300D02*
X0091593Y0120300D01*
X0091593Y0130300D02*
X0085656Y0130300D01*
X0085656Y0140300D02*
X0091593Y0140300D01*
X0091593Y0150300D02*
X0085656Y0150300D01*
X0085656Y0160300D02*
X0091593Y0160300D01*
X0091593Y0170300D02*
X0085656Y0170300D01*
X0085656Y0180300D02*
X0091593Y0180300D01*
X0091593Y0190300D02*
X0085656Y0190300D01*
X0085656Y0200300D02*
X0091593Y0200300D01*
X0153624Y0200300D02*
X0159561Y0200300D01*
X0159561Y0190300D02*
X0153624Y0190300D01*
X0153624Y0180300D02*
X0159561Y0180300D01*
X0159561Y0170300D02*
X0153624Y0170300D01*
X0153624Y0160300D02*
X0159561Y0160300D01*
X0159561Y0150300D02*
X0153624Y0150300D01*
X0153624Y0210300D02*
X0159561Y0210300D01*
X0159561Y0220300D02*
X0153624Y0220300D01*
X0203624Y0220300D02*
X0209561Y0220300D01*
X0209561Y0210300D02*
X0203624Y0210300D01*
X0203624Y0200300D02*
X0209561Y0200300D01*
X0209561Y0190300D02*
X0203624Y0190300D01*
X0203624Y0180300D02*
X0209561Y0180300D01*
X0209561Y0170300D02*
X0203624Y0170300D01*
X0203624Y0160300D02*
X0209561Y0160300D01*
X0209561Y0150300D02*
X0203624Y0150300D01*
X0223624Y0150300D02*
X0229561Y0150300D01*
X0229561Y0160300D02*
X0223624Y0160300D01*
X0223624Y0170300D02*
X0229561Y0170300D01*
X0229561Y0180300D02*
X0223624Y0180300D01*
X0223624Y0190300D02*
X0229561Y0190300D01*
X0229561Y0200300D02*
X0223624Y0200300D01*
X0223624Y0210300D02*
X0229561Y0210300D01*
X0229561Y0220300D02*
X0223624Y0220300D01*
X0223624Y0240300D02*
X0229561Y0240300D01*
X0229561Y0250300D02*
X0223624Y0250300D01*
X0223624Y0260300D02*
X0229561Y0260300D01*
X0229561Y0270300D02*
X0223624Y0270300D01*
X0223624Y0280300D02*
X0229561Y0280300D01*
X0229561Y0290300D02*
X0223624Y0290300D01*
X0223624Y0300300D02*
X0229561Y0300300D01*
X0229561Y0310300D02*
X0223624Y0310300D01*
X0223624Y0130300D02*
X0229561Y0130300D01*
X0229561Y0120300D02*
X0223624Y0120300D01*
X0223624Y0110300D02*
X0229561Y0110300D01*
X0229561Y0100300D02*
X0223624Y0100300D01*
X0223624Y0090300D02*
X0229561Y0090300D01*
X0229561Y0080300D02*
X0223624Y0080300D01*
X0223624Y0070300D02*
X0229561Y0070300D01*
X0229561Y0060300D02*
X0223624Y0060300D01*
D11*
X0196593Y0237500D02*
X0196593Y0243100D01*
X0186593Y0243100D02*
X0186593Y0237500D01*
X0176593Y0237500D02*
X0176593Y0243100D01*
X0166593Y0243100D02*
X0166593Y0237500D01*
D12*
X0206693Y0034200D02*
X0206693Y0026400D01*
X0226493Y0026400D02*
X0226493Y0034200D01*
D13*
X0206593Y0320300D03*
X0206593Y0330300D03*
X0196593Y0330300D03*
X0196593Y0320300D03*
X0186593Y0320300D03*
X0186593Y0330300D03*
X0176593Y0330300D03*
X0176593Y0320300D03*
X0166593Y0320300D03*
X0166593Y0330300D03*
X0156593Y0330300D03*
X0156593Y0320300D03*
X0146593Y0320300D03*
X0146593Y0330300D03*
X0136593Y0330300D03*
X0136593Y0320300D03*
X0126593Y0320300D03*
X0126593Y0330300D03*
X0116593Y0330300D03*
X0116593Y0320300D03*
X0106593Y0320300D03*
X0106593Y0330300D03*
X0096593Y0330300D03*
X0096593Y0320300D03*
X0086593Y0320300D03*
X0086593Y0330300D03*
X0076593Y0330300D03*
X0076593Y0320300D03*
X0066593Y0320300D03*
X0066593Y0330300D03*
X0056593Y0330300D03*
X0056593Y0320300D03*
X0046593Y0320300D03*
X0046593Y0330300D03*
X0036593Y0330300D03*
X0036593Y0320300D03*
D14*
X0051593Y0165300D03*
X0054093Y0090300D03*
M02*
