G75*
%MOIN*%
%OFA0B0*%
%FSLAX25Y25*%
%IPPOS*%
%LPD*%
%AMOC8*
5,1,8,0,0,1.08239X$1,22.5*
%
%ADD10C,0.05937*%
%ADD11C,0.05600*%
%ADD12C,0.07800*%
%ADD13C,0.05937*%
%ADD14C,0.01200*%
%ADD15C,0.01600*%
%ADD16R,0.03962X0.03962*%
D10*
X0033624Y0025300D02*
X0039561Y0025300D01*
X0039561Y0035300D02*
X0033624Y0035300D01*
X0033624Y0045300D02*
X0039561Y0045300D01*
X0039561Y0055300D02*
X0033624Y0055300D01*
X0033624Y0065300D02*
X0039561Y0065300D01*
X0039561Y0075300D02*
X0033624Y0075300D01*
X0033624Y0085300D02*
X0039561Y0085300D01*
X0039561Y0095300D02*
X0033624Y0095300D01*
X0033624Y0105300D02*
X0039561Y0105300D01*
X0039561Y0115300D02*
X0033624Y0115300D01*
X0033624Y0130300D02*
X0039561Y0130300D01*
X0039561Y0140300D02*
X0033624Y0140300D01*
X0033624Y0150300D02*
X0039561Y0150300D01*
X0039561Y0160300D02*
X0033624Y0160300D01*
X0033624Y0170300D02*
X0039561Y0170300D01*
X0039561Y0180300D02*
X0033624Y0180300D01*
X0033624Y0190300D02*
X0039561Y0190300D01*
X0039561Y0200300D02*
X0033624Y0200300D01*
X0033624Y0220300D02*
X0039561Y0220300D01*
X0039561Y0230300D02*
X0033624Y0230300D01*
X0033624Y0240300D02*
X0039561Y0240300D01*
X0039561Y0250300D02*
X0033624Y0250300D01*
X0033624Y0260300D02*
X0039561Y0260300D01*
X0039561Y0270300D02*
X0033624Y0270300D01*
X0033624Y0280300D02*
X0039561Y0280300D01*
X0039561Y0290300D02*
X0033624Y0290300D01*
X0085656Y0210300D02*
X0091593Y0210300D01*
X0101593Y0210300D02*
X0107530Y0210300D01*
X0107530Y0200300D02*
X0101593Y0200300D01*
X0101593Y0190300D02*
X0107530Y0190300D01*
X0107530Y0180300D02*
X0101593Y0180300D01*
X0101593Y0170300D02*
X0107530Y0170300D01*
X0107530Y0160300D02*
X0101593Y0160300D01*
X0101593Y0150300D02*
X0107530Y0150300D01*
X0107530Y0140300D02*
X0101593Y0140300D01*
X0101593Y0130300D02*
X0107530Y0130300D01*
X0107530Y0120300D02*
X0101593Y0120300D01*
X0101593Y0110300D02*
X0107530Y0110300D01*
X0107530Y0100300D02*
X0101593Y0100300D01*
X0101593Y0090300D02*
X0107530Y0090300D01*
X0107530Y0080300D02*
X0101593Y0080300D01*
X0101593Y0070300D02*
X0107530Y0070300D01*
X0107530Y0060300D02*
X0101593Y0060300D01*
X0101593Y0050300D02*
X0107530Y0050300D01*
X0091593Y0050300D02*
X0085656Y0050300D01*
X0085656Y0060300D02*
X0091593Y0060300D01*
X0091593Y0070300D02*
X0085656Y0070300D01*
X0085656Y0080300D02*
X0091593Y0080300D01*
X0091593Y0090300D02*
X0085656Y0090300D01*
X0085656Y0100300D02*
X0091593Y0100300D01*
X0091593Y0110300D02*
X0085656Y0110300D01*
X0085656Y0120300D02*
X0091593Y0120300D01*
X0091593Y0130300D02*
X0085656Y0130300D01*
X0085656Y0140300D02*
X0091593Y0140300D01*
X0091593Y0150300D02*
X0085656Y0150300D01*
X0085656Y0160300D02*
X0091593Y0160300D01*
X0091593Y0170300D02*
X0085656Y0170300D01*
X0085656Y0180300D02*
X0091593Y0180300D01*
X0091593Y0190300D02*
X0085656Y0190300D01*
X0085656Y0200300D02*
X0091593Y0200300D01*
X0153624Y0200300D02*
X0159561Y0200300D01*
X0159561Y0190300D02*
X0153624Y0190300D01*
X0153624Y0180300D02*
X0159561Y0180300D01*
X0159561Y0170300D02*
X0153624Y0170300D01*
X0153624Y0160300D02*
X0159561Y0160300D01*
X0159561Y0150300D02*
X0153624Y0150300D01*
X0153624Y0210300D02*
X0159561Y0210300D01*
X0159561Y0220300D02*
X0153624Y0220300D01*
X0203624Y0220300D02*
X0209561Y0220300D01*
X0209561Y0210300D02*
X0203624Y0210300D01*
X0203624Y0200300D02*
X0209561Y0200300D01*
X0209561Y0190300D02*
X0203624Y0190300D01*
X0203624Y0180300D02*
X0209561Y0180300D01*
X0209561Y0170300D02*
X0203624Y0170300D01*
X0203624Y0160300D02*
X0209561Y0160300D01*
X0209561Y0150300D02*
X0203624Y0150300D01*
X0223624Y0150300D02*
X0229561Y0150300D01*
X0229561Y0160300D02*
X0223624Y0160300D01*
X0223624Y0170300D02*
X0229561Y0170300D01*
X0229561Y0180300D02*
X0223624Y0180300D01*
X0223624Y0190300D02*
X0229561Y0190300D01*
X0229561Y0200300D02*
X0223624Y0200300D01*
X0223624Y0210300D02*
X0229561Y0210300D01*
X0229561Y0220300D02*
X0223624Y0220300D01*
X0223624Y0240300D02*
X0229561Y0240300D01*
X0229561Y0250300D02*
X0223624Y0250300D01*
X0223624Y0260300D02*
X0229561Y0260300D01*
X0229561Y0270300D02*
X0223624Y0270300D01*
X0223624Y0280300D02*
X0229561Y0280300D01*
X0229561Y0290300D02*
X0223624Y0290300D01*
X0223624Y0300300D02*
X0229561Y0300300D01*
X0229561Y0310300D02*
X0223624Y0310300D01*
X0223624Y0130300D02*
X0229561Y0130300D01*
X0229561Y0120300D02*
X0223624Y0120300D01*
X0223624Y0110300D02*
X0229561Y0110300D01*
X0229561Y0100300D02*
X0223624Y0100300D01*
X0223624Y0090300D02*
X0229561Y0090300D01*
X0229561Y0080300D02*
X0223624Y0080300D01*
X0223624Y0070300D02*
X0229561Y0070300D01*
X0229561Y0060300D02*
X0223624Y0060300D01*
D11*
X0196593Y0237500D02*
X0196593Y0243100D01*
X0186593Y0243100D02*
X0186593Y0237500D01*
X0176593Y0237500D02*
X0176593Y0243100D01*
X0166593Y0243100D02*
X0166593Y0237500D01*
D12*
X0206693Y0034200D02*
X0206693Y0026400D01*
X0226493Y0026400D02*
X0226493Y0034200D01*
D13*
X0206593Y0320300D03*
X0206593Y0330300D03*
X0196593Y0330300D03*
X0196593Y0320300D03*
X0186593Y0320300D03*
X0186593Y0330300D03*
X0176593Y0330300D03*
X0176593Y0320300D03*
X0166593Y0320300D03*
X0166593Y0330300D03*
X0156593Y0330300D03*
X0156593Y0320300D03*
X0146593Y0320300D03*
X0146593Y0330300D03*
X0136593Y0330300D03*
X0136593Y0320300D03*
X0126593Y0320300D03*
X0126593Y0330300D03*
X0116593Y0330300D03*
X0116593Y0320300D03*
X0106593Y0320300D03*
X0106593Y0330300D03*
X0096593Y0330300D03*
X0096593Y0320300D03*
X0086593Y0320300D03*
X0086593Y0330300D03*
X0076593Y0330300D03*
X0076593Y0320300D03*
X0066593Y0320300D03*
X0066593Y0330300D03*
X0056593Y0330300D03*
X0056593Y0320300D03*
X0046593Y0320300D03*
X0046593Y0330300D03*
X0036593Y0330300D03*
X0036593Y0320300D03*
D14*
X0021793Y0340061D02*
X0021793Y0020500D01*
X0031707Y0020500D01*
X0030697Y0020918D01*
X0029243Y0022372D01*
X0028456Y0024272D01*
X0028456Y0026328D01*
X0029243Y0028228D01*
X0030697Y0029682D01*
X0032190Y0030300D01*
X0030697Y0030918D01*
X0029243Y0032372D01*
X0028456Y0034272D01*
X0028456Y0036328D01*
X0029243Y0038228D01*
X0030697Y0039682D01*
X0032189Y0040300D01*
X0030697Y0040918D01*
X0029243Y0042372D01*
X0028456Y0044272D01*
X0028456Y0046328D01*
X0029243Y0048228D01*
X0030697Y0049682D01*
X0032189Y0050300D01*
X0030697Y0050918D01*
X0029243Y0052372D01*
X0028456Y0054272D01*
X0028456Y0056328D01*
X0029243Y0058228D01*
X0030697Y0059682D01*
X0032189Y0060300D01*
X0030697Y0060918D01*
X0029243Y0062372D01*
X0028456Y0064272D01*
X0028456Y0066328D01*
X0029243Y0068228D01*
X0030697Y0069682D01*
X0032189Y0070300D01*
X0030697Y0070918D01*
X0029243Y0072372D01*
X0028456Y0074272D01*
X0028456Y0076328D01*
X0029243Y0078228D01*
X0030697Y0079682D01*
X0032189Y0080300D01*
X0030697Y0080918D01*
X0029243Y0082372D01*
X0028456Y0084272D01*
X0028456Y0086328D01*
X0029243Y0088228D01*
X0030697Y0089682D01*
X0032189Y0090300D01*
X0030697Y0090918D01*
X0029243Y0092372D01*
X0028456Y0094272D01*
X0028456Y0096328D01*
X0029243Y0098228D01*
X0030697Y0099682D01*
X0032189Y0100300D01*
X0030697Y0100918D01*
X0029243Y0102372D01*
X0028456Y0104272D01*
X0028456Y0106328D01*
X0029243Y0108228D01*
X0030697Y0109682D01*
X0032189Y0110300D01*
X0030697Y0110918D01*
X0029243Y0112372D01*
X0028456Y0114272D01*
X0028456Y0116328D01*
X0029243Y0118228D01*
X0030697Y0119682D01*
X0032596Y0120468D01*
X0040589Y0120468D01*
X0042489Y0119682D01*
X0043943Y0118228D01*
X0044730Y0116328D01*
X0044730Y0116123D01*
X0048179Y0112674D01*
X0048793Y0112060D01*
X0048793Y0161119D01*
X0048700Y0161119D01*
X0047412Y0162408D01*
X0047412Y0165909D01*
X0044174Y0162671D01*
X0044730Y0161328D01*
X0044730Y0159272D01*
X0043943Y0157372D01*
X0042489Y0155918D01*
X0040996Y0155300D01*
X0042489Y0154682D01*
X0043943Y0153228D01*
X0044730Y0151328D01*
X0044730Y0149272D01*
X0043943Y0147372D01*
X0042489Y0145918D01*
X0040996Y0145300D01*
X0042489Y0144682D01*
X0043943Y0143228D01*
X0044730Y0141328D01*
X0044730Y0139272D01*
X0043943Y0137372D01*
X0042489Y0135918D01*
X0040996Y0135300D01*
X0042489Y0134682D01*
X0043943Y0133228D01*
X0044730Y0131328D01*
X0044730Y0129272D01*
X0043943Y0127372D01*
X0042489Y0125918D01*
X0040589Y0125131D01*
X0032596Y0125131D01*
X0030697Y0125918D01*
X0029243Y0127372D01*
X0028456Y0129272D01*
X0028456Y0129477D01*
X0025007Y0132926D01*
X0024219Y0133714D01*
X0023793Y0134743D01*
X0023793Y0205857D01*
X0024219Y0206886D01*
X0029219Y0211886D01*
X0030007Y0212674D01*
X0031036Y0213100D01*
X0040433Y0213100D01*
X0054219Y0226886D01*
X0055007Y0227674D01*
X0056036Y0228100D01*
X0130433Y0228100D01*
X0154219Y0251886D01*
X0155007Y0252674D01*
X0156036Y0253100D01*
X0207150Y0253100D01*
X0208179Y0252674D01*
X0218179Y0242674D01*
X0218769Y0242084D01*
X0219243Y0243228D01*
X0220697Y0244682D01*
X0222189Y0245300D01*
X0220697Y0245918D01*
X0219243Y0247372D01*
X0218456Y0249272D01*
X0218456Y0251328D01*
X0219243Y0253228D01*
X0220697Y0254682D01*
X0222189Y0255300D01*
X0220697Y0255918D01*
X0219243Y0257372D01*
X0218456Y0259272D01*
X0218456Y0261328D01*
X0219243Y0263228D01*
X0220697Y0264682D01*
X0222189Y0265300D01*
X0220697Y0265918D01*
X0219243Y0267372D01*
X0218456Y0269272D01*
X0218456Y0271328D01*
X0219243Y0273228D01*
X0220697Y0274682D01*
X0222189Y0275300D01*
X0220697Y0275918D01*
X0219243Y0277372D01*
X0218456Y0279272D01*
X0218456Y0281328D01*
X0219243Y0283228D01*
X0220697Y0284682D01*
X0222189Y0285300D01*
X0220697Y0285918D01*
X0219243Y0287372D01*
X0218456Y0289272D01*
X0218456Y0291328D01*
X0219243Y0293228D01*
X0220697Y0294682D01*
X0222189Y0295300D01*
X0220697Y0295918D01*
X0219243Y0297372D01*
X0218456Y0299272D01*
X0218456Y0301328D01*
X0219243Y0303228D01*
X0220697Y0304682D01*
X0222189Y0305300D01*
X0220697Y0305918D01*
X0219243Y0307372D01*
X0218456Y0309272D01*
X0218456Y0311328D01*
X0219243Y0313228D01*
X0220697Y0314682D01*
X0222596Y0315468D01*
X0230589Y0315468D01*
X0232489Y0314682D01*
X0233943Y0313228D01*
X0234730Y0311328D01*
X0234730Y0309272D01*
X0233943Y0307372D01*
X0232489Y0305918D01*
X0230996Y0305300D01*
X0232489Y0304682D01*
X0233943Y0303228D01*
X0234730Y0301328D01*
X0234730Y0299272D01*
X0233943Y0297372D01*
X0232489Y0295918D01*
X0230996Y0295300D01*
X0232489Y0294682D01*
X0233943Y0293228D01*
X0234730Y0291328D01*
X0234730Y0289272D01*
X0233943Y0287372D01*
X0232489Y0285918D01*
X0230996Y0285300D01*
X0232489Y0284682D01*
X0233943Y0283228D01*
X0234730Y0281328D01*
X0234730Y0279272D01*
X0233943Y0277372D01*
X0232489Y0275918D01*
X0230996Y0275300D01*
X0232489Y0274682D01*
X0233943Y0273228D01*
X0234730Y0271328D01*
X0234730Y0269272D01*
X0233943Y0267372D01*
X0232489Y0265918D01*
X0230996Y0265300D01*
X0232489Y0264682D01*
X0233943Y0263228D01*
X0234730Y0261328D01*
X0234730Y0259272D01*
X0233943Y0257372D01*
X0232489Y0255918D01*
X0230996Y0255300D01*
X0232489Y0254682D01*
X0233943Y0253228D01*
X0234730Y0251328D01*
X0234730Y0249272D01*
X0233943Y0247372D01*
X0232489Y0245918D01*
X0230996Y0245300D01*
X0232489Y0244682D01*
X0233943Y0243228D01*
X0234730Y0241328D01*
X0234730Y0239272D01*
X0233943Y0237372D01*
X0232489Y0235918D01*
X0230589Y0235131D01*
X0222596Y0235131D01*
X0220697Y0235918D01*
X0219393Y0237222D01*
X0219393Y0223378D01*
X0220697Y0224682D01*
X0222596Y0225468D01*
X0230589Y0225468D01*
X0232489Y0224682D01*
X0233943Y0223228D01*
X0234730Y0221328D01*
X0234730Y0219272D01*
X0233943Y0217372D01*
X0232489Y0215918D01*
X0230996Y0215300D01*
X0232489Y0214682D01*
X0233943Y0213228D01*
X0234730Y0211328D01*
X0234730Y0209272D01*
X0233943Y0207372D01*
X0232489Y0205918D01*
X0230996Y0205300D01*
X0232489Y0204682D01*
X0233943Y0203228D01*
X0234730Y0201328D01*
X0234730Y0199272D01*
X0233943Y0197372D01*
X0232489Y0195918D01*
X0230996Y0195300D01*
X0232489Y0194682D01*
X0233943Y0193228D01*
X0234730Y0191328D01*
X0234730Y0189272D01*
X0233943Y0187372D01*
X0232489Y0185918D01*
X0230996Y0185300D01*
X0232489Y0184682D01*
X0233943Y0183228D01*
X0234730Y0181328D01*
X0234730Y0179272D01*
X0233943Y0177372D01*
X0232489Y0175918D01*
X0230996Y0175300D01*
X0232489Y0174682D01*
X0233943Y0173228D01*
X0234730Y0171328D01*
X0234730Y0169272D01*
X0233943Y0167372D01*
X0232489Y0165918D01*
X0230996Y0165300D01*
X0232489Y0164682D01*
X0233943Y0163228D01*
X0234730Y0161328D01*
X0234730Y0159272D01*
X0233943Y0157372D01*
X0232489Y0155918D01*
X0230996Y0155300D01*
X0232489Y0154682D01*
X0233943Y0153228D01*
X0234730Y0151328D01*
X0234730Y0149272D01*
X0233943Y0147372D01*
X0232489Y0145918D01*
X0230589Y0145131D01*
X0222596Y0145131D01*
X0220697Y0145918D01*
X0219243Y0147372D01*
X0218456Y0149272D01*
X0218456Y0151328D01*
X0219243Y0153228D01*
X0220697Y0154682D01*
X0222190Y0155300D01*
X0220697Y0155918D01*
X0219243Y0157372D01*
X0218456Y0159272D01*
X0218456Y0161328D01*
X0219243Y0163228D01*
X0220697Y0164682D01*
X0222190Y0165300D01*
X0220697Y0165918D01*
X0219243Y0167372D01*
X0218456Y0169272D01*
X0218456Y0171328D01*
X0219243Y0173228D01*
X0220697Y0174682D01*
X0222190Y0175300D01*
X0220697Y0175918D01*
X0219243Y0177372D01*
X0218456Y0179272D01*
X0218456Y0181328D01*
X0219243Y0183228D01*
X0220697Y0184682D01*
X0222190Y0185300D01*
X0220697Y0185918D01*
X0219243Y0187372D01*
X0218456Y0189272D01*
X0218456Y0191328D01*
X0219243Y0193228D01*
X0220697Y0194682D01*
X0222190Y0195300D01*
X0220697Y0195918D01*
X0219243Y0197372D01*
X0218456Y0199272D01*
X0218456Y0201328D01*
X0219243Y0203228D01*
X0220697Y0204682D01*
X0222190Y0205300D01*
X0220697Y0205918D01*
X0219243Y0207372D01*
X0218456Y0209272D01*
X0218456Y0211328D01*
X0219243Y0213228D01*
X0220697Y0214682D01*
X0222190Y0215300D01*
X0220697Y0215918D01*
X0219393Y0217222D01*
X0219393Y0214743D01*
X0218967Y0213714D01*
X0214730Y0209477D01*
X0214730Y0209272D01*
X0213943Y0207372D01*
X0212489Y0205918D01*
X0210996Y0205300D01*
X0212489Y0204682D01*
X0213943Y0203228D01*
X0214730Y0201328D01*
X0214730Y0199272D01*
X0213943Y0197372D01*
X0212489Y0195918D01*
X0210996Y0195300D01*
X0212489Y0194682D01*
X0213943Y0193228D01*
X0214730Y0191328D01*
X0214730Y0189272D01*
X0213943Y0187372D01*
X0212489Y0185918D01*
X0210996Y0185300D01*
X0212489Y0184682D01*
X0213943Y0183228D01*
X0214730Y0181328D01*
X0214730Y0179272D01*
X0213943Y0177372D01*
X0212489Y0175918D01*
X0210996Y0175300D01*
X0212489Y0174682D01*
X0213943Y0173228D01*
X0214730Y0171328D01*
X0214730Y0169272D01*
X0213943Y0167372D01*
X0212489Y0165918D01*
X0210996Y0165300D01*
X0212489Y0164682D01*
X0213943Y0163228D01*
X0214730Y0161328D01*
X0214730Y0159272D01*
X0213943Y0157372D01*
X0212489Y0155918D01*
X0210996Y0155300D01*
X0212489Y0154682D01*
X0213943Y0153228D01*
X0214730Y0151328D01*
X0214730Y0149272D01*
X0213943Y0147372D01*
X0212489Y0145918D01*
X0210589Y0145131D01*
X0202596Y0145131D01*
X0200697Y0145918D01*
X0199243Y0147372D01*
X0198456Y0149272D01*
X0198456Y0151328D01*
X0199243Y0153228D01*
X0200697Y0154682D01*
X0202189Y0155300D01*
X0200697Y0155918D01*
X0199243Y0157372D01*
X0198456Y0159272D01*
X0198456Y0161328D01*
X0199243Y0163228D01*
X0200697Y0164682D01*
X0202189Y0165300D01*
X0200697Y0165918D01*
X0199243Y0167372D01*
X0198456Y0169272D01*
X0198456Y0171328D01*
X0199243Y0173228D01*
X0200697Y0174682D01*
X0202189Y0175300D01*
X0200697Y0175918D01*
X0199243Y0177372D01*
X0198456Y0179272D01*
X0198456Y0181328D01*
X0199243Y0183228D01*
X0200697Y0184682D01*
X0202190Y0185300D01*
X0200697Y0185918D01*
X0199593Y0187022D01*
X0199593Y0184703D01*
X0199136Y0183601D01*
X0184136Y0168601D01*
X0183292Y0167757D01*
X0182190Y0167300D01*
X0163871Y0167300D01*
X0162489Y0165918D01*
X0160589Y0165131D01*
X0152596Y0165131D01*
X0150697Y0165918D01*
X0149243Y0167372D01*
X0148456Y0169272D01*
X0148456Y0171328D01*
X0149243Y0173228D01*
X0150697Y0174682D01*
X0152190Y0175300D01*
X0150697Y0175918D01*
X0149243Y0177372D01*
X0148456Y0179272D01*
X0148456Y0181328D01*
X0149243Y0183228D01*
X0150697Y0184682D01*
X0152190Y0185300D01*
X0150697Y0185918D01*
X0149243Y0187372D01*
X0148456Y0189272D01*
X0148456Y0191328D01*
X0149243Y0193228D01*
X0150697Y0194682D01*
X0152190Y0195300D01*
X0150697Y0195918D01*
X0149243Y0197372D01*
X0148456Y0199272D01*
X0148456Y0201328D01*
X0149243Y0203228D01*
X0150697Y0204682D01*
X0152190Y0205300D01*
X0150697Y0205918D01*
X0149243Y0207372D01*
X0148456Y0209272D01*
X0148456Y0211328D01*
X0149243Y0213228D01*
X0150697Y0214682D01*
X0152596Y0215468D01*
X0160589Y0215468D01*
X0162489Y0214682D01*
X0163593Y0213578D01*
X0163593Y0218149D01*
X0163469Y0217906D01*
X0163046Y0217324D01*
X0162538Y0216815D01*
X0161956Y0216393D01*
X0161315Y0216066D01*
X0160631Y0215844D01*
X0159921Y0215731D01*
X0156977Y0215731D01*
X0156977Y0219916D01*
X0156209Y0219916D01*
X0156209Y0215731D01*
X0153265Y0215731D01*
X0152555Y0215844D01*
X0151871Y0216066D01*
X0151230Y0216393D01*
X0150648Y0216815D01*
X0150140Y0217324D01*
X0149717Y0217906D01*
X0149391Y0218546D01*
X0149168Y0219230D01*
X0149060Y0219916D01*
X0156209Y0219916D01*
X0156209Y0220684D01*
X0156209Y0224868D01*
X0153265Y0224868D01*
X0152555Y0224756D01*
X0151871Y0224534D01*
X0151230Y0224207D01*
X0150648Y0223785D01*
X0150140Y0223276D01*
X0149717Y0222694D01*
X0149391Y0222054D01*
X0149168Y0221370D01*
X0149060Y0220684D01*
X0156209Y0220684D01*
X0156977Y0220684D01*
X0156977Y0224868D01*
X0159921Y0224868D01*
X0160631Y0224756D01*
X0161315Y0224534D01*
X0161956Y0224207D01*
X0162538Y0223785D01*
X0163046Y0223276D01*
X0163469Y0222694D01*
X0163593Y0222451D01*
X0163593Y0233429D01*
X0162354Y0234668D01*
X0161593Y0236505D01*
X0161593Y0244095D01*
X0162354Y0245932D01*
X0163761Y0247339D01*
X0164150Y0247500D01*
X0157753Y0247500D01*
X0133179Y0222926D01*
X0132150Y0222500D01*
X0057753Y0222500D01*
X0043179Y0207926D01*
X0042150Y0207500D01*
X0032753Y0207500D01*
X0029393Y0204140D01*
X0029393Y0203378D01*
X0030697Y0204682D01*
X0032596Y0205468D01*
X0040589Y0205468D01*
X0042489Y0204682D01*
X0043943Y0203228D01*
X0044730Y0201328D01*
X0044730Y0199272D01*
X0043943Y0197372D01*
X0042489Y0195918D01*
X0040996Y0195300D01*
X0042489Y0194682D01*
X0043943Y0193228D01*
X0044730Y0191328D01*
X0044730Y0189272D01*
X0043943Y0187372D01*
X0042489Y0185918D01*
X0040996Y0185300D01*
X0042154Y0184821D01*
X0049219Y0191886D01*
X0050007Y0192674D01*
X0051036Y0193100D01*
X0081221Y0193100D01*
X0081274Y0193228D01*
X0082728Y0194682D01*
X0084221Y0195300D01*
X0082728Y0195918D01*
X0081274Y0197372D01*
X0080487Y0199272D01*
X0080487Y0201328D01*
X0081274Y0203228D01*
X0082728Y0204682D01*
X0084221Y0205300D01*
X0082728Y0205918D01*
X0081274Y0207372D01*
X0080487Y0209272D01*
X0080487Y0211328D01*
X0081274Y0213228D01*
X0082728Y0214682D01*
X0084628Y0215468D01*
X0092621Y0215468D01*
X0094521Y0214682D01*
X0095974Y0213228D01*
X0096761Y0211328D01*
X0096761Y0209272D01*
X0095974Y0207372D01*
X0094521Y0205918D01*
X0093028Y0205300D01*
X0094521Y0204682D01*
X0095974Y0203228D01*
X0096761Y0201328D01*
X0096761Y0199272D01*
X0096708Y0199144D01*
X0097414Y0198439D01*
X0097359Y0198546D01*
X0097137Y0199230D01*
X0097028Y0199916D01*
X0101209Y0199916D01*
X0101977Y0199916D01*
X0101977Y0200684D01*
X0112094Y0200684D01*
X0111986Y0201370D01*
X0111764Y0202054D01*
X0111437Y0202694D01*
X0111015Y0203276D01*
X0110506Y0203785D01*
X0109924Y0204207D01*
X0109284Y0204534D01*
X0108600Y0204756D01*
X0107889Y0204868D01*
X0101977Y0204868D01*
X0101977Y0200684D01*
X0101209Y0200684D01*
X0101209Y0204865D01*
X0100523Y0204756D01*
X0099839Y0204534D01*
X0099198Y0204207D01*
X0098617Y0203785D01*
X0098108Y0203276D01*
X0097686Y0202694D01*
X0097359Y0202054D01*
X0097137Y0201370D01*
X0097028Y0200684D01*
X0101209Y0200684D01*
X0101209Y0199916D01*
X0101209Y0195735D01*
X0100523Y0195844D01*
X0099839Y0196066D01*
X0099198Y0196393D01*
X0099159Y0196421D01*
X0099393Y0195857D01*
X0099393Y0194306D01*
X0099839Y0194534D01*
X0100523Y0194756D01*
X0101209Y0194865D01*
X0101209Y0190684D01*
X0101977Y0190684D01*
X0112094Y0190684D01*
X0111986Y0191370D01*
X0111764Y0192054D01*
X0111437Y0192694D01*
X0111015Y0193276D01*
X0110506Y0193785D01*
X0109924Y0194207D01*
X0109284Y0194534D01*
X0108600Y0194756D01*
X0107889Y0194868D01*
X0101977Y0194868D01*
X0101977Y0190684D01*
X0101977Y0189916D01*
X0112094Y0189916D01*
X0111986Y0189230D01*
X0111764Y0188546D01*
X0111437Y0187906D01*
X0111015Y0187324D01*
X0110506Y0186815D01*
X0109924Y0186393D01*
X0109284Y0186066D01*
X0108600Y0185844D01*
X0107889Y0185731D01*
X0101977Y0185731D01*
X0101977Y0189916D01*
X0101209Y0189916D01*
X0101209Y0185735D01*
X0100523Y0185844D01*
X0099839Y0186066D01*
X0099393Y0186294D01*
X0099393Y0184306D01*
X0099839Y0184534D01*
X0100523Y0184756D01*
X0101209Y0184865D01*
X0101209Y0180684D01*
X0101977Y0180684D01*
X0112094Y0180684D01*
X0111986Y0181370D01*
X0111764Y0182054D01*
X0111437Y0182694D01*
X0111015Y0183276D01*
X0110506Y0183785D01*
X0109924Y0184207D01*
X0109284Y0184534D01*
X0108600Y0184756D01*
X0107889Y0184868D01*
X0101977Y0184868D01*
X0101977Y0180684D01*
X0101977Y0179916D01*
X0112094Y0179916D01*
X0111986Y0179230D01*
X0111764Y0178546D01*
X0111437Y0177906D01*
X0111015Y0177324D01*
X0110506Y0176815D01*
X0109924Y0176393D01*
X0109284Y0176066D01*
X0108600Y0175844D01*
X0107889Y0175731D01*
X0101977Y0175731D01*
X0101977Y0179916D01*
X0101209Y0179916D01*
X0101209Y0175735D01*
X0100523Y0175844D01*
X0099839Y0176066D01*
X0099393Y0176294D01*
X0099393Y0174306D01*
X0099839Y0174534D01*
X0100523Y0174756D01*
X0101209Y0174865D01*
X0101209Y0170684D01*
X0101977Y0170684D01*
X0112094Y0170684D01*
X0111986Y0171370D01*
X0111764Y0172054D01*
X0111437Y0172694D01*
X0111015Y0173276D01*
X0110506Y0173785D01*
X0109924Y0174207D01*
X0109284Y0174534D01*
X0108600Y0174756D01*
X0107889Y0174868D01*
X0101977Y0174868D01*
X0101977Y0170684D01*
X0101977Y0169916D01*
X0112094Y0169916D01*
X0111986Y0169230D01*
X0111764Y0168546D01*
X0111437Y0167906D01*
X0111015Y0167324D01*
X0110506Y0166815D01*
X0109924Y0166393D01*
X0109284Y0166066D01*
X0108600Y0165844D01*
X0107889Y0165731D01*
X0101977Y0165731D01*
X0101977Y0169916D01*
X0101209Y0169916D01*
X0101209Y0165735D01*
X0100523Y0165844D01*
X0099839Y0166066D01*
X0099198Y0166393D01*
X0099077Y0166481D01*
X0098967Y0166214D01*
X0098179Y0165426D01*
X0095976Y0163224D01*
X0096761Y0161328D01*
X0096761Y0159272D01*
X0095974Y0157372D01*
X0094521Y0155918D01*
X0093028Y0155300D01*
X0094521Y0154682D01*
X0095974Y0153228D01*
X0096761Y0151328D01*
X0096761Y0149272D01*
X0095974Y0147372D01*
X0094521Y0145918D01*
X0093028Y0145300D01*
X0094521Y0144682D01*
X0095974Y0143228D01*
X0096761Y0141328D01*
X0096761Y0139272D01*
X0095974Y0137372D01*
X0094521Y0135918D01*
X0093028Y0135300D01*
X0094521Y0134682D01*
X0095974Y0133228D01*
X0096761Y0131328D01*
X0096761Y0129272D01*
X0095974Y0127372D01*
X0094521Y0125918D01*
X0093028Y0125300D01*
X0094521Y0124682D01*
X0095974Y0123228D01*
X0096761Y0121328D01*
X0096761Y0119272D01*
X0095974Y0117372D01*
X0094521Y0115918D01*
X0093028Y0115300D01*
X0094521Y0114682D01*
X0095974Y0113228D01*
X0096761Y0111328D01*
X0096761Y0109272D01*
X0095974Y0107372D01*
X0094521Y0105918D01*
X0093028Y0105300D01*
X0094521Y0104682D01*
X0095974Y0103228D01*
X0096761Y0101328D01*
X0096761Y0099272D01*
X0095974Y0097372D01*
X0094521Y0095918D01*
X0093028Y0095300D01*
X0094521Y0094682D01*
X0095974Y0093228D01*
X0096761Y0091328D01*
X0096761Y0089272D01*
X0095974Y0087372D01*
X0094521Y0085918D01*
X0093028Y0085300D01*
X0094521Y0084682D01*
X0095974Y0083228D01*
X0096761Y0081328D01*
X0096761Y0079272D01*
X0095974Y0077372D01*
X0094521Y0075918D01*
X0093028Y0075300D01*
X0094521Y0074682D01*
X0095974Y0073228D01*
X0096761Y0071328D01*
X0096761Y0069272D01*
X0095974Y0067372D01*
X0094521Y0065918D01*
X0093028Y0065300D01*
X0094521Y0064682D01*
X0095974Y0063228D01*
X0096761Y0061328D01*
X0096761Y0059272D01*
X0095974Y0057372D01*
X0094521Y0055918D01*
X0093028Y0055300D01*
X0094521Y0054682D01*
X0095974Y0053228D01*
X0096761Y0051328D01*
X0096761Y0049272D01*
X0095974Y0047372D01*
X0094521Y0045918D01*
X0092621Y0045131D01*
X0084628Y0045131D01*
X0082728Y0045918D01*
X0081274Y0047372D01*
X0080487Y0049272D01*
X0080487Y0051328D01*
X0081274Y0053228D01*
X0082728Y0054682D01*
X0084221Y0055300D01*
X0082728Y0055918D01*
X0081274Y0057372D01*
X0080487Y0059272D01*
X0080487Y0061328D01*
X0081274Y0063228D01*
X0082728Y0064682D01*
X0084221Y0065300D01*
X0082728Y0065918D01*
X0081274Y0067372D01*
X0080487Y0069272D01*
X0080487Y0071328D01*
X0081274Y0073228D01*
X0082728Y0074682D01*
X0084221Y0075300D01*
X0082728Y0075918D01*
X0081274Y0077372D01*
X0080487Y0079272D01*
X0080487Y0081328D01*
X0081274Y0083228D01*
X0082728Y0084682D01*
X0084221Y0085300D01*
X0082728Y0085918D01*
X0081274Y0087372D01*
X0080487Y0089272D01*
X0080487Y0091328D01*
X0081274Y0093228D01*
X0082728Y0094682D01*
X0084221Y0095300D01*
X0082728Y0095918D01*
X0081274Y0097372D01*
X0080487Y0099272D01*
X0080487Y0101328D01*
X0081274Y0103228D01*
X0082728Y0104682D01*
X0084221Y0105300D01*
X0082728Y0105918D01*
X0081274Y0107372D01*
X0080487Y0109272D01*
X0080487Y0111328D01*
X0081274Y0113228D01*
X0082728Y0114682D01*
X0084221Y0115300D01*
X0082728Y0115918D01*
X0081274Y0117372D01*
X0080487Y0119272D01*
X0080487Y0121328D01*
X0081274Y0123228D01*
X0082728Y0124682D01*
X0084221Y0125300D01*
X0082728Y0125918D01*
X0081274Y0127372D01*
X0080487Y0129272D01*
X0080487Y0131328D01*
X0081274Y0133228D01*
X0082728Y0134682D01*
X0084221Y0135300D01*
X0082728Y0135918D01*
X0081274Y0137372D01*
X0080487Y0139272D01*
X0080487Y0141328D01*
X0081274Y0143228D01*
X0082728Y0144682D01*
X0084221Y0145300D01*
X0082728Y0145918D01*
X0081274Y0147372D01*
X0080487Y0149272D01*
X0080487Y0151328D01*
X0081274Y0153228D01*
X0082728Y0154682D01*
X0084221Y0155300D01*
X0082728Y0155918D01*
X0081274Y0157372D01*
X0080487Y0159272D01*
X0080487Y0161328D01*
X0080598Y0161595D01*
X0079393Y0160390D01*
X0079393Y0089743D01*
X0078967Y0088714D01*
X0078179Y0087926D01*
X0068179Y0077926D01*
X0067150Y0077500D01*
X0051036Y0077500D01*
X0050007Y0077926D01*
X0049219Y0078714D01*
X0044417Y0083516D01*
X0043943Y0082372D01*
X0042489Y0080918D01*
X0040996Y0080300D01*
X0042489Y0079682D01*
X0043943Y0078228D01*
X0044730Y0076328D01*
X0044730Y0074272D01*
X0043943Y0072372D01*
X0042489Y0070918D01*
X0040996Y0070300D01*
X0042489Y0069682D01*
X0043943Y0068228D01*
X0044730Y0066328D01*
X0044730Y0064272D01*
X0043943Y0062372D01*
X0042489Y0060918D01*
X0040996Y0060300D01*
X0042489Y0059682D01*
X0043943Y0058228D01*
X0044730Y0056328D01*
X0044730Y0054272D01*
X0043943Y0052372D01*
X0042489Y0050918D01*
X0040996Y0050300D01*
X0042489Y0049682D01*
X0043943Y0048228D01*
X0044730Y0046328D01*
X0044730Y0044272D01*
X0043943Y0042372D01*
X0042489Y0040918D01*
X0040996Y0040300D01*
X0042489Y0039682D01*
X0043943Y0038228D01*
X0044730Y0036328D01*
X0044730Y0034272D01*
X0043943Y0032372D01*
X0042489Y0030918D01*
X0040996Y0030300D01*
X0042489Y0029682D01*
X0043943Y0028228D01*
X0044730Y0026328D01*
X0044730Y0024272D01*
X0043943Y0022372D01*
X0042489Y0020918D01*
X0041479Y0020500D01*
X0204997Y0020500D01*
X0203237Y0021229D01*
X0201522Y0022945D01*
X0200593Y0025187D01*
X0200593Y0032157D01*
X0154894Y0077857D01*
X0154893Y0077857D01*
X0154050Y0078701D01*
X0153593Y0079803D01*
X0153593Y0145131D01*
X0152596Y0145131D01*
X0150697Y0145918D01*
X0149243Y0147372D01*
X0148456Y0149272D01*
X0148456Y0151328D01*
X0149243Y0153228D01*
X0150697Y0154682D01*
X0152596Y0155468D01*
X0160589Y0155468D01*
X0162489Y0154682D01*
X0163943Y0153228D01*
X0164730Y0151328D01*
X0164730Y0149272D01*
X0163943Y0147372D01*
X0162489Y0145918D01*
X0160589Y0145131D01*
X0159593Y0145131D01*
X0159593Y0081643D01*
X0202551Y0038685D01*
X0203237Y0039371D01*
X0205479Y0040300D01*
X0207906Y0040300D01*
X0210148Y0039371D01*
X0211864Y0037655D01*
X0212793Y0035413D01*
X0212793Y0025187D01*
X0211864Y0022945D01*
X0210148Y0021229D01*
X0208389Y0020500D01*
X0240094Y0020500D01*
X0240094Y0340061D01*
X0021793Y0340061D01*
X0021793Y0338898D02*
X0240094Y0338898D01*
X0240094Y0337700D02*
X0021793Y0337700D01*
X0021793Y0336501D02*
X0240094Y0336501D01*
X0240094Y0335303D02*
X0208022Y0335303D01*
X0207621Y0335468D02*
X0205565Y0335468D01*
X0203665Y0334682D01*
X0202211Y0333228D01*
X0201593Y0331735D01*
X0200974Y0333228D01*
X0199521Y0334682D01*
X0197621Y0335468D01*
X0195565Y0335468D01*
X0193665Y0334682D01*
X0192211Y0333228D01*
X0191593Y0331735D01*
X0190974Y0333228D01*
X0189521Y0334682D01*
X0187621Y0335468D01*
X0185565Y0335468D01*
X0183665Y0334682D01*
X0182211Y0333228D01*
X0181593Y0331735D01*
X0180974Y0333228D01*
X0179521Y0334682D01*
X0177621Y0335468D01*
X0175565Y0335468D01*
X0173665Y0334682D01*
X0172211Y0333228D01*
X0171593Y0331735D01*
X0170974Y0333228D01*
X0169521Y0334682D01*
X0167621Y0335468D01*
X0165565Y0335468D01*
X0163665Y0334682D01*
X0162211Y0333228D01*
X0161593Y0331735D01*
X0160974Y0333228D01*
X0159521Y0334682D01*
X0157621Y0335468D01*
X0155565Y0335468D01*
X0153665Y0334682D01*
X0152211Y0333228D01*
X0151593Y0331735D01*
X0150974Y0333228D01*
X0149521Y0334682D01*
X0147621Y0335468D01*
X0145565Y0335468D01*
X0143665Y0334682D01*
X0142211Y0333228D01*
X0141593Y0331735D01*
X0140974Y0333228D01*
X0139521Y0334682D01*
X0137621Y0335468D01*
X0135565Y0335468D01*
X0133665Y0334682D01*
X0132211Y0333228D01*
X0131593Y0331735D01*
X0130974Y0333228D01*
X0129521Y0334682D01*
X0127621Y0335468D01*
X0125565Y0335468D01*
X0123665Y0334682D01*
X0122211Y0333228D01*
X0121593Y0331735D01*
X0120974Y0333228D01*
X0119521Y0334682D01*
X0117621Y0335468D01*
X0115565Y0335468D01*
X0113665Y0334682D01*
X0112211Y0333228D01*
X0111593Y0331735D01*
X0110974Y0333228D01*
X0109521Y0334682D01*
X0107621Y0335468D01*
X0105565Y0335468D01*
X0103665Y0334682D01*
X0102211Y0333228D01*
X0101593Y0331735D01*
X0100974Y0333228D01*
X0099521Y0334682D01*
X0097621Y0335468D01*
X0095565Y0335468D01*
X0093665Y0334682D01*
X0092211Y0333228D01*
X0091593Y0331735D01*
X0090974Y0333228D01*
X0089521Y0334682D01*
X0087621Y0335468D01*
X0085565Y0335468D01*
X0083665Y0334682D01*
X0082211Y0333228D01*
X0081593Y0331735D01*
X0080974Y0333228D01*
X0079521Y0334682D01*
X0077621Y0335468D01*
X0075565Y0335468D01*
X0073665Y0334682D01*
X0072211Y0333228D01*
X0071593Y0331735D01*
X0070974Y0333228D01*
X0069521Y0334682D01*
X0067621Y0335468D01*
X0065565Y0335468D01*
X0063665Y0334682D01*
X0062211Y0333228D01*
X0061593Y0331735D01*
X0060974Y0333228D01*
X0059521Y0334682D01*
X0057621Y0335468D01*
X0055565Y0335468D01*
X0053665Y0334682D01*
X0052211Y0333228D01*
X0051593Y0331735D01*
X0050974Y0333228D01*
X0049521Y0334682D01*
X0047621Y0335468D01*
X0045565Y0335468D01*
X0043665Y0334682D01*
X0042211Y0333228D01*
X0041593Y0331735D01*
X0040974Y0333228D01*
X0039521Y0334682D01*
X0037621Y0335468D01*
X0035565Y0335468D01*
X0033665Y0334682D01*
X0032211Y0333228D01*
X0031424Y0331328D01*
X0031424Y0329272D01*
X0032211Y0327372D01*
X0033665Y0325918D01*
X0035158Y0325300D01*
X0033665Y0324682D01*
X0032211Y0323228D01*
X0031424Y0321328D01*
X0031424Y0319272D01*
X0032211Y0317372D01*
X0033665Y0315918D01*
X0035565Y0315131D01*
X0037621Y0315131D01*
X0039521Y0315918D01*
X0040974Y0317372D01*
X0041593Y0318865D01*
X0042211Y0317372D01*
X0043665Y0315918D01*
X0045565Y0315131D01*
X0047621Y0315131D01*
X0049521Y0315918D01*
X0050974Y0317372D01*
X0051593Y0318865D01*
X0052211Y0317372D01*
X0053665Y0315918D01*
X0055565Y0315131D01*
X0057621Y0315131D01*
X0059521Y0315918D01*
X0060974Y0317372D01*
X0061593Y0318865D01*
X0062211Y0317372D01*
X0063665Y0315918D01*
X0065565Y0315131D01*
X0067621Y0315131D01*
X0069521Y0315918D01*
X0070974Y0317372D01*
X0071593Y0318865D01*
X0072211Y0317372D01*
X0073665Y0315918D01*
X0075565Y0315131D01*
X0077621Y0315131D01*
X0079521Y0315918D01*
X0080974Y0317372D01*
X0081593Y0318865D01*
X0082211Y0317372D01*
X0083665Y0315918D01*
X0085565Y0315131D01*
X0087621Y0315131D01*
X0089521Y0315918D01*
X0090974Y0317372D01*
X0091593Y0318865D01*
X0092211Y0317372D01*
X0093665Y0315918D01*
X0095565Y0315131D01*
X0097621Y0315131D01*
X0099521Y0315918D01*
X0100974Y0317372D01*
X0101593Y0318865D01*
X0102211Y0317372D01*
X0103665Y0315918D01*
X0105565Y0315131D01*
X0107621Y0315131D01*
X0109521Y0315918D01*
X0110974Y0317372D01*
X0111593Y0318865D01*
X0112211Y0317372D01*
X0113665Y0315918D01*
X0115565Y0315131D01*
X0117621Y0315131D01*
X0119521Y0315918D01*
X0120974Y0317372D01*
X0121593Y0318865D01*
X0122211Y0317372D01*
X0123665Y0315918D01*
X0125565Y0315131D01*
X0127621Y0315131D01*
X0129521Y0315918D01*
X0130974Y0317372D01*
X0131593Y0318865D01*
X0132211Y0317372D01*
X0133665Y0315918D01*
X0135565Y0315131D01*
X0137621Y0315131D01*
X0139521Y0315918D01*
X0140974Y0317372D01*
X0141593Y0318865D01*
X0142211Y0317372D01*
X0143665Y0315918D01*
X0145565Y0315131D01*
X0147621Y0315131D01*
X0149521Y0315918D01*
X0150974Y0317372D01*
X0151593Y0318865D01*
X0152211Y0317372D01*
X0153665Y0315918D01*
X0155565Y0315131D01*
X0157621Y0315131D01*
X0159521Y0315918D01*
X0160974Y0317372D01*
X0161593Y0318865D01*
X0162211Y0317372D01*
X0163665Y0315918D01*
X0165565Y0315131D01*
X0167621Y0315131D01*
X0169521Y0315918D01*
X0170974Y0317372D01*
X0171593Y0318865D01*
X0172211Y0317372D01*
X0173665Y0315918D01*
X0175565Y0315131D01*
X0177621Y0315131D01*
X0179521Y0315918D01*
X0180974Y0317372D01*
X0181593Y0318865D01*
X0182211Y0317372D01*
X0183665Y0315918D01*
X0185565Y0315131D01*
X0187621Y0315131D01*
X0189521Y0315918D01*
X0190974Y0317372D01*
X0191593Y0318865D01*
X0192211Y0317372D01*
X0193665Y0315918D01*
X0195565Y0315131D01*
X0197621Y0315131D01*
X0199521Y0315918D01*
X0200974Y0317372D01*
X0201593Y0318865D01*
X0202211Y0317372D01*
X0203665Y0315918D01*
X0205565Y0315131D01*
X0207621Y0315131D01*
X0209521Y0315918D01*
X0210974Y0317372D01*
X0211761Y0319272D01*
X0211761Y0321328D01*
X0210974Y0323228D01*
X0209521Y0324682D01*
X0208028Y0325300D01*
X0209521Y0325918D01*
X0210974Y0327372D01*
X0211761Y0329272D01*
X0211761Y0331328D01*
X0210974Y0333228D01*
X0209521Y0334682D01*
X0207621Y0335468D01*
X0205164Y0335303D02*
X0198022Y0335303D01*
X0200098Y0334104D02*
X0203088Y0334104D01*
X0202078Y0332905D02*
X0201108Y0332905D01*
X0195164Y0335303D02*
X0188022Y0335303D01*
X0190098Y0334104D02*
X0193088Y0334104D01*
X0192078Y0332905D02*
X0191108Y0332905D01*
X0185164Y0335303D02*
X0178022Y0335303D01*
X0180098Y0334104D02*
X0183088Y0334104D01*
X0182078Y0332905D02*
X0181108Y0332905D01*
X0175164Y0335303D02*
X0168022Y0335303D01*
X0170098Y0334104D02*
X0173088Y0334104D01*
X0172078Y0332905D02*
X0171108Y0332905D01*
X0165164Y0335303D02*
X0158022Y0335303D01*
X0160098Y0334104D02*
X0163088Y0334104D01*
X0162078Y0332905D02*
X0161108Y0332905D01*
X0155164Y0335303D02*
X0148022Y0335303D01*
X0150098Y0334104D02*
X0153088Y0334104D01*
X0152078Y0332905D02*
X0151108Y0332905D01*
X0145164Y0335303D02*
X0138022Y0335303D01*
X0140098Y0334104D02*
X0143088Y0334104D01*
X0142078Y0332905D02*
X0141108Y0332905D01*
X0135164Y0335303D02*
X0128022Y0335303D01*
X0130098Y0334104D02*
X0133088Y0334104D01*
X0132078Y0332905D02*
X0131108Y0332905D01*
X0125164Y0335303D02*
X0118022Y0335303D01*
X0120098Y0334104D02*
X0123088Y0334104D01*
X0122078Y0332905D02*
X0121108Y0332905D01*
X0115164Y0335303D02*
X0108022Y0335303D01*
X0110098Y0334104D02*
X0113088Y0334104D01*
X0112078Y0332905D02*
X0111108Y0332905D01*
X0105164Y0335303D02*
X0098022Y0335303D01*
X0100098Y0334104D02*
X0103088Y0334104D01*
X0102078Y0332905D02*
X0101108Y0332905D01*
X0095164Y0335303D02*
X0088022Y0335303D01*
X0090098Y0334104D02*
X0093088Y0334104D01*
X0092078Y0332905D02*
X0091108Y0332905D01*
X0085164Y0335303D02*
X0078022Y0335303D01*
X0080098Y0334104D02*
X0083088Y0334104D01*
X0082078Y0332905D02*
X0081108Y0332905D01*
X0075164Y0335303D02*
X0068022Y0335303D01*
X0070098Y0334104D02*
X0073088Y0334104D01*
X0072078Y0332905D02*
X0071108Y0332905D01*
X0065164Y0335303D02*
X0058022Y0335303D01*
X0060098Y0334104D02*
X0063088Y0334104D01*
X0062078Y0332905D02*
X0061108Y0332905D01*
X0055164Y0335303D02*
X0048022Y0335303D01*
X0050098Y0334104D02*
X0053088Y0334104D01*
X0052078Y0332905D02*
X0051108Y0332905D01*
X0045164Y0335303D02*
X0038022Y0335303D01*
X0040098Y0334104D02*
X0043088Y0334104D01*
X0042078Y0332905D02*
X0041108Y0332905D01*
X0035164Y0335303D02*
X0021793Y0335303D01*
X0021793Y0334104D02*
X0033088Y0334104D01*
X0032078Y0332905D02*
X0021793Y0332905D01*
X0021793Y0331707D02*
X0031581Y0331707D01*
X0031424Y0330508D02*
X0021793Y0330508D01*
X0021793Y0329310D02*
X0031424Y0329310D01*
X0031905Y0328111D02*
X0021793Y0328111D01*
X0021793Y0326913D02*
X0032671Y0326913D01*
X0034157Y0325714D02*
X0021793Y0325714D01*
X0021793Y0324516D02*
X0033499Y0324516D01*
X0032301Y0323317D02*
X0021793Y0323317D01*
X0021793Y0322119D02*
X0031752Y0322119D01*
X0031424Y0320920D02*
X0021793Y0320920D01*
X0021793Y0319722D02*
X0031424Y0319722D01*
X0031734Y0318523D02*
X0021793Y0318523D01*
X0021793Y0317325D02*
X0032259Y0317325D01*
X0033457Y0316126D02*
X0021793Y0316126D01*
X0021793Y0314928D02*
X0221291Y0314928D01*
X0219744Y0313729D02*
X0021793Y0313729D01*
X0021793Y0312531D02*
X0218954Y0312531D01*
X0218458Y0311332D02*
X0021793Y0311332D01*
X0021793Y0310134D02*
X0218456Y0310134D01*
X0218595Y0308935D02*
X0021793Y0308935D01*
X0021793Y0307737D02*
X0219092Y0307737D01*
X0220077Y0306538D02*
X0021793Y0306538D01*
X0021793Y0305340D02*
X0222094Y0305340D01*
X0220156Y0304141D02*
X0021793Y0304141D01*
X0021793Y0302943D02*
X0219125Y0302943D01*
X0218628Y0301744D02*
X0021793Y0301744D01*
X0021793Y0300546D02*
X0218456Y0300546D01*
X0218456Y0299347D02*
X0021793Y0299347D01*
X0021793Y0298149D02*
X0218921Y0298149D01*
X0219665Y0296950D02*
X0021793Y0296950D01*
X0021793Y0295752D02*
X0221099Y0295752D01*
X0220568Y0294553D02*
X0042618Y0294553D01*
X0042489Y0294682D02*
X0040589Y0295468D01*
X0032596Y0295468D01*
X0030697Y0294682D01*
X0029243Y0293228D01*
X0028456Y0291328D01*
X0028456Y0289272D01*
X0029243Y0287372D01*
X0030697Y0285918D01*
X0032189Y0285300D01*
X0030697Y0284682D01*
X0029243Y0283228D01*
X0028456Y0281328D01*
X0028456Y0279272D01*
X0029243Y0277372D01*
X0030697Y0275918D01*
X0032189Y0275300D01*
X0030697Y0274682D01*
X0029243Y0273228D01*
X0028456Y0271328D01*
X0028456Y0269272D01*
X0029243Y0267372D01*
X0030697Y0265918D01*
X0032189Y0265300D01*
X0030697Y0264682D01*
X0029243Y0263228D01*
X0028456Y0261328D01*
X0028456Y0259272D01*
X0029243Y0257372D01*
X0030697Y0255918D01*
X0032189Y0255300D01*
X0030697Y0254682D01*
X0029243Y0253228D01*
X0028456Y0251328D01*
X0028456Y0249272D01*
X0029243Y0247372D01*
X0030697Y0245918D01*
X0032189Y0245300D01*
X0030697Y0244682D01*
X0029243Y0243228D01*
X0028456Y0241328D01*
X0028456Y0239272D01*
X0029243Y0237372D01*
X0030697Y0235918D01*
X0032189Y0235300D01*
X0030697Y0234682D01*
X0029243Y0233228D01*
X0028456Y0231328D01*
X0028456Y0229272D01*
X0029243Y0227372D01*
X0030697Y0225918D01*
X0032190Y0225300D01*
X0030697Y0224682D01*
X0029243Y0223228D01*
X0028456Y0221328D01*
X0028456Y0219272D01*
X0029243Y0217372D01*
X0030697Y0215918D01*
X0032596Y0215131D01*
X0040589Y0215131D01*
X0042489Y0215918D01*
X0043943Y0217372D01*
X0044730Y0219272D01*
X0044730Y0221328D01*
X0043943Y0223228D01*
X0042489Y0224682D01*
X0040996Y0225300D01*
X0042489Y0225918D01*
X0043943Y0227372D01*
X0044730Y0229272D01*
X0044730Y0231328D01*
X0043943Y0233228D01*
X0042489Y0234682D01*
X0040996Y0235300D01*
X0042489Y0235918D01*
X0043943Y0237372D01*
X0044730Y0239272D01*
X0044730Y0241328D01*
X0043943Y0243228D01*
X0042489Y0244682D01*
X0040996Y0245300D01*
X0042489Y0245918D01*
X0043943Y0247372D01*
X0044730Y0249272D01*
X0044730Y0251328D01*
X0043943Y0253228D01*
X0042489Y0254682D01*
X0040996Y0255300D01*
X0042489Y0255918D01*
X0043943Y0257372D01*
X0044730Y0259272D01*
X0044730Y0261328D01*
X0043943Y0263228D01*
X0042489Y0264682D01*
X0040996Y0265300D01*
X0042489Y0265918D01*
X0043943Y0267372D01*
X0044730Y0269272D01*
X0044730Y0271328D01*
X0043943Y0273228D01*
X0042489Y0274682D01*
X0040996Y0275300D01*
X0042489Y0275918D01*
X0043943Y0277372D01*
X0044730Y0279272D01*
X0044730Y0281328D01*
X0043943Y0283228D01*
X0042489Y0284682D01*
X0040996Y0285300D01*
X0042489Y0285918D01*
X0043943Y0287372D01*
X0044730Y0289272D01*
X0044730Y0291328D01*
X0043943Y0293228D01*
X0042489Y0294682D01*
X0043816Y0293355D02*
X0219370Y0293355D01*
X0218799Y0292156D02*
X0044387Y0292156D01*
X0044730Y0290958D02*
X0218456Y0290958D01*
X0218456Y0289759D02*
X0044730Y0289759D01*
X0044435Y0288561D02*
X0218750Y0288561D01*
X0219253Y0287362D02*
X0043933Y0287362D01*
X0042734Y0286164D02*
X0220451Y0286164D01*
X0221381Y0284965D02*
X0041805Y0284965D01*
X0043404Y0283767D02*
X0219782Y0283767D01*
X0218969Y0282568D02*
X0044216Y0282568D01*
X0044713Y0281370D02*
X0218473Y0281370D01*
X0218456Y0280171D02*
X0044730Y0280171D01*
X0044606Y0278972D02*
X0218580Y0278972D01*
X0219076Y0277774D02*
X0044109Y0277774D01*
X0043146Y0276575D02*
X0220040Y0276575D01*
X0222004Y0275377D02*
X0041182Y0275377D01*
X0042992Y0274178D02*
X0220193Y0274178D01*
X0219140Y0272980D02*
X0044046Y0272980D01*
X0044542Y0271781D02*
X0218644Y0271781D01*
X0218456Y0270583D02*
X0044730Y0270583D01*
X0044730Y0269384D02*
X0218456Y0269384D01*
X0218906Y0268186D02*
X0044280Y0268186D01*
X0043558Y0266987D02*
X0219628Y0266987D01*
X0221009Y0265789D02*
X0042176Y0265789D01*
X0042580Y0264590D02*
X0220605Y0264590D01*
X0219407Y0263392D02*
X0043779Y0263392D01*
X0044371Y0262193D02*
X0218814Y0262193D01*
X0218456Y0260995D02*
X0044730Y0260995D01*
X0044730Y0259796D02*
X0218456Y0259796D01*
X0218735Y0258598D02*
X0044451Y0258598D01*
X0043954Y0257399D02*
X0219232Y0257399D01*
X0220414Y0256201D02*
X0042772Y0256201D01*
X0041715Y0255002D02*
X0221471Y0255002D01*
X0219819Y0253804D02*
X0043367Y0253804D01*
X0044201Y0252605D02*
X0154938Y0252605D01*
X0153740Y0251407D02*
X0044697Y0251407D01*
X0044730Y0250208D02*
X0152541Y0250208D01*
X0151343Y0249010D02*
X0044621Y0249010D01*
X0044125Y0247811D02*
X0150144Y0247811D01*
X0148946Y0246613D02*
X0043183Y0246613D01*
X0041272Y0245414D02*
X0147747Y0245414D01*
X0146549Y0244216D02*
X0042955Y0244216D01*
X0044030Y0243017D02*
X0145350Y0243017D01*
X0144152Y0241819D02*
X0044527Y0241819D01*
X0044730Y0240620D02*
X0142953Y0240620D01*
X0141755Y0239422D02*
X0044730Y0239422D01*
X0044295Y0238223D02*
X0140556Y0238223D01*
X0139358Y0237025D02*
X0043595Y0237025D01*
X0042266Y0235826D02*
X0138159Y0235826D01*
X0136961Y0234628D02*
X0042543Y0234628D01*
X0043742Y0233429D02*
X0135762Y0233429D01*
X0134564Y0232231D02*
X0044356Y0232231D01*
X0044730Y0231032D02*
X0133365Y0231032D01*
X0132167Y0229834D02*
X0044730Y0229834D01*
X0044466Y0228635D02*
X0130968Y0228635D01*
X0131593Y0225300D02*
X0156593Y0250300D01*
X0206593Y0250300D01*
X0216593Y0240300D01*
X0216593Y0215300D01*
X0211593Y0210300D01*
X0206593Y0210300D01*
X0212356Y0205863D02*
X0220830Y0205863D01*
X0220680Y0204665D02*
X0212506Y0204665D01*
X0213704Y0203466D02*
X0219481Y0203466D01*
X0218845Y0202268D02*
X0214341Y0202268D01*
X0214730Y0201069D02*
X0218456Y0201069D01*
X0218456Y0199871D02*
X0214730Y0199871D01*
X0214481Y0198672D02*
X0218704Y0198672D01*
X0219201Y0197474D02*
X0213985Y0197474D01*
X0212846Y0196275D02*
X0220340Y0196275D01*
X0221650Y0195077D02*
X0211535Y0195077D01*
X0213293Y0193878D02*
X0219893Y0193878D01*
X0219016Y0192680D02*
X0214170Y0192680D01*
X0214666Y0191481D02*
X0218519Y0191481D01*
X0218456Y0190283D02*
X0214730Y0190283D01*
X0214652Y0189084D02*
X0218534Y0189084D01*
X0219030Y0187886D02*
X0214156Y0187886D01*
X0213258Y0186687D02*
X0219928Y0186687D01*
X0221734Y0185489D02*
X0211452Y0185489D01*
X0212881Y0184290D02*
X0220305Y0184290D01*
X0219186Y0183092D02*
X0213999Y0183092D01*
X0214496Y0181893D02*
X0218690Y0181893D01*
X0218456Y0180695D02*
X0214730Y0180695D01*
X0214730Y0179496D02*
X0218456Y0179496D01*
X0218859Y0178298D02*
X0214326Y0178298D01*
X0213670Y0177099D02*
X0219516Y0177099D01*
X0220740Y0175901D02*
X0212446Y0175901D01*
X0212440Y0174702D02*
X0220746Y0174702D01*
X0219518Y0173503D02*
X0213667Y0173503D01*
X0214325Y0172305D02*
X0218861Y0172305D01*
X0218456Y0171106D02*
X0214730Y0171106D01*
X0214730Y0169908D02*
X0218456Y0169908D01*
X0218689Y0168709D02*
X0214497Y0168709D01*
X0214000Y0167511D02*
X0219185Y0167511D01*
X0220303Y0166312D02*
X0212883Y0166312D01*
X0211445Y0165114D02*
X0221740Y0165114D01*
X0219930Y0163915D02*
X0213255Y0163915D01*
X0214155Y0162717D02*
X0219031Y0162717D01*
X0218535Y0161518D02*
X0214651Y0161518D01*
X0214730Y0160320D02*
X0218456Y0160320D01*
X0218518Y0159121D02*
X0214667Y0159121D01*
X0214171Y0157923D02*
X0219015Y0157923D01*
X0219891Y0156724D02*
X0213295Y0156724D01*
X0211541Y0155526D02*
X0221644Y0155526D01*
X0220342Y0154327D02*
X0212843Y0154327D01*
X0213984Y0153129D02*
X0219202Y0153129D01*
X0218705Y0151930D02*
X0214480Y0151930D01*
X0214730Y0150732D02*
X0218456Y0150732D01*
X0218456Y0149533D02*
X0214730Y0149533D01*
X0214342Y0148335D02*
X0218844Y0148335D01*
X0219479Y0147136D02*
X0213707Y0147136D01*
X0212508Y0145938D02*
X0220677Y0145938D01*
X0222596Y0135468D02*
X0220697Y0134682D01*
X0219243Y0133228D01*
X0218456Y0131328D01*
X0218456Y0129272D01*
X0219243Y0127372D01*
X0220697Y0125918D01*
X0222190Y0125300D01*
X0220697Y0124682D01*
X0219243Y0123228D01*
X0218456Y0121328D01*
X0218456Y0119272D01*
X0219243Y0117372D01*
X0220697Y0115918D01*
X0222596Y0115131D01*
X0230589Y0115131D01*
X0232489Y0115918D01*
X0233943Y0117372D01*
X0234730Y0119272D01*
X0234730Y0121328D01*
X0233943Y0123228D01*
X0232489Y0124682D01*
X0230996Y0125300D01*
X0232489Y0125918D01*
X0233943Y0127372D01*
X0234730Y0129272D01*
X0234730Y0131328D01*
X0233943Y0133228D01*
X0232489Y0134682D01*
X0230589Y0135468D01*
X0222596Y0135468D01*
X0221830Y0135151D02*
X0159593Y0135151D01*
X0159593Y0133953D02*
X0219968Y0133953D01*
X0219047Y0132754D02*
X0159593Y0132754D01*
X0159593Y0131556D02*
X0218550Y0131556D01*
X0218456Y0130357D02*
X0159593Y0130357D01*
X0159593Y0129159D02*
X0218503Y0129159D01*
X0218999Y0127960D02*
X0159593Y0127960D01*
X0159593Y0126762D02*
X0219853Y0126762D01*
X0221554Y0125563D02*
X0159593Y0125563D01*
X0159593Y0124365D02*
X0220380Y0124365D01*
X0219217Y0123166D02*
X0159593Y0123166D01*
X0159593Y0121968D02*
X0218721Y0121968D01*
X0218456Y0120769D02*
X0159593Y0120769D01*
X0159593Y0119570D02*
X0218456Y0119570D01*
X0218829Y0118372D02*
X0159593Y0118372D01*
X0159593Y0117173D02*
X0219442Y0117173D01*
X0220640Y0115975D02*
X0159593Y0115975D01*
X0159593Y0114776D02*
X0222684Y0114776D01*
X0222555Y0114756D02*
X0221871Y0114534D01*
X0221230Y0114207D01*
X0220648Y0113785D01*
X0220140Y0113276D01*
X0219717Y0112694D01*
X0219391Y0112054D01*
X0219168Y0111370D01*
X0219060Y0110684D01*
X0226209Y0110684D01*
X0226209Y0114868D01*
X0223265Y0114868D01*
X0222555Y0114756D01*
X0220441Y0113578D02*
X0159593Y0113578D01*
X0159593Y0112379D02*
X0219557Y0112379D01*
X0219138Y0111181D02*
X0159593Y0111181D01*
X0159593Y0109982D02*
X0226209Y0109982D01*
X0226209Y0109916D02*
X0219060Y0109916D01*
X0219168Y0109230D01*
X0219391Y0108546D01*
X0219717Y0107906D01*
X0220140Y0107324D01*
X0220648Y0106815D01*
X0221230Y0106393D01*
X0221871Y0106066D01*
X0222555Y0105844D01*
X0223265Y0105731D01*
X0226209Y0105731D01*
X0226209Y0109916D01*
X0226977Y0109916D01*
X0226977Y0110684D01*
X0234126Y0110684D01*
X0234017Y0111370D01*
X0233795Y0112054D01*
X0233469Y0112694D01*
X0233046Y0113276D01*
X0232538Y0113785D01*
X0231956Y0114207D01*
X0231315Y0114534D01*
X0230631Y0114756D01*
X0229921Y0114868D01*
X0226977Y0114868D01*
X0226977Y0110684D01*
X0226209Y0110684D01*
X0226209Y0109916D01*
X0226977Y0109916D02*
X0226977Y0105731D01*
X0229921Y0105731D01*
X0230631Y0105844D01*
X0231315Y0106066D01*
X0231956Y0106393D01*
X0232538Y0106815D01*
X0233046Y0107324D01*
X0233469Y0107906D01*
X0233795Y0108546D01*
X0234017Y0109230D01*
X0234126Y0109916D01*
X0226977Y0109916D01*
X0226977Y0109982D02*
X0240094Y0109982D01*
X0240094Y0108784D02*
X0233872Y0108784D01*
X0233236Y0107585D02*
X0240094Y0107585D01*
X0240094Y0106387D02*
X0231944Y0106387D01*
X0231266Y0105188D02*
X0240094Y0105188D01*
X0240094Y0103990D02*
X0233181Y0103990D01*
X0232489Y0104682D02*
X0230589Y0105468D01*
X0222596Y0105468D01*
X0220697Y0104682D01*
X0219243Y0103228D01*
X0218456Y0101328D01*
X0218456Y0099272D01*
X0219243Y0097372D01*
X0220697Y0095918D01*
X0222189Y0095300D01*
X0220697Y0094682D01*
X0219243Y0093228D01*
X0218456Y0091328D01*
X0218456Y0089272D01*
X0219243Y0087372D01*
X0220697Y0085918D01*
X0222189Y0085300D01*
X0220697Y0084682D01*
X0219243Y0083228D01*
X0218456Y0081328D01*
X0218456Y0079272D01*
X0219243Y0077372D01*
X0220697Y0075918D01*
X0222189Y0075300D01*
X0220697Y0074682D01*
X0219243Y0073228D01*
X0218456Y0071328D01*
X0218456Y0069272D01*
X0219243Y0067372D01*
X0220697Y0065918D01*
X0222190Y0065300D01*
X0220697Y0064682D01*
X0219243Y0063228D01*
X0218456Y0061328D01*
X0218456Y0059272D01*
X0219243Y0057372D01*
X0220697Y0055918D01*
X0222596Y0055131D01*
X0230589Y0055131D01*
X0232489Y0055918D01*
X0233943Y0057372D01*
X0234730Y0059272D01*
X0234730Y0061328D01*
X0233943Y0063228D01*
X0232489Y0064682D01*
X0230996Y0065300D01*
X0232489Y0065918D01*
X0233943Y0067372D01*
X0234730Y0069272D01*
X0234730Y0071328D01*
X0233943Y0073228D01*
X0232489Y0074682D01*
X0230996Y0075300D01*
X0232489Y0075918D01*
X0233943Y0077372D01*
X0234730Y0079272D01*
X0234730Y0081328D01*
X0233943Y0083228D01*
X0232489Y0084682D01*
X0230996Y0085300D01*
X0232489Y0085918D01*
X0233943Y0087372D01*
X0234730Y0089272D01*
X0234730Y0091328D01*
X0233943Y0093228D01*
X0232489Y0094682D01*
X0230996Y0095300D01*
X0232489Y0095918D01*
X0233943Y0097372D01*
X0234730Y0099272D01*
X0234730Y0101328D01*
X0233943Y0103228D01*
X0232489Y0104682D01*
X0234124Y0102791D02*
X0240094Y0102791D01*
X0240094Y0101593D02*
X0234620Y0101593D01*
X0234730Y0100394D02*
X0240094Y0100394D01*
X0240094Y0099196D02*
X0234698Y0099196D01*
X0234202Y0097997D02*
X0240094Y0097997D01*
X0240094Y0096799D02*
X0233370Y0096799D01*
X0231721Y0095600D02*
X0240094Y0095600D01*
X0240094Y0094402D02*
X0232769Y0094402D01*
X0233953Y0093203D02*
X0240094Y0093203D01*
X0240094Y0092005D02*
X0234450Y0092005D01*
X0234730Y0090806D02*
X0240094Y0090806D01*
X0240094Y0089608D02*
X0234730Y0089608D01*
X0234373Y0088409D02*
X0240094Y0088409D01*
X0240094Y0087211D02*
X0233781Y0087211D01*
X0232583Y0086012D02*
X0240094Y0086012D01*
X0240094Y0084814D02*
X0232170Y0084814D01*
X0233556Y0083615D02*
X0240094Y0083615D01*
X0240094Y0082417D02*
X0234279Y0082417D01*
X0234730Y0081218D02*
X0240094Y0081218D01*
X0240094Y0080020D02*
X0234730Y0080020D01*
X0234543Y0078821D02*
X0240094Y0078821D01*
X0240094Y0077623D02*
X0234047Y0077623D01*
X0232995Y0076424D02*
X0240094Y0076424D01*
X0240094Y0075226D02*
X0231176Y0075226D01*
X0233144Y0074027D02*
X0240094Y0074027D01*
X0240094Y0072829D02*
X0234108Y0072829D01*
X0234605Y0071630D02*
X0240094Y0071630D01*
X0240094Y0070432D02*
X0234730Y0070432D01*
X0234714Y0069233D02*
X0240094Y0069233D01*
X0240094Y0068034D02*
X0234217Y0068034D01*
X0233407Y0066836D02*
X0240094Y0066836D01*
X0240094Y0065637D02*
X0231811Y0065637D01*
X0232732Y0064439D02*
X0240094Y0064439D01*
X0240094Y0063240D02*
X0233930Y0063240D01*
X0234434Y0062042D02*
X0240094Y0062042D01*
X0240094Y0060843D02*
X0234730Y0060843D01*
X0234730Y0059645D02*
X0240094Y0059645D01*
X0240094Y0058446D02*
X0234388Y0058446D01*
X0233819Y0057248D02*
X0240094Y0057248D01*
X0240094Y0056049D02*
X0232620Y0056049D01*
X0240094Y0054851D02*
X0186385Y0054851D01*
X0187583Y0053652D02*
X0240094Y0053652D01*
X0240094Y0052454D02*
X0188782Y0052454D01*
X0189980Y0051255D02*
X0240094Y0051255D01*
X0240094Y0050057D02*
X0191179Y0050057D01*
X0192377Y0048858D02*
X0240094Y0048858D01*
X0240094Y0047660D02*
X0193576Y0047660D01*
X0194774Y0046461D02*
X0240094Y0046461D01*
X0240094Y0045263D02*
X0195973Y0045263D01*
X0197171Y0044064D02*
X0240094Y0044064D01*
X0240094Y0042866D02*
X0198370Y0042866D01*
X0199568Y0041667D02*
X0240094Y0041667D01*
X0240094Y0040469D02*
X0200767Y0040469D01*
X0201965Y0039270D02*
X0203136Y0039270D01*
X0198274Y0034476D02*
X0044730Y0034476D01*
X0044730Y0035675D02*
X0197076Y0035675D01*
X0195877Y0036873D02*
X0044504Y0036873D01*
X0044008Y0038072D02*
X0194679Y0038072D01*
X0193480Y0039270D02*
X0042900Y0039270D01*
X0041404Y0040469D02*
X0192281Y0040469D01*
X0191083Y0041667D02*
X0043238Y0041667D01*
X0044147Y0042866D02*
X0189884Y0042866D01*
X0188686Y0044064D02*
X0044644Y0044064D01*
X0044730Y0045263D02*
X0084311Y0045263D01*
X0082185Y0046461D02*
X0044675Y0046461D01*
X0044178Y0047660D02*
X0081155Y0047660D01*
X0080659Y0048858D02*
X0043312Y0048858D01*
X0041583Y0050057D02*
X0080487Y0050057D01*
X0080487Y0051255D02*
X0042826Y0051255D01*
X0043977Y0052454D02*
X0080954Y0052454D01*
X0081699Y0053652D02*
X0044473Y0053652D01*
X0044730Y0054851D02*
X0083137Y0054851D01*
X0082597Y0056049D02*
X0044730Y0056049D01*
X0044349Y0057248D02*
X0081399Y0057248D01*
X0080829Y0058446D02*
X0043724Y0058446D01*
X0042526Y0059645D02*
X0080487Y0059645D01*
X0080487Y0060843D02*
X0042308Y0060843D01*
X0043613Y0062042D02*
X0080783Y0062042D01*
X0081287Y0063240D02*
X0044303Y0063240D01*
X0044730Y0064439D02*
X0082485Y0064439D01*
X0083406Y0065637D02*
X0044730Y0065637D01*
X0044519Y0066836D02*
X0081810Y0066836D01*
X0081000Y0068034D02*
X0044023Y0068034D01*
X0042938Y0069233D02*
X0080503Y0069233D01*
X0080487Y0070432D02*
X0041314Y0070432D01*
X0043201Y0071630D02*
X0080612Y0071630D01*
X0081109Y0072829D02*
X0044132Y0072829D01*
X0044628Y0074027D02*
X0082074Y0074027D01*
X0084041Y0075226D02*
X0044730Y0075226D01*
X0044690Y0076424D02*
X0082222Y0076424D01*
X0081171Y0077623D02*
X0067446Y0077623D01*
X0069074Y0078821D02*
X0080674Y0078821D01*
X0080487Y0080020D02*
X0070272Y0080020D01*
X0071471Y0081218D02*
X0080487Y0081218D01*
X0080938Y0082417D02*
X0072669Y0082417D01*
X0073868Y0083615D02*
X0081662Y0083615D01*
X0083047Y0084814D02*
X0075066Y0084814D01*
X0076265Y0086012D02*
X0082634Y0086012D01*
X0081436Y0087211D02*
X0077463Y0087211D01*
X0078662Y0088409D02*
X0080845Y0088409D01*
X0080487Y0089608D02*
X0079337Y0089608D01*
X0079393Y0090806D02*
X0080487Y0090806D01*
X0080768Y0092005D02*
X0079393Y0092005D01*
X0079393Y0093203D02*
X0081264Y0093203D01*
X0082448Y0094402D02*
X0079393Y0094402D01*
X0079393Y0095600D02*
X0083496Y0095600D01*
X0081848Y0096799D02*
X0079393Y0096799D01*
X0079393Y0097997D02*
X0081015Y0097997D01*
X0080519Y0099196D02*
X0079393Y0099196D01*
X0079393Y0100394D02*
X0080487Y0100394D01*
X0080597Y0101593D02*
X0079393Y0101593D01*
X0079393Y0102791D02*
X0081093Y0102791D01*
X0082036Y0103990D02*
X0079393Y0103990D01*
X0079393Y0105188D02*
X0083951Y0105188D01*
X0082260Y0106387D02*
X0079393Y0106387D01*
X0079393Y0107585D02*
X0081186Y0107585D01*
X0080689Y0108784D02*
X0079393Y0108784D01*
X0079393Y0109982D02*
X0080487Y0109982D01*
X0080487Y0111181D02*
X0079393Y0111181D01*
X0079393Y0112379D02*
X0080923Y0112379D01*
X0081624Y0113578D02*
X0079393Y0113578D01*
X0079393Y0114776D02*
X0082957Y0114776D01*
X0082672Y0115975D02*
X0079393Y0115975D01*
X0079393Y0117173D02*
X0081473Y0117173D01*
X0080860Y0118372D02*
X0079393Y0118372D01*
X0079393Y0119570D02*
X0080487Y0119570D01*
X0080487Y0120769D02*
X0079393Y0120769D01*
X0079393Y0121968D02*
X0080752Y0121968D01*
X0081249Y0123166D02*
X0079393Y0123166D01*
X0079393Y0124365D02*
X0082411Y0124365D01*
X0083586Y0125563D02*
X0079393Y0125563D01*
X0079393Y0126762D02*
X0081885Y0126762D01*
X0081031Y0127960D02*
X0079393Y0127960D01*
X0079393Y0129159D02*
X0080534Y0129159D01*
X0080487Y0130357D02*
X0079393Y0130357D01*
X0079393Y0131556D02*
X0080582Y0131556D01*
X0081078Y0132754D02*
X0079393Y0132754D01*
X0079393Y0133953D02*
X0081999Y0133953D01*
X0083862Y0135151D02*
X0079393Y0135151D01*
X0079393Y0136350D02*
X0082297Y0136350D01*
X0081201Y0137548D02*
X0079393Y0137548D01*
X0079393Y0138747D02*
X0080705Y0138747D01*
X0080487Y0139945D02*
X0079393Y0139945D01*
X0079393Y0141144D02*
X0080487Y0141144D01*
X0080907Y0142342D02*
X0079393Y0142342D01*
X0079393Y0143541D02*
X0081587Y0143541D01*
X0082867Y0144739D02*
X0079393Y0144739D01*
X0079393Y0145938D02*
X0082709Y0145938D01*
X0081510Y0147136D02*
X0079393Y0147136D01*
X0079393Y0148335D02*
X0080876Y0148335D01*
X0080487Y0149533D02*
X0079393Y0149533D01*
X0079393Y0150732D02*
X0080487Y0150732D01*
X0080737Y0151930D02*
X0079393Y0151930D01*
X0079393Y0153129D02*
X0081233Y0153129D01*
X0082374Y0154327D02*
X0079393Y0154327D01*
X0079393Y0155526D02*
X0083676Y0155526D01*
X0081922Y0156724D02*
X0079393Y0156724D01*
X0079393Y0157923D02*
X0081046Y0157923D01*
X0080550Y0159121D02*
X0079393Y0159121D01*
X0079393Y0160320D02*
X0080487Y0160320D01*
X0080521Y0161518D02*
X0080566Y0161518D01*
X0080343Y0165300D02*
X0094093Y0165300D01*
X0096593Y0167800D01*
X0096593Y0195300D01*
X0091593Y0200300D01*
X0085343Y0200300D01*
X0081513Y0203466D02*
X0043704Y0203466D01*
X0044341Y0202268D02*
X0080877Y0202268D01*
X0080487Y0201069D02*
X0044730Y0201069D01*
X0044730Y0199871D02*
X0080487Y0199871D01*
X0080736Y0198672D02*
X0044481Y0198672D01*
X0043985Y0197474D02*
X0081232Y0197474D01*
X0082371Y0196275D02*
X0042846Y0196275D01*
X0041535Y0195077D02*
X0083682Y0195077D01*
X0081925Y0193878D02*
X0043293Y0193878D01*
X0044170Y0192680D02*
X0050021Y0192680D01*
X0048814Y0191481D02*
X0044666Y0191481D01*
X0044730Y0190283D02*
X0047616Y0190283D01*
X0046417Y0189084D02*
X0044652Y0189084D01*
X0044156Y0187886D02*
X0045219Y0187886D01*
X0044020Y0186687D02*
X0043258Y0186687D01*
X0042822Y0185489D02*
X0041452Y0185489D01*
X0041593Y0180300D02*
X0051593Y0190300D01*
X0091593Y0190300D01*
X0091593Y0180300D02*
X0051593Y0180300D01*
X0041593Y0170300D01*
X0047843Y0170300D02*
X0091593Y0170300D01*
X0097867Y0165114D02*
X0201740Y0165114D01*
X0200303Y0166312D02*
X0162883Y0166312D01*
X0161956Y0164207D02*
X0161315Y0164534D01*
X0160631Y0164756D01*
X0159921Y0164868D01*
X0156977Y0164868D01*
X0156977Y0160684D01*
X0164126Y0160684D01*
X0164017Y0161370D01*
X0163795Y0162054D01*
X0163469Y0162694D01*
X0163046Y0163276D01*
X0162538Y0163785D01*
X0161956Y0164207D01*
X0162358Y0163915D02*
X0199930Y0163915D01*
X0199031Y0162717D02*
X0163452Y0162717D01*
X0163969Y0161518D02*
X0198535Y0161518D01*
X0198456Y0160320D02*
X0156977Y0160320D01*
X0156977Y0160684D02*
X0156977Y0159916D01*
X0164126Y0159916D01*
X0164017Y0159230D01*
X0163795Y0158546D01*
X0163469Y0157906D01*
X0163046Y0157324D01*
X0162538Y0156815D01*
X0161956Y0156393D01*
X0161315Y0156066D01*
X0160631Y0155844D01*
X0159921Y0155731D01*
X0156977Y0155731D01*
X0156977Y0159916D01*
X0156209Y0159916D01*
X0156209Y0155731D01*
X0153265Y0155731D01*
X0152555Y0155844D01*
X0151871Y0156066D01*
X0151230Y0156393D01*
X0150648Y0156815D01*
X0150140Y0157324D01*
X0149717Y0157906D01*
X0149391Y0158546D01*
X0149168Y0159230D01*
X0149060Y0159916D01*
X0156209Y0159916D01*
X0156209Y0160684D01*
X0156209Y0164868D01*
X0153265Y0164868D01*
X0152555Y0164756D01*
X0151871Y0164534D01*
X0151230Y0164207D01*
X0150648Y0163785D01*
X0150140Y0163276D01*
X0149717Y0162694D01*
X0149391Y0162054D01*
X0149168Y0161370D01*
X0149060Y0160684D01*
X0156209Y0160684D01*
X0156977Y0160684D01*
X0156977Y0161518D02*
X0156209Y0161518D01*
X0156209Y0160320D02*
X0101977Y0160320D01*
X0101977Y0160684D02*
X0112094Y0160684D01*
X0111986Y0161370D01*
X0111764Y0162054D01*
X0111437Y0162694D01*
X0111015Y0163276D01*
X0110506Y0163785D01*
X0109924Y0164207D01*
X0109284Y0164534D01*
X0108600Y0164756D01*
X0107889Y0164868D01*
X0101977Y0164868D01*
X0101977Y0160684D01*
X0101977Y0159916D01*
X0112094Y0159916D01*
X0111986Y0159230D01*
X0111764Y0158546D01*
X0111437Y0157906D01*
X0111015Y0157324D01*
X0110506Y0156815D01*
X0109924Y0156393D01*
X0109284Y0156066D01*
X0108600Y0155844D01*
X0107889Y0155731D01*
X0101977Y0155731D01*
X0101977Y0159916D01*
X0101209Y0159916D01*
X0101209Y0155735D01*
X0100523Y0155844D01*
X0099839Y0156066D01*
X0099198Y0156393D01*
X0098617Y0156815D01*
X0098108Y0157324D01*
X0097686Y0157906D01*
X0097359Y0158546D01*
X0097137Y0159230D01*
X0097028Y0159916D01*
X0101209Y0159916D01*
X0101209Y0160684D01*
X0101209Y0164865D01*
X0100523Y0164756D01*
X0099839Y0164534D01*
X0099198Y0164207D01*
X0098617Y0163785D01*
X0098108Y0163276D01*
X0097686Y0162694D01*
X0097359Y0162054D01*
X0097137Y0161370D01*
X0097028Y0160684D01*
X0101209Y0160684D01*
X0101977Y0160684D01*
X0101593Y0160300D02*
X0101593Y0150300D01*
X0101593Y0140300D01*
X0101593Y0130300D01*
X0101593Y0120300D01*
X0101593Y0110300D01*
X0101593Y0100300D01*
X0101593Y0090300D01*
X0101593Y0080300D01*
X0101593Y0070300D01*
X0101593Y0060300D01*
X0101593Y0050300D01*
X0101977Y0050057D02*
X0182693Y0050057D01*
X0181495Y0051255D02*
X0112004Y0051255D01*
X0111986Y0051370D02*
X0111764Y0052054D01*
X0111437Y0052694D01*
X0111015Y0053276D01*
X0110506Y0053785D01*
X0109924Y0054207D01*
X0109284Y0054534D01*
X0108600Y0054756D01*
X0107889Y0054868D01*
X0101977Y0054868D01*
X0101977Y0050684D01*
X0112094Y0050684D01*
X0111986Y0051370D01*
X0111560Y0052454D02*
X0180296Y0052454D01*
X0179098Y0053652D02*
X0110638Y0053652D01*
X0109284Y0056066D02*
X0109924Y0056393D01*
X0110506Y0056815D01*
X0111015Y0057324D01*
X0111437Y0057906D01*
X0111764Y0058546D01*
X0111986Y0059230D01*
X0112094Y0059916D01*
X0101977Y0059916D01*
X0101977Y0060684D01*
X0112094Y0060684D01*
X0111986Y0061370D01*
X0111764Y0062054D01*
X0111437Y0062694D01*
X0111015Y0063276D01*
X0110506Y0063785D01*
X0109924Y0064207D01*
X0109284Y0064534D01*
X0108600Y0064756D01*
X0107889Y0064868D01*
X0101977Y0064868D01*
X0101977Y0060684D01*
X0101209Y0060684D01*
X0101209Y0064865D01*
X0100523Y0064756D01*
X0099839Y0064534D01*
X0099198Y0064207D01*
X0098617Y0063785D01*
X0098108Y0063276D01*
X0097686Y0062694D01*
X0097359Y0062054D01*
X0097137Y0061370D01*
X0097028Y0060684D01*
X0101209Y0060684D01*
X0101209Y0059916D01*
X0101977Y0059916D01*
X0101977Y0055731D01*
X0107889Y0055731D01*
X0108600Y0055844D01*
X0109284Y0056066D01*
X0109232Y0056049D02*
X0176701Y0056049D01*
X0177899Y0054851D02*
X0108001Y0054851D01*
X0110939Y0057248D02*
X0175502Y0057248D01*
X0174304Y0058446D02*
X0111713Y0058446D01*
X0112052Y0059645D02*
X0173105Y0059645D01*
X0171907Y0060843D02*
X0112069Y0060843D01*
X0111767Y0062042D02*
X0170708Y0062042D01*
X0169510Y0063240D02*
X0111040Y0063240D01*
X0109470Y0064439D02*
X0168311Y0064439D01*
X0167113Y0065637D02*
X0093842Y0065637D01*
X0094763Y0064439D02*
X0099653Y0064439D01*
X0101209Y0064439D02*
X0101977Y0064439D01*
X0101977Y0063240D02*
X0101209Y0063240D01*
X0101209Y0062042D02*
X0101977Y0062042D01*
X0101977Y0060843D02*
X0101209Y0060843D01*
X0101209Y0059916D02*
X0097028Y0059916D01*
X0097137Y0059230D01*
X0097359Y0058546D01*
X0097686Y0057906D01*
X0098108Y0057324D01*
X0098617Y0056815D01*
X0099198Y0056393D01*
X0099839Y0056066D01*
X0100523Y0055844D01*
X0101209Y0055735D01*
X0101209Y0059916D01*
X0101209Y0059645D02*
X0101977Y0059645D01*
X0101977Y0058446D02*
X0101209Y0058446D01*
X0101209Y0057248D02*
X0101977Y0057248D01*
X0101977Y0056049D02*
X0101209Y0056049D01*
X0101209Y0054865D02*
X0100523Y0054756D01*
X0099839Y0054534D01*
X0099198Y0054207D01*
X0098617Y0053785D01*
X0098108Y0053276D01*
X0097686Y0052694D01*
X0097359Y0052054D01*
X0097137Y0051370D01*
X0097028Y0050684D01*
X0101209Y0050684D01*
X0101209Y0054865D01*
X0101209Y0054851D02*
X0101977Y0054851D01*
X0101122Y0054851D02*
X0094112Y0054851D01*
X0094652Y0056049D02*
X0099891Y0056049D01*
X0098184Y0057248D02*
X0095850Y0057248D01*
X0096419Y0058446D02*
X0097410Y0058446D01*
X0097071Y0059645D02*
X0096761Y0059645D01*
X0096761Y0060843D02*
X0097053Y0060843D01*
X0097355Y0062042D02*
X0096466Y0062042D01*
X0095962Y0063240D02*
X0098082Y0063240D01*
X0099839Y0066066D02*
X0100523Y0065844D01*
X0101209Y0065735D01*
X0101209Y0069916D01*
X0101977Y0069916D01*
X0101977Y0070684D01*
X0112094Y0070684D01*
X0111986Y0071370D01*
X0111764Y0072054D01*
X0111437Y0072694D01*
X0111015Y0073276D01*
X0110506Y0073785D01*
X0109924Y0074207D01*
X0109284Y0074534D01*
X0108600Y0074756D01*
X0107889Y0074868D01*
X0101977Y0074868D01*
X0101977Y0070684D01*
X0101209Y0070684D01*
X0101209Y0074865D01*
X0100523Y0074756D01*
X0099839Y0074534D01*
X0099198Y0074207D01*
X0098617Y0073785D01*
X0098108Y0073276D01*
X0097686Y0072694D01*
X0097359Y0072054D01*
X0097137Y0071370D01*
X0097028Y0070684D01*
X0101209Y0070684D01*
X0101209Y0069916D01*
X0097028Y0069916D01*
X0097137Y0069230D01*
X0097359Y0068546D01*
X0097686Y0067906D01*
X0098108Y0067324D01*
X0098617Y0066815D01*
X0099198Y0066393D01*
X0099839Y0066066D01*
X0098596Y0066836D02*
X0095438Y0066836D01*
X0096249Y0068034D02*
X0097620Y0068034D01*
X0097136Y0069233D02*
X0096745Y0069233D01*
X0096761Y0070432D02*
X0101209Y0070432D01*
X0101977Y0070432D02*
X0162319Y0070432D01*
X0161120Y0071630D02*
X0111901Y0071630D01*
X0111340Y0072829D02*
X0159922Y0072829D01*
X0158723Y0074027D02*
X0110172Y0074027D01*
X0109284Y0076066D02*
X0108600Y0075844D01*
X0107889Y0075731D01*
X0101977Y0075731D01*
X0101977Y0079916D01*
X0101977Y0080684D01*
X0112094Y0080684D01*
X0111986Y0081370D01*
X0111764Y0082054D01*
X0111437Y0082694D01*
X0111015Y0083276D01*
X0110506Y0083785D01*
X0109924Y0084207D01*
X0109284Y0084534D01*
X0108600Y0084756D01*
X0107889Y0084868D01*
X0101977Y0084868D01*
X0101977Y0080684D01*
X0101209Y0080684D01*
X0101209Y0084865D01*
X0100523Y0084756D01*
X0099839Y0084534D01*
X0099198Y0084207D01*
X0098617Y0083785D01*
X0098108Y0083276D01*
X0097686Y0082694D01*
X0097359Y0082054D01*
X0097137Y0081370D01*
X0097028Y0080684D01*
X0101209Y0080684D01*
X0101209Y0079916D01*
X0101977Y0079916D01*
X0112094Y0079916D01*
X0111986Y0079230D01*
X0111764Y0078546D01*
X0111437Y0077906D01*
X0111015Y0077324D01*
X0110506Y0076815D01*
X0109924Y0076393D01*
X0109284Y0076066D01*
X0109968Y0076424D02*
X0156326Y0076424D01*
X0155128Y0077623D02*
X0111232Y0077623D01*
X0111853Y0078821D02*
X0154000Y0078821D01*
X0153593Y0080020D02*
X0101977Y0080020D01*
X0101209Y0080020D02*
X0096761Y0080020D01*
X0097028Y0079916D02*
X0097137Y0079230D01*
X0097359Y0078546D01*
X0097686Y0077906D01*
X0098108Y0077324D01*
X0098617Y0076815D01*
X0099198Y0076393D01*
X0099839Y0076066D01*
X0100523Y0075844D01*
X0101209Y0075735D01*
X0101209Y0079916D01*
X0097028Y0079916D01*
X0097270Y0078821D02*
X0096575Y0078821D01*
X0096078Y0077623D02*
X0097891Y0077623D01*
X0099155Y0076424D02*
X0095026Y0076424D01*
X0093207Y0075226D02*
X0157525Y0075226D01*
X0160017Y0081218D02*
X0218456Y0081218D01*
X0218456Y0080020D02*
X0161216Y0080020D01*
X0162414Y0078821D02*
X0218643Y0078821D01*
X0219139Y0077623D02*
X0163613Y0077623D01*
X0164811Y0076424D02*
X0220191Y0076424D01*
X0222010Y0075226D02*
X0166010Y0075226D01*
X0167208Y0074027D02*
X0220042Y0074027D01*
X0219077Y0072829D02*
X0168407Y0072829D01*
X0169605Y0071630D02*
X0218581Y0071630D01*
X0218456Y0070432D02*
X0170804Y0070432D01*
X0172002Y0069233D02*
X0218472Y0069233D01*
X0218968Y0068034D02*
X0173201Y0068034D01*
X0174399Y0066836D02*
X0219779Y0066836D01*
X0221375Y0065637D02*
X0175598Y0065637D01*
X0176797Y0064439D02*
X0220454Y0064439D01*
X0219255Y0063240D02*
X0177995Y0063240D01*
X0179194Y0062042D02*
X0218752Y0062042D01*
X0218456Y0060843D02*
X0180392Y0060843D01*
X0181591Y0059645D02*
X0218456Y0059645D01*
X0218798Y0058446D02*
X0182789Y0058446D01*
X0183988Y0057248D02*
X0219367Y0057248D01*
X0220566Y0056049D02*
X0185186Y0056049D01*
X0183892Y0048858D02*
X0111865Y0048858D01*
X0111764Y0048546D02*
X0111986Y0049230D01*
X0112094Y0049916D01*
X0101977Y0049916D01*
X0101977Y0050684D01*
X0101209Y0050684D01*
X0101209Y0049916D01*
X0101977Y0049916D01*
X0101977Y0045731D01*
X0107889Y0045731D01*
X0108600Y0045844D01*
X0109284Y0046066D01*
X0109924Y0046393D01*
X0110506Y0046815D01*
X0111015Y0047324D01*
X0111437Y0047906D01*
X0111764Y0048546D01*
X0111259Y0047660D02*
X0185090Y0047660D01*
X0186289Y0046461D02*
X0110019Y0046461D01*
X0101977Y0046461D02*
X0101209Y0046461D01*
X0101209Y0045735D02*
X0101209Y0049916D01*
X0097028Y0049916D01*
X0097137Y0049230D01*
X0097359Y0048546D01*
X0097686Y0047906D01*
X0098108Y0047324D01*
X0098617Y0046815D01*
X0099198Y0046393D01*
X0099839Y0046066D01*
X0100523Y0045844D01*
X0101209Y0045735D01*
X0101209Y0047660D02*
X0101977Y0047660D01*
X0101977Y0048858D02*
X0101209Y0048858D01*
X0101209Y0050057D02*
X0096761Y0050057D01*
X0096761Y0051255D02*
X0097119Y0051255D01*
X0097563Y0052454D02*
X0096295Y0052454D01*
X0095550Y0053652D02*
X0098484Y0053652D01*
X0101209Y0053652D02*
X0101977Y0053652D01*
X0101977Y0052454D02*
X0101209Y0052454D01*
X0101209Y0051255D02*
X0101977Y0051255D01*
X0097258Y0048858D02*
X0096590Y0048858D01*
X0096094Y0047660D02*
X0097864Y0047660D01*
X0099104Y0046461D02*
X0095064Y0046461D01*
X0092938Y0045263D02*
X0187487Y0045263D01*
X0199473Y0033278D02*
X0044318Y0033278D01*
X0043650Y0032079D02*
X0200593Y0032079D01*
X0200593Y0030881D02*
X0042398Y0030881D01*
X0042488Y0029682D02*
X0200593Y0029682D01*
X0200593Y0028484D02*
X0043687Y0028484D01*
X0044333Y0027285D02*
X0200593Y0027285D01*
X0200593Y0026087D02*
X0044730Y0026087D01*
X0044730Y0024888D02*
X0200717Y0024888D01*
X0201213Y0023690D02*
X0044489Y0023690D01*
X0043992Y0022491D02*
X0201975Y0022491D01*
X0203174Y0021293D02*
X0042863Y0021293D01*
X0030698Y0029682D02*
X0021793Y0029682D01*
X0021793Y0028484D02*
X0029499Y0028484D01*
X0028852Y0027285D02*
X0021793Y0027285D01*
X0021793Y0026087D02*
X0028456Y0026087D01*
X0028456Y0024888D02*
X0021793Y0024888D01*
X0021793Y0023690D02*
X0028697Y0023690D01*
X0029194Y0022491D02*
X0021793Y0022491D01*
X0021793Y0021293D02*
X0030322Y0021293D01*
X0030788Y0030881D02*
X0021793Y0030881D01*
X0021793Y0032079D02*
X0029536Y0032079D01*
X0028868Y0033278D02*
X0021793Y0033278D01*
X0021793Y0034476D02*
X0028456Y0034476D01*
X0028456Y0035675D02*
X0021793Y0035675D01*
X0021793Y0036873D02*
X0028682Y0036873D01*
X0029178Y0038072D02*
X0021793Y0038072D01*
X0021793Y0039270D02*
X0030285Y0039270D01*
X0031782Y0040469D02*
X0021793Y0040469D01*
X0021793Y0041667D02*
X0029948Y0041667D01*
X0029038Y0042866D02*
X0021793Y0042866D01*
X0021793Y0044064D02*
X0028542Y0044064D01*
X0028456Y0045263D02*
X0021793Y0045263D01*
X0021793Y0046461D02*
X0028511Y0046461D01*
X0029007Y0047660D02*
X0021793Y0047660D01*
X0021793Y0048858D02*
X0029873Y0048858D01*
X0031602Y0050057D02*
X0021793Y0050057D01*
X0021793Y0051255D02*
X0030360Y0051255D01*
X0029209Y0052454D02*
X0021793Y0052454D01*
X0021793Y0053652D02*
X0028712Y0053652D01*
X0028456Y0054851D02*
X0021793Y0054851D01*
X0021793Y0056049D02*
X0028456Y0056049D01*
X0028837Y0057248D02*
X0021793Y0057248D01*
X0021793Y0058446D02*
X0029461Y0058446D01*
X0030660Y0059645D02*
X0021793Y0059645D01*
X0021793Y0060843D02*
X0030878Y0060843D01*
X0029573Y0062042D02*
X0021793Y0062042D01*
X0021793Y0063240D02*
X0028883Y0063240D01*
X0028456Y0064439D02*
X0021793Y0064439D01*
X0021793Y0065637D02*
X0028456Y0065637D01*
X0028666Y0066836D02*
X0021793Y0066836D01*
X0021793Y0068034D02*
X0029163Y0068034D01*
X0030248Y0069233D02*
X0021793Y0069233D01*
X0021793Y0070432D02*
X0031872Y0070432D01*
X0029985Y0071630D02*
X0021793Y0071630D01*
X0021793Y0072829D02*
X0029054Y0072829D01*
X0028557Y0074027D02*
X0021793Y0074027D01*
X0021793Y0075226D02*
X0028456Y0075226D01*
X0028496Y0076424D02*
X0021793Y0076424D01*
X0021793Y0077623D02*
X0028992Y0077623D01*
X0029836Y0078821D02*
X0021793Y0078821D01*
X0021793Y0080020D02*
X0031513Y0080020D01*
X0030397Y0081218D02*
X0021793Y0081218D01*
X0021793Y0082417D02*
X0029224Y0082417D01*
X0028728Y0083615D02*
X0021793Y0083615D01*
X0021793Y0084814D02*
X0028456Y0084814D01*
X0028456Y0086012D02*
X0021793Y0086012D01*
X0021793Y0087211D02*
X0028821Y0087211D01*
X0029424Y0088409D02*
X0021793Y0088409D01*
X0021793Y0089608D02*
X0030623Y0089608D01*
X0030967Y0090806D02*
X0021793Y0090806D01*
X0021793Y0092005D02*
X0029610Y0092005D01*
X0028899Y0093203D02*
X0021793Y0093203D01*
X0021793Y0094402D02*
X0028456Y0094402D01*
X0028456Y0095600D02*
X0021793Y0095600D01*
X0021793Y0096799D02*
X0028651Y0096799D01*
X0029147Y0097997D02*
X0021793Y0097997D01*
X0021793Y0099196D02*
X0030211Y0099196D01*
X0031962Y0100394D02*
X0021793Y0100394D01*
X0021793Y0101593D02*
X0030022Y0101593D01*
X0029069Y0102791D02*
X0021793Y0102791D01*
X0021793Y0103990D02*
X0028573Y0103990D01*
X0028456Y0105188D02*
X0021793Y0105188D01*
X0021793Y0106387D02*
X0028480Y0106387D01*
X0028977Y0107585D02*
X0021793Y0107585D01*
X0021793Y0108784D02*
X0029799Y0108784D01*
X0031423Y0109982D02*
X0021793Y0109982D01*
X0021793Y0111181D02*
X0030434Y0111181D01*
X0029240Y0112379D02*
X0021793Y0112379D01*
X0021793Y0113578D02*
X0028743Y0113578D01*
X0028456Y0114776D02*
X0021793Y0114776D01*
X0021793Y0115975D02*
X0028456Y0115975D01*
X0028806Y0117173D02*
X0021793Y0117173D01*
X0021793Y0118372D02*
X0029387Y0118372D01*
X0030585Y0119570D02*
X0021793Y0119570D01*
X0021793Y0120769D02*
X0048793Y0120769D01*
X0048793Y0121968D02*
X0021793Y0121968D01*
X0021793Y0123166D02*
X0048793Y0123166D01*
X0048793Y0124365D02*
X0021793Y0124365D01*
X0021793Y0125563D02*
X0031554Y0125563D01*
X0029853Y0126762D02*
X0021793Y0126762D01*
X0021793Y0127960D02*
X0028999Y0127960D01*
X0028503Y0129159D02*
X0021793Y0129159D01*
X0021793Y0130357D02*
X0027576Y0130357D01*
X0026377Y0131556D02*
X0021793Y0131556D01*
X0021793Y0132754D02*
X0025179Y0132754D01*
X0024120Y0133953D02*
X0021793Y0133953D01*
X0021793Y0135151D02*
X0023793Y0135151D01*
X0023793Y0136350D02*
X0021793Y0136350D01*
X0021793Y0137548D02*
X0023793Y0137548D01*
X0023793Y0138747D02*
X0021793Y0138747D01*
X0021793Y0139945D02*
X0023793Y0139945D01*
X0023793Y0141144D02*
X0021793Y0141144D01*
X0021793Y0142342D02*
X0023793Y0142342D01*
X0023793Y0143541D02*
X0021793Y0143541D01*
X0021793Y0144739D02*
X0023793Y0144739D01*
X0023793Y0145938D02*
X0021793Y0145938D01*
X0021793Y0147136D02*
X0023793Y0147136D01*
X0023793Y0148335D02*
X0021793Y0148335D01*
X0021793Y0149533D02*
X0023793Y0149533D01*
X0023793Y0150732D02*
X0021793Y0150732D01*
X0021793Y0151930D02*
X0023793Y0151930D01*
X0023793Y0153129D02*
X0021793Y0153129D01*
X0021793Y0154327D02*
X0023793Y0154327D01*
X0023793Y0155526D02*
X0021793Y0155526D01*
X0021793Y0156724D02*
X0023793Y0156724D01*
X0023793Y0157923D02*
X0021793Y0157923D01*
X0021793Y0159121D02*
X0023793Y0159121D01*
X0023793Y0160320D02*
X0021793Y0160320D01*
X0021793Y0161518D02*
X0023793Y0161518D01*
X0023793Y0162717D02*
X0021793Y0162717D01*
X0021793Y0163915D02*
X0023793Y0163915D01*
X0023793Y0165114D02*
X0021793Y0165114D01*
X0021793Y0166312D02*
X0023793Y0166312D01*
X0023793Y0167511D02*
X0021793Y0167511D01*
X0021793Y0168709D02*
X0023793Y0168709D01*
X0023793Y0169908D02*
X0021793Y0169908D01*
X0021793Y0171106D02*
X0023793Y0171106D01*
X0023793Y0172305D02*
X0021793Y0172305D01*
X0021793Y0173503D02*
X0023793Y0173503D01*
X0023793Y0174702D02*
X0021793Y0174702D01*
X0021793Y0175901D02*
X0023793Y0175901D01*
X0023793Y0177099D02*
X0021793Y0177099D01*
X0021793Y0178298D02*
X0023793Y0178298D01*
X0023793Y0179496D02*
X0021793Y0179496D01*
X0021793Y0180695D02*
X0023793Y0180695D01*
X0023793Y0181893D02*
X0021793Y0181893D01*
X0021793Y0183092D02*
X0023793Y0183092D01*
X0023793Y0184290D02*
X0021793Y0184290D01*
X0021793Y0185489D02*
X0023793Y0185489D01*
X0023793Y0186687D02*
X0021793Y0186687D01*
X0021793Y0187886D02*
X0023793Y0187886D01*
X0023793Y0189084D02*
X0021793Y0189084D01*
X0021793Y0190283D02*
X0023793Y0190283D01*
X0023793Y0191481D02*
X0021793Y0191481D01*
X0021793Y0192680D02*
X0023793Y0192680D01*
X0023793Y0193878D02*
X0021793Y0193878D01*
X0021793Y0195077D02*
X0023793Y0195077D01*
X0023793Y0196275D02*
X0021793Y0196275D01*
X0021793Y0197474D02*
X0023793Y0197474D01*
X0023793Y0198672D02*
X0021793Y0198672D01*
X0021793Y0199871D02*
X0023793Y0199871D01*
X0023793Y0201069D02*
X0021793Y0201069D01*
X0021793Y0202268D02*
X0023793Y0202268D01*
X0023793Y0203466D02*
X0021793Y0203466D01*
X0021793Y0204665D02*
X0023793Y0204665D01*
X0023795Y0205863D02*
X0021793Y0205863D01*
X0021793Y0207062D02*
X0024395Y0207062D01*
X0025593Y0208260D02*
X0021793Y0208260D01*
X0021793Y0209459D02*
X0026792Y0209459D01*
X0027990Y0210657D02*
X0021793Y0210657D01*
X0021793Y0211856D02*
X0029189Y0211856D01*
X0030926Y0213054D02*
X0021793Y0213054D01*
X0021793Y0214253D02*
X0041586Y0214253D01*
X0041362Y0215451D02*
X0042784Y0215451D01*
X0043221Y0216650D02*
X0043983Y0216650D01*
X0044140Y0217848D02*
X0045181Y0217848D01*
X0044637Y0219047D02*
X0046380Y0219047D01*
X0047579Y0220245D02*
X0044730Y0220245D01*
X0044682Y0221444D02*
X0048777Y0221444D01*
X0049976Y0222642D02*
X0044185Y0222642D01*
X0043330Y0223841D02*
X0051174Y0223841D01*
X0052373Y0225039D02*
X0041625Y0225039D01*
X0042809Y0226238D02*
X0053571Y0226238D01*
X0054770Y0227437D02*
X0043970Y0227437D01*
X0053101Y0217848D02*
X0149759Y0217848D01*
X0149228Y0219047D02*
X0054300Y0219047D01*
X0055498Y0220245D02*
X0156209Y0220245D01*
X0156593Y0220300D02*
X0111593Y0220300D01*
X0101593Y0210300D01*
X0101593Y0200300D01*
X0101593Y0190300D01*
X0101593Y0180300D01*
X0101593Y0170300D01*
X0101593Y0160300D01*
X0101209Y0160320D02*
X0096761Y0160320D01*
X0096699Y0159121D02*
X0097172Y0159121D01*
X0097677Y0157923D02*
X0096203Y0157923D01*
X0095327Y0156724D02*
X0098742Y0156724D01*
X0099839Y0154534D02*
X0099198Y0154207D01*
X0098617Y0153785D01*
X0098108Y0153276D01*
X0097686Y0152694D01*
X0097359Y0152054D01*
X0097137Y0151370D01*
X0097028Y0150684D01*
X0101209Y0150684D01*
X0101209Y0154865D01*
X0100523Y0154756D01*
X0099839Y0154534D01*
X0099434Y0154327D02*
X0094875Y0154327D01*
X0096015Y0153129D02*
X0098001Y0153129D01*
X0097319Y0151930D02*
X0096512Y0151930D01*
X0096761Y0150732D02*
X0097036Y0150732D01*
X0097028Y0149916D02*
X0097137Y0149230D01*
X0097359Y0148546D01*
X0097686Y0147906D01*
X0098108Y0147324D01*
X0098617Y0146815D01*
X0099198Y0146393D01*
X0099839Y0146066D01*
X0100523Y0145844D01*
X0101209Y0145735D01*
X0101209Y0149916D01*
X0101977Y0149916D01*
X0101977Y0150684D01*
X0112094Y0150684D01*
X0111986Y0151370D01*
X0111764Y0152054D01*
X0111437Y0152694D01*
X0111015Y0153276D01*
X0110506Y0153785D01*
X0109924Y0154207D01*
X0109284Y0154534D01*
X0108600Y0154756D01*
X0107889Y0154868D01*
X0101977Y0154868D01*
X0101977Y0150684D01*
X0101209Y0150684D01*
X0101209Y0149916D01*
X0097028Y0149916D01*
X0097089Y0149533D02*
X0096761Y0149533D01*
X0096373Y0148335D02*
X0097467Y0148335D01*
X0098296Y0147136D02*
X0095738Y0147136D01*
X0094540Y0145938D02*
X0100235Y0145938D01*
X0101209Y0145938D02*
X0101977Y0145938D01*
X0101977Y0145731D02*
X0107889Y0145731D01*
X0108600Y0145844D01*
X0109284Y0146066D01*
X0109924Y0146393D01*
X0110506Y0146815D01*
X0111015Y0147324D01*
X0111437Y0147906D01*
X0111764Y0148546D01*
X0111986Y0149230D01*
X0112094Y0149916D01*
X0101977Y0149916D01*
X0101977Y0145731D01*
X0101977Y0144868D02*
X0101977Y0140684D01*
X0112094Y0140684D01*
X0111986Y0141370D01*
X0111764Y0142054D01*
X0111437Y0142694D01*
X0111015Y0143276D01*
X0110506Y0143785D01*
X0109924Y0144207D01*
X0109284Y0144534D01*
X0108600Y0144756D01*
X0107889Y0144868D01*
X0101977Y0144868D01*
X0101977Y0144739D02*
X0101209Y0144739D01*
X0101209Y0144865D02*
X0100523Y0144756D01*
X0099839Y0144534D01*
X0099198Y0144207D01*
X0098617Y0143785D01*
X0098108Y0143276D01*
X0097686Y0142694D01*
X0097359Y0142054D01*
X0097137Y0141370D01*
X0097028Y0140684D01*
X0101209Y0140684D01*
X0101209Y0144865D01*
X0100471Y0144739D02*
X0094382Y0144739D01*
X0095662Y0143541D02*
X0098373Y0143541D01*
X0097506Y0142342D02*
X0096341Y0142342D01*
X0096761Y0141144D02*
X0097101Y0141144D01*
X0097028Y0139916D02*
X0097137Y0139230D01*
X0097359Y0138546D01*
X0097686Y0137906D01*
X0098108Y0137324D01*
X0098617Y0136815D01*
X0099198Y0136393D01*
X0099839Y0136066D01*
X0100523Y0135844D01*
X0101209Y0135735D01*
X0101209Y0139916D01*
X0101977Y0139916D01*
X0101977Y0140684D01*
X0101209Y0140684D01*
X0101209Y0139916D01*
X0097028Y0139916D01*
X0096761Y0139945D02*
X0101209Y0139945D01*
X0101977Y0139945D02*
X0153593Y0139945D01*
X0153593Y0138747D02*
X0111829Y0138747D01*
X0111764Y0138546D02*
X0111986Y0139230D01*
X0112094Y0139916D01*
X0101977Y0139916D01*
X0101977Y0135731D01*
X0107889Y0135731D01*
X0108600Y0135844D01*
X0109284Y0136066D01*
X0109924Y0136393D01*
X0110506Y0136815D01*
X0111015Y0137324D01*
X0111437Y0137906D01*
X0111764Y0138546D01*
X0111177Y0137548D02*
X0153593Y0137548D01*
X0153593Y0136350D02*
X0109840Y0136350D01*
X0109284Y0134534D02*
X0108600Y0134756D01*
X0107889Y0134868D01*
X0101977Y0134868D01*
X0101977Y0130684D01*
X0112094Y0130684D01*
X0111986Y0131370D01*
X0111764Y0132054D01*
X0111437Y0132694D01*
X0111015Y0133276D01*
X0110506Y0133785D01*
X0109924Y0134207D01*
X0109284Y0134534D01*
X0110275Y0133953D02*
X0153593Y0133953D01*
X0153593Y0135151D02*
X0093387Y0135151D01*
X0094952Y0136350D02*
X0099283Y0136350D01*
X0097945Y0137548D02*
X0096047Y0137548D01*
X0096544Y0138747D02*
X0097294Y0138747D01*
X0101209Y0138747D02*
X0101977Y0138747D01*
X0101977Y0137548D02*
X0101209Y0137548D01*
X0101209Y0136350D02*
X0101977Y0136350D01*
X0101209Y0134865D02*
X0100523Y0134756D01*
X0099839Y0134534D01*
X0099198Y0134207D01*
X0098617Y0133785D01*
X0098108Y0133276D01*
X0097686Y0132694D01*
X0097359Y0132054D01*
X0097137Y0131370D01*
X0097028Y0130684D01*
X0101209Y0130684D01*
X0101209Y0134865D01*
X0101209Y0133953D02*
X0101977Y0133953D01*
X0101977Y0132754D02*
X0101209Y0132754D01*
X0101209Y0131556D02*
X0101977Y0131556D01*
X0101977Y0130684D02*
X0101209Y0130684D01*
X0101209Y0129916D01*
X0101977Y0129916D01*
X0101977Y0130684D01*
X0101977Y0130357D02*
X0153593Y0130357D01*
X0153593Y0129159D02*
X0111963Y0129159D01*
X0111986Y0129230D02*
X0111764Y0128546D01*
X0111437Y0127906D01*
X0111015Y0127324D01*
X0110506Y0126815D01*
X0109924Y0126393D01*
X0109284Y0126066D01*
X0108600Y0125844D01*
X0107889Y0125731D01*
X0101977Y0125731D01*
X0101977Y0129916D01*
X0112094Y0129916D01*
X0111986Y0129230D01*
X0111465Y0127960D02*
X0153593Y0127960D01*
X0153593Y0126762D02*
X0110432Y0126762D01*
X0109284Y0124534D02*
X0108600Y0124756D01*
X0107889Y0124868D01*
X0101977Y0124868D01*
X0101977Y0120684D01*
X0112094Y0120684D01*
X0111986Y0121370D01*
X0111764Y0122054D01*
X0111437Y0122694D01*
X0111015Y0123276D01*
X0110506Y0123785D01*
X0109924Y0124207D01*
X0109284Y0124534D01*
X0109616Y0124365D02*
X0153593Y0124365D01*
X0153593Y0125563D02*
X0093663Y0125563D01*
X0094838Y0124365D02*
X0099507Y0124365D01*
X0099198Y0124207D02*
X0098617Y0123785D01*
X0098108Y0123276D01*
X0097686Y0122694D01*
X0097359Y0122054D01*
X0097137Y0121370D01*
X0097028Y0120684D01*
X0101209Y0120684D01*
X0101209Y0124865D01*
X0100523Y0124756D01*
X0099839Y0124534D01*
X0099198Y0124207D01*
X0098028Y0123166D02*
X0096000Y0123166D01*
X0096497Y0121968D02*
X0097331Y0121968D01*
X0097042Y0120769D02*
X0096761Y0120769D01*
X0097028Y0119916D02*
X0097137Y0119230D01*
X0097359Y0118546D01*
X0097686Y0117906D01*
X0098108Y0117324D01*
X0098617Y0116815D01*
X0099198Y0116393D01*
X0099839Y0116066D01*
X0100523Y0115844D01*
X0101209Y0115735D01*
X0101209Y0119916D01*
X0101977Y0119916D01*
X0101977Y0120684D01*
X0101209Y0120684D01*
X0101209Y0119916D01*
X0097028Y0119916D01*
X0097083Y0119570D02*
X0096761Y0119570D01*
X0096389Y0118372D02*
X0097448Y0118372D01*
X0098259Y0117173D02*
X0095776Y0117173D01*
X0094577Y0115975D02*
X0100120Y0115975D01*
X0101209Y0115975D02*
X0101977Y0115975D01*
X0101977Y0115731D02*
X0107889Y0115731D01*
X0108600Y0115844D01*
X0109284Y0116066D01*
X0109924Y0116393D01*
X0110506Y0116815D01*
X0111015Y0117324D01*
X0111437Y0117906D01*
X0111764Y0118546D01*
X0111986Y0119230D01*
X0112094Y0119916D01*
X0101977Y0119916D01*
X0101977Y0115731D01*
X0101977Y0114868D02*
X0101977Y0110684D01*
X0112094Y0110684D01*
X0111986Y0111370D01*
X0111764Y0112054D01*
X0111437Y0112694D01*
X0111015Y0113276D01*
X0110506Y0113785D01*
X0109924Y0114207D01*
X0109284Y0114534D01*
X0108600Y0114756D01*
X0107889Y0114868D01*
X0101977Y0114868D01*
X0101977Y0114776D02*
X0101209Y0114776D01*
X0101209Y0114865D02*
X0100523Y0114756D01*
X0099839Y0114534D01*
X0099198Y0114207D01*
X0098617Y0113785D01*
X0098108Y0113276D01*
X0097686Y0112694D01*
X0097359Y0112054D01*
X0097137Y0111370D01*
X0097028Y0110684D01*
X0101209Y0110684D01*
X0101209Y0114865D01*
X0100652Y0114776D02*
X0094292Y0114776D01*
X0095624Y0113578D02*
X0098410Y0113578D01*
X0097525Y0112379D02*
X0096326Y0112379D01*
X0096761Y0111181D02*
X0097107Y0111181D01*
X0096761Y0109982D02*
X0101209Y0109982D01*
X0101209Y0109916D02*
X0097028Y0109916D01*
X0097137Y0109230D01*
X0097359Y0108546D01*
X0097686Y0107906D01*
X0098108Y0107324D01*
X0098617Y0106815D01*
X0099198Y0106393D01*
X0099839Y0106066D01*
X0100523Y0105844D01*
X0101209Y0105735D01*
X0101209Y0109916D01*
X0101977Y0109916D01*
X0101977Y0110684D01*
X0101209Y0110684D01*
X0101209Y0109916D01*
X0101977Y0109916D02*
X0101977Y0105731D01*
X0107889Y0105731D01*
X0108600Y0105844D01*
X0109284Y0106066D01*
X0109924Y0106393D01*
X0110506Y0106815D01*
X0111015Y0107324D01*
X0111437Y0107906D01*
X0111764Y0108546D01*
X0111986Y0109230D01*
X0112094Y0109916D01*
X0101977Y0109916D01*
X0101977Y0109982D02*
X0153593Y0109982D01*
X0153593Y0108784D02*
X0111841Y0108784D01*
X0111205Y0107585D02*
X0153593Y0107585D01*
X0153593Y0106387D02*
X0109913Y0106387D01*
X0109284Y0104534D02*
X0108600Y0104756D01*
X0107889Y0104868D01*
X0101977Y0104868D01*
X0101977Y0100684D01*
X0112094Y0100684D01*
X0111986Y0101370D01*
X0111764Y0102054D01*
X0111437Y0102694D01*
X0111015Y0103276D01*
X0110506Y0103785D01*
X0109924Y0104207D01*
X0109284Y0104534D01*
X0110224Y0103990D02*
X0153593Y0103990D01*
X0153593Y0105188D02*
X0093297Y0105188D01*
X0094989Y0106387D02*
X0099210Y0106387D01*
X0097918Y0107585D02*
X0096063Y0107585D01*
X0096559Y0108784D02*
X0097282Y0108784D01*
X0101209Y0108784D02*
X0101977Y0108784D01*
X0101977Y0107585D02*
X0101209Y0107585D01*
X0101209Y0106387D02*
X0101977Y0106387D01*
X0101209Y0104865D02*
X0100523Y0104756D01*
X0099839Y0104534D01*
X0099198Y0104207D01*
X0098617Y0103785D01*
X0098108Y0103276D01*
X0097686Y0102694D01*
X0097359Y0102054D01*
X0097137Y0101370D01*
X0097028Y0100684D01*
X0101209Y0100684D01*
X0101209Y0104865D01*
X0101209Y0103990D02*
X0101977Y0103990D01*
X0101977Y0102791D02*
X0101209Y0102791D01*
X0101209Y0101593D02*
X0101977Y0101593D01*
X0101977Y0100684D02*
X0101209Y0100684D01*
X0101209Y0099916D01*
X0101977Y0099916D01*
X0101977Y0100684D01*
X0101977Y0100394D02*
X0153593Y0100394D01*
X0153593Y0099196D02*
X0111975Y0099196D01*
X0111986Y0099230D02*
X0111764Y0098546D01*
X0111437Y0097906D01*
X0111015Y0097324D01*
X0110506Y0096815D01*
X0109924Y0096393D01*
X0109284Y0096066D01*
X0108600Y0095844D01*
X0107889Y0095731D01*
X0101977Y0095731D01*
X0101977Y0099916D01*
X0112094Y0099916D01*
X0111986Y0099230D01*
X0111484Y0097997D02*
X0153593Y0097997D01*
X0153593Y0096799D02*
X0110483Y0096799D01*
X0109284Y0094534D02*
X0108600Y0094756D01*
X0107889Y0094868D01*
X0101977Y0094868D01*
X0101977Y0090684D01*
X0112094Y0090684D01*
X0111986Y0091370D01*
X0111764Y0092054D01*
X0111437Y0092694D01*
X0111015Y0093276D01*
X0110506Y0093785D01*
X0109924Y0094207D01*
X0109284Y0094534D01*
X0109543Y0094402D02*
X0153593Y0094402D01*
X0153593Y0095600D02*
X0093753Y0095600D01*
X0094800Y0094402D02*
X0099580Y0094402D01*
X0099839Y0094534D02*
X0099198Y0094207D01*
X0098617Y0093785D01*
X0098108Y0093276D01*
X0097686Y0092694D01*
X0097359Y0092054D01*
X0097137Y0091370D01*
X0097028Y0090684D01*
X0101209Y0090684D01*
X0101209Y0094865D01*
X0100523Y0094756D01*
X0099839Y0094534D01*
X0101209Y0094402D02*
X0101977Y0094402D01*
X0101977Y0093203D02*
X0101209Y0093203D01*
X0101209Y0092005D02*
X0101977Y0092005D01*
X0101977Y0090806D02*
X0101209Y0090806D01*
X0101209Y0090684D02*
X0101977Y0090684D01*
X0101977Y0089916D01*
X0112094Y0089916D01*
X0111986Y0089230D01*
X0111764Y0088546D01*
X0111437Y0087906D01*
X0111015Y0087324D01*
X0110506Y0086815D01*
X0109924Y0086393D01*
X0109284Y0086066D01*
X0108600Y0085844D01*
X0107889Y0085731D01*
X0101977Y0085731D01*
X0101977Y0089916D01*
X0101209Y0089916D01*
X0101209Y0085735D01*
X0100523Y0085844D01*
X0099839Y0086066D01*
X0099198Y0086393D01*
X0098617Y0086815D01*
X0098108Y0087324D01*
X0097686Y0087906D01*
X0097359Y0088546D01*
X0097137Y0089230D01*
X0097028Y0089916D01*
X0101209Y0089916D01*
X0101209Y0090684D01*
X0101209Y0089608D02*
X0101977Y0089608D01*
X0101977Y0088409D02*
X0101209Y0088409D01*
X0101209Y0087211D02*
X0101977Y0087211D01*
X0101977Y0086012D02*
X0101209Y0086012D01*
X0101209Y0084814D02*
X0101977Y0084814D01*
X0100887Y0084814D02*
X0094202Y0084814D01*
X0094614Y0086012D02*
X0100005Y0086012D01*
X0098221Y0087211D02*
X0095813Y0087211D01*
X0096404Y0088409D02*
X0097429Y0088409D01*
X0097077Y0089608D02*
X0096761Y0089608D01*
X0096761Y0090806D02*
X0097048Y0090806D01*
X0097343Y0092005D02*
X0096481Y0092005D01*
X0095985Y0093203D02*
X0098055Y0093203D01*
X0099839Y0096066D02*
X0100523Y0095844D01*
X0101209Y0095735D01*
X0101209Y0099916D01*
X0097028Y0099916D01*
X0097137Y0099230D01*
X0097359Y0098546D01*
X0097686Y0097906D01*
X0098108Y0097324D01*
X0098617Y0096815D01*
X0099198Y0096393D01*
X0099839Y0096066D01*
X0098639Y0096799D02*
X0095401Y0096799D01*
X0096233Y0097997D02*
X0097639Y0097997D01*
X0097148Y0099196D02*
X0096730Y0099196D01*
X0096761Y0100394D02*
X0101209Y0100394D01*
X0101209Y0099196D02*
X0101977Y0099196D01*
X0101977Y0097997D02*
X0101209Y0097997D01*
X0101209Y0096799D02*
X0101977Y0096799D01*
X0097209Y0101593D02*
X0096652Y0101593D01*
X0096155Y0102791D02*
X0097756Y0102791D01*
X0098899Y0103990D02*
X0095212Y0103990D01*
X0101209Y0111181D02*
X0101977Y0111181D01*
X0101977Y0112379D02*
X0101209Y0112379D01*
X0101209Y0113578D02*
X0101977Y0113578D01*
X0101977Y0117173D02*
X0101209Y0117173D01*
X0101209Y0118372D02*
X0101977Y0118372D01*
X0101977Y0119570D02*
X0101209Y0119570D01*
X0101209Y0120769D02*
X0101977Y0120769D01*
X0101977Y0121968D02*
X0101209Y0121968D01*
X0101209Y0123166D02*
X0101977Y0123166D01*
X0101977Y0124365D02*
X0101209Y0124365D01*
X0101209Y0125735D02*
X0101209Y0129916D01*
X0097028Y0129916D01*
X0097137Y0129230D01*
X0097359Y0128546D01*
X0097686Y0127906D01*
X0098108Y0127324D01*
X0098617Y0126815D01*
X0099198Y0126393D01*
X0099839Y0126066D01*
X0100523Y0125844D01*
X0101209Y0125735D01*
X0101209Y0126762D02*
X0101977Y0126762D01*
X0101977Y0127960D02*
X0101209Y0127960D01*
X0101209Y0129159D02*
X0101977Y0129159D01*
X0101209Y0130357D02*
X0096761Y0130357D01*
X0096714Y0129159D02*
X0097160Y0129159D01*
X0097658Y0127960D02*
X0096218Y0127960D01*
X0095364Y0126762D02*
X0098691Y0126762D01*
X0097197Y0131556D02*
X0096667Y0131556D01*
X0096171Y0132754D02*
X0097729Y0132754D01*
X0098848Y0133953D02*
X0095250Y0133953D01*
X0101209Y0141144D02*
X0101977Y0141144D01*
X0101977Y0142342D02*
X0101209Y0142342D01*
X0101209Y0143541D02*
X0101977Y0143541D01*
X0101977Y0147136D02*
X0101209Y0147136D01*
X0101209Y0148335D02*
X0101977Y0148335D01*
X0101977Y0149533D02*
X0101209Y0149533D01*
X0101209Y0150732D02*
X0101977Y0150732D01*
X0101977Y0151930D02*
X0101209Y0151930D01*
X0101209Y0153129D02*
X0101977Y0153129D01*
X0101977Y0154327D02*
X0101209Y0154327D01*
X0101209Y0156724D02*
X0101977Y0156724D01*
X0101977Y0157923D02*
X0101209Y0157923D01*
X0101209Y0159121D02*
X0101977Y0159121D01*
X0101977Y0161518D02*
X0101209Y0161518D01*
X0101209Y0162717D02*
X0101977Y0162717D01*
X0101977Y0163915D02*
X0101209Y0163915D01*
X0101209Y0166312D02*
X0101977Y0166312D01*
X0101977Y0167511D02*
X0101209Y0167511D01*
X0101209Y0168709D02*
X0101977Y0168709D01*
X0101977Y0169908D02*
X0101209Y0169908D01*
X0101209Y0171106D02*
X0101977Y0171106D01*
X0101977Y0172305D02*
X0101209Y0172305D01*
X0101209Y0173503D02*
X0101977Y0173503D01*
X0101977Y0174702D02*
X0101209Y0174702D01*
X0100357Y0174702D02*
X0099393Y0174702D01*
X0099393Y0175901D02*
X0100349Y0175901D01*
X0101209Y0175901D02*
X0101977Y0175901D01*
X0101977Y0177099D02*
X0101209Y0177099D01*
X0101209Y0178298D02*
X0101977Y0178298D01*
X0101977Y0179496D02*
X0101209Y0179496D01*
X0101209Y0180695D02*
X0101977Y0180695D01*
X0101977Y0181893D02*
X0101209Y0181893D01*
X0101209Y0183092D02*
X0101977Y0183092D01*
X0101977Y0184290D02*
X0101209Y0184290D01*
X0099393Y0185489D02*
X0151734Y0185489D01*
X0150305Y0184290D02*
X0109762Y0184290D01*
X0111149Y0183092D02*
X0149186Y0183092D01*
X0148690Y0181893D02*
X0111816Y0181893D01*
X0112093Y0180695D02*
X0148456Y0180695D01*
X0148456Y0179496D02*
X0112028Y0179496D01*
X0111637Y0178298D02*
X0148859Y0178298D01*
X0149516Y0177099D02*
X0110790Y0177099D01*
X0108774Y0175901D02*
X0150740Y0175901D01*
X0150746Y0174702D02*
X0108766Y0174702D01*
X0110787Y0173503D02*
X0149518Y0173503D01*
X0148861Y0172305D02*
X0111636Y0172305D01*
X0112028Y0171106D02*
X0148456Y0171106D01*
X0148456Y0169908D02*
X0112093Y0169908D01*
X0111817Y0168709D02*
X0148689Y0168709D01*
X0149185Y0167511D02*
X0111150Y0167511D01*
X0109767Y0166312D02*
X0150303Y0166312D01*
X0150828Y0163915D02*
X0110326Y0163915D01*
X0111421Y0162717D02*
X0149733Y0162717D01*
X0149217Y0161518D02*
X0111938Y0161518D01*
X0111951Y0159121D02*
X0149204Y0159121D01*
X0149708Y0157923D02*
X0111446Y0157923D01*
X0110381Y0156724D02*
X0150773Y0156724D01*
X0150342Y0154327D02*
X0109689Y0154327D01*
X0111122Y0153129D02*
X0149202Y0153129D01*
X0148705Y0151930D02*
X0111804Y0151930D01*
X0112087Y0150732D02*
X0148456Y0150732D01*
X0148456Y0149533D02*
X0112034Y0149533D01*
X0111656Y0148335D02*
X0148844Y0148335D01*
X0149479Y0147136D02*
X0110827Y0147136D01*
X0108888Y0145938D02*
X0150677Y0145938D01*
X0153593Y0144739D02*
X0108651Y0144739D01*
X0110750Y0143541D02*
X0153593Y0143541D01*
X0153593Y0142342D02*
X0111617Y0142342D01*
X0112022Y0141144D02*
X0153593Y0141144D01*
X0159593Y0141144D02*
X0240094Y0141144D01*
X0240094Y0142342D02*
X0159593Y0142342D01*
X0159593Y0143541D02*
X0240094Y0143541D01*
X0240094Y0144739D02*
X0159593Y0144739D01*
X0162508Y0145938D02*
X0200677Y0145938D01*
X0199479Y0147136D02*
X0163707Y0147136D01*
X0164342Y0148335D02*
X0198844Y0148335D01*
X0198456Y0149533D02*
X0164730Y0149533D01*
X0164730Y0150732D02*
X0198456Y0150732D01*
X0198705Y0151930D02*
X0164480Y0151930D01*
X0163984Y0153129D02*
X0199202Y0153129D01*
X0200342Y0154327D02*
X0162843Y0154327D01*
X0162412Y0156724D02*
X0199891Y0156724D01*
X0199015Y0157923D02*
X0163477Y0157923D01*
X0163982Y0159121D02*
X0198518Y0159121D01*
X0201644Y0155526D02*
X0093573Y0155526D01*
X0096683Y0161518D02*
X0097185Y0161518D01*
X0097702Y0162717D02*
X0096186Y0162717D01*
X0096668Y0163915D02*
X0098797Y0163915D01*
X0099007Y0166312D02*
X0099356Y0166312D01*
X0101209Y0186687D02*
X0101977Y0186687D01*
X0101977Y0187886D02*
X0101209Y0187886D01*
X0101209Y0189084D02*
X0101977Y0189084D01*
X0101977Y0190283D02*
X0148456Y0190283D01*
X0148519Y0191481D02*
X0111950Y0191481D01*
X0111445Y0192680D02*
X0149016Y0192680D01*
X0149893Y0193878D02*
X0110377Y0193878D01*
X0109284Y0196066D02*
X0108600Y0195844D01*
X0107889Y0195731D01*
X0101977Y0195731D01*
X0101977Y0199916D01*
X0112094Y0199916D01*
X0111986Y0199230D01*
X0111764Y0198546D01*
X0111437Y0197906D01*
X0111015Y0197324D01*
X0110506Y0196815D01*
X0109924Y0196393D01*
X0109284Y0196066D01*
X0109694Y0196275D02*
X0150340Y0196275D01*
X0149201Y0197474D02*
X0111123Y0197474D01*
X0111805Y0198672D02*
X0148704Y0198672D01*
X0148456Y0199871D02*
X0112087Y0199871D01*
X0112033Y0201069D02*
X0148456Y0201069D01*
X0148845Y0202268D02*
X0111655Y0202268D01*
X0110824Y0203466D02*
X0149481Y0203466D01*
X0150680Y0204665D02*
X0108880Y0204665D01*
X0108600Y0205844D02*
X0109284Y0206066D01*
X0109924Y0206393D01*
X0110506Y0206815D01*
X0111015Y0207324D01*
X0111437Y0207906D01*
X0111764Y0208546D01*
X0111986Y0209230D01*
X0112094Y0209916D01*
X0101977Y0209916D01*
X0101977Y0210684D01*
X0112094Y0210684D01*
X0111986Y0211370D01*
X0111764Y0212054D01*
X0111437Y0212694D01*
X0111015Y0213276D01*
X0110506Y0213785D01*
X0109924Y0214207D01*
X0109284Y0214534D01*
X0108600Y0214756D01*
X0107889Y0214868D01*
X0101977Y0214868D01*
X0101977Y0210684D01*
X0101209Y0210684D01*
X0101209Y0214865D01*
X0100523Y0214756D01*
X0099839Y0214534D01*
X0099198Y0214207D01*
X0098617Y0213785D01*
X0098108Y0213276D01*
X0097686Y0212694D01*
X0097359Y0212054D01*
X0097137Y0211370D01*
X0097028Y0210684D01*
X0101209Y0210684D01*
X0101209Y0209916D01*
X0101977Y0209916D01*
X0101977Y0205731D01*
X0107889Y0205731D01*
X0108600Y0205844D01*
X0108659Y0205863D02*
X0150830Y0205863D01*
X0149553Y0207062D02*
X0110753Y0207062D01*
X0111618Y0208260D02*
X0148875Y0208260D01*
X0148456Y0209459D02*
X0112022Y0209459D01*
X0111828Y0211856D02*
X0148674Y0211856D01*
X0148456Y0210657D02*
X0101977Y0210657D01*
X0101209Y0210657D02*
X0096761Y0210657D01*
X0097028Y0209916D02*
X0097137Y0209230D01*
X0097359Y0208546D01*
X0097686Y0207906D01*
X0098108Y0207324D01*
X0098617Y0206815D01*
X0099198Y0206393D01*
X0099839Y0206066D01*
X0100523Y0205844D01*
X0101209Y0205735D01*
X0101209Y0209916D01*
X0097028Y0209916D01*
X0097101Y0209459D02*
X0096761Y0209459D01*
X0096342Y0208260D02*
X0097505Y0208260D01*
X0098370Y0207062D02*
X0095664Y0207062D01*
X0094388Y0205863D02*
X0100464Y0205863D01*
X0101209Y0205863D02*
X0101977Y0205863D01*
X0101977Y0204665D02*
X0101209Y0204665D01*
X0100242Y0204665D02*
X0094537Y0204665D01*
X0095736Y0203466D02*
X0098298Y0203466D01*
X0097468Y0202268D02*
X0096372Y0202268D01*
X0096761Y0201069D02*
X0097089Y0201069D01*
X0097035Y0199871D02*
X0096761Y0199871D01*
X0097180Y0198672D02*
X0097318Y0198672D01*
X0099220Y0196275D02*
X0099429Y0196275D01*
X0099393Y0195077D02*
X0151650Y0195077D01*
X0148534Y0189084D02*
X0111938Y0189084D01*
X0111423Y0187886D02*
X0149030Y0187886D01*
X0149928Y0186687D02*
X0110330Y0186687D01*
X0101977Y0191481D02*
X0101209Y0191481D01*
X0101209Y0192680D02*
X0101977Y0192680D01*
X0101977Y0193878D02*
X0101209Y0193878D01*
X0101209Y0196275D02*
X0101977Y0196275D01*
X0101977Y0197474D02*
X0101209Y0197474D01*
X0101209Y0198672D02*
X0101977Y0198672D01*
X0101977Y0199871D02*
X0101209Y0199871D01*
X0101209Y0201069D02*
X0101977Y0201069D01*
X0101977Y0202268D02*
X0101209Y0202268D01*
X0101209Y0203466D02*
X0101977Y0203466D01*
X0101977Y0207062D02*
X0101209Y0207062D01*
X0101209Y0208260D02*
X0101977Y0208260D01*
X0101977Y0209459D02*
X0101209Y0209459D01*
X0101209Y0211856D02*
X0101977Y0211856D01*
X0101977Y0213054D02*
X0101209Y0213054D01*
X0101209Y0214253D02*
X0101977Y0214253D01*
X0099288Y0214253D02*
X0094949Y0214253D01*
X0096046Y0213054D02*
X0097947Y0213054D01*
X0097295Y0211856D02*
X0096543Y0211856D01*
X0092662Y0215451D02*
X0152555Y0215451D01*
X0150876Y0216650D02*
X0051903Y0216650D01*
X0050704Y0215451D02*
X0084586Y0215451D01*
X0082299Y0214253D02*
X0049506Y0214253D01*
X0048307Y0213054D02*
X0081202Y0213054D01*
X0080706Y0211856D02*
X0047109Y0211856D01*
X0045910Y0210657D02*
X0080487Y0210657D01*
X0080487Y0209459D02*
X0044711Y0209459D01*
X0043513Y0208260D02*
X0080906Y0208260D01*
X0081585Y0207062D02*
X0032314Y0207062D01*
X0031116Y0205863D02*
X0082861Y0205863D01*
X0082711Y0204665D02*
X0042506Y0204665D01*
X0041593Y0210300D02*
X0056593Y0225300D01*
X0131593Y0225300D01*
X0132494Y0222642D02*
X0149691Y0222642D01*
X0149192Y0221444D02*
X0056697Y0221444D01*
X0041593Y0210300D02*
X0031593Y0210300D01*
X0026593Y0205300D01*
X0026593Y0135300D01*
X0031593Y0130300D01*
X0036593Y0130300D01*
X0041356Y0135151D02*
X0048793Y0135151D01*
X0048793Y0133953D02*
X0043218Y0133953D01*
X0044139Y0132754D02*
X0048793Y0132754D01*
X0048793Y0131556D02*
X0044636Y0131556D01*
X0044730Y0130357D02*
X0048793Y0130357D01*
X0048793Y0129159D02*
X0044683Y0129159D01*
X0044186Y0127960D02*
X0048793Y0127960D01*
X0048793Y0126762D02*
X0043332Y0126762D01*
X0041631Y0125563D02*
X0048793Y0125563D01*
X0048793Y0119570D02*
X0042600Y0119570D01*
X0043799Y0118372D02*
X0048793Y0118372D01*
X0048793Y0117173D02*
X0044380Y0117173D01*
X0044878Y0115975D02*
X0048793Y0115975D01*
X0048793Y0114776D02*
X0046076Y0114776D01*
X0047275Y0113578D02*
X0048793Y0113578D01*
X0048793Y0112379D02*
X0048473Y0112379D01*
X0046593Y0110300D02*
X0046593Y0085300D01*
X0051593Y0080300D01*
X0066593Y0080300D01*
X0076593Y0090300D01*
X0076593Y0161550D01*
X0080343Y0165300D01*
X0051593Y0165300D02*
X0051593Y0092800D01*
X0054093Y0090300D01*
X0046715Y0081218D02*
X0042789Y0081218D01*
X0041673Y0080020D02*
X0047913Y0080020D01*
X0049112Y0078821D02*
X0043350Y0078821D01*
X0044194Y0077623D02*
X0050740Y0077623D01*
X0045516Y0082417D02*
X0043961Y0082417D01*
X0046593Y0110300D02*
X0041593Y0115300D01*
X0036593Y0115300D01*
X0042920Y0136350D02*
X0048793Y0136350D01*
X0048793Y0137548D02*
X0044016Y0137548D01*
X0044512Y0138747D02*
X0048793Y0138747D01*
X0048793Y0139945D02*
X0044730Y0139945D01*
X0044730Y0141144D02*
X0048793Y0141144D01*
X0048793Y0142342D02*
X0044310Y0142342D01*
X0043630Y0143541D02*
X0048793Y0143541D01*
X0048793Y0144739D02*
X0042350Y0144739D01*
X0042508Y0145938D02*
X0048793Y0145938D01*
X0048793Y0147136D02*
X0043707Y0147136D01*
X0044342Y0148335D02*
X0048793Y0148335D01*
X0048793Y0149533D02*
X0044730Y0149533D01*
X0044730Y0150732D02*
X0048793Y0150732D01*
X0048793Y0151930D02*
X0044480Y0151930D01*
X0043984Y0153129D02*
X0048793Y0153129D01*
X0048793Y0154327D02*
X0042843Y0154327D01*
X0041541Y0155526D02*
X0048793Y0155526D01*
X0048793Y0156724D02*
X0043295Y0156724D01*
X0044171Y0157923D02*
X0048793Y0157923D01*
X0048793Y0159121D02*
X0044667Y0159121D01*
X0044730Y0160320D02*
X0048793Y0160320D01*
X0048301Y0161518D02*
X0044651Y0161518D01*
X0044220Y0162717D02*
X0047412Y0162717D01*
X0047412Y0163915D02*
X0045418Y0163915D01*
X0046617Y0165114D02*
X0047412Y0165114D01*
X0047843Y0170300D02*
X0037843Y0160300D01*
X0029481Y0203466D02*
X0029393Y0203466D01*
X0029917Y0204665D02*
X0030680Y0204665D01*
X0031824Y0215451D02*
X0021793Y0215451D01*
X0021793Y0216650D02*
X0029965Y0216650D01*
X0029045Y0217848D02*
X0021793Y0217848D01*
X0021793Y0219047D02*
X0028549Y0219047D01*
X0028456Y0220245D02*
X0021793Y0220245D01*
X0021793Y0221444D02*
X0028504Y0221444D01*
X0029000Y0222642D02*
X0021793Y0222642D01*
X0021793Y0223841D02*
X0029856Y0223841D01*
X0031561Y0225039D02*
X0021793Y0225039D01*
X0021793Y0226238D02*
X0030377Y0226238D01*
X0029216Y0227437D02*
X0021793Y0227437D01*
X0021793Y0228635D02*
X0028720Y0228635D01*
X0028456Y0229834D02*
X0021793Y0229834D01*
X0021793Y0231032D02*
X0028456Y0231032D01*
X0028830Y0232231D02*
X0021793Y0232231D01*
X0021793Y0233429D02*
X0029444Y0233429D01*
X0030643Y0234628D02*
X0021793Y0234628D01*
X0021793Y0235826D02*
X0030919Y0235826D01*
X0029590Y0237025D02*
X0021793Y0237025D01*
X0021793Y0238223D02*
X0028890Y0238223D01*
X0028456Y0239422D02*
X0021793Y0239422D01*
X0021793Y0240620D02*
X0028456Y0240620D01*
X0028659Y0241819D02*
X0021793Y0241819D01*
X0021793Y0243017D02*
X0029155Y0243017D01*
X0030231Y0244216D02*
X0021793Y0244216D01*
X0021793Y0245414D02*
X0031914Y0245414D01*
X0030002Y0246613D02*
X0021793Y0246613D01*
X0021793Y0247811D02*
X0029061Y0247811D01*
X0028564Y0249010D02*
X0021793Y0249010D01*
X0021793Y0250208D02*
X0028456Y0250208D01*
X0028488Y0251407D02*
X0021793Y0251407D01*
X0021793Y0252605D02*
X0028985Y0252605D01*
X0029819Y0253804D02*
X0021793Y0253804D01*
X0021793Y0255002D02*
X0031471Y0255002D01*
X0030414Y0256201D02*
X0021793Y0256201D01*
X0021793Y0257399D02*
X0029232Y0257399D01*
X0028735Y0258598D02*
X0021793Y0258598D01*
X0021793Y0259796D02*
X0028456Y0259796D01*
X0028456Y0260995D02*
X0021793Y0260995D01*
X0021793Y0262193D02*
X0028814Y0262193D01*
X0029407Y0263392D02*
X0021793Y0263392D01*
X0021793Y0264590D02*
X0030605Y0264590D01*
X0031009Y0265789D02*
X0021793Y0265789D01*
X0021793Y0266987D02*
X0029628Y0266987D01*
X0028906Y0268186D02*
X0021793Y0268186D01*
X0021793Y0269384D02*
X0028456Y0269384D01*
X0028456Y0270583D02*
X0021793Y0270583D01*
X0021793Y0271781D02*
X0028644Y0271781D01*
X0029140Y0272980D02*
X0021793Y0272980D01*
X0021793Y0274178D02*
X0030193Y0274178D01*
X0032004Y0275377D02*
X0021793Y0275377D01*
X0021793Y0276575D02*
X0030040Y0276575D01*
X0029076Y0277774D02*
X0021793Y0277774D01*
X0021793Y0278972D02*
X0028580Y0278972D01*
X0028456Y0280171D02*
X0021793Y0280171D01*
X0021793Y0281370D02*
X0028473Y0281370D01*
X0028969Y0282568D02*
X0021793Y0282568D01*
X0021793Y0283767D02*
X0029782Y0283767D01*
X0031381Y0284965D02*
X0021793Y0284965D01*
X0021793Y0286164D02*
X0030451Y0286164D01*
X0029253Y0287362D02*
X0021793Y0287362D01*
X0021793Y0288561D02*
X0028750Y0288561D01*
X0028456Y0289759D02*
X0021793Y0289759D01*
X0021793Y0290958D02*
X0028456Y0290958D01*
X0028799Y0292156D02*
X0021793Y0292156D01*
X0021793Y0293355D02*
X0029370Y0293355D01*
X0030568Y0294553D02*
X0021793Y0294553D01*
X0039729Y0316126D02*
X0043457Y0316126D01*
X0042259Y0317325D02*
X0040927Y0317325D01*
X0041451Y0318523D02*
X0041734Y0318523D01*
X0049729Y0316126D02*
X0053457Y0316126D01*
X0052259Y0317325D02*
X0050927Y0317325D01*
X0051451Y0318523D02*
X0051734Y0318523D01*
X0059729Y0316126D02*
X0063457Y0316126D01*
X0062259Y0317325D02*
X0060927Y0317325D01*
X0061451Y0318523D02*
X0061734Y0318523D01*
X0069729Y0316126D02*
X0073457Y0316126D01*
X0072259Y0317325D02*
X0070927Y0317325D01*
X0071451Y0318523D02*
X0071734Y0318523D01*
X0079729Y0316126D02*
X0083457Y0316126D01*
X0082259Y0317325D02*
X0080927Y0317325D01*
X0081451Y0318523D02*
X0081734Y0318523D01*
X0089729Y0316126D02*
X0093457Y0316126D01*
X0092259Y0317325D02*
X0090927Y0317325D01*
X0091451Y0318523D02*
X0091734Y0318523D01*
X0099729Y0316126D02*
X0103457Y0316126D01*
X0102259Y0317325D02*
X0100927Y0317325D01*
X0101451Y0318523D02*
X0101734Y0318523D01*
X0109729Y0316126D02*
X0113457Y0316126D01*
X0112259Y0317325D02*
X0110927Y0317325D01*
X0111451Y0318523D02*
X0111734Y0318523D01*
X0119729Y0316126D02*
X0123457Y0316126D01*
X0122259Y0317325D02*
X0120927Y0317325D01*
X0121451Y0318523D02*
X0121734Y0318523D01*
X0129729Y0316126D02*
X0133457Y0316126D01*
X0132259Y0317325D02*
X0130927Y0317325D01*
X0131451Y0318523D02*
X0131734Y0318523D01*
X0139729Y0316126D02*
X0143457Y0316126D01*
X0142259Y0317325D02*
X0140927Y0317325D01*
X0141451Y0318523D02*
X0141734Y0318523D01*
X0149729Y0316126D02*
X0153457Y0316126D01*
X0152259Y0317325D02*
X0150927Y0317325D01*
X0151451Y0318523D02*
X0151734Y0318523D01*
X0159729Y0316126D02*
X0163457Y0316126D01*
X0162259Y0317325D02*
X0160927Y0317325D01*
X0161451Y0318523D02*
X0161734Y0318523D01*
X0169729Y0316126D02*
X0173457Y0316126D01*
X0172259Y0317325D02*
X0170927Y0317325D01*
X0171451Y0318523D02*
X0171734Y0318523D01*
X0179729Y0316126D02*
X0183457Y0316126D01*
X0182259Y0317325D02*
X0180927Y0317325D01*
X0181451Y0318523D02*
X0181734Y0318523D01*
X0189729Y0316126D02*
X0193457Y0316126D01*
X0192259Y0317325D02*
X0190927Y0317325D01*
X0191451Y0318523D02*
X0191734Y0318523D01*
X0199729Y0316126D02*
X0203457Y0316126D01*
X0202259Y0317325D02*
X0200927Y0317325D01*
X0201451Y0318523D02*
X0201734Y0318523D01*
X0209729Y0316126D02*
X0240094Y0316126D01*
X0240094Y0314928D02*
X0231895Y0314928D01*
X0233441Y0313729D02*
X0240094Y0313729D01*
X0240094Y0312531D02*
X0234232Y0312531D01*
X0234728Y0311332D02*
X0240094Y0311332D01*
X0240094Y0310134D02*
X0234730Y0310134D01*
X0234590Y0308935D02*
X0240094Y0308935D01*
X0240094Y0307737D02*
X0234094Y0307737D01*
X0233109Y0306538D02*
X0240094Y0306538D01*
X0240094Y0305340D02*
X0231092Y0305340D01*
X0233029Y0304141D02*
X0240094Y0304141D01*
X0240094Y0302943D02*
X0234061Y0302943D01*
X0234558Y0301744D02*
X0240094Y0301744D01*
X0240094Y0300546D02*
X0234730Y0300546D01*
X0234730Y0299347D02*
X0240094Y0299347D01*
X0240094Y0298149D02*
X0234265Y0298149D01*
X0233521Y0296950D02*
X0240094Y0296950D01*
X0240094Y0295752D02*
X0232087Y0295752D01*
X0232618Y0294553D02*
X0240094Y0294553D01*
X0240094Y0293355D02*
X0233816Y0293355D01*
X0234387Y0292156D02*
X0240094Y0292156D01*
X0240094Y0290958D02*
X0234730Y0290958D01*
X0234730Y0289759D02*
X0240094Y0289759D01*
X0240094Y0288561D02*
X0234435Y0288561D01*
X0233933Y0287362D02*
X0240094Y0287362D01*
X0240094Y0286164D02*
X0232734Y0286164D01*
X0231805Y0284965D02*
X0240094Y0284965D01*
X0240094Y0283767D02*
X0233404Y0283767D01*
X0234216Y0282568D02*
X0240094Y0282568D01*
X0240094Y0281370D02*
X0234713Y0281370D01*
X0234730Y0280171D02*
X0240094Y0280171D01*
X0240094Y0278972D02*
X0234606Y0278972D01*
X0234109Y0277774D02*
X0240094Y0277774D01*
X0240094Y0276575D02*
X0233146Y0276575D01*
X0231182Y0275377D02*
X0240094Y0275377D01*
X0240094Y0274178D02*
X0232992Y0274178D01*
X0234046Y0272980D02*
X0240094Y0272980D01*
X0240094Y0271781D02*
X0234542Y0271781D01*
X0234730Y0270583D02*
X0240094Y0270583D01*
X0240094Y0269384D02*
X0234730Y0269384D01*
X0234280Y0268186D02*
X0240094Y0268186D01*
X0240094Y0266987D02*
X0233558Y0266987D01*
X0232176Y0265789D02*
X0240094Y0265789D01*
X0240094Y0264590D02*
X0232580Y0264590D01*
X0233779Y0263392D02*
X0240094Y0263392D01*
X0240094Y0262193D02*
X0234371Y0262193D01*
X0234730Y0260995D02*
X0240094Y0260995D01*
X0240094Y0259796D02*
X0234730Y0259796D01*
X0234451Y0258598D02*
X0240094Y0258598D01*
X0240094Y0257399D02*
X0233954Y0257399D01*
X0232772Y0256201D02*
X0240094Y0256201D01*
X0240094Y0255002D02*
X0231715Y0255002D01*
X0233367Y0253804D02*
X0240094Y0253804D01*
X0240094Y0252605D02*
X0234201Y0252605D01*
X0234697Y0251407D02*
X0240094Y0251407D01*
X0240094Y0250208D02*
X0234730Y0250208D01*
X0234621Y0249010D02*
X0240094Y0249010D01*
X0240094Y0247811D02*
X0234125Y0247811D01*
X0233183Y0246613D02*
X0240094Y0246613D01*
X0240094Y0245414D02*
X0231272Y0245414D01*
X0232955Y0244216D02*
X0240094Y0244216D01*
X0240094Y0243017D02*
X0234030Y0243017D01*
X0234527Y0241819D02*
X0240094Y0241819D01*
X0240094Y0240620D02*
X0234730Y0240620D01*
X0234730Y0239422D02*
X0240094Y0239422D01*
X0240094Y0238223D02*
X0234295Y0238223D01*
X0233595Y0237025D02*
X0240094Y0237025D01*
X0240094Y0235826D02*
X0232266Y0235826D01*
X0240094Y0234628D02*
X0219393Y0234628D01*
X0219393Y0235826D02*
X0220919Y0235826D01*
X0219590Y0237025D02*
X0219393Y0237025D01*
X0219393Y0233429D02*
X0240094Y0233429D01*
X0240094Y0232231D02*
X0219393Y0232231D01*
X0219393Y0231032D02*
X0240094Y0231032D01*
X0240094Y0229834D02*
X0219393Y0229834D01*
X0219393Y0228635D02*
X0240094Y0228635D01*
X0240094Y0227437D02*
X0219393Y0227437D01*
X0219393Y0226238D02*
X0240094Y0226238D01*
X0240094Y0225039D02*
X0231625Y0225039D01*
X0233330Y0223841D02*
X0240094Y0223841D01*
X0240094Y0222642D02*
X0234185Y0222642D01*
X0234682Y0221444D02*
X0240094Y0221444D01*
X0240094Y0220245D02*
X0234730Y0220245D01*
X0234637Y0219047D02*
X0240094Y0219047D01*
X0240094Y0217848D02*
X0234140Y0217848D01*
X0233221Y0216650D02*
X0240094Y0216650D01*
X0240094Y0215451D02*
X0231362Y0215451D01*
X0232918Y0214253D02*
X0240094Y0214253D01*
X0240094Y0213054D02*
X0234015Y0213054D01*
X0234511Y0211856D02*
X0240094Y0211856D01*
X0240094Y0210657D02*
X0234730Y0210657D01*
X0234730Y0209459D02*
X0240094Y0209459D01*
X0240094Y0208260D02*
X0234311Y0208260D01*
X0233633Y0207062D02*
X0240094Y0207062D01*
X0240094Y0205863D02*
X0232356Y0205863D01*
X0232506Y0204665D02*
X0240094Y0204665D01*
X0240094Y0203466D02*
X0233704Y0203466D01*
X0234341Y0202268D02*
X0240094Y0202268D01*
X0240094Y0201069D02*
X0234730Y0201069D01*
X0234730Y0199871D02*
X0240094Y0199871D01*
X0240094Y0198672D02*
X0234481Y0198672D01*
X0233985Y0197474D02*
X0240094Y0197474D01*
X0240094Y0196275D02*
X0232846Y0196275D01*
X0231535Y0195077D02*
X0240094Y0195077D01*
X0240094Y0193878D02*
X0233293Y0193878D01*
X0234170Y0192680D02*
X0240094Y0192680D01*
X0240094Y0191481D02*
X0234666Y0191481D01*
X0234730Y0190283D02*
X0240094Y0190283D01*
X0240094Y0189084D02*
X0234652Y0189084D01*
X0234156Y0187886D02*
X0240094Y0187886D01*
X0240094Y0186687D02*
X0233258Y0186687D01*
X0231452Y0185489D02*
X0240094Y0185489D01*
X0240094Y0184290D02*
X0232881Y0184290D01*
X0233999Y0183092D02*
X0240094Y0183092D01*
X0240094Y0181893D02*
X0234496Y0181893D01*
X0234730Y0180695D02*
X0240094Y0180695D01*
X0240094Y0179496D02*
X0234730Y0179496D01*
X0234326Y0178298D02*
X0240094Y0178298D01*
X0240094Y0177099D02*
X0233670Y0177099D01*
X0232446Y0175901D02*
X0240094Y0175901D01*
X0240094Y0174702D02*
X0232440Y0174702D01*
X0233667Y0173503D02*
X0240094Y0173503D01*
X0240094Y0172305D02*
X0234325Y0172305D01*
X0234730Y0171106D02*
X0240094Y0171106D01*
X0240094Y0169908D02*
X0234730Y0169908D01*
X0234497Y0168709D02*
X0240094Y0168709D01*
X0240094Y0167511D02*
X0234000Y0167511D01*
X0232883Y0166312D02*
X0240094Y0166312D01*
X0240094Y0165114D02*
X0231445Y0165114D01*
X0233255Y0163915D02*
X0240094Y0163915D01*
X0240094Y0162717D02*
X0234155Y0162717D01*
X0234651Y0161518D02*
X0240094Y0161518D01*
X0240094Y0160320D02*
X0234730Y0160320D01*
X0234667Y0159121D02*
X0240094Y0159121D01*
X0240094Y0157923D02*
X0234171Y0157923D01*
X0233295Y0156724D02*
X0240094Y0156724D01*
X0240094Y0155526D02*
X0231541Y0155526D01*
X0232843Y0154327D02*
X0240094Y0154327D01*
X0240094Y0153129D02*
X0233984Y0153129D01*
X0234480Y0151930D02*
X0240094Y0151930D01*
X0240094Y0150732D02*
X0234730Y0150732D01*
X0234730Y0149533D02*
X0240094Y0149533D01*
X0240094Y0148335D02*
X0234342Y0148335D01*
X0233707Y0147136D02*
X0240094Y0147136D01*
X0240094Y0145938D02*
X0232508Y0145938D01*
X0240094Y0139945D02*
X0159593Y0139945D01*
X0159593Y0138747D02*
X0240094Y0138747D01*
X0240094Y0137548D02*
X0159593Y0137548D01*
X0159593Y0136350D02*
X0240094Y0136350D01*
X0240094Y0135151D02*
X0231356Y0135151D01*
X0233218Y0133953D02*
X0240094Y0133953D01*
X0240094Y0132754D02*
X0234139Y0132754D01*
X0234636Y0131556D02*
X0240094Y0131556D01*
X0240094Y0130357D02*
X0234730Y0130357D01*
X0234683Y0129159D02*
X0240094Y0129159D01*
X0240094Y0127960D02*
X0234186Y0127960D01*
X0233332Y0126762D02*
X0240094Y0126762D01*
X0240094Y0125563D02*
X0231631Y0125563D01*
X0232806Y0124365D02*
X0240094Y0124365D01*
X0240094Y0123166D02*
X0233969Y0123166D01*
X0234465Y0121968D02*
X0240094Y0121968D01*
X0240094Y0120769D02*
X0234730Y0120769D01*
X0234730Y0119570D02*
X0240094Y0119570D01*
X0240094Y0118372D02*
X0234357Y0118372D01*
X0233744Y0117173D02*
X0240094Y0117173D01*
X0240094Y0115975D02*
X0232546Y0115975D01*
X0230502Y0114776D02*
X0240094Y0114776D01*
X0240094Y0113578D02*
X0232744Y0113578D01*
X0233629Y0112379D02*
X0240094Y0112379D01*
X0240094Y0111181D02*
X0234047Y0111181D01*
X0226977Y0111181D02*
X0226209Y0111181D01*
X0226209Y0112379D02*
X0226977Y0112379D01*
X0226977Y0113578D02*
X0226209Y0113578D01*
X0226209Y0114776D02*
X0226977Y0114776D01*
X0226977Y0108784D02*
X0226209Y0108784D01*
X0226209Y0107585D02*
X0226977Y0107585D01*
X0226977Y0106387D02*
X0226209Y0106387D01*
X0221920Y0105188D02*
X0159593Y0105188D01*
X0159593Y0103990D02*
X0220005Y0103990D01*
X0219062Y0102791D02*
X0159593Y0102791D01*
X0159593Y0101593D02*
X0218566Y0101593D01*
X0218456Y0100394D02*
X0159593Y0100394D01*
X0159593Y0099196D02*
X0218487Y0099196D01*
X0218984Y0097997D02*
X0159593Y0097997D01*
X0159593Y0096799D02*
X0219816Y0096799D01*
X0221465Y0095600D02*
X0159593Y0095600D01*
X0159593Y0094402D02*
X0220417Y0094402D01*
X0219233Y0093203D02*
X0159593Y0093203D01*
X0159593Y0092005D02*
X0218736Y0092005D01*
X0218456Y0090806D02*
X0159593Y0090806D01*
X0159593Y0089608D02*
X0218456Y0089608D01*
X0218813Y0088409D02*
X0159593Y0088409D01*
X0159593Y0087211D02*
X0219404Y0087211D01*
X0220603Y0086012D02*
X0159593Y0086012D01*
X0159593Y0084814D02*
X0221015Y0084814D01*
X0219630Y0083615D02*
X0159593Y0083615D01*
X0159593Y0082417D02*
X0218907Y0082417D01*
X0221241Y0106387D02*
X0159593Y0106387D01*
X0159593Y0107585D02*
X0219950Y0107585D01*
X0219313Y0108784D02*
X0159593Y0108784D01*
X0153593Y0111181D02*
X0112016Y0111181D01*
X0111598Y0112379D02*
X0153593Y0112379D01*
X0153593Y0113578D02*
X0110713Y0113578D01*
X0108471Y0114776D02*
X0153593Y0114776D01*
X0153593Y0115975D02*
X0109003Y0115975D01*
X0110864Y0117173D02*
X0153593Y0117173D01*
X0153593Y0118372D02*
X0111675Y0118372D01*
X0112040Y0119570D02*
X0153593Y0119570D01*
X0153593Y0120769D02*
X0112081Y0120769D01*
X0111792Y0121968D02*
X0153593Y0121968D01*
X0153593Y0123166D02*
X0111095Y0123166D01*
X0111926Y0131556D02*
X0153593Y0131556D01*
X0153593Y0132754D02*
X0111394Y0132754D01*
X0111367Y0102791D02*
X0153593Y0102791D01*
X0153593Y0101593D02*
X0111913Y0101593D01*
X0111068Y0093203D02*
X0153593Y0093203D01*
X0153593Y0092005D02*
X0111780Y0092005D01*
X0112075Y0090806D02*
X0153593Y0090806D01*
X0153593Y0089608D02*
X0112046Y0089608D01*
X0111694Y0088409D02*
X0153593Y0088409D01*
X0153593Y0087211D02*
X0110901Y0087211D01*
X0109117Y0086012D02*
X0153593Y0086012D01*
X0153593Y0084814D02*
X0108236Y0084814D01*
X0110676Y0083615D02*
X0153593Y0083615D01*
X0153593Y0082417D02*
X0111579Y0082417D01*
X0112010Y0081218D02*
X0153593Y0081218D01*
X0163517Y0069233D02*
X0111986Y0069233D01*
X0111986Y0069230D02*
X0111764Y0068546D01*
X0111437Y0067906D01*
X0111015Y0067324D01*
X0110506Y0066815D01*
X0109924Y0066393D01*
X0109284Y0066066D01*
X0108600Y0065844D01*
X0107889Y0065731D01*
X0101977Y0065731D01*
X0101977Y0069916D01*
X0112094Y0069916D01*
X0111986Y0069230D01*
X0111503Y0068034D02*
X0164716Y0068034D01*
X0165914Y0066836D02*
X0110527Y0066836D01*
X0101977Y0066836D02*
X0101209Y0066836D01*
X0101209Y0068034D02*
X0101977Y0068034D01*
X0101977Y0069233D02*
X0101209Y0069233D01*
X0101209Y0071630D02*
X0101977Y0071630D01*
X0101977Y0072829D02*
X0101209Y0072829D01*
X0101209Y0074027D02*
X0101977Y0074027D01*
X0101977Y0076424D02*
X0101209Y0076424D01*
X0101209Y0077623D02*
X0101977Y0077623D01*
X0101977Y0078821D02*
X0101209Y0078821D01*
X0101209Y0081218D02*
X0101977Y0081218D01*
X0101977Y0082417D02*
X0101209Y0082417D01*
X0101209Y0083615D02*
X0101977Y0083615D01*
X0098447Y0083615D02*
X0095587Y0083615D01*
X0096310Y0082417D02*
X0097544Y0082417D01*
X0097113Y0081218D02*
X0096761Y0081218D01*
X0095175Y0074027D02*
X0098950Y0074027D01*
X0097783Y0072829D02*
X0096140Y0072829D01*
X0096636Y0071630D02*
X0097221Y0071630D01*
X0156209Y0156724D02*
X0156977Y0156724D01*
X0156977Y0157923D02*
X0156209Y0157923D01*
X0156209Y0159121D02*
X0156977Y0159121D01*
X0156977Y0162717D02*
X0156209Y0162717D01*
X0156209Y0163915D02*
X0156977Y0163915D01*
X0182699Y0167511D02*
X0199185Y0167511D01*
X0198689Y0168709D02*
X0184245Y0168709D01*
X0185443Y0169908D02*
X0198456Y0169908D01*
X0198456Y0171106D02*
X0186642Y0171106D01*
X0187840Y0172305D02*
X0198861Y0172305D01*
X0199518Y0173503D02*
X0189039Y0173503D01*
X0190238Y0174702D02*
X0200746Y0174702D01*
X0200740Y0175901D02*
X0191436Y0175901D01*
X0192635Y0177099D02*
X0199516Y0177099D01*
X0198859Y0178298D02*
X0193833Y0178298D01*
X0195032Y0179496D02*
X0198456Y0179496D01*
X0198456Y0180695D02*
X0196230Y0180695D01*
X0197429Y0181893D02*
X0198690Y0181893D01*
X0198627Y0183092D02*
X0199186Y0183092D01*
X0199422Y0184290D02*
X0200305Y0184290D01*
X0199593Y0185489D02*
X0201734Y0185489D01*
X0199928Y0186687D02*
X0199593Y0186687D01*
X0213633Y0207062D02*
X0219553Y0207062D01*
X0218875Y0208260D02*
X0214311Y0208260D01*
X0214730Y0209459D02*
X0218456Y0209459D01*
X0218456Y0210657D02*
X0215910Y0210657D01*
X0217109Y0211856D02*
X0218674Y0211856D01*
X0218307Y0213054D02*
X0219171Y0213054D01*
X0219190Y0214253D02*
X0220268Y0214253D01*
X0219393Y0215451D02*
X0221824Y0215451D01*
X0219965Y0216650D02*
X0219393Y0216650D01*
X0219393Y0223841D02*
X0219856Y0223841D01*
X0219393Y0225039D02*
X0221561Y0225039D01*
X0219155Y0243017D02*
X0217835Y0243017D01*
X0216637Y0244216D02*
X0220231Y0244216D01*
X0221914Y0245414D02*
X0215438Y0245414D01*
X0214240Y0246613D02*
X0220002Y0246613D01*
X0219061Y0247811D02*
X0213041Y0247811D01*
X0211843Y0249010D02*
X0218564Y0249010D01*
X0218456Y0250208D02*
X0210644Y0250208D01*
X0209446Y0251407D02*
X0218488Y0251407D01*
X0218985Y0252605D02*
X0208247Y0252605D01*
X0163034Y0246613D02*
X0156865Y0246613D01*
X0155667Y0245414D02*
X0162139Y0245414D01*
X0161643Y0244216D02*
X0154468Y0244216D01*
X0153270Y0243017D02*
X0161593Y0243017D01*
X0161593Y0241819D02*
X0152071Y0241819D01*
X0150873Y0240620D02*
X0161593Y0240620D01*
X0161593Y0239422D02*
X0149674Y0239422D01*
X0148476Y0238223D02*
X0161593Y0238223D01*
X0161593Y0237025D02*
X0147277Y0237025D01*
X0146079Y0235826D02*
X0161874Y0235826D01*
X0162394Y0234628D02*
X0144880Y0234628D01*
X0143682Y0233429D02*
X0163593Y0233429D01*
X0163593Y0232231D02*
X0142483Y0232231D01*
X0141285Y0231032D02*
X0163593Y0231032D01*
X0163593Y0229834D02*
X0140086Y0229834D01*
X0138888Y0228635D02*
X0163593Y0228635D01*
X0163593Y0227437D02*
X0137689Y0227437D01*
X0136491Y0226238D02*
X0163593Y0226238D01*
X0163593Y0225039D02*
X0135292Y0225039D01*
X0134094Y0223841D02*
X0150726Y0223841D01*
X0156209Y0223841D02*
X0156977Y0223841D01*
X0156977Y0222642D02*
X0156209Y0222642D01*
X0156209Y0221444D02*
X0156977Y0221444D01*
X0156977Y0219047D02*
X0156209Y0219047D01*
X0156209Y0217848D02*
X0156977Y0217848D01*
X0156977Y0216650D02*
X0156209Y0216650D01*
X0160631Y0215451D02*
X0163593Y0215451D01*
X0163593Y0214253D02*
X0162918Y0214253D01*
X0162310Y0216650D02*
X0163593Y0216650D01*
X0163593Y0217848D02*
X0163427Y0217848D01*
X0163495Y0222642D02*
X0163593Y0222642D01*
X0163593Y0223841D02*
X0162460Y0223841D01*
X0150268Y0214253D02*
X0109835Y0214253D01*
X0111176Y0213054D02*
X0149171Y0213054D01*
X0210927Y0317325D02*
X0240094Y0317325D01*
X0240094Y0318523D02*
X0211451Y0318523D01*
X0211761Y0319722D02*
X0240094Y0319722D01*
X0240094Y0320920D02*
X0211761Y0320920D01*
X0211434Y0322119D02*
X0240094Y0322119D01*
X0240094Y0323317D02*
X0210885Y0323317D01*
X0209686Y0324516D02*
X0240094Y0324516D01*
X0240094Y0325714D02*
X0209028Y0325714D01*
X0210515Y0326913D02*
X0240094Y0326913D01*
X0240094Y0328111D02*
X0211281Y0328111D01*
X0211761Y0329310D02*
X0240094Y0329310D01*
X0240094Y0330508D02*
X0211761Y0330508D01*
X0211604Y0331707D02*
X0240094Y0331707D01*
X0240094Y0332905D02*
X0211108Y0332905D01*
X0210098Y0334104D02*
X0240094Y0334104D01*
X0227093Y0039674D02*
X0227093Y0030900D01*
X0231993Y0030900D01*
X0231993Y0034633D01*
X0231857Y0035488D01*
X0231590Y0036311D01*
X0231197Y0037083D01*
X0230688Y0037783D01*
X0230076Y0038395D01*
X0229375Y0038904D01*
X0228604Y0039297D01*
X0227781Y0039565D01*
X0227093Y0039674D01*
X0227093Y0039270D02*
X0225893Y0039270D01*
X0225893Y0039674D02*
X0225205Y0039565D01*
X0224382Y0039297D01*
X0223610Y0038904D01*
X0222910Y0038395D01*
X0222298Y0037783D01*
X0221789Y0037083D01*
X0221396Y0036311D01*
X0221128Y0035488D01*
X0220993Y0034633D01*
X0220993Y0030900D01*
X0225893Y0030900D01*
X0225893Y0039674D01*
X0225893Y0038072D02*
X0227093Y0038072D01*
X0227093Y0036873D02*
X0225893Y0036873D01*
X0225893Y0035675D02*
X0227093Y0035675D01*
X0227093Y0034476D02*
X0225893Y0034476D01*
X0225893Y0033278D02*
X0227093Y0033278D01*
X0227093Y0032079D02*
X0225893Y0032079D01*
X0225893Y0030900D02*
X0227093Y0030900D01*
X0227093Y0029700D01*
X0231993Y0029700D01*
X0231993Y0025967D01*
X0231857Y0025112D01*
X0231590Y0024289D01*
X0231197Y0023517D01*
X0230688Y0022817D01*
X0230076Y0022205D01*
X0229375Y0021696D01*
X0228604Y0021303D01*
X0227781Y0021035D01*
X0227093Y0020926D01*
X0227093Y0029700D01*
X0225893Y0029700D01*
X0225893Y0020926D01*
X0225205Y0021035D01*
X0224382Y0021303D01*
X0223610Y0021696D01*
X0222910Y0022205D01*
X0222298Y0022817D01*
X0221789Y0023517D01*
X0221396Y0024289D01*
X0221128Y0025112D01*
X0220993Y0025967D01*
X0220993Y0029700D01*
X0225893Y0029700D01*
X0225893Y0030900D01*
X0225893Y0030881D02*
X0212793Y0030881D01*
X0212793Y0032079D02*
X0220993Y0032079D01*
X0220993Y0033278D02*
X0212793Y0033278D01*
X0212793Y0034476D02*
X0220993Y0034476D01*
X0221189Y0035675D02*
X0212685Y0035675D01*
X0212188Y0036873D02*
X0221682Y0036873D01*
X0222586Y0038072D02*
X0211448Y0038072D01*
X0210249Y0039270D02*
X0224329Y0039270D01*
X0228657Y0039270D02*
X0240094Y0039270D01*
X0240094Y0038072D02*
X0230399Y0038072D01*
X0231304Y0036873D02*
X0240094Y0036873D01*
X0240094Y0035675D02*
X0231797Y0035675D01*
X0231993Y0034476D02*
X0240094Y0034476D01*
X0240094Y0033278D02*
X0231993Y0033278D01*
X0231993Y0032079D02*
X0240094Y0032079D01*
X0240094Y0030881D02*
X0227093Y0030881D01*
X0227093Y0029682D02*
X0225893Y0029682D01*
X0225893Y0028484D02*
X0227093Y0028484D01*
X0227093Y0027285D02*
X0225893Y0027285D01*
X0225893Y0026087D02*
X0227093Y0026087D01*
X0227093Y0024888D02*
X0225893Y0024888D01*
X0225893Y0023690D02*
X0227093Y0023690D01*
X0227093Y0022491D02*
X0225893Y0022491D01*
X0225893Y0021293D02*
X0227093Y0021293D01*
X0228572Y0021293D02*
X0240094Y0021293D01*
X0240094Y0022491D02*
X0230362Y0022491D01*
X0231285Y0023690D02*
X0240094Y0023690D01*
X0240094Y0024888D02*
X0231785Y0024888D01*
X0231993Y0026087D02*
X0240094Y0026087D01*
X0240094Y0027285D02*
X0231993Y0027285D01*
X0231993Y0028484D02*
X0240094Y0028484D01*
X0240094Y0029682D02*
X0231993Y0029682D01*
X0224414Y0021293D02*
X0210212Y0021293D01*
X0211411Y0022491D02*
X0222624Y0022491D01*
X0221701Y0023690D02*
X0212173Y0023690D01*
X0212669Y0024888D02*
X0221201Y0024888D01*
X0220993Y0026087D02*
X0212793Y0026087D01*
X0212793Y0027285D02*
X0220993Y0027285D01*
X0220993Y0028484D02*
X0212793Y0028484D01*
X0212793Y0029682D02*
X0220993Y0029682D01*
D15*
X0226493Y0030300D02*
X0236593Y0040400D01*
X0236593Y0105300D01*
X0231593Y0110300D01*
X0226593Y0110300D01*
X0221593Y0110300D01*
X0176593Y0160300D01*
X0156593Y0160300D01*
X0156593Y0150300D02*
X0156593Y0080400D01*
X0206693Y0030300D01*
X0181593Y0170300D02*
X0156593Y0170300D01*
X0156593Y0180300D02*
X0176593Y0180300D01*
X0186593Y0190300D01*
X0186593Y0240300D01*
X0196593Y0240300D02*
X0196593Y0185300D01*
X0181593Y0170300D01*
X0171593Y0190300D02*
X0156593Y0190300D01*
X0156593Y0200300D02*
X0161593Y0200300D01*
X0166593Y0205300D01*
X0166593Y0240300D01*
X0176593Y0240300D02*
X0176593Y0195300D01*
X0171593Y0190300D01*
X0041593Y0180300D02*
X0036593Y0180300D01*
X0036593Y0170300D02*
X0041593Y0170300D01*
X0037843Y0160300D02*
X0036593Y0160300D01*
D16*
X0051593Y0165300D03*
X0054093Y0090300D03*
M02*
