G75*
%MOIN*%
%OFA0B0*%
%FSLAX25Y25*%
%IPPOS*%
%LPD*%
%AMOC8*
5,1,8,0,0,1.08239X$1,22.5*
%
%ADD10C,0.01200*%
%ADD11C,0.00600*%
%ADD12C,0.00400*%
%ADD13C,0.00500*%
%ADD14R,0.02300X0.07200*%
%ADD15R,0.02600X0.02600*%
%ADD16C,0.00200*%
%ADD17C,0.00700*%
%ADD18R,0.09000X0.03000*%
%ADD19R,0.09000X0.04500*%
%ADD20R,0.02000X0.02000*%
%ADD21C,0.00300*%
D10*
X0016593Y0015300D02*
X0016593Y0345261D01*
X0245294Y0345261D01*
X0245294Y0015300D01*
X0016593Y0015300D01*
D11*
X0063343Y0087000D02*
X0072343Y0087000D01*
X0072343Y0093600D02*
X0063343Y0093600D01*
X0062093Y0167000D02*
X0071093Y0167000D01*
X0071093Y0173600D02*
X0062093Y0173600D01*
X0062093Y0177000D02*
X0071093Y0177000D01*
X0071093Y0183600D02*
X0062093Y0183600D01*
X0062093Y0187000D02*
X0071093Y0187000D01*
X0071093Y0193600D02*
X0062093Y0193600D01*
X0062093Y0207000D02*
X0071093Y0207000D01*
X0071093Y0213600D02*
X0062093Y0213600D01*
X0162593Y0230300D02*
X0162593Y0233300D01*
X0170093Y0233300D01*
X0171593Y0234800D01*
X0172593Y0233800D01*
X0173093Y0233300D01*
X0180593Y0233300D01*
X0180593Y0246300D01*
X0179093Y0246300D01*
X0179093Y0245300D01*
X0174093Y0245300D01*
X0174093Y0246300D01*
X0172593Y0246300D01*
X0172593Y0233800D01*
X0170593Y0233800D02*
X0170593Y0246300D01*
X0169093Y0246300D01*
X0169093Y0245300D01*
X0164093Y0245300D01*
X0164093Y0246300D01*
X0162593Y0246300D01*
X0162593Y0247300D01*
X0164093Y0247300D01*
X0164093Y0246300D01*
X0162593Y0246300D02*
X0162593Y0233300D01*
X0162593Y0230300D02*
X0165593Y0230300D01*
X0165593Y0229800D01*
X0167593Y0229800D01*
X0167593Y0230300D01*
X0170593Y0230300D01*
X0170593Y0230800D01*
X0172593Y0230800D01*
X0172593Y0230300D01*
X0175593Y0230300D01*
X0175593Y0229800D01*
X0177593Y0229800D01*
X0177593Y0230300D01*
X0180593Y0230300D01*
X0180593Y0230800D01*
X0182593Y0230800D01*
X0182593Y0230300D01*
X0185593Y0230300D01*
X0185593Y0229800D01*
X0187593Y0229800D01*
X0187593Y0230300D01*
X0190593Y0230300D01*
X0190593Y0230800D01*
X0192593Y0230800D01*
X0192593Y0230300D01*
X0195593Y0230300D01*
X0195593Y0229800D01*
X0197593Y0229800D01*
X0197593Y0230300D01*
X0200593Y0230300D01*
X0200593Y0233300D01*
X0193093Y0233300D01*
X0192593Y0233800D01*
X0192593Y0246300D01*
X0190593Y0246300D01*
X0190593Y0233800D01*
X0190093Y0233300D01*
X0182593Y0233300D01*
X0182593Y0246300D01*
X0180593Y0246300D01*
X0179093Y0246300D02*
X0179093Y0247300D01*
X0184093Y0247300D01*
X0184093Y0246300D01*
X0182593Y0246300D01*
X0184093Y0246300D02*
X0184093Y0245300D01*
X0189093Y0245300D01*
X0189093Y0246300D01*
X0190593Y0246300D01*
X0189093Y0246300D02*
X0189093Y0247300D01*
X0194093Y0247300D01*
X0194093Y0246300D01*
X0192593Y0246300D01*
X0194093Y0246300D02*
X0194093Y0245300D01*
X0199093Y0245300D01*
X0199093Y0246300D01*
X0200593Y0246300D01*
X0200593Y0247300D01*
X0199093Y0247300D01*
X0199093Y0246300D01*
X0200593Y0246300D02*
X0200593Y0233300D01*
X0192593Y0233800D02*
X0191593Y0234800D01*
X0190593Y0233800D01*
X0182593Y0233300D02*
X0180593Y0233300D01*
X0174093Y0246300D02*
X0174093Y0247300D01*
X0169093Y0247300D01*
X0169093Y0246300D01*
X0170593Y0246300D02*
X0172593Y0246300D01*
X0172593Y0248800D02*
X0172593Y0249300D01*
X0180593Y0249300D01*
X0180593Y0248800D01*
X0182593Y0248800D01*
X0182593Y0249300D01*
X0190593Y0249300D01*
X0190593Y0248800D01*
X0192593Y0248800D01*
X0192593Y0249300D01*
X0200593Y0249300D01*
X0200593Y0247300D01*
X0172593Y0248800D02*
X0170593Y0248800D01*
X0170593Y0249300D01*
X0162593Y0249300D01*
X0162593Y0247300D01*
X0196593Y0041300D02*
X0196593Y0016800D01*
X0196593Y0015300D01*
X0196593Y0001800D01*
X0199593Y0001800D01*
X0205593Y0001800D01*
X0207593Y0001800D01*
X0207593Y0001300D01*
X0213593Y0001300D01*
X0213593Y0001800D01*
X0207593Y0001800D01*
X0205593Y0001800D02*
X0205593Y0001300D01*
X0199593Y0001300D01*
X0199593Y0001800D01*
X0196593Y0016800D02*
X0236593Y0016800D01*
X0238093Y0016800D01*
X0238093Y0041300D01*
X0236593Y0041300D01*
X0236593Y0016800D01*
X0236593Y0015300D01*
X0236593Y0001800D01*
X0233593Y0001800D01*
X0233593Y0001300D01*
X0227593Y0001300D01*
X0227593Y0001800D01*
X0233593Y0001800D01*
X0227593Y0001800D02*
X0225593Y0001800D01*
X0219593Y0001800D01*
X0219593Y0001300D01*
X0225593Y0001300D01*
X0225593Y0001800D01*
X0219593Y0001800D02*
X0213593Y0001800D01*
X0214693Y0019300D02*
X0198693Y0019300D01*
X0198693Y0038800D01*
X0214693Y0038800D01*
X0214693Y0019300D01*
X0213693Y0019800D02*
X0199693Y0019800D01*
X0199633Y0019802D01*
X0199572Y0019807D01*
X0199513Y0019816D01*
X0199454Y0019829D01*
X0199395Y0019845D01*
X0199338Y0019865D01*
X0199283Y0019888D01*
X0199228Y0019915D01*
X0199176Y0019944D01*
X0199125Y0019977D01*
X0199076Y0020013D01*
X0199030Y0020051D01*
X0198986Y0020093D01*
X0198944Y0020137D01*
X0198906Y0020183D01*
X0198870Y0020232D01*
X0198837Y0020283D01*
X0198808Y0020335D01*
X0198781Y0020390D01*
X0198758Y0020445D01*
X0198738Y0020502D01*
X0198722Y0020561D01*
X0198709Y0020620D01*
X0198700Y0020679D01*
X0198695Y0020740D01*
X0198693Y0020800D01*
X0201193Y0019800D02*
X0201253Y0019802D01*
X0201314Y0019807D01*
X0201373Y0019816D01*
X0201432Y0019829D01*
X0201491Y0019845D01*
X0201548Y0019865D01*
X0201603Y0019888D01*
X0201658Y0019915D01*
X0201710Y0019944D01*
X0201761Y0019977D01*
X0201810Y0020013D01*
X0201856Y0020051D01*
X0201900Y0020093D01*
X0201942Y0020137D01*
X0201980Y0020183D01*
X0202016Y0020232D01*
X0202049Y0020283D01*
X0202078Y0020335D01*
X0202105Y0020390D01*
X0202128Y0020445D01*
X0202148Y0020502D01*
X0202164Y0020561D01*
X0202177Y0020620D01*
X0202186Y0020679D01*
X0202191Y0020740D01*
X0202193Y0020800D01*
X0202193Y0027300D01*
X0211193Y0027300D01*
X0211193Y0020800D01*
X0211195Y0020740D01*
X0211200Y0020679D01*
X0211209Y0020620D01*
X0211222Y0020561D01*
X0211238Y0020502D01*
X0211258Y0020445D01*
X0211281Y0020390D01*
X0211308Y0020335D01*
X0211337Y0020283D01*
X0211370Y0020232D01*
X0211406Y0020183D01*
X0211444Y0020137D01*
X0211486Y0020093D01*
X0211530Y0020051D01*
X0211576Y0020013D01*
X0211625Y0019977D01*
X0211676Y0019944D01*
X0211728Y0019915D01*
X0211783Y0019888D01*
X0211838Y0019865D01*
X0211895Y0019845D01*
X0211954Y0019829D01*
X0212013Y0019816D01*
X0212072Y0019807D01*
X0212133Y0019802D01*
X0212193Y0019800D01*
X0213693Y0019800D02*
X0213753Y0019802D01*
X0213814Y0019807D01*
X0213873Y0019816D01*
X0213932Y0019829D01*
X0213991Y0019845D01*
X0214048Y0019865D01*
X0214103Y0019888D01*
X0214158Y0019915D01*
X0214210Y0019944D01*
X0214261Y0019977D01*
X0214310Y0020013D01*
X0214356Y0020051D01*
X0214400Y0020093D01*
X0214442Y0020137D01*
X0214480Y0020183D01*
X0214516Y0020232D01*
X0214549Y0020283D01*
X0214578Y0020335D01*
X0214605Y0020390D01*
X0214628Y0020445D01*
X0214648Y0020502D01*
X0214664Y0020561D01*
X0214677Y0020620D01*
X0214686Y0020679D01*
X0214691Y0020740D01*
X0214693Y0020800D01*
X0218493Y0019300D02*
X0234493Y0019300D01*
X0234493Y0038800D01*
X0218493Y0038800D01*
X0218493Y0019300D01*
X0219493Y0019800D02*
X0233493Y0019800D01*
X0233553Y0019802D01*
X0233614Y0019807D01*
X0233673Y0019816D01*
X0233732Y0019829D01*
X0233791Y0019845D01*
X0233848Y0019865D01*
X0233903Y0019888D01*
X0233958Y0019915D01*
X0234010Y0019944D01*
X0234061Y0019977D01*
X0234110Y0020013D01*
X0234156Y0020051D01*
X0234200Y0020093D01*
X0234242Y0020137D01*
X0234280Y0020183D01*
X0234316Y0020232D01*
X0234349Y0020283D01*
X0234378Y0020335D01*
X0234405Y0020390D01*
X0234428Y0020445D01*
X0234448Y0020502D01*
X0234464Y0020561D01*
X0234477Y0020620D01*
X0234486Y0020679D01*
X0234491Y0020740D01*
X0234493Y0020800D01*
X0231993Y0019800D02*
X0231933Y0019802D01*
X0231872Y0019807D01*
X0231813Y0019816D01*
X0231754Y0019829D01*
X0231695Y0019845D01*
X0231638Y0019865D01*
X0231583Y0019888D01*
X0231528Y0019915D01*
X0231476Y0019944D01*
X0231425Y0019977D01*
X0231376Y0020013D01*
X0231330Y0020051D01*
X0231286Y0020093D01*
X0231244Y0020137D01*
X0231206Y0020183D01*
X0231170Y0020232D01*
X0231137Y0020283D01*
X0231108Y0020335D01*
X0231081Y0020390D01*
X0231058Y0020445D01*
X0231038Y0020502D01*
X0231022Y0020561D01*
X0231009Y0020620D01*
X0231000Y0020679D01*
X0230995Y0020740D01*
X0230993Y0020800D01*
X0230993Y0027300D01*
X0230993Y0029800D01*
X0221993Y0029800D01*
X0221993Y0027300D01*
X0221993Y0020800D01*
X0221991Y0020740D01*
X0221986Y0020679D01*
X0221977Y0020620D01*
X0221964Y0020561D01*
X0221948Y0020502D01*
X0221928Y0020445D01*
X0221905Y0020390D01*
X0221878Y0020335D01*
X0221849Y0020283D01*
X0221816Y0020232D01*
X0221780Y0020183D01*
X0221742Y0020137D01*
X0221700Y0020093D01*
X0221656Y0020051D01*
X0221610Y0020013D01*
X0221561Y0019977D01*
X0221510Y0019944D01*
X0221458Y0019915D01*
X0221403Y0019888D01*
X0221348Y0019865D01*
X0221291Y0019845D01*
X0221232Y0019829D01*
X0221173Y0019816D01*
X0221114Y0019807D01*
X0221053Y0019802D01*
X0220993Y0019800D01*
X0219493Y0019800D02*
X0219433Y0019802D01*
X0219372Y0019807D01*
X0219313Y0019816D01*
X0219254Y0019829D01*
X0219195Y0019845D01*
X0219138Y0019865D01*
X0219083Y0019888D01*
X0219028Y0019915D01*
X0218976Y0019944D01*
X0218925Y0019977D01*
X0218876Y0020013D01*
X0218830Y0020051D01*
X0218786Y0020093D01*
X0218744Y0020137D01*
X0218706Y0020183D01*
X0218670Y0020232D01*
X0218637Y0020283D01*
X0218608Y0020335D01*
X0218581Y0020390D01*
X0218558Y0020445D01*
X0218538Y0020502D01*
X0218522Y0020561D01*
X0218509Y0020620D01*
X0218500Y0020679D01*
X0218495Y0020740D01*
X0218493Y0020800D01*
X0221993Y0027300D02*
X0230993Y0027300D01*
X0220993Y0030300D02*
X0220995Y0030448D01*
X0221001Y0030596D01*
X0221011Y0030744D01*
X0221025Y0030892D01*
X0221043Y0031039D01*
X0221065Y0031186D01*
X0221091Y0031332D01*
X0221120Y0031477D01*
X0221154Y0031622D01*
X0221192Y0031765D01*
X0221233Y0031908D01*
X0221278Y0032049D01*
X0221328Y0032189D01*
X0221380Y0032327D01*
X0221437Y0032465D01*
X0221497Y0032600D01*
X0221561Y0032734D01*
X0221628Y0032866D01*
X0221699Y0032996D01*
X0221774Y0033125D01*
X0221852Y0033251D01*
X0221933Y0033375D01*
X0222017Y0033497D01*
X0222105Y0033616D01*
X0222196Y0033733D01*
X0222290Y0033848D01*
X0222388Y0033960D01*
X0222488Y0034069D01*
X0222591Y0034176D01*
X0222697Y0034280D01*
X0222805Y0034381D01*
X0222917Y0034479D01*
X0223031Y0034574D01*
X0223147Y0034665D01*
X0223266Y0034754D01*
X0223387Y0034839D01*
X0223511Y0034921D01*
X0223637Y0035000D01*
X0223764Y0035075D01*
X0223894Y0035147D01*
X0224026Y0035216D01*
X0224159Y0035280D01*
X0224294Y0035341D01*
X0224431Y0035399D01*
X0224569Y0035453D01*
X0224709Y0035503D01*
X0224850Y0035549D01*
X0224992Y0035591D01*
X0225135Y0035630D01*
X0225279Y0035664D01*
X0225425Y0035695D01*
X0225570Y0035722D01*
X0225717Y0035745D01*
X0225864Y0035764D01*
X0226012Y0035779D01*
X0226159Y0035790D01*
X0226308Y0035797D01*
X0226456Y0035800D01*
X0226604Y0035799D01*
X0226752Y0035794D01*
X0226900Y0035785D01*
X0227048Y0035772D01*
X0227196Y0035755D01*
X0227342Y0035734D01*
X0227489Y0035709D01*
X0227634Y0035680D01*
X0227779Y0035648D01*
X0227922Y0035611D01*
X0228065Y0035571D01*
X0228207Y0035526D01*
X0228347Y0035478D01*
X0228486Y0035426D01*
X0228623Y0035371D01*
X0228759Y0035311D01*
X0228894Y0035248D01*
X0229026Y0035182D01*
X0229157Y0035112D01*
X0229286Y0035038D01*
X0229412Y0034961D01*
X0229537Y0034881D01*
X0229659Y0034797D01*
X0229780Y0034710D01*
X0229897Y0034620D01*
X0230013Y0034526D01*
X0230125Y0034430D01*
X0230235Y0034331D01*
X0230343Y0034228D01*
X0230447Y0034123D01*
X0230549Y0034015D01*
X0230647Y0033904D01*
X0230743Y0033791D01*
X0230836Y0033675D01*
X0230925Y0033557D01*
X0231011Y0033436D01*
X0231094Y0033313D01*
X0231174Y0033188D01*
X0231250Y0033061D01*
X0231323Y0032931D01*
X0231392Y0032800D01*
X0231457Y0032667D01*
X0231520Y0032533D01*
X0231578Y0032396D01*
X0231633Y0032258D01*
X0231683Y0032119D01*
X0231731Y0031978D01*
X0231774Y0031837D01*
X0231814Y0031694D01*
X0231849Y0031550D01*
X0231881Y0031405D01*
X0231909Y0031259D01*
X0231933Y0031113D01*
X0231953Y0030966D01*
X0231969Y0030818D01*
X0231981Y0030671D01*
X0231989Y0030522D01*
X0231993Y0030374D01*
X0231993Y0030226D01*
X0231989Y0030078D01*
X0231981Y0029929D01*
X0231969Y0029782D01*
X0231953Y0029634D01*
X0231933Y0029487D01*
X0231909Y0029341D01*
X0231881Y0029195D01*
X0231849Y0029050D01*
X0231814Y0028906D01*
X0231774Y0028763D01*
X0231731Y0028622D01*
X0231683Y0028481D01*
X0231633Y0028342D01*
X0231578Y0028204D01*
X0231520Y0028067D01*
X0231457Y0027933D01*
X0231392Y0027800D01*
X0231323Y0027669D01*
X0231250Y0027539D01*
X0231174Y0027412D01*
X0231094Y0027287D01*
X0231011Y0027164D01*
X0230925Y0027043D01*
X0230836Y0026925D01*
X0230743Y0026809D01*
X0230647Y0026696D01*
X0230549Y0026585D01*
X0230447Y0026477D01*
X0230343Y0026372D01*
X0230235Y0026269D01*
X0230125Y0026170D01*
X0230013Y0026074D01*
X0229897Y0025980D01*
X0229780Y0025890D01*
X0229659Y0025803D01*
X0229537Y0025719D01*
X0229412Y0025639D01*
X0229286Y0025562D01*
X0229157Y0025488D01*
X0229026Y0025418D01*
X0228894Y0025352D01*
X0228759Y0025289D01*
X0228623Y0025229D01*
X0228486Y0025174D01*
X0228347Y0025122D01*
X0228207Y0025074D01*
X0228065Y0025029D01*
X0227922Y0024989D01*
X0227779Y0024952D01*
X0227634Y0024920D01*
X0227489Y0024891D01*
X0227342Y0024866D01*
X0227196Y0024845D01*
X0227048Y0024828D01*
X0226900Y0024815D01*
X0226752Y0024806D01*
X0226604Y0024801D01*
X0226456Y0024800D01*
X0226308Y0024803D01*
X0226159Y0024810D01*
X0226012Y0024821D01*
X0225864Y0024836D01*
X0225717Y0024855D01*
X0225570Y0024878D01*
X0225425Y0024905D01*
X0225279Y0024936D01*
X0225135Y0024970D01*
X0224992Y0025009D01*
X0224850Y0025051D01*
X0224709Y0025097D01*
X0224569Y0025147D01*
X0224431Y0025201D01*
X0224294Y0025259D01*
X0224159Y0025320D01*
X0224026Y0025384D01*
X0223894Y0025453D01*
X0223764Y0025525D01*
X0223637Y0025600D01*
X0223511Y0025679D01*
X0223387Y0025761D01*
X0223266Y0025846D01*
X0223147Y0025935D01*
X0223031Y0026026D01*
X0222917Y0026121D01*
X0222805Y0026219D01*
X0222697Y0026320D01*
X0222591Y0026424D01*
X0222488Y0026531D01*
X0222388Y0026640D01*
X0222290Y0026752D01*
X0222196Y0026867D01*
X0222105Y0026984D01*
X0222017Y0027103D01*
X0221933Y0027225D01*
X0221852Y0027349D01*
X0221774Y0027475D01*
X0221699Y0027604D01*
X0221628Y0027734D01*
X0221561Y0027866D01*
X0221497Y0028000D01*
X0221437Y0028135D01*
X0221380Y0028273D01*
X0221328Y0028411D01*
X0221278Y0028551D01*
X0221233Y0028692D01*
X0221192Y0028835D01*
X0221154Y0028978D01*
X0221120Y0029123D01*
X0221091Y0029268D01*
X0221065Y0029414D01*
X0221043Y0029561D01*
X0221025Y0029708D01*
X0221011Y0029856D01*
X0221001Y0030004D01*
X0220995Y0030152D01*
X0220993Y0030300D01*
X0218493Y0030300D02*
X0218495Y0030495D01*
X0218502Y0030690D01*
X0218514Y0030884D01*
X0218531Y0031078D01*
X0218552Y0031272D01*
X0218578Y0031465D01*
X0218609Y0031657D01*
X0218644Y0031849D01*
X0218684Y0032039D01*
X0218729Y0032229D01*
X0218778Y0032418D01*
X0218832Y0032605D01*
X0218891Y0032791D01*
X0218953Y0032975D01*
X0219021Y0033158D01*
X0219093Y0033339D01*
X0219169Y0033518D01*
X0219249Y0033696D01*
X0219334Y0033871D01*
X0219423Y0034044D01*
X0219517Y0034215D01*
X0219614Y0034384D01*
X0219716Y0034550D01*
X0219821Y0034714D01*
X0219930Y0034875D01*
X0220044Y0035034D01*
X0220161Y0035189D01*
X0220282Y0035342D01*
X0220407Y0035492D01*
X0220535Y0035639D01*
X0220667Y0035782D01*
X0220802Y0035922D01*
X0220940Y0036059D01*
X0221082Y0036193D01*
X0221227Y0036323D01*
X0221376Y0036449D01*
X0221527Y0036572D01*
X0221681Y0036691D01*
X0221838Y0036806D01*
X0221998Y0036918D01*
X0222160Y0037025D01*
X0222325Y0037129D01*
X0222493Y0037228D01*
X0222663Y0037324D01*
X0222835Y0037415D01*
X0223009Y0037502D01*
X0223186Y0037584D01*
X0223364Y0037663D01*
X0223544Y0037737D01*
X0223726Y0037806D01*
X0223910Y0037872D01*
X0224095Y0037932D01*
X0224282Y0037988D01*
X0224470Y0038040D01*
X0224659Y0038087D01*
X0224849Y0038129D01*
X0225040Y0038167D01*
X0225232Y0038200D01*
X0225425Y0038228D01*
X0225618Y0038252D01*
X0225812Y0038271D01*
X0226006Y0038285D01*
X0226201Y0038295D01*
X0226396Y0038299D01*
X0226590Y0038299D01*
X0226785Y0038295D01*
X0226980Y0038285D01*
X0227174Y0038271D01*
X0227368Y0038252D01*
X0227561Y0038228D01*
X0227754Y0038200D01*
X0227946Y0038167D01*
X0228137Y0038129D01*
X0228327Y0038087D01*
X0228516Y0038040D01*
X0228704Y0037988D01*
X0228891Y0037932D01*
X0229076Y0037872D01*
X0229260Y0037806D01*
X0229442Y0037737D01*
X0229622Y0037663D01*
X0229800Y0037584D01*
X0229977Y0037502D01*
X0230151Y0037415D01*
X0230323Y0037324D01*
X0230493Y0037228D01*
X0230661Y0037129D01*
X0230826Y0037025D01*
X0230988Y0036918D01*
X0231148Y0036806D01*
X0231305Y0036691D01*
X0231459Y0036572D01*
X0231610Y0036449D01*
X0231759Y0036323D01*
X0231904Y0036193D01*
X0232046Y0036059D01*
X0232184Y0035922D01*
X0232319Y0035782D01*
X0232451Y0035639D01*
X0232579Y0035492D01*
X0232704Y0035342D01*
X0232825Y0035189D01*
X0232942Y0035034D01*
X0233056Y0034875D01*
X0233165Y0034714D01*
X0233270Y0034550D01*
X0233372Y0034384D01*
X0233469Y0034215D01*
X0233563Y0034044D01*
X0233652Y0033871D01*
X0233737Y0033696D01*
X0233817Y0033518D01*
X0233893Y0033339D01*
X0233965Y0033158D01*
X0234033Y0032975D01*
X0234095Y0032791D01*
X0234154Y0032605D01*
X0234208Y0032418D01*
X0234257Y0032229D01*
X0234302Y0032039D01*
X0234342Y0031849D01*
X0234377Y0031657D01*
X0234408Y0031465D01*
X0234434Y0031272D01*
X0234455Y0031078D01*
X0234472Y0030884D01*
X0234484Y0030690D01*
X0234491Y0030495D01*
X0234493Y0030300D01*
X0236593Y0041300D02*
X0196593Y0041300D01*
X0193793Y0036876D02*
X0191658Y0039011D01*
X0187387Y0039011D01*
X0187387Y0034741D02*
X0191658Y0034741D01*
X0193793Y0036876D01*
X0193793Y0032566D02*
X0193793Y0028295D01*
X0189523Y0032566D01*
X0188455Y0032566D01*
X0187387Y0031498D01*
X0187387Y0029363D01*
X0188455Y0028295D01*
X0187387Y0023985D02*
X0193793Y0023985D01*
X0193793Y0021850D02*
X0193793Y0026120D01*
X0189523Y0021850D02*
X0187387Y0023985D01*
X0202193Y0027300D02*
X0202193Y0029800D01*
X0211193Y0029800D01*
X0211193Y0027300D01*
X0201193Y0030300D02*
X0201195Y0030448D01*
X0201201Y0030596D01*
X0201211Y0030744D01*
X0201225Y0030892D01*
X0201243Y0031039D01*
X0201265Y0031186D01*
X0201291Y0031332D01*
X0201320Y0031477D01*
X0201354Y0031622D01*
X0201392Y0031765D01*
X0201433Y0031908D01*
X0201478Y0032049D01*
X0201528Y0032189D01*
X0201580Y0032327D01*
X0201637Y0032465D01*
X0201697Y0032600D01*
X0201761Y0032734D01*
X0201828Y0032866D01*
X0201899Y0032996D01*
X0201974Y0033125D01*
X0202052Y0033251D01*
X0202133Y0033375D01*
X0202217Y0033497D01*
X0202305Y0033616D01*
X0202396Y0033733D01*
X0202490Y0033848D01*
X0202588Y0033960D01*
X0202688Y0034069D01*
X0202791Y0034176D01*
X0202897Y0034280D01*
X0203005Y0034381D01*
X0203117Y0034479D01*
X0203231Y0034574D01*
X0203347Y0034665D01*
X0203466Y0034754D01*
X0203587Y0034839D01*
X0203711Y0034921D01*
X0203837Y0035000D01*
X0203964Y0035075D01*
X0204094Y0035147D01*
X0204226Y0035216D01*
X0204359Y0035280D01*
X0204494Y0035341D01*
X0204631Y0035399D01*
X0204769Y0035453D01*
X0204909Y0035503D01*
X0205050Y0035549D01*
X0205192Y0035591D01*
X0205335Y0035630D01*
X0205479Y0035664D01*
X0205625Y0035695D01*
X0205770Y0035722D01*
X0205917Y0035745D01*
X0206064Y0035764D01*
X0206212Y0035779D01*
X0206359Y0035790D01*
X0206508Y0035797D01*
X0206656Y0035800D01*
X0206804Y0035799D01*
X0206952Y0035794D01*
X0207100Y0035785D01*
X0207248Y0035772D01*
X0207396Y0035755D01*
X0207542Y0035734D01*
X0207689Y0035709D01*
X0207834Y0035680D01*
X0207979Y0035648D01*
X0208122Y0035611D01*
X0208265Y0035571D01*
X0208407Y0035526D01*
X0208547Y0035478D01*
X0208686Y0035426D01*
X0208823Y0035371D01*
X0208959Y0035311D01*
X0209094Y0035248D01*
X0209226Y0035182D01*
X0209357Y0035112D01*
X0209486Y0035038D01*
X0209612Y0034961D01*
X0209737Y0034881D01*
X0209859Y0034797D01*
X0209980Y0034710D01*
X0210097Y0034620D01*
X0210213Y0034526D01*
X0210325Y0034430D01*
X0210435Y0034331D01*
X0210543Y0034228D01*
X0210647Y0034123D01*
X0210749Y0034015D01*
X0210847Y0033904D01*
X0210943Y0033791D01*
X0211036Y0033675D01*
X0211125Y0033557D01*
X0211211Y0033436D01*
X0211294Y0033313D01*
X0211374Y0033188D01*
X0211450Y0033061D01*
X0211523Y0032931D01*
X0211592Y0032800D01*
X0211657Y0032667D01*
X0211720Y0032533D01*
X0211778Y0032396D01*
X0211833Y0032258D01*
X0211883Y0032119D01*
X0211931Y0031978D01*
X0211974Y0031837D01*
X0212014Y0031694D01*
X0212049Y0031550D01*
X0212081Y0031405D01*
X0212109Y0031259D01*
X0212133Y0031113D01*
X0212153Y0030966D01*
X0212169Y0030818D01*
X0212181Y0030671D01*
X0212189Y0030522D01*
X0212193Y0030374D01*
X0212193Y0030226D01*
X0212189Y0030078D01*
X0212181Y0029929D01*
X0212169Y0029782D01*
X0212153Y0029634D01*
X0212133Y0029487D01*
X0212109Y0029341D01*
X0212081Y0029195D01*
X0212049Y0029050D01*
X0212014Y0028906D01*
X0211974Y0028763D01*
X0211931Y0028622D01*
X0211883Y0028481D01*
X0211833Y0028342D01*
X0211778Y0028204D01*
X0211720Y0028067D01*
X0211657Y0027933D01*
X0211592Y0027800D01*
X0211523Y0027669D01*
X0211450Y0027539D01*
X0211374Y0027412D01*
X0211294Y0027287D01*
X0211211Y0027164D01*
X0211125Y0027043D01*
X0211036Y0026925D01*
X0210943Y0026809D01*
X0210847Y0026696D01*
X0210749Y0026585D01*
X0210647Y0026477D01*
X0210543Y0026372D01*
X0210435Y0026269D01*
X0210325Y0026170D01*
X0210213Y0026074D01*
X0210097Y0025980D01*
X0209980Y0025890D01*
X0209859Y0025803D01*
X0209737Y0025719D01*
X0209612Y0025639D01*
X0209486Y0025562D01*
X0209357Y0025488D01*
X0209226Y0025418D01*
X0209094Y0025352D01*
X0208959Y0025289D01*
X0208823Y0025229D01*
X0208686Y0025174D01*
X0208547Y0025122D01*
X0208407Y0025074D01*
X0208265Y0025029D01*
X0208122Y0024989D01*
X0207979Y0024952D01*
X0207834Y0024920D01*
X0207689Y0024891D01*
X0207542Y0024866D01*
X0207396Y0024845D01*
X0207248Y0024828D01*
X0207100Y0024815D01*
X0206952Y0024806D01*
X0206804Y0024801D01*
X0206656Y0024800D01*
X0206508Y0024803D01*
X0206359Y0024810D01*
X0206212Y0024821D01*
X0206064Y0024836D01*
X0205917Y0024855D01*
X0205770Y0024878D01*
X0205625Y0024905D01*
X0205479Y0024936D01*
X0205335Y0024970D01*
X0205192Y0025009D01*
X0205050Y0025051D01*
X0204909Y0025097D01*
X0204769Y0025147D01*
X0204631Y0025201D01*
X0204494Y0025259D01*
X0204359Y0025320D01*
X0204226Y0025384D01*
X0204094Y0025453D01*
X0203964Y0025525D01*
X0203837Y0025600D01*
X0203711Y0025679D01*
X0203587Y0025761D01*
X0203466Y0025846D01*
X0203347Y0025935D01*
X0203231Y0026026D01*
X0203117Y0026121D01*
X0203005Y0026219D01*
X0202897Y0026320D01*
X0202791Y0026424D01*
X0202688Y0026531D01*
X0202588Y0026640D01*
X0202490Y0026752D01*
X0202396Y0026867D01*
X0202305Y0026984D01*
X0202217Y0027103D01*
X0202133Y0027225D01*
X0202052Y0027349D01*
X0201974Y0027475D01*
X0201899Y0027604D01*
X0201828Y0027734D01*
X0201761Y0027866D01*
X0201697Y0028000D01*
X0201637Y0028135D01*
X0201580Y0028273D01*
X0201528Y0028411D01*
X0201478Y0028551D01*
X0201433Y0028692D01*
X0201392Y0028835D01*
X0201354Y0028978D01*
X0201320Y0029123D01*
X0201291Y0029268D01*
X0201265Y0029414D01*
X0201243Y0029561D01*
X0201225Y0029708D01*
X0201211Y0029856D01*
X0201201Y0030004D01*
X0201195Y0030152D01*
X0201193Y0030300D01*
X0198693Y0030300D02*
X0198695Y0030495D01*
X0198702Y0030690D01*
X0198714Y0030884D01*
X0198731Y0031078D01*
X0198752Y0031272D01*
X0198778Y0031465D01*
X0198809Y0031657D01*
X0198844Y0031849D01*
X0198884Y0032039D01*
X0198929Y0032229D01*
X0198978Y0032418D01*
X0199032Y0032605D01*
X0199091Y0032791D01*
X0199153Y0032975D01*
X0199221Y0033158D01*
X0199293Y0033339D01*
X0199369Y0033518D01*
X0199449Y0033696D01*
X0199534Y0033871D01*
X0199623Y0034044D01*
X0199717Y0034215D01*
X0199814Y0034384D01*
X0199916Y0034550D01*
X0200021Y0034714D01*
X0200130Y0034875D01*
X0200244Y0035034D01*
X0200361Y0035189D01*
X0200482Y0035342D01*
X0200607Y0035492D01*
X0200735Y0035639D01*
X0200867Y0035782D01*
X0201002Y0035922D01*
X0201140Y0036059D01*
X0201282Y0036193D01*
X0201427Y0036323D01*
X0201576Y0036449D01*
X0201727Y0036572D01*
X0201881Y0036691D01*
X0202038Y0036806D01*
X0202198Y0036918D01*
X0202360Y0037025D01*
X0202525Y0037129D01*
X0202693Y0037228D01*
X0202863Y0037324D01*
X0203035Y0037415D01*
X0203209Y0037502D01*
X0203386Y0037584D01*
X0203564Y0037663D01*
X0203744Y0037737D01*
X0203926Y0037806D01*
X0204110Y0037872D01*
X0204295Y0037932D01*
X0204482Y0037988D01*
X0204670Y0038040D01*
X0204859Y0038087D01*
X0205049Y0038129D01*
X0205240Y0038167D01*
X0205432Y0038200D01*
X0205625Y0038228D01*
X0205818Y0038252D01*
X0206012Y0038271D01*
X0206206Y0038285D01*
X0206401Y0038295D01*
X0206596Y0038299D01*
X0206790Y0038299D01*
X0206985Y0038295D01*
X0207180Y0038285D01*
X0207374Y0038271D01*
X0207568Y0038252D01*
X0207761Y0038228D01*
X0207954Y0038200D01*
X0208146Y0038167D01*
X0208337Y0038129D01*
X0208527Y0038087D01*
X0208716Y0038040D01*
X0208904Y0037988D01*
X0209091Y0037932D01*
X0209276Y0037872D01*
X0209460Y0037806D01*
X0209642Y0037737D01*
X0209822Y0037663D01*
X0210000Y0037584D01*
X0210177Y0037502D01*
X0210351Y0037415D01*
X0210523Y0037324D01*
X0210693Y0037228D01*
X0210861Y0037129D01*
X0211026Y0037025D01*
X0211188Y0036918D01*
X0211348Y0036806D01*
X0211505Y0036691D01*
X0211659Y0036572D01*
X0211810Y0036449D01*
X0211959Y0036323D01*
X0212104Y0036193D01*
X0212246Y0036059D01*
X0212384Y0035922D01*
X0212519Y0035782D01*
X0212651Y0035639D01*
X0212779Y0035492D01*
X0212904Y0035342D01*
X0213025Y0035189D01*
X0213142Y0035034D01*
X0213256Y0034875D01*
X0213365Y0034714D01*
X0213470Y0034550D01*
X0213572Y0034384D01*
X0213669Y0034215D01*
X0213763Y0034044D01*
X0213852Y0033871D01*
X0213937Y0033696D01*
X0214017Y0033518D01*
X0214093Y0033339D01*
X0214165Y0033158D01*
X0214233Y0032975D01*
X0214295Y0032791D01*
X0214354Y0032605D01*
X0214408Y0032418D01*
X0214457Y0032229D01*
X0214502Y0032039D01*
X0214542Y0031849D01*
X0214577Y0031657D01*
X0214608Y0031465D01*
X0214634Y0031272D01*
X0214655Y0031078D01*
X0214672Y0030884D01*
X0214684Y0030690D01*
X0214691Y0030495D01*
X0214693Y0030300D01*
D12*
X0222191Y0043650D02*
X0223926Y0043650D01*
X0224793Y0044517D01*
X0224793Y0046252D01*
X0223058Y0046252D01*
X0221324Y0047987D02*
X0221324Y0044517D01*
X0222191Y0043650D01*
X0221324Y0047987D02*
X0222191Y0048854D01*
X0223926Y0048854D01*
X0224793Y0047987D01*
X0226480Y0048854D02*
X0226480Y0043650D01*
X0229950Y0043650D02*
X0226480Y0048854D01*
X0229950Y0048854D02*
X0229950Y0043650D01*
X0231636Y0043650D02*
X0231636Y0048854D01*
X0234239Y0048854D01*
X0235106Y0047987D01*
X0235106Y0044517D01*
X0234239Y0043650D01*
X0231636Y0043650D01*
X0234293Y0078000D02*
X0234293Y0082604D01*
X0236595Y0082604D01*
X0237362Y0081837D01*
X0237362Y0080302D01*
X0236595Y0079535D01*
X0234293Y0079535D01*
X0235827Y0079535D02*
X0237362Y0078000D01*
X0238897Y0078000D02*
X0241199Y0078000D01*
X0241966Y0078767D01*
X0241199Y0079535D01*
X0239664Y0079535D01*
X0238897Y0080302D01*
X0239664Y0081069D01*
X0241966Y0081069D01*
X0243501Y0081069D02*
X0245035Y0081069D01*
X0244268Y0081837D02*
X0244268Y0078767D01*
X0245035Y0078000D01*
X0244268Y0088000D02*
X0243501Y0088767D01*
X0244268Y0088000D02*
X0245803Y0088000D01*
X0246570Y0088767D01*
X0246570Y0089535D01*
X0245803Y0090302D01*
X0245035Y0090302D01*
X0245803Y0090302D02*
X0246570Y0091069D01*
X0246570Y0091837D01*
X0245803Y0092604D01*
X0244268Y0092604D01*
X0243501Y0091837D01*
X0241966Y0091069D02*
X0240431Y0088000D01*
X0238897Y0091069D01*
X0237362Y0091069D02*
X0236595Y0090302D01*
X0237362Y0089535D01*
X0237362Y0088767D01*
X0236595Y0088000D01*
X0235060Y0088000D01*
X0234293Y0088767D01*
X0235827Y0090302D02*
X0236595Y0090302D01*
X0237362Y0091069D02*
X0237362Y0091837D01*
X0236595Y0092604D01*
X0235060Y0092604D01*
X0234293Y0091837D01*
X0235060Y0098000D02*
X0234293Y0098767D01*
X0235060Y0098000D02*
X0236595Y0098000D01*
X0237362Y0098767D01*
X0237362Y0100302D01*
X0236595Y0101069D01*
X0235827Y0101069D01*
X0234293Y0100302D01*
X0234293Y0102604D01*
X0237362Y0102604D01*
X0238897Y0101069D02*
X0240431Y0098000D01*
X0241966Y0101069D01*
X0241966Y0108000D02*
X0241966Y0110302D01*
X0241199Y0111069D01*
X0238897Y0111069D01*
X0238897Y0108000D01*
X0237362Y0108767D02*
X0237362Y0110302D01*
X0235827Y0110302D01*
X0234293Y0111837D02*
X0234293Y0108767D01*
X0235060Y0108000D01*
X0236595Y0108000D01*
X0237362Y0108767D01*
X0237362Y0111837D02*
X0236595Y0112604D01*
X0235060Y0112604D01*
X0234293Y0111837D01*
X0235060Y0118000D02*
X0236595Y0118000D01*
X0237362Y0118767D01*
X0237362Y0120302D01*
X0235827Y0120302D01*
X0234293Y0121837D02*
X0234293Y0118767D01*
X0235060Y0118000D01*
X0234293Y0121837D02*
X0235060Y0122604D01*
X0236595Y0122604D01*
X0237362Y0121837D01*
X0238897Y0121069D02*
X0238897Y0118000D01*
X0241966Y0118000D02*
X0241966Y0120302D01*
X0241199Y0121069D01*
X0238897Y0121069D01*
X0243501Y0120302D02*
X0243501Y0118767D01*
X0244268Y0118000D01*
X0246570Y0118000D01*
X0246570Y0122604D01*
X0246570Y0121069D02*
X0244268Y0121069D01*
X0243501Y0120302D01*
X0245035Y0128000D02*
X0245035Y0130302D01*
X0244268Y0131069D01*
X0241966Y0131069D01*
X0241966Y0128000D01*
X0240431Y0128000D02*
X0238897Y0128000D01*
X0239664Y0128000D02*
X0239664Y0131069D01*
X0238897Y0131069D01*
X0239664Y0132604D02*
X0239664Y0133371D01*
X0237362Y0132604D02*
X0237362Y0129535D01*
X0235827Y0128000D01*
X0234293Y0129535D01*
X0234293Y0132604D01*
X0234293Y0148000D02*
X0234293Y0151069D01*
X0235827Y0152604D01*
X0237362Y0151069D01*
X0237362Y0148000D01*
X0238897Y0148767D02*
X0241966Y0151837D01*
X0241966Y0148767D01*
X0241199Y0148000D01*
X0239664Y0148000D01*
X0238897Y0148767D01*
X0238897Y0151837D01*
X0239664Y0152604D01*
X0241199Y0152604D01*
X0241966Y0151837D01*
X0237362Y0150302D02*
X0234293Y0150302D01*
X0234293Y0158000D02*
X0234293Y0161069D01*
X0235827Y0162604D01*
X0237362Y0161069D01*
X0237362Y0158000D01*
X0238897Y0158000D02*
X0241966Y0158000D01*
X0240431Y0158000D02*
X0240431Y0162604D01*
X0238897Y0161069D01*
X0237362Y0160302D02*
X0234293Y0160302D01*
X0234293Y0168000D02*
X0234293Y0171069D01*
X0235827Y0172604D01*
X0237362Y0171069D01*
X0237362Y0168000D01*
X0238897Y0168000D02*
X0241966Y0171069D01*
X0241966Y0171837D01*
X0241199Y0172604D01*
X0239664Y0172604D01*
X0238897Y0171837D01*
X0237362Y0170302D02*
X0234293Y0170302D01*
X0238897Y0168000D02*
X0241966Y0168000D01*
X0241199Y0178000D02*
X0239664Y0178000D01*
X0238897Y0178767D01*
X0237362Y0178000D02*
X0237362Y0181069D01*
X0235827Y0182604D01*
X0234293Y0181069D01*
X0234293Y0178000D01*
X0234293Y0180302D02*
X0237362Y0180302D01*
X0238897Y0181837D02*
X0239664Y0182604D01*
X0241199Y0182604D01*
X0241966Y0181837D01*
X0241966Y0181069D01*
X0241199Y0180302D01*
X0241966Y0179535D01*
X0241966Y0178767D01*
X0241199Y0178000D01*
X0241199Y0180302D02*
X0240431Y0180302D01*
X0241199Y0188000D02*
X0241199Y0192604D01*
X0238897Y0190302D01*
X0241966Y0190302D01*
X0237362Y0190302D02*
X0234293Y0190302D01*
X0234293Y0191069D02*
X0234293Y0188000D01*
X0237362Y0188000D02*
X0237362Y0191069D01*
X0235827Y0192604D01*
X0234293Y0191069D01*
X0234293Y0198000D02*
X0234293Y0201069D01*
X0235827Y0202604D01*
X0237362Y0201069D01*
X0237362Y0198000D01*
X0238897Y0198767D02*
X0239664Y0198000D01*
X0241199Y0198000D01*
X0241966Y0198767D01*
X0241966Y0200302D01*
X0241199Y0201069D01*
X0240431Y0201069D01*
X0238897Y0200302D01*
X0238897Y0202604D01*
X0241966Y0202604D01*
X0241199Y0208000D02*
X0241966Y0208767D01*
X0241966Y0209535D01*
X0241199Y0210302D01*
X0238897Y0210302D01*
X0238897Y0208767D01*
X0239664Y0208000D01*
X0241199Y0208000D01*
X0238897Y0210302D02*
X0240431Y0211837D01*
X0241966Y0212604D01*
X0238897Y0218000D02*
X0238897Y0218767D01*
X0241966Y0221837D01*
X0241966Y0222604D01*
X0238897Y0222604D01*
X0237362Y0221069D02*
X0237362Y0218000D01*
X0237362Y0220302D02*
X0234293Y0220302D01*
X0234293Y0221069D02*
X0235827Y0222604D01*
X0237362Y0221069D01*
X0234293Y0221069D02*
X0234293Y0218000D01*
X0235827Y0212604D02*
X0237362Y0211069D01*
X0237362Y0208000D01*
X0237362Y0210302D02*
X0234293Y0210302D01*
X0234293Y0211069D02*
X0235827Y0212604D01*
X0234293Y0211069D02*
X0234293Y0208000D01*
X0234293Y0200302D02*
X0237362Y0200302D01*
X0237362Y0238000D02*
X0237362Y0241069D01*
X0235827Y0242604D01*
X0234293Y0241069D01*
X0234293Y0238000D01*
X0234293Y0240302D02*
X0237362Y0240302D01*
X0238897Y0241069D02*
X0238897Y0241837D01*
X0239664Y0242604D01*
X0241199Y0242604D01*
X0241966Y0241837D01*
X0241966Y0241069D01*
X0241199Y0240302D01*
X0239664Y0240302D01*
X0238897Y0241069D01*
X0239664Y0240302D02*
X0238897Y0239535D01*
X0238897Y0238767D01*
X0239664Y0238000D01*
X0241199Y0238000D01*
X0241966Y0238767D01*
X0241966Y0239535D01*
X0241199Y0240302D01*
X0241199Y0248000D02*
X0241966Y0248767D01*
X0241966Y0251837D01*
X0241199Y0252604D01*
X0239664Y0252604D01*
X0238897Y0251837D01*
X0238897Y0251069D01*
X0239664Y0250302D01*
X0241966Y0250302D01*
X0241199Y0248000D02*
X0239664Y0248000D01*
X0238897Y0248767D01*
X0237362Y0248000D02*
X0237362Y0251069D01*
X0235827Y0252604D01*
X0234293Y0251069D01*
X0234293Y0248000D01*
X0234293Y0250302D02*
X0237362Y0250302D01*
X0237362Y0258000D02*
X0237362Y0261069D01*
X0235827Y0262604D01*
X0234293Y0261069D01*
X0234293Y0258000D01*
X0234293Y0260302D02*
X0237362Y0260302D01*
X0238897Y0261069D02*
X0240431Y0262604D01*
X0240431Y0258000D01*
X0238897Y0258000D02*
X0241966Y0258000D01*
X0243501Y0258767D02*
X0246570Y0261837D01*
X0246570Y0258767D01*
X0245803Y0258000D01*
X0244268Y0258000D01*
X0243501Y0258767D01*
X0243501Y0261837D01*
X0244268Y0262604D01*
X0245803Y0262604D01*
X0246570Y0261837D01*
X0246570Y0268000D02*
X0243501Y0268000D01*
X0245035Y0268000D02*
X0245035Y0272604D01*
X0243501Y0271069D01*
X0241966Y0268000D02*
X0238897Y0268000D01*
X0240431Y0268000D02*
X0240431Y0272604D01*
X0238897Y0271069D01*
X0237362Y0271069D02*
X0237362Y0268000D01*
X0237362Y0270302D02*
X0234293Y0270302D01*
X0234293Y0271069D02*
X0235827Y0272604D01*
X0237362Y0271069D01*
X0234293Y0271069D02*
X0234293Y0268000D01*
X0234293Y0278000D02*
X0236595Y0278000D01*
X0237362Y0278767D01*
X0237362Y0281837D01*
X0236595Y0282604D01*
X0234293Y0282604D01*
X0234293Y0278000D01*
X0238897Y0278000D02*
X0238897Y0281069D01*
X0240431Y0282604D01*
X0241966Y0281069D01*
X0241966Y0278000D01*
X0243501Y0278767D02*
X0244268Y0278000D01*
X0245803Y0278000D01*
X0246570Y0278767D01*
X0248105Y0278767D02*
X0251174Y0281837D01*
X0251174Y0278767D01*
X0250407Y0278000D01*
X0248872Y0278000D01*
X0248105Y0278767D01*
X0248105Y0281837D01*
X0248872Y0282604D01*
X0250407Y0282604D01*
X0251174Y0281837D01*
X0246570Y0281837D02*
X0245803Y0282604D01*
X0244268Y0282604D01*
X0243501Y0281837D01*
X0243501Y0278767D01*
X0241966Y0280302D02*
X0238897Y0280302D01*
X0238897Y0288000D02*
X0238897Y0291069D01*
X0240431Y0292604D01*
X0241966Y0291069D01*
X0241966Y0288000D01*
X0243501Y0288767D02*
X0244268Y0288000D01*
X0245803Y0288000D01*
X0246570Y0288767D01*
X0248105Y0288000D02*
X0251174Y0288000D01*
X0249639Y0288000D02*
X0249639Y0292604D01*
X0248105Y0291069D01*
X0246570Y0291837D02*
X0245803Y0292604D01*
X0244268Y0292604D01*
X0243501Y0291837D01*
X0243501Y0288767D01*
X0241966Y0290302D02*
X0238897Y0290302D01*
X0237362Y0288767D02*
X0237362Y0291837D01*
X0236595Y0292604D01*
X0234293Y0292604D01*
X0234293Y0288000D01*
X0236595Y0288000D01*
X0237362Y0288767D01*
X0237362Y0298000D02*
X0235060Y0298000D01*
X0234293Y0298767D01*
X0234293Y0300302D01*
X0235060Y0301069D01*
X0237362Y0301069D01*
X0238897Y0301069D02*
X0238897Y0298000D01*
X0241966Y0298000D02*
X0241966Y0300302D01*
X0241199Y0301069D01*
X0238897Y0301069D01*
X0243501Y0299535D02*
X0245803Y0299535D01*
X0246570Y0300302D01*
X0246570Y0301837D01*
X0245803Y0302604D01*
X0243501Y0302604D01*
X0243501Y0298000D01*
X0245035Y0299535D02*
X0246570Y0298000D01*
X0248105Y0298000D02*
X0251174Y0302604D01*
X0248105Y0302604D02*
X0251174Y0298000D01*
X0251174Y0308000D02*
X0248105Y0312604D01*
X0246570Y0312604D02*
X0243501Y0312604D01*
X0245035Y0312604D02*
X0245035Y0308000D01*
X0241966Y0308000D02*
X0241966Y0310302D01*
X0241199Y0311069D01*
X0238897Y0311069D01*
X0238897Y0308000D01*
X0237362Y0308000D02*
X0235060Y0308000D01*
X0234293Y0308767D01*
X0234293Y0310302D01*
X0235060Y0311069D01*
X0237362Y0311069D01*
X0248105Y0308000D02*
X0251174Y0312604D01*
X0208893Y0311465D02*
X0208893Y0309163D01*
X0208126Y0308396D01*
X0206591Y0308396D01*
X0205824Y0309163D01*
X0205824Y0311465D01*
X0204289Y0311465D02*
X0208893Y0311465D01*
X0208893Y0306861D02*
X0206591Y0306861D01*
X0205824Y0306094D01*
X0205824Y0303792D01*
X0208893Y0303792D01*
X0208126Y0302257D02*
X0206591Y0302257D01*
X0206591Y0300723D01*
X0208126Y0302257D02*
X0208893Y0301490D01*
X0208893Y0299956D01*
X0208126Y0299188D01*
X0205056Y0299188D01*
X0204289Y0299956D01*
X0204289Y0301490D01*
X0205056Y0302257D01*
X0198893Y0304559D02*
X0198126Y0303792D01*
X0198893Y0304559D02*
X0198893Y0306094D01*
X0198126Y0306861D01*
X0196591Y0306861D01*
X0195824Y0306094D01*
X0195824Y0305327D01*
X0196591Y0303792D01*
X0194289Y0303792D01*
X0194289Y0306861D01*
X0195056Y0308396D02*
X0194289Y0309163D01*
X0194289Y0310698D01*
X0195056Y0311465D01*
X0195824Y0311465D01*
X0198893Y0308396D01*
X0198893Y0311465D01*
X0188893Y0310698D02*
X0188893Y0309163D01*
X0188126Y0308396D01*
X0185056Y0311465D01*
X0188126Y0311465D01*
X0188893Y0310698D01*
X0188126Y0308396D02*
X0185056Y0308396D01*
X0184289Y0309163D01*
X0184289Y0310698D01*
X0185056Y0311465D01*
X0184289Y0306861D02*
X0184289Y0303792D01*
X0186591Y0303792D01*
X0185824Y0305327D01*
X0185824Y0306094D01*
X0186591Y0306861D01*
X0188126Y0306861D01*
X0188893Y0306094D01*
X0188893Y0304559D01*
X0188126Y0303792D01*
X0178893Y0306094D02*
X0174289Y0306094D01*
X0176591Y0303792D01*
X0176591Y0306861D01*
X0177358Y0308396D02*
X0176591Y0309163D01*
X0176591Y0310698D01*
X0177358Y0311465D01*
X0178126Y0311465D01*
X0178893Y0310698D01*
X0178893Y0309163D01*
X0178126Y0308396D01*
X0177358Y0308396D01*
X0176591Y0309163D02*
X0175824Y0308396D01*
X0175056Y0308396D01*
X0174289Y0309163D01*
X0174289Y0310698D01*
X0175056Y0311465D01*
X0175824Y0311465D01*
X0176591Y0310698D01*
X0168893Y0310698D02*
X0168126Y0311465D01*
X0167358Y0311465D01*
X0166591Y0310698D01*
X0166591Y0308396D01*
X0168126Y0308396D01*
X0168893Y0309163D01*
X0168893Y0310698D01*
X0166591Y0308396D02*
X0165056Y0309931D01*
X0164289Y0311465D01*
X0166591Y0306861D02*
X0166591Y0303792D01*
X0164289Y0306094D01*
X0168893Y0306094D01*
X0158893Y0306094D02*
X0154289Y0306094D01*
X0156591Y0303792D01*
X0156591Y0306861D01*
X0156591Y0308396D02*
X0154289Y0310698D01*
X0158893Y0310698D01*
X0156591Y0311465D02*
X0156591Y0308396D01*
X0148893Y0308396D02*
X0145824Y0311465D01*
X0145056Y0311465D01*
X0144289Y0310698D01*
X0144289Y0309163D01*
X0145056Y0308396D01*
X0146591Y0306861D02*
X0146591Y0303792D01*
X0144289Y0306094D01*
X0148893Y0306094D01*
X0148893Y0308396D02*
X0148893Y0311465D01*
X0138893Y0310698D02*
X0138893Y0309163D01*
X0138126Y0308396D01*
X0135056Y0311465D01*
X0138126Y0311465D01*
X0138893Y0310698D01*
X0138126Y0308396D02*
X0135056Y0308396D01*
X0134289Y0309163D01*
X0134289Y0310698D01*
X0135056Y0311465D01*
X0136591Y0306861D02*
X0136591Y0303792D01*
X0134289Y0306094D01*
X0138893Y0306094D01*
X0128893Y0306094D02*
X0128893Y0304559D01*
X0128126Y0303792D01*
X0126591Y0305327D02*
X0126591Y0306094D01*
X0127358Y0306861D01*
X0128126Y0306861D01*
X0128893Y0306094D01*
X0126591Y0306094D02*
X0125824Y0306861D01*
X0125056Y0306861D01*
X0124289Y0306094D01*
X0124289Y0304559D01*
X0125056Y0303792D01*
X0125056Y0308396D02*
X0124289Y0309163D01*
X0124289Y0310698D01*
X0125056Y0311465D01*
X0125824Y0311465D01*
X0126591Y0310698D01*
X0126591Y0309163D01*
X0125824Y0308396D01*
X0125056Y0308396D01*
X0126591Y0309163D02*
X0127358Y0308396D01*
X0128126Y0308396D01*
X0128893Y0309163D01*
X0128893Y0310698D01*
X0128126Y0311465D01*
X0127358Y0311465D01*
X0126591Y0310698D01*
X0118893Y0310698D02*
X0118126Y0311465D01*
X0117358Y0311465D01*
X0116591Y0310698D01*
X0116591Y0308396D01*
X0118126Y0308396D01*
X0118893Y0309163D01*
X0118893Y0310698D01*
X0116591Y0308396D02*
X0115056Y0309931D01*
X0114289Y0311465D01*
X0115056Y0306861D02*
X0114289Y0306094D01*
X0114289Y0304559D01*
X0115056Y0303792D01*
X0116591Y0305327D02*
X0116591Y0306094D01*
X0117358Y0306861D01*
X0118126Y0306861D01*
X0118893Y0306094D01*
X0118893Y0304559D01*
X0118126Y0303792D01*
X0116591Y0306094D02*
X0115824Y0306861D01*
X0115056Y0306861D01*
X0108893Y0306094D02*
X0108893Y0304559D01*
X0108126Y0303792D01*
X0106591Y0305327D02*
X0106591Y0306094D01*
X0107358Y0306861D01*
X0108126Y0306861D01*
X0108893Y0306094D01*
X0106591Y0306094D02*
X0105824Y0306861D01*
X0105056Y0306861D01*
X0104289Y0306094D01*
X0104289Y0304559D01*
X0105056Y0303792D01*
X0106591Y0308396D02*
X0106591Y0311465D01*
X0108893Y0310698D02*
X0104289Y0310698D01*
X0106591Y0308396D01*
X0098893Y0308396D02*
X0095824Y0311465D01*
X0095056Y0311465D01*
X0094289Y0310698D01*
X0094289Y0309163D01*
X0095056Y0308396D01*
X0095056Y0306861D02*
X0095824Y0306861D01*
X0096591Y0306094D01*
X0097358Y0306861D01*
X0098126Y0306861D01*
X0098893Y0306094D01*
X0098893Y0304559D01*
X0098126Y0303792D01*
X0096591Y0305327D02*
X0096591Y0306094D01*
X0095056Y0306861D02*
X0094289Y0306094D01*
X0094289Y0304559D01*
X0095056Y0303792D01*
X0098893Y0308396D02*
X0098893Y0311465D01*
X0088893Y0310698D02*
X0088893Y0309163D01*
X0088126Y0308396D01*
X0085056Y0311465D01*
X0088126Y0311465D01*
X0088893Y0310698D01*
X0088126Y0308396D02*
X0085056Y0308396D01*
X0084289Y0309163D01*
X0084289Y0310698D01*
X0085056Y0311465D01*
X0085056Y0306861D02*
X0085824Y0306861D01*
X0086591Y0306094D01*
X0087358Y0306861D01*
X0088126Y0306861D01*
X0088893Y0306094D01*
X0088893Y0304559D01*
X0088126Y0303792D01*
X0086591Y0305327D02*
X0086591Y0306094D01*
X0085056Y0306861D02*
X0084289Y0306094D01*
X0084289Y0304559D01*
X0085056Y0303792D01*
X0078893Y0303792D02*
X0075824Y0306861D01*
X0075056Y0306861D01*
X0074289Y0306094D01*
X0074289Y0304559D01*
X0075056Y0303792D01*
X0075056Y0308396D02*
X0075824Y0308396D01*
X0076591Y0309163D01*
X0076591Y0310698D01*
X0077358Y0311465D01*
X0078126Y0311465D01*
X0078893Y0310698D01*
X0078893Y0309163D01*
X0078126Y0308396D01*
X0077358Y0308396D01*
X0076591Y0309163D01*
X0076591Y0310698D02*
X0075824Y0311465D01*
X0075056Y0311465D01*
X0074289Y0310698D01*
X0074289Y0309163D01*
X0075056Y0308396D01*
X0078893Y0306861D02*
X0078893Y0303792D01*
X0068893Y0303792D02*
X0065824Y0306861D01*
X0065056Y0306861D01*
X0064289Y0306094D01*
X0064289Y0304559D01*
X0065056Y0303792D01*
X0066591Y0308396D02*
X0065056Y0309931D01*
X0064289Y0311465D01*
X0066591Y0310698D02*
X0066591Y0308396D01*
X0068126Y0308396D01*
X0068893Y0309163D01*
X0068893Y0310698D01*
X0068126Y0311465D01*
X0067358Y0311465D01*
X0066591Y0310698D01*
X0068893Y0306861D02*
X0068893Y0303792D01*
X0058893Y0303792D02*
X0055824Y0306861D01*
X0055056Y0306861D01*
X0054289Y0306094D01*
X0054289Y0304559D01*
X0055056Y0303792D01*
X0056591Y0308396D02*
X0054289Y0310698D01*
X0058893Y0310698D01*
X0056591Y0311465D02*
X0056591Y0308396D01*
X0058893Y0306861D02*
X0058893Y0303792D01*
X0048893Y0303792D02*
X0045824Y0306861D01*
X0045056Y0306861D01*
X0044289Y0306094D01*
X0044289Y0304559D01*
X0045056Y0303792D01*
X0045056Y0308396D02*
X0044289Y0309163D01*
X0044289Y0310698D01*
X0045056Y0311465D01*
X0045824Y0311465D01*
X0048893Y0308396D01*
X0048893Y0311465D01*
X0048893Y0306861D02*
X0048893Y0303792D01*
X0038893Y0304559D02*
X0038126Y0303792D01*
X0038893Y0304559D02*
X0038893Y0306094D01*
X0038126Y0306861D01*
X0036591Y0306861D01*
X0035824Y0306094D01*
X0035824Y0305327D01*
X0036591Y0303792D01*
X0034289Y0303792D01*
X0034289Y0306861D01*
X0035824Y0308396D02*
X0038893Y0309931D01*
X0035824Y0311465D01*
X0026224Y0292604D02*
X0027758Y0291069D01*
X0027758Y0289535D01*
X0026224Y0288000D01*
X0024689Y0288000D02*
X0021620Y0288000D01*
X0023154Y0288000D02*
X0023154Y0292604D01*
X0021620Y0291069D01*
X0020085Y0291069D02*
X0020085Y0291837D01*
X0019318Y0292604D01*
X0017783Y0292604D01*
X0017016Y0291837D01*
X0015481Y0292604D02*
X0013946Y0291069D01*
X0013946Y0289535D01*
X0015481Y0288000D01*
X0017016Y0288000D02*
X0020085Y0291069D01*
X0020085Y0288000D02*
X0017016Y0288000D01*
X0017783Y0282604D02*
X0017016Y0281837D01*
X0017783Y0282604D02*
X0019318Y0282604D01*
X0020085Y0281837D01*
X0020085Y0281069D01*
X0017016Y0278000D01*
X0020085Y0278000D01*
X0021620Y0278767D02*
X0021620Y0281837D01*
X0022387Y0282604D01*
X0023922Y0282604D01*
X0024689Y0281837D01*
X0021620Y0278767D01*
X0022387Y0278000D01*
X0023922Y0278000D01*
X0024689Y0278767D01*
X0024689Y0281837D01*
X0026224Y0282604D02*
X0027758Y0281069D01*
X0027758Y0279535D01*
X0026224Y0278000D01*
X0026224Y0272604D02*
X0027758Y0271069D01*
X0027758Y0269535D01*
X0026224Y0268000D01*
X0024689Y0268767D02*
X0024689Y0271837D01*
X0023922Y0272604D01*
X0022387Y0272604D01*
X0021620Y0271837D01*
X0021620Y0271069D01*
X0022387Y0270302D01*
X0024689Y0270302D01*
X0024689Y0268767D02*
X0023922Y0268000D01*
X0022387Y0268000D01*
X0021620Y0268767D01*
X0020085Y0268000D02*
X0017016Y0268000D01*
X0018550Y0268000D02*
X0018550Y0272604D01*
X0017016Y0271069D01*
X0015481Y0272604D02*
X0013946Y0271069D01*
X0013946Y0269535D01*
X0015481Y0268000D01*
X0015481Y0262604D02*
X0013946Y0261069D01*
X0013946Y0259535D01*
X0015481Y0258000D01*
X0017016Y0258000D02*
X0020085Y0258000D01*
X0018550Y0258000D02*
X0018550Y0262604D01*
X0017016Y0261069D01*
X0021620Y0261069D02*
X0021620Y0261837D01*
X0022387Y0262604D01*
X0023922Y0262604D01*
X0024689Y0261837D01*
X0024689Y0261069D01*
X0023922Y0260302D01*
X0022387Y0260302D01*
X0021620Y0261069D01*
X0022387Y0260302D02*
X0021620Y0259535D01*
X0021620Y0258767D01*
X0022387Y0258000D01*
X0023922Y0258000D01*
X0024689Y0258767D01*
X0024689Y0259535D01*
X0023922Y0260302D01*
X0026224Y0262604D02*
X0027758Y0261069D01*
X0027758Y0259535D01*
X0026224Y0258000D01*
X0026224Y0252604D02*
X0027758Y0251069D01*
X0027758Y0249535D01*
X0026224Y0248000D01*
X0024689Y0251837D02*
X0021620Y0248767D01*
X0021620Y0248000D01*
X0020085Y0248000D02*
X0017016Y0248000D01*
X0018550Y0248000D02*
X0018550Y0252604D01*
X0017016Y0251069D01*
X0015481Y0252604D02*
X0013946Y0251069D01*
X0013946Y0249535D01*
X0015481Y0248000D01*
X0012412Y0248000D02*
X0009342Y0248000D01*
X0012412Y0251069D01*
X0012412Y0251837D01*
X0011644Y0252604D01*
X0010110Y0252604D01*
X0009342Y0251837D01*
X0007808Y0251069D02*
X0004739Y0248000D01*
X0003204Y0248000D02*
X0001669Y0249535D01*
X0002437Y0249535D02*
X0000135Y0249535D01*
X0000135Y0248000D02*
X0000135Y0252604D01*
X0002437Y0252604D01*
X0003204Y0251837D01*
X0003204Y0250302D01*
X0002437Y0249535D01*
X0004739Y0251069D02*
X0007808Y0248000D01*
X0010110Y0242604D02*
X0009342Y0241837D01*
X0010110Y0242604D02*
X0011644Y0242604D01*
X0012412Y0241837D01*
X0012412Y0241069D01*
X0009342Y0238000D01*
X0012412Y0238000D01*
X0013946Y0239535D02*
X0013946Y0241069D01*
X0015481Y0242604D01*
X0017016Y0241069D02*
X0018550Y0242604D01*
X0018550Y0238000D01*
X0017016Y0238000D02*
X0020085Y0238000D01*
X0021620Y0238767D02*
X0021620Y0240302D01*
X0023922Y0240302D01*
X0024689Y0239535D01*
X0024689Y0238767D01*
X0023922Y0238000D01*
X0022387Y0238000D01*
X0021620Y0238767D01*
X0021620Y0240302D02*
X0023154Y0241837D01*
X0024689Y0242604D01*
X0026224Y0242604D02*
X0027758Y0241069D01*
X0027758Y0239535D01*
X0026224Y0238000D01*
X0026224Y0232604D02*
X0027758Y0231069D01*
X0027758Y0229535D01*
X0026224Y0228000D01*
X0024689Y0228767D02*
X0024689Y0230302D01*
X0023922Y0231069D01*
X0023154Y0231069D01*
X0021620Y0230302D01*
X0021620Y0232604D01*
X0024689Y0232604D01*
X0024689Y0228767D02*
X0023922Y0228000D01*
X0022387Y0228000D01*
X0021620Y0228767D01*
X0020085Y0228000D02*
X0017016Y0228000D01*
X0018550Y0228000D02*
X0018550Y0232604D01*
X0017016Y0231069D01*
X0015481Y0232604D02*
X0013946Y0231069D01*
X0013946Y0229535D01*
X0015481Y0228000D01*
X0015481Y0222604D02*
X0013946Y0221069D01*
X0013946Y0219535D01*
X0015481Y0218000D01*
X0017016Y0218000D02*
X0020085Y0218000D01*
X0018550Y0218000D02*
X0018550Y0222604D01*
X0017016Y0221069D01*
X0012412Y0221069D02*
X0011644Y0220302D01*
X0012412Y0219535D01*
X0012412Y0218767D01*
X0011644Y0218000D01*
X0010110Y0218000D01*
X0009342Y0218767D01*
X0007808Y0218000D02*
X0004739Y0221069D01*
X0003204Y0222604D02*
X0000135Y0222604D01*
X0001669Y0222604D02*
X0001669Y0218000D01*
X0004739Y0218000D02*
X0007808Y0221069D01*
X0009342Y0221837D02*
X0010110Y0222604D01*
X0011644Y0222604D01*
X0012412Y0221837D01*
X0012412Y0221069D01*
X0011644Y0220302D02*
X0010877Y0220302D01*
X0010110Y0228000D02*
X0009342Y0228767D01*
X0010110Y0228000D02*
X0011644Y0228000D01*
X0012412Y0228767D01*
X0012412Y0229535D01*
X0011644Y0230302D01*
X0010877Y0230302D01*
X0011644Y0230302D02*
X0012412Y0231069D01*
X0012412Y0231837D01*
X0011644Y0232604D01*
X0010110Y0232604D01*
X0009342Y0231837D01*
X0007808Y0231069D02*
X0004739Y0228000D01*
X0003204Y0228000D02*
X0001669Y0229535D01*
X0002437Y0229535D02*
X0000135Y0229535D01*
X0000135Y0228000D02*
X0000135Y0232604D01*
X0002437Y0232604D01*
X0003204Y0231837D01*
X0003204Y0230302D01*
X0002437Y0229535D01*
X0004739Y0231069D02*
X0007808Y0228000D01*
X0007808Y0238000D02*
X0004739Y0241069D01*
X0003204Y0242604D02*
X0000135Y0242604D01*
X0001669Y0242604D02*
X0001669Y0238000D01*
X0004739Y0238000D02*
X0007808Y0241069D01*
X0013946Y0239535D02*
X0015481Y0238000D01*
X0021620Y0252604D02*
X0024689Y0252604D01*
X0024689Y0251837D01*
X0012412Y0258000D02*
X0009342Y0258000D01*
X0007808Y0258000D02*
X0004739Y0261069D01*
X0003204Y0262604D02*
X0000135Y0262604D01*
X0001669Y0262604D02*
X0001669Y0258000D01*
X0004739Y0258000D02*
X0007808Y0261069D01*
X0009342Y0261069D02*
X0010877Y0262604D01*
X0010877Y0258000D01*
X0010877Y0268000D02*
X0010877Y0272604D01*
X0009342Y0271069D01*
X0007808Y0271069D02*
X0004739Y0268000D01*
X0003204Y0268000D02*
X0001669Y0269535D01*
X0002437Y0269535D02*
X0000135Y0269535D01*
X0000135Y0268000D02*
X0000135Y0272604D01*
X0002437Y0272604D01*
X0003204Y0271837D01*
X0003204Y0270302D01*
X0002437Y0269535D01*
X0004739Y0271069D02*
X0007808Y0268000D01*
X0009342Y0268000D02*
X0012412Y0268000D01*
X0012412Y0278000D02*
X0012412Y0281069D01*
X0010877Y0282604D01*
X0009342Y0281069D01*
X0009342Y0278000D01*
X0007808Y0278767D02*
X0007808Y0281837D01*
X0007041Y0282604D01*
X0004739Y0282604D01*
X0004739Y0278000D01*
X0007041Y0278000D01*
X0007808Y0278767D01*
X0009342Y0280302D02*
X0012412Y0280302D01*
X0013946Y0281069D02*
X0015481Y0282604D01*
X0013946Y0281069D02*
X0013946Y0279535D01*
X0015481Y0278000D01*
X0012412Y0288000D02*
X0009342Y0288000D01*
X0009342Y0292604D01*
X0007808Y0291837D02*
X0007041Y0292604D01*
X0005506Y0292604D01*
X0004739Y0291837D01*
X0004739Y0288767D01*
X0005506Y0288000D01*
X0007041Y0288000D01*
X0007808Y0288767D01*
X0003204Y0288767D02*
X0002437Y0288000D01*
X0000902Y0288000D01*
X0000135Y0288767D01*
X0000902Y0290302D02*
X0002437Y0290302D01*
X0003204Y0289535D01*
X0003204Y0288767D01*
X0000902Y0290302D02*
X0000135Y0291069D01*
X0000135Y0291837D01*
X0000902Y0292604D01*
X0002437Y0292604D01*
X0003204Y0291837D01*
X0002437Y0282604D02*
X0000902Y0282604D01*
X0000135Y0281837D01*
X0000135Y0281069D01*
X0000902Y0280302D01*
X0002437Y0280302D01*
X0003204Y0279535D01*
X0003204Y0278767D01*
X0002437Y0278000D01*
X0000902Y0278000D01*
X0000135Y0278767D01*
X0003204Y0281837D02*
X0002437Y0282604D01*
X0034289Y0338000D02*
X0036591Y0338000D01*
X0035824Y0339535D01*
X0035824Y0340302D01*
X0036591Y0341069D01*
X0038126Y0341069D01*
X0038893Y0340302D01*
X0038893Y0338767D01*
X0038126Y0338000D01*
X0035824Y0342604D02*
X0038893Y0344139D01*
X0035824Y0345673D01*
X0034289Y0341069D02*
X0034289Y0338000D01*
X0044289Y0338767D02*
X0045056Y0338000D01*
X0044289Y0338767D02*
X0044289Y0340302D01*
X0045056Y0341069D01*
X0045824Y0341069D01*
X0048893Y0338000D01*
X0048893Y0341069D01*
X0048126Y0342604D02*
X0048893Y0343371D01*
X0048893Y0344906D01*
X0048126Y0345673D01*
X0047358Y0345673D01*
X0046591Y0344906D01*
X0046591Y0344139D01*
X0046591Y0344906D02*
X0045824Y0345673D01*
X0045056Y0345673D01*
X0044289Y0344906D01*
X0044289Y0343371D01*
X0045056Y0342604D01*
X0054289Y0342604D02*
X0056591Y0342604D01*
X0055824Y0344139D01*
X0055824Y0344906D01*
X0056591Y0345673D01*
X0058126Y0345673D01*
X0058893Y0344906D01*
X0058893Y0343371D01*
X0058126Y0342604D01*
X0058893Y0341069D02*
X0058893Y0338000D01*
X0055824Y0341069D01*
X0055056Y0341069D01*
X0054289Y0340302D01*
X0054289Y0338767D01*
X0055056Y0338000D01*
X0054289Y0342604D02*
X0054289Y0345673D01*
X0064289Y0345673D02*
X0064289Y0342604D01*
X0065056Y0341069D02*
X0064289Y0340302D01*
X0064289Y0338767D01*
X0065056Y0338000D01*
X0065056Y0341069D02*
X0065824Y0341069D01*
X0068893Y0338000D01*
X0068893Y0341069D01*
X0068893Y0342604D02*
X0068126Y0342604D01*
X0065056Y0345673D01*
X0064289Y0345673D01*
X0074289Y0344906D02*
X0074289Y0343371D01*
X0075056Y0342604D01*
X0075824Y0342604D01*
X0076591Y0343371D01*
X0076591Y0345673D01*
X0078126Y0345673D02*
X0075056Y0345673D01*
X0074289Y0344906D01*
X0078126Y0345673D02*
X0078893Y0344906D01*
X0078893Y0343371D01*
X0078126Y0342604D01*
X0078893Y0341069D02*
X0078893Y0338000D01*
X0075824Y0341069D01*
X0075056Y0341069D01*
X0074289Y0340302D01*
X0074289Y0338767D01*
X0075056Y0338000D01*
X0084289Y0338767D02*
X0084289Y0340302D01*
X0085056Y0341069D01*
X0085824Y0341069D01*
X0086591Y0340302D01*
X0087358Y0341069D01*
X0088126Y0341069D01*
X0088893Y0340302D01*
X0088893Y0338767D01*
X0088126Y0338000D01*
X0086591Y0339535D02*
X0086591Y0340302D01*
X0085824Y0342604D02*
X0084289Y0344139D01*
X0088893Y0344139D01*
X0088893Y0345673D02*
X0088893Y0342604D01*
X0085056Y0338000D02*
X0084289Y0338767D01*
X0094289Y0338767D02*
X0094289Y0340302D01*
X0095056Y0341069D01*
X0095824Y0341069D01*
X0096591Y0340302D01*
X0097358Y0341069D01*
X0098126Y0341069D01*
X0098893Y0340302D01*
X0098893Y0338767D01*
X0098126Y0338000D01*
X0096591Y0339535D02*
X0096591Y0340302D01*
X0098126Y0342604D02*
X0098893Y0343371D01*
X0098893Y0344906D01*
X0098126Y0345673D01*
X0097358Y0345673D01*
X0096591Y0344906D01*
X0096591Y0344139D01*
X0096591Y0344906D02*
X0095824Y0345673D01*
X0095056Y0345673D01*
X0094289Y0344906D01*
X0094289Y0343371D01*
X0095056Y0342604D01*
X0094289Y0338767D02*
X0095056Y0338000D01*
X0104289Y0338767D02*
X0104289Y0340302D01*
X0105056Y0341069D01*
X0105824Y0341069D01*
X0106591Y0340302D01*
X0107358Y0341069D01*
X0108126Y0341069D01*
X0108893Y0340302D01*
X0108893Y0338767D01*
X0108126Y0338000D01*
X0106591Y0339535D02*
X0106591Y0340302D01*
X0106591Y0342604D02*
X0105824Y0344139D01*
X0105824Y0344906D01*
X0106591Y0345673D01*
X0108126Y0345673D01*
X0108893Y0344906D01*
X0108893Y0343371D01*
X0108126Y0342604D01*
X0106591Y0342604D02*
X0104289Y0342604D01*
X0104289Y0345673D01*
X0104289Y0338767D02*
X0105056Y0338000D01*
X0114289Y0338767D02*
X0114289Y0340302D01*
X0115056Y0341069D01*
X0115824Y0341069D01*
X0116591Y0340302D01*
X0117358Y0341069D01*
X0118126Y0341069D01*
X0118893Y0340302D01*
X0118893Y0338767D01*
X0118126Y0338000D01*
X0116591Y0339535D02*
X0116591Y0340302D01*
X0118126Y0342604D02*
X0115056Y0345673D01*
X0114289Y0345673D01*
X0114289Y0342604D01*
X0114289Y0338767D02*
X0115056Y0338000D01*
X0118126Y0342604D02*
X0118893Y0342604D01*
X0124289Y0343371D02*
X0125056Y0342604D01*
X0125824Y0342604D01*
X0126591Y0343371D01*
X0126591Y0345673D01*
X0128126Y0345673D02*
X0125056Y0345673D01*
X0124289Y0344906D01*
X0124289Y0343371D01*
X0125056Y0341069D02*
X0124289Y0340302D01*
X0124289Y0338767D01*
X0125056Y0338000D01*
X0126591Y0339535D02*
X0126591Y0340302D01*
X0127358Y0341069D01*
X0128126Y0341069D01*
X0128893Y0340302D01*
X0128893Y0338767D01*
X0128126Y0338000D01*
X0126591Y0340302D02*
X0125824Y0341069D01*
X0125056Y0341069D01*
X0128126Y0342604D02*
X0128893Y0343371D01*
X0128893Y0344906D01*
X0128126Y0345673D01*
X0134289Y0344139D02*
X0138893Y0344139D01*
X0138893Y0345673D02*
X0138893Y0342604D01*
X0138893Y0340302D02*
X0134289Y0340302D01*
X0136591Y0338000D01*
X0136591Y0341069D01*
X0135824Y0342604D02*
X0134289Y0344139D01*
X0144289Y0344906D02*
X0145056Y0345673D01*
X0145824Y0345673D01*
X0146591Y0344906D01*
X0147358Y0345673D01*
X0148126Y0345673D01*
X0148893Y0344906D01*
X0148893Y0343371D01*
X0148126Y0342604D01*
X0146591Y0344139D02*
X0146591Y0344906D01*
X0144289Y0344906D02*
X0144289Y0343371D01*
X0145056Y0342604D01*
X0146591Y0341069D02*
X0146591Y0338000D01*
X0144289Y0340302D01*
X0148893Y0340302D01*
X0154289Y0340302D02*
X0156591Y0338000D01*
X0156591Y0341069D01*
X0156591Y0342604D02*
X0155824Y0344139D01*
X0155824Y0344906D01*
X0156591Y0345673D01*
X0158126Y0345673D01*
X0158893Y0344906D01*
X0158893Y0343371D01*
X0158126Y0342604D01*
X0156591Y0342604D02*
X0154289Y0342604D01*
X0154289Y0345673D01*
X0154289Y0340302D02*
X0158893Y0340302D01*
X0164289Y0340302D02*
X0166591Y0338000D01*
X0166591Y0341069D01*
X0168126Y0342604D02*
X0165056Y0345673D01*
X0164289Y0345673D01*
X0164289Y0342604D01*
X0164289Y0340302D02*
X0168893Y0340302D01*
X0168893Y0342604D02*
X0168126Y0342604D01*
X0174289Y0343371D02*
X0175056Y0342604D01*
X0175824Y0342604D01*
X0176591Y0343371D01*
X0176591Y0345673D01*
X0178126Y0345673D02*
X0175056Y0345673D01*
X0174289Y0344906D01*
X0174289Y0343371D01*
X0174289Y0340302D02*
X0176591Y0338000D01*
X0176591Y0341069D01*
X0178126Y0342604D02*
X0178893Y0343371D01*
X0178893Y0344906D01*
X0178126Y0345673D01*
X0178893Y0340302D02*
X0174289Y0340302D01*
X0184289Y0341069D02*
X0184289Y0338000D01*
X0186591Y0338000D01*
X0185824Y0339535D01*
X0185824Y0340302D01*
X0186591Y0341069D01*
X0188126Y0341069D01*
X0188893Y0340302D01*
X0188893Y0338767D01*
X0188126Y0338000D01*
X0188893Y0342604D02*
X0188893Y0345673D01*
X0188893Y0344139D02*
X0184289Y0344139D01*
X0185824Y0342604D01*
X0194289Y0343371D02*
X0195056Y0342604D01*
X0194289Y0343371D02*
X0194289Y0344906D01*
X0195056Y0345673D01*
X0195824Y0345673D01*
X0196591Y0344906D01*
X0197358Y0345673D01*
X0198126Y0345673D01*
X0198893Y0344906D01*
X0198893Y0343371D01*
X0198126Y0342604D01*
X0198126Y0341069D02*
X0198893Y0340302D01*
X0198893Y0338767D01*
X0198126Y0338000D01*
X0196591Y0338000D02*
X0195824Y0339535D01*
X0195824Y0340302D01*
X0196591Y0341069D01*
X0198126Y0341069D01*
X0196591Y0338000D02*
X0194289Y0338000D01*
X0194289Y0341069D01*
X0196591Y0344139D02*
X0196591Y0344906D01*
X0204289Y0340302D02*
X0204289Y0338767D01*
X0205056Y0338000D01*
X0208126Y0338000D01*
X0208893Y0338767D01*
X0208893Y0340302D01*
X0208126Y0341069D01*
X0206591Y0341069D01*
X0206591Y0339535D01*
X0205056Y0341069D02*
X0204289Y0340302D01*
X0205824Y0342604D02*
X0205824Y0344906D01*
X0206591Y0345673D01*
X0208893Y0345673D01*
X0208126Y0347208D02*
X0206591Y0347208D01*
X0205824Y0347975D01*
X0205824Y0350277D01*
X0204289Y0350277D02*
X0208893Y0350277D01*
X0208893Y0347975D01*
X0208126Y0347208D01*
X0208893Y0342604D02*
X0205824Y0342604D01*
X0206384Y0257604D02*
X0204082Y0257604D01*
X0204082Y0253000D01*
X0206384Y0253000D01*
X0207151Y0253767D01*
X0207151Y0254535D01*
X0206384Y0255302D01*
X0204082Y0255302D01*
X0206384Y0255302D02*
X0207151Y0256069D01*
X0207151Y0256837D01*
X0206384Y0257604D01*
X0201013Y0257604D02*
X0201013Y0253000D01*
X0202547Y0253000D02*
X0199478Y0253000D01*
X0199478Y0256069D02*
X0201013Y0257604D01*
X0193340Y0256069D02*
X0193340Y0253000D01*
X0193340Y0255302D02*
X0190270Y0255302D01*
X0190270Y0256069D02*
X0191805Y0257604D01*
X0193340Y0256069D01*
X0190270Y0256069D02*
X0190270Y0253000D01*
X0188736Y0253000D02*
X0185666Y0253000D01*
X0187201Y0253000D02*
X0187201Y0257604D01*
X0185666Y0256069D01*
X0179528Y0256069D02*
X0179528Y0253000D01*
X0179528Y0255302D02*
X0176459Y0255302D01*
X0176459Y0256069D02*
X0177993Y0257604D01*
X0179528Y0256069D01*
X0176459Y0256069D02*
X0176459Y0253000D01*
X0174924Y0253000D02*
X0171855Y0253000D01*
X0174924Y0256069D01*
X0174924Y0256837D01*
X0174157Y0257604D01*
X0172622Y0257604D01*
X0171855Y0256837D01*
X0165716Y0256837D02*
X0165716Y0256069D01*
X0164949Y0255302D01*
X0162647Y0255302D01*
X0161112Y0256069D02*
X0161112Y0256837D01*
X0160345Y0257604D01*
X0158810Y0257604D01*
X0158043Y0256837D01*
X0161112Y0256069D02*
X0158043Y0253000D01*
X0161112Y0253000D01*
X0162647Y0253000D02*
X0162647Y0257604D01*
X0164949Y0257604D01*
X0165716Y0256837D01*
X0164949Y0255302D02*
X0165716Y0254535D01*
X0165716Y0253767D01*
X0164949Y0253000D01*
X0162647Y0253000D01*
X0189516Y0145104D02*
X0191050Y0145104D01*
X0190283Y0145104D02*
X0190283Y0140500D01*
X0189516Y0140500D02*
X0191050Y0140500D01*
X0192585Y0141267D02*
X0193352Y0140500D01*
X0194887Y0140500D01*
X0195654Y0141267D01*
X0197189Y0140500D02*
X0200258Y0143569D01*
X0200258Y0144337D01*
X0199491Y0145104D01*
X0197956Y0145104D01*
X0197189Y0144337D01*
X0195654Y0144337D02*
X0194887Y0145104D01*
X0193352Y0145104D01*
X0192585Y0144337D01*
X0192585Y0141267D01*
X0197189Y0140500D02*
X0200258Y0140500D01*
X0243501Y0110302D02*
X0243501Y0108767D01*
X0244268Y0108000D01*
X0246570Y0108000D01*
X0246570Y0112604D01*
X0246570Y0111069D02*
X0244268Y0111069D01*
X0243501Y0110302D01*
X0083699Y0091069D02*
X0081397Y0089535D01*
X0083699Y0088000D01*
X0081397Y0088000D02*
X0081397Y0092604D01*
X0078327Y0092604D02*
X0078327Y0088000D01*
X0076793Y0088000D02*
X0079862Y0088000D01*
X0076793Y0091069D02*
X0078327Y0092604D01*
X0066966Y0097517D02*
X0066199Y0096750D01*
X0064664Y0096750D01*
X0063897Y0097517D01*
X0063897Y0098285D01*
X0064664Y0099052D01*
X0066199Y0099052D01*
X0066966Y0098285D01*
X0066966Y0097517D01*
X0066199Y0099052D02*
X0066966Y0099819D01*
X0066966Y0100587D01*
X0066199Y0101354D01*
X0064664Y0101354D01*
X0063897Y0100587D01*
X0063897Y0099819D01*
X0064664Y0099052D01*
X0062362Y0099052D02*
X0061595Y0098285D01*
X0059293Y0098285D01*
X0060827Y0098285D02*
X0062362Y0096750D01*
X0062362Y0099052D02*
X0062362Y0100587D01*
X0061595Y0101354D01*
X0059293Y0101354D01*
X0059293Y0096750D01*
X0027758Y0096837D02*
X0027758Y0093767D01*
X0026991Y0093000D01*
X0025456Y0093000D01*
X0024689Y0093767D01*
X0027758Y0096837D01*
X0026991Y0097604D01*
X0025456Y0097604D01*
X0024689Y0096837D01*
X0024689Y0093767D01*
X0023154Y0093000D02*
X0020085Y0093000D01*
X0021620Y0093000D02*
X0021620Y0097604D01*
X0020085Y0096069D01*
X0025456Y0103000D02*
X0024689Y0103767D01*
X0025456Y0103000D02*
X0026991Y0103000D01*
X0027758Y0103767D01*
X0027758Y0106837D01*
X0026991Y0107604D01*
X0025456Y0107604D01*
X0024689Y0106837D01*
X0024689Y0106069D01*
X0025456Y0105302D01*
X0027758Y0105302D01*
X0026991Y0113000D02*
X0025456Y0113000D01*
X0024689Y0113767D01*
X0024689Y0114535D01*
X0025456Y0115302D01*
X0026991Y0115302D01*
X0027758Y0114535D01*
X0027758Y0113767D01*
X0026991Y0113000D01*
X0026991Y0115302D02*
X0027758Y0116069D01*
X0027758Y0116837D01*
X0026991Y0117604D01*
X0025456Y0117604D01*
X0024689Y0116837D01*
X0024689Y0116069D01*
X0025456Y0115302D01*
X0024689Y0128000D02*
X0024689Y0128767D01*
X0027758Y0131837D01*
X0027758Y0132604D01*
X0024689Y0132604D01*
X0025456Y0138000D02*
X0024689Y0138767D01*
X0024689Y0140302D01*
X0026991Y0140302D01*
X0027758Y0139535D01*
X0027758Y0138767D01*
X0026991Y0138000D01*
X0025456Y0138000D01*
X0024689Y0140302D02*
X0026224Y0141837D01*
X0027758Y0142604D01*
X0026991Y0148000D02*
X0025456Y0148000D01*
X0024689Y0148767D01*
X0024689Y0150302D02*
X0026224Y0151069D01*
X0026991Y0151069D01*
X0027758Y0150302D01*
X0027758Y0148767D01*
X0026991Y0148000D01*
X0024689Y0150302D02*
X0024689Y0152604D01*
X0027758Y0152604D01*
X0026991Y0158000D02*
X0026991Y0162604D01*
X0024689Y0160302D01*
X0027758Y0160302D01*
X0026991Y0168000D02*
X0025456Y0168000D01*
X0024689Y0168767D01*
X0026224Y0170302D02*
X0026991Y0170302D01*
X0027758Y0169535D01*
X0027758Y0168767D01*
X0026991Y0168000D01*
X0026991Y0170302D02*
X0027758Y0171069D01*
X0027758Y0171837D01*
X0026991Y0172604D01*
X0025456Y0172604D01*
X0024689Y0171837D01*
X0024689Y0178000D02*
X0027758Y0181069D01*
X0027758Y0181837D01*
X0026991Y0182604D01*
X0025456Y0182604D01*
X0024689Y0181837D01*
X0024689Y0178000D02*
X0027758Y0178000D01*
X0026991Y0188000D02*
X0025456Y0188000D01*
X0024689Y0188767D01*
X0027758Y0191837D01*
X0027758Y0188767D01*
X0026991Y0188000D01*
X0024689Y0188767D02*
X0024689Y0191837D01*
X0025456Y0192604D01*
X0026991Y0192604D01*
X0027758Y0191837D01*
X0023154Y0191069D02*
X0020085Y0188000D01*
X0020085Y0191069D02*
X0023154Y0188000D01*
X0018550Y0192604D02*
X0015481Y0192604D01*
X0017016Y0192604D02*
X0017016Y0188000D01*
X0018550Y0198000D02*
X0017016Y0199535D01*
X0017783Y0199535D02*
X0015481Y0199535D01*
X0015481Y0198000D02*
X0015481Y0202604D01*
X0017783Y0202604D01*
X0018550Y0201837D01*
X0018550Y0200302D01*
X0017783Y0199535D01*
X0020085Y0201069D02*
X0023154Y0198000D01*
X0024689Y0198767D02*
X0027758Y0201837D01*
X0027758Y0198767D01*
X0026991Y0198000D01*
X0025456Y0198000D01*
X0024689Y0198767D01*
X0024689Y0201837D01*
X0025456Y0202604D01*
X0026991Y0202604D01*
X0027758Y0201837D01*
X0023154Y0201069D02*
X0020085Y0198000D01*
X0023922Y0218000D02*
X0023922Y0222604D01*
X0021620Y0220302D01*
X0024689Y0220302D01*
X0026224Y0222604D02*
X0027758Y0221069D01*
X0027758Y0219535D01*
X0026224Y0218000D01*
X0049293Y0213854D02*
X0049293Y0209250D01*
X0049293Y0210785D02*
X0051595Y0210785D01*
X0052362Y0211552D01*
X0052362Y0213087D01*
X0051595Y0213854D01*
X0049293Y0213854D01*
X0050827Y0210785D02*
X0052362Y0209250D01*
X0053897Y0210017D02*
X0054664Y0209250D01*
X0056199Y0209250D01*
X0056966Y0210017D01*
X0056966Y0210785D01*
X0056199Y0211552D01*
X0053897Y0211552D01*
X0053897Y0210017D01*
X0053897Y0211552D02*
X0055431Y0213087D01*
X0056966Y0213854D01*
X0056199Y0192604D02*
X0053897Y0190302D01*
X0056966Y0190302D01*
X0056199Y0188000D02*
X0056199Y0192604D01*
X0052362Y0191837D02*
X0052362Y0190302D01*
X0051595Y0189535D01*
X0049293Y0189535D01*
X0050827Y0189535D02*
X0052362Y0188000D01*
X0049293Y0188000D02*
X0049293Y0192604D01*
X0051595Y0192604D01*
X0052362Y0191837D01*
X0051595Y0182604D02*
X0049293Y0182604D01*
X0049293Y0178000D01*
X0049293Y0179535D02*
X0051595Y0179535D01*
X0052362Y0180302D01*
X0052362Y0181837D01*
X0051595Y0182604D01*
X0053897Y0182604D02*
X0053897Y0180302D01*
X0055431Y0181069D01*
X0056199Y0181069D01*
X0056966Y0180302D01*
X0056966Y0178767D01*
X0056199Y0178000D01*
X0054664Y0178000D01*
X0053897Y0178767D01*
X0052362Y0178000D02*
X0050827Y0179535D01*
X0053897Y0182604D02*
X0056966Y0182604D01*
X0054949Y0172604D02*
X0055716Y0171837D01*
X0055716Y0171069D01*
X0054949Y0170302D01*
X0055716Y0169535D01*
X0055716Y0168767D01*
X0054949Y0168000D01*
X0053414Y0168000D01*
X0052647Y0168767D01*
X0051112Y0168000D02*
X0049577Y0169535D01*
X0050345Y0169535D02*
X0048043Y0169535D01*
X0048043Y0168000D02*
X0048043Y0172604D01*
X0050345Y0172604D01*
X0051112Y0171837D01*
X0051112Y0170302D01*
X0050345Y0169535D01*
X0052647Y0171837D02*
X0053414Y0172604D01*
X0054949Y0172604D01*
X0054949Y0170302D02*
X0054181Y0170302D01*
X0075543Y0169250D02*
X0078612Y0169250D01*
X0077077Y0169250D02*
X0077077Y0173854D01*
X0075543Y0172319D01*
X0080147Y0170785D02*
X0082449Y0172319D01*
X0080147Y0170785D02*
X0082449Y0169250D01*
X0080147Y0169250D02*
X0080147Y0173854D01*
X0080147Y0179250D02*
X0080147Y0183854D01*
X0082449Y0182319D02*
X0080147Y0180785D01*
X0082449Y0179250D01*
X0078612Y0179250D02*
X0075543Y0179250D01*
X0077077Y0179250D02*
X0077077Y0183854D01*
X0075543Y0182319D01*
X0075543Y0189250D02*
X0078612Y0189250D01*
X0077077Y0189250D02*
X0077077Y0193854D01*
X0075543Y0192319D01*
X0080147Y0190785D02*
X0082449Y0192319D01*
X0080147Y0190785D02*
X0082449Y0189250D01*
X0080147Y0189250D02*
X0080147Y0193854D01*
X0080147Y0209250D02*
X0080147Y0213854D01*
X0082449Y0212319D02*
X0080147Y0210785D01*
X0082449Y0209250D01*
X0078612Y0209250D02*
X0075543Y0209250D01*
X0077077Y0209250D02*
X0077077Y0213854D01*
X0075543Y0212319D01*
X0026224Y0087604D02*
X0024689Y0086069D01*
X0026224Y0087604D02*
X0026224Y0083000D01*
X0027758Y0083000D02*
X0024689Y0083000D01*
X0023154Y0083000D02*
X0020085Y0083000D01*
X0021620Y0083000D02*
X0021620Y0087604D01*
X0020085Y0086069D01*
X0021620Y0077604D02*
X0020085Y0076069D01*
X0021620Y0077604D02*
X0021620Y0073000D01*
X0023154Y0073000D02*
X0020085Y0073000D01*
X0021620Y0067604D02*
X0021620Y0063000D01*
X0023154Y0063000D02*
X0020085Y0063000D01*
X0020085Y0066069D02*
X0021620Y0067604D01*
X0024689Y0066837D02*
X0025456Y0067604D01*
X0026991Y0067604D01*
X0027758Y0066837D01*
X0027758Y0066069D01*
X0026991Y0065302D01*
X0027758Y0064535D01*
X0027758Y0063767D01*
X0026991Y0063000D01*
X0025456Y0063000D01*
X0024689Y0063767D01*
X0026224Y0065302D02*
X0026991Y0065302D01*
X0027758Y0073000D02*
X0024689Y0073000D01*
X0027758Y0076069D01*
X0027758Y0076837D01*
X0026991Y0077604D01*
X0025456Y0077604D01*
X0024689Y0076837D01*
X0027758Y0057604D02*
X0027758Y0053000D01*
X0025456Y0053000D01*
X0024689Y0053767D01*
X0024689Y0055302D01*
X0025456Y0056069D01*
X0027758Y0056069D01*
X0023154Y0055302D02*
X0023154Y0053000D01*
X0023154Y0055302D02*
X0022387Y0056069D01*
X0020085Y0056069D01*
X0020085Y0053000D01*
X0018550Y0053767D02*
X0018550Y0055302D01*
X0017016Y0055302D01*
X0018550Y0056837D02*
X0017783Y0057604D01*
X0016248Y0057604D01*
X0015481Y0056837D01*
X0015481Y0053767D01*
X0016248Y0053000D01*
X0017783Y0053000D01*
X0018550Y0053767D01*
X0014714Y0047604D02*
X0016248Y0046069D01*
X0016248Y0043000D01*
X0017783Y0043000D02*
X0017783Y0046069D01*
X0017783Y0044535D02*
X0019318Y0046069D01*
X0020085Y0046069D01*
X0021620Y0045302D02*
X0022387Y0046069D01*
X0023922Y0046069D01*
X0024689Y0045302D01*
X0024689Y0044535D01*
X0021620Y0044535D01*
X0021620Y0045302D02*
X0021620Y0043767D01*
X0022387Y0043000D01*
X0023922Y0043000D01*
X0026991Y0043000D02*
X0026991Y0046837D01*
X0027758Y0047604D01*
X0027758Y0045302D02*
X0026224Y0045302D01*
X0016248Y0045302D02*
X0013179Y0045302D01*
X0013179Y0046069D02*
X0013179Y0043000D01*
X0013179Y0046069D02*
X0014714Y0047604D01*
D13*
X0031593Y0047800D02*
X0031593Y0042800D01*
X0034093Y0040300D01*
X0031593Y0037800D01*
X0031593Y0032800D01*
X0034093Y0030300D01*
X0031593Y0027800D01*
X0031593Y0022800D01*
X0034093Y0020300D01*
X0039093Y0020300D01*
X0041593Y0022800D01*
X0041593Y0027800D01*
X0039093Y0030300D01*
X0041593Y0032800D01*
X0041593Y0037800D01*
X0039093Y0040300D01*
X0041593Y0042800D01*
X0041593Y0047800D01*
X0039093Y0050300D01*
X0041593Y0052800D01*
X0041593Y0057800D01*
X0039093Y0060300D01*
X0041593Y0062800D01*
X0041593Y0067800D01*
X0039093Y0070300D01*
X0041593Y0072800D01*
X0041593Y0077800D01*
X0039093Y0080300D01*
X0041593Y0082800D01*
X0041593Y0087800D01*
X0039093Y0090300D01*
X0041593Y0092800D01*
X0041593Y0097800D01*
X0039093Y0100300D01*
X0041593Y0102800D01*
X0041593Y0107800D01*
X0039093Y0110300D01*
X0041593Y0112800D01*
X0041593Y0117800D01*
X0039093Y0120300D01*
X0034093Y0120300D01*
X0031593Y0117800D01*
X0031593Y0112800D01*
X0034093Y0110300D01*
X0031593Y0107800D01*
X0031593Y0102800D01*
X0034093Y0100300D01*
X0031593Y0097800D01*
X0031593Y0092800D01*
X0034093Y0090300D01*
X0031593Y0087800D01*
X0031593Y0082800D01*
X0034093Y0080300D01*
X0031593Y0077800D01*
X0031593Y0072800D01*
X0034093Y0070300D01*
X0031593Y0067800D01*
X0031593Y0062800D01*
X0034093Y0060300D01*
X0031593Y0057800D01*
X0031593Y0052800D01*
X0034093Y0050300D01*
X0031593Y0047800D01*
X0034093Y0125300D02*
X0031593Y0127800D01*
X0031593Y0132800D01*
X0034093Y0135300D01*
X0031593Y0137800D01*
X0031593Y0142800D01*
X0034093Y0145300D01*
X0031593Y0147800D01*
X0031593Y0152800D01*
X0034093Y0155300D01*
X0031593Y0157800D01*
X0031593Y0162800D01*
X0034093Y0165300D01*
X0031593Y0167800D01*
X0031593Y0172800D01*
X0034093Y0175300D01*
X0031593Y0177800D01*
X0031593Y0182800D01*
X0034093Y0185300D01*
X0031593Y0187800D01*
X0031593Y0192800D01*
X0034093Y0195300D01*
X0031593Y0197800D01*
X0031593Y0202800D01*
X0034093Y0205300D01*
X0039093Y0205300D01*
X0041593Y0202800D01*
X0041593Y0197800D01*
X0039093Y0195300D01*
X0041593Y0192800D01*
X0041593Y0187800D01*
X0039093Y0185300D01*
X0041593Y0182800D01*
X0041593Y0177800D01*
X0039093Y0175300D01*
X0041593Y0172800D01*
X0041593Y0167800D01*
X0039093Y0165300D01*
X0041593Y0162800D01*
X0041593Y0157800D01*
X0039093Y0155300D01*
X0041593Y0152800D01*
X0041593Y0147800D01*
X0039093Y0145300D01*
X0041593Y0142800D01*
X0041593Y0137800D01*
X0039093Y0135300D01*
X0041593Y0132800D01*
X0041593Y0127800D01*
X0039093Y0125300D01*
X0034093Y0125300D01*
X0034093Y0215300D02*
X0031593Y0217800D01*
X0031593Y0222800D01*
X0034093Y0225300D01*
X0031593Y0227800D01*
X0031593Y0232800D01*
X0034093Y0235300D01*
X0031593Y0237800D01*
X0031593Y0242800D01*
X0034093Y0245300D01*
X0031593Y0247800D01*
X0031593Y0252800D01*
X0034093Y0255300D01*
X0031593Y0257800D01*
X0031593Y0262800D01*
X0034093Y0265300D01*
X0031593Y0267800D01*
X0031593Y0272800D01*
X0034093Y0275300D01*
X0031593Y0277800D01*
X0031593Y0282800D01*
X0034093Y0285300D01*
X0031593Y0287800D01*
X0031593Y0292800D01*
X0034093Y0295300D01*
X0039093Y0295300D01*
X0041593Y0292800D01*
X0041593Y0287800D01*
X0039093Y0285300D01*
X0041593Y0282800D01*
X0041593Y0277800D01*
X0039093Y0275300D01*
X0041593Y0272800D01*
X0041593Y0267800D01*
X0039093Y0265300D01*
X0041593Y0262800D01*
X0041593Y0257800D01*
X0039093Y0255300D01*
X0041593Y0252800D01*
X0041593Y0247800D01*
X0039093Y0245300D01*
X0041593Y0242800D01*
X0041593Y0237800D01*
X0039093Y0235300D01*
X0041593Y0232800D01*
X0041593Y0227800D01*
X0039093Y0225300D01*
X0041593Y0222800D01*
X0041593Y0217800D01*
X0039093Y0215300D01*
X0034093Y0215300D01*
X0055593Y0279300D02*
X0059663Y0283370D01*
X0059663Y0284388D01*
X0058645Y0285405D01*
X0056610Y0285405D01*
X0055593Y0284388D01*
X0055593Y0289200D02*
X0055593Y0295305D01*
X0059663Y0295305D01*
X0061670Y0295305D02*
X0062688Y0295305D01*
X0062688Y0289200D01*
X0063705Y0289200D02*
X0061670Y0289200D01*
X0062688Y0285405D02*
X0064723Y0285405D01*
X0065740Y0284388D01*
X0061670Y0280318D01*
X0062688Y0279300D01*
X0064723Y0279300D01*
X0065740Y0280318D01*
X0065740Y0284388D01*
X0067747Y0283370D02*
X0069782Y0285405D01*
X0069782Y0279300D01*
X0067747Y0279300D02*
X0071817Y0279300D01*
X0073824Y0280318D02*
X0074842Y0279300D01*
X0076877Y0279300D01*
X0077895Y0280318D01*
X0077895Y0284388D01*
X0076877Y0285405D01*
X0074842Y0285405D01*
X0073824Y0284388D01*
X0073824Y0283370D01*
X0074842Y0282353D01*
X0077895Y0282353D01*
X0077876Y0287165D02*
X0077876Y0293270D01*
X0080928Y0293270D01*
X0081946Y0292253D01*
X0081946Y0290218D01*
X0080928Y0289200D01*
X0077876Y0289200D01*
X0075869Y0290218D02*
X0074851Y0289200D01*
X0071799Y0289200D01*
X0071799Y0287165D02*
X0071799Y0293270D01*
X0074851Y0293270D01*
X0075869Y0292253D01*
X0075869Y0290218D01*
X0069792Y0290218D02*
X0068774Y0289200D01*
X0066739Y0289200D01*
X0065722Y0290218D01*
X0065722Y0292253D01*
X0066739Y0293270D01*
X0068774Y0293270D01*
X0069792Y0292253D01*
X0069792Y0290218D01*
X0062688Y0285405D02*
X0061670Y0284388D01*
X0061670Y0280318D01*
X0059663Y0279300D02*
X0055593Y0279300D01*
X0055593Y0292253D02*
X0057628Y0292253D01*
X0059093Y0315300D02*
X0054093Y0315300D01*
X0051593Y0317800D01*
X0049093Y0315300D01*
X0044093Y0315300D01*
X0041593Y0317800D01*
X0039093Y0315300D01*
X0034093Y0315300D01*
X0031593Y0317800D01*
X0031593Y0332800D01*
X0034093Y0335300D01*
X0039093Y0335300D01*
X0041593Y0332800D01*
X0044093Y0335300D01*
X0049093Y0335300D01*
X0051593Y0332800D01*
X0054093Y0335300D01*
X0059093Y0335300D01*
X0061593Y0332800D01*
X0064093Y0335300D01*
X0069093Y0335300D01*
X0071593Y0332800D01*
X0074093Y0335300D01*
X0079093Y0335300D01*
X0081593Y0332800D01*
X0084093Y0335300D01*
X0089093Y0335300D01*
X0091593Y0332800D01*
X0094093Y0335300D01*
X0099093Y0335300D01*
X0101593Y0332800D01*
X0104093Y0335300D01*
X0109093Y0335300D01*
X0111593Y0332800D01*
X0114093Y0335300D01*
X0119093Y0335300D01*
X0121593Y0332800D01*
X0124093Y0335300D01*
X0129093Y0335300D01*
X0131593Y0332800D01*
X0134093Y0335300D01*
X0139093Y0335300D01*
X0141593Y0332800D01*
X0144093Y0335300D01*
X0149093Y0335300D01*
X0151593Y0332800D01*
X0154093Y0335300D01*
X0159093Y0335300D01*
X0161593Y0332800D01*
X0164093Y0335300D01*
X0169093Y0335300D01*
X0171593Y0332800D01*
X0174093Y0335300D01*
X0179093Y0335300D01*
X0181593Y0332800D01*
X0184093Y0335300D01*
X0189093Y0335300D01*
X0191593Y0332800D01*
X0194093Y0335300D01*
X0199093Y0335300D01*
X0201593Y0332800D01*
X0204093Y0335300D01*
X0209093Y0335300D01*
X0211593Y0332800D01*
X0211593Y0317800D01*
X0209093Y0315300D01*
X0204093Y0315300D01*
X0201593Y0317800D01*
X0199093Y0315300D01*
X0194093Y0315300D01*
X0191593Y0317800D01*
X0189093Y0315300D01*
X0184093Y0315300D01*
X0181593Y0317800D01*
X0179093Y0315300D01*
X0174093Y0315300D01*
X0171593Y0317800D01*
X0169093Y0315300D01*
X0164093Y0315300D01*
X0161593Y0317800D01*
X0159093Y0315300D01*
X0154093Y0315300D01*
X0151593Y0317800D01*
X0149093Y0315300D01*
X0144093Y0315300D01*
X0141593Y0317800D01*
X0139093Y0315300D01*
X0134093Y0315300D01*
X0131593Y0317800D01*
X0129093Y0315300D01*
X0124093Y0315300D01*
X0121593Y0317800D01*
X0119093Y0315300D01*
X0114093Y0315300D01*
X0111593Y0317800D01*
X0109093Y0315300D01*
X0104093Y0315300D01*
X0101593Y0317800D01*
X0099093Y0315300D01*
X0094093Y0315300D01*
X0091593Y0317800D01*
X0089093Y0315300D01*
X0084093Y0315300D01*
X0081593Y0317800D01*
X0079093Y0315300D01*
X0074093Y0315300D01*
X0071593Y0317800D01*
X0069093Y0315300D01*
X0064093Y0315300D01*
X0061593Y0317800D01*
X0059093Y0315300D01*
X0083953Y0293270D02*
X0083953Y0290218D01*
X0084971Y0289200D01*
X0088023Y0289200D01*
X0088023Y0288182D02*
X0087006Y0287165D01*
X0085988Y0287165D01*
X0085979Y0285405D02*
X0085979Y0279300D01*
X0089031Y0279300D01*
X0090049Y0280318D01*
X0090049Y0282353D01*
X0089031Y0283370D01*
X0085979Y0283370D01*
X0088023Y0288182D02*
X0088023Y0293270D01*
X0090030Y0294288D02*
X0090030Y0290218D01*
X0091048Y0289200D01*
X0093083Y0289200D01*
X0094100Y0290218D01*
X0096107Y0290218D02*
X0097125Y0289200D01*
X0099160Y0289200D01*
X0100178Y0290218D01*
X0100178Y0292253D01*
X0099160Y0293270D01*
X0097125Y0293270D01*
X0096107Y0292253D01*
X0096107Y0290218D01*
X0094100Y0294288D02*
X0093083Y0295305D01*
X0091048Y0295305D01*
X0090030Y0294288D01*
X0092056Y0283370D02*
X0092056Y0280318D01*
X0093074Y0279300D01*
X0096126Y0279300D01*
X0096126Y0278282D02*
X0095109Y0277265D01*
X0094091Y0277265D01*
X0096126Y0278282D02*
X0096126Y0283370D01*
X0102185Y0289200D02*
X0102185Y0293270D01*
X0105237Y0293270D01*
X0106255Y0292253D01*
X0106255Y0289200D01*
X0106245Y0285405D02*
X0108281Y0285405D01*
X0107263Y0285405D02*
X0107263Y0280318D01*
X0106245Y0279300D01*
X0105228Y0279300D01*
X0104210Y0280318D01*
X0110288Y0280318D02*
X0111305Y0279300D01*
X0113340Y0279300D01*
X0114358Y0280318D01*
X0114358Y0282353D01*
X0113340Y0283370D01*
X0111305Y0283370D01*
X0110288Y0282353D01*
X0110288Y0280318D01*
X0116365Y0279300D02*
X0119417Y0279300D01*
X0120435Y0280318D01*
X0119417Y0281335D01*
X0117382Y0281335D01*
X0116365Y0282353D01*
X0117382Y0283370D01*
X0120435Y0283370D01*
X0122442Y0282353D02*
X0123459Y0283370D01*
X0125495Y0283370D01*
X0126512Y0282353D01*
X0126512Y0279300D01*
X0128519Y0280318D02*
X0129537Y0281335D01*
X0132589Y0281335D01*
X0132589Y0282353D02*
X0132589Y0279300D01*
X0129537Y0279300D01*
X0128519Y0280318D01*
X0129537Y0283370D02*
X0131572Y0283370D01*
X0132589Y0282353D01*
X0133583Y0289200D02*
X0133583Y0293270D01*
X0135619Y0295305D01*
X0137654Y0293270D01*
X0137654Y0289200D01*
X0139661Y0289200D02*
X0139661Y0293270D01*
X0139661Y0291235D02*
X0141696Y0293270D01*
X0142713Y0293270D01*
X0144725Y0292253D02*
X0145742Y0293270D01*
X0148795Y0293270D01*
X0150802Y0293270D02*
X0150802Y0290218D01*
X0151820Y0289200D01*
X0154872Y0289200D01*
X0154872Y0293270D01*
X0156879Y0293270D02*
X0157897Y0293270D01*
X0157897Y0289200D01*
X0158914Y0289200D02*
X0156879Y0289200D01*
X0158905Y0285405D02*
X0158905Y0279300D01*
X0156898Y0279300D02*
X0156898Y0283370D01*
X0158905Y0281335D02*
X0161958Y0283370D01*
X0163969Y0282353D02*
X0164987Y0283370D01*
X0167022Y0283370D01*
X0168040Y0282353D01*
X0168040Y0281335D01*
X0163969Y0281335D01*
X0163969Y0280318D02*
X0163969Y0282353D01*
X0163969Y0280318D02*
X0164987Y0279300D01*
X0167022Y0279300D01*
X0170047Y0279300D02*
X0170047Y0283370D01*
X0171064Y0283370D01*
X0172082Y0282353D01*
X0173099Y0283370D01*
X0174117Y0282353D01*
X0174117Y0279300D01*
X0172082Y0279300D02*
X0172082Y0282353D01*
X0176124Y0280318D02*
X0177141Y0281335D01*
X0180194Y0281335D01*
X0180194Y0282353D02*
X0180194Y0279300D01*
X0177141Y0279300D01*
X0176124Y0280318D01*
X0177141Y0283370D02*
X0179176Y0283370D01*
X0180194Y0282353D01*
X0179162Y0289200D02*
X0182215Y0289200D01*
X0183232Y0290218D01*
X0183232Y0294288D01*
X0182215Y0295305D01*
X0179162Y0295305D01*
X0179162Y0289200D01*
X0185240Y0290218D02*
X0185240Y0293270D01*
X0185240Y0290218D02*
X0186257Y0289200D01*
X0189310Y0289200D01*
X0189310Y0293270D01*
X0191317Y0292253D02*
X0192334Y0293270D01*
X0194369Y0293270D01*
X0195387Y0292253D01*
X0195387Y0291235D01*
X0191317Y0291235D01*
X0191317Y0290218D02*
X0191317Y0292253D01*
X0191317Y0290218D02*
X0192334Y0289200D01*
X0194369Y0289200D01*
X0203471Y0293270D02*
X0205506Y0289200D01*
X0207541Y0293270D01*
X0209548Y0293270D02*
X0211583Y0295305D01*
X0211583Y0289200D01*
X0209548Y0289200D02*
X0213618Y0289200D01*
X0221593Y0287800D02*
X0221593Y0292800D01*
X0224093Y0295300D01*
X0221593Y0297800D01*
X0221593Y0302800D01*
X0224093Y0305300D01*
X0221593Y0307800D01*
X0221593Y0312800D01*
X0224093Y0315300D01*
X0229093Y0315300D01*
X0231593Y0312800D01*
X0231593Y0307800D01*
X0229093Y0305300D01*
X0231593Y0302800D01*
X0231593Y0297800D01*
X0229093Y0295300D01*
X0231593Y0292800D01*
X0231593Y0287800D01*
X0229093Y0285300D01*
X0231593Y0282800D01*
X0231593Y0277800D01*
X0229093Y0275300D01*
X0231593Y0272800D01*
X0231593Y0267800D01*
X0229093Y0265300D01*
X0231593Y0262800D01*
X0231593Y0257800D01*
X0229093Y0255300D01*
X0231593Y0252800D01*
X0231593Y0247800D01*
X0229093Y0245300D01*
X0231593Y0242800D01*
X0231593Y0237800D01*
X0229093Y0235300D01*
X0224093Y0235300D01*
X0221593Y0237800D01*
X0221593Y0242800D01*
X0224093Y0245300D01*
X0221593Y0247800D01*
X0221593Y0252800D01*
X0224093Y0255300D01*
X0221593Y0257800D01*
X0221593Y0262800D01*
X0224093Y0265300D01*
X0221593Y0267800D01*
X0221593Y0272800D01*
X0224093Y0275300D01*
X0221593Y0277800D01*
X0221593Y0282800D01*
X0224093Y0285300D01*
X0221593Y0287800D01*
X0211505Y0264703D02*
X0210755Y0264703D01*
X0209253Y0263201D01*
X0209253Y0261700D02*
X0209253Y0264703D01*
X0207652Y0263952D02*
X0206901Y0264703D01*
X0205400Y0264703D01*
X0204649Y0263952D01*
X0204649Y0262451D01*
X0205400Y0261700D01*
X0206901Y0261700D01*
X0207652Y0262451D01*
X0207652Y0263952D01*
X0203081Y0264703D02*
X0201580Y0264703D01*
X0202331Y0265453D02*
X0202331Y0262451D01*
X0203081Y0261700D01*
X0199979Y0262451D02*
X0199979Y0263952D01*
X0199228Y0264703D01*
X0197727Y0264703D01*
X0196976Y0263952D01*
X0196976Y0262451D01*
X0197727Y0261700D01*
X0199228Y0261700D01*
X0199979Y0262451D01*
X0195375Y0261700D02*
X0195375Y0263952D01*
X0194624Y0264703D01*
X0193874Y0263952D01*
X0193874Y0261700D01*
X0192372Y0261700D02*
X0192372Y0264703D01*
X0193123Y0264703D01*
X0193874Y0263952D01*
X0186184Y0264703D02*
X0185433Y0264703D01*
X0183932Y0263201D01*
X0183932Y0261700D02*
X0183932Y0264703D01*
X0182330Y0263952D02*
X0182330Y0263201D01*
X0179328Y0263201D01*
X0179328Y0262451D02*
X0179328Y0263952D01*
X0180078Y0264703D01*
X0181580Y0264703D01*
X0182330Y0263952D01*
X0181580Y0261700D02*
X0180078Y0261700D01*
X0179328Y0262451D01*
X0177726Y0262451D02*
X0176976Y0261700D01*
X0174724Y0261700D01*
X0174724Y0260199D02*
X0174724Y0264703D01*
X0176976Y0264703D01*
X0177726Y0263952D01*
X0177726Y0262451D01*
X0173123Y0262451D02*
X0172372Y0261700D01*
X0170120Y0261700D01*
X0170120Y0260199D02*
X0170120Y0264703D01*
X0172372Y0264703D01*
X0173123Y0263952D01*
X0173123Y0262451D01*
X0168519Y0263201D02*
X0165516Y0263201D01*
X0165516Y0262451D02*
X0165516Y0263952D01*
X0166267Y0264703D01*
X0167768Y0264703D01*
X0168519Y0263952D01*
X0168519Y0263201D01*
X0167768Y0261700D02*
X0166267Y0261700D01*
X0165516Y0262451D01*
X0163948Y0261700D02*
X0163197Y0262451D01*
X0163197Y0265453D01*
X0162447Y0264703D02*
X0163948Y0264703D01*
X0160845Y0265453D02*
X0160095Y0266204D01*
X0158594Y0266204D01*
X0157843Y0265453D01*
X0157843Y0264703D01*
X0158594Y0263952D01*
X0160095Y0263952D01*
X0160845Y0263201D01*
X0160845Y0262451D01*
X0160095Y0261700D01*
X0158594Y0261700D01*
X0157843Y0262451D01*
X0156898Y0279300D02*
X0153845Y0279300D01*
X0152828Y0280318D01*
X0152828Y0283370D01*
X0150821Y0282353D02*
X0150821Y0281335D01*
X0146751Y0281335D01*
X0146751Y0280318D02*
X0146751Y0282353D01*
X0147768Y0283370D01*
X0149803Y0283370D01*
X0150821Y0282353D01*
X0149803Y0279300D02*
X0147768Y0279300D01*
X0146751Y0280318D01*
X0144744Y0280318D02*
X0143726Y0279300D01*
X0140674Y0279300D01*
X0140674Y0285405D01*
X0143726Y0285405D01*
X0144744Y0284388D01*
X0144744Y0283370D01*
X0143726Y0282353D01*
X0140674Y0282353D01*
X0143726Y0282353D02*
X0144744Y0281335D01*
X0144744Y0280318D01*
X0145742Y0289200D02*
X0144725Y0290218D01*
X0144725Y0292253D01*
X0145742Y0289200D02*
X0148795Y0289200D01*
X0148795Y0295305D01*
X0157897Y0295305D02*
X0157897Y0296323D01*
X0160931Y0293270D02*
X0163983Y0293270D01*
X0165001Y0292253D01*
X0165001Y0289200D01*
X0167008Y0290218D02*
X0168026Y0289200D01*
X0170061Y0289200D01*
X0171078Y0290218D01*
X0171078Y0292253D01*
X0170061Y0293270D01*
X0168026Y0293270D01*
X0167008Y0292253D01*
X0167008Y0290218D01*
X0160931Y0289200D02*
X0160931Y0293270D01*
X0158905Y0281335D02*
X0161958Y0279300D01*
X0137654Y0292253D02*
X0133583Y0292253D01*
X0125490Y0289200D02*
X0123455Y0289200D01*
X0124472Y0289200D02*
X0124472Y0295305D01*
X0123455Y0295305D01*
X0120430Y0293270D02*
X0121448Y0292253D01*
X0121448Y0290218D01*
X0120430Y0289200D01*
X0118395Y0289200D01*
X0117378Y0290218D01*
X0117378Y0292253D01*
X0118395Y0293270D01*
X0120430Y0293270D01*
X0115366Y0293270D02*
X0114348Y0293270D01*
X0112313Y0291235D01*
X0112313Y0289200D02*
X0112313Y0293270D01*
X0110297Y0293270D02*
X0108262Y0293270D01*
X0109279Y0294288D02*
X0109279Y0290218D01*
X0110297Y0289200D01*
X0122442Y0285405D02*
X0122442Y0279300D01*
X0187031Y0227703D02*
X0187031Y0226953D01*
X0187782Y0226202D01*
X0189283Y0226202D01*
X0190034Y0225451D01*
X0190034Y0224701D01*
X0189283Y0223950D01*
X0187782Y0223950D01*
X0187031Y0224701D01*
X0187031Y0227703D02*
X0187782Y0228454D01*
X0189283Y0228454D01*
X0190034Y0227703D01*
X0191635Y0228454D02*
X0191635Y0223950D01*
X0194638Y0223950D01*
X0196239Y0224701D02*
X0196990Y0223950D01*
X0198491Y0223950D01*
X0199241Y0224701D01*
X0199241Y0226202D01*
X0198491Y0226953D01*
X0197740Y0226953D01*
X0196239Y0226202D01*
X0196239Y0228454D01*
X0199241Y0228454D01*
X0198243Y0233259D02*
X0198243Y0235528D01*
X0198243Y0234393D02*
X0194840Y0234393D01*
X0195974Y0233259D01*
X0221593Y0222800D02*
X0221593Y0217800D01*
X0224093Y0215300D01*
X0221593Y0212800D01*
X0221593Y0207800D01*
X0224093Y0205300D01*
X0221593Y0202800D01*
X0221593Y0197800D01*
X0224093Y0195300D01*
X0221593Y0192800D01*
X0221593Y0187800D01*
X0224093Y0185300D01*
X0221593Y0182800D01*
X0221593Y0177800D01*
X0224093Y0175300D01*
X0221593Y0172800D01*
X0221593Y0167800D01*
X0224093Y0165300D01*
X0221593Y0162800D01*
X0221593Y0157800D01*
X0224093Y0155300D01*
X0221593Y0152800D01*
X0221593Y0147800D01*
X0224093Y0145300D01*
X0229093Y0145300D01*
X0231593Y0147800D01*
X0231593Y0152800D01*
X0229093Y0155300D01*
X0231593Y0157800D01*
X0231593Y0162800D01*
X0229093Y0165300D01*
X0231593Y0167800D01*
X0231593Y0172800D01*
X0229093Y0175300D01*
X0231593Y0177800D01*
X0231593Y0182800D01*
X0229093Y0185300D01*
X0231593Y0187800D01*
X0231593Y0192800D01*
X0229093Y0195300D01*
X0231593Y0197800D01*
X0231593Y0202800D01*
X0229093Y0205300D01*
X0231593Y0207800D01*
X0231593Y0212800D01*
X0229093Y0215300D01*
X0231593Y0217800D01*
X0231593Y0222800D01*
X0229093Y0225300D01*
X0224093Y0225300D01*
X0221593Y0222800D01*
X0207628Y0144155D02*
X0205593Y0142120D01*
X0207628Y0144155D02*
X0207628Y0138050D01*
X0205593Y0138050D02*
X0209663Y0138050D01*
X0221593Y0132800D02*
X0221593Y0127800D01*
X0224093Y0125300D01*
X0221593Y0122800D01*
X0221593Y0117800D01*
X0224093Y0115300D01*
X0221593Y0112800D01*
X0221593Y0107800D01*
X0224093Y0105300D01*
X0221593Y0102800D01*
X0221593Y0097800D01*
X0224093Y0095300D01*
X0221593Y0092800D01*
X0221593Y0087800D01*
X0224093Y0085300D01*
X0221593Y0082800D01*
X0221593Y0077800D01*
X0224093Y0075300D01*
X0221593Y0072800D01*
X0221593Y0067800D01*
X0224093Y0065300D01*
X0221593Y0062800D01*
X0221593Y0057800D01*
X0224093Y0055300D01*
X0229093Y0055300D01*
X0231593Y0057800D01*
X0231593Y0062800D01*
X0229093Y0065300D01*
X0231593Y0067800D01*
X0231593Y0072800D01*
X0229093Y0075300D01*
X0231593Y0077800D01*
X0231593Y0082800D01*
X0229093Y0085300D01*
X0231593Y0087800D01*
X0231593Y0092800D01*
X0229093Y0095300D01*
X0231593Y0097800D01*
X0231593Y0102800D01*
X0229093Y0105300D01*
X0231593Y0107800D01*
X0231593Y0112800D01*
X0229093Y0115300D01*
X0231593Y0117800D01*
X0231593Y0122800D01*
X0229093Y0125300D01*
X0231593Y0127800D01*
X0231593Y0132800D01*
X0229093Y0135300D01*
X0224093Y0135300D01*
X0221593Y0132800D01*
X0225094Y0012554D02*
X0224343Y0011803D01*
X0225094Y0012554D02*
X0226595Y0012554D01*
X0227345Y0011803D01*
X0227345Y0011053D01*
X0224343Y0008050D01*
X0227345Y0008050D01*
X0207345Y0008050D02*
X0204343Y0008050D01*
X0205844Y0008050D02*
X0205844Y0012554D01*
X0204343Y0011053D01*
X0121343Y0046800D02*
X0115238Y0046800D01*
X0115238Y0050870D01*
X0115238Y0052877D02*
X0115238Y0055930D01*
X0116255Y0056947D01*
X0120325Y0056947D01*
X0121343Y0055930D01*
X0121343Y0052877D01*
X0115238Y0052877D01*
X0118290Y0048835D02*
X0118290Y0046800D01*
X0115238Y0058954D02*
X0115238Y0062007D01*
X0116255Y0063025D01*
X0120325Y0063025D01*
X0121343Y0062007D01*
X0121343Y0058954D01*
X0115238Y0058954D01*
X0102628Y0044155D02*
X0102628Y0038050D01*
X0100593Y0038050D02*
X0104663Y0038050D01*
X0100593Y0042120D02*
X0102628Y0044155D01*
D14*
X0073393Y0090300D03*
X0062293Y0090300D03*
X0061043Y0170300D03*
X0061043Y0180300D03*
X0061043Y0190300D03*
X0072143Y0190300D03*
X0072143Y0180300D03*
X0072143Y0170300D03*
X0072143Y0210300D03*
X0061043Y0210300D03*
D15*
X0166593Y0240300D03*
X0176593Y0240300D03*
X0186593Y0240300D03*
X0196593Y0240300D03*
D16*
X0197693Y0039800D02*
X0197693Y0018300D01*
X0215693Y0018300D01*
X0215693Y0039800D01*
X0197693Y0039800D01*
X0196593Y0015300D02*
X0236593Y0015300D01*
X0235493Y0018300D02*
X0235493Y0039800D01*
X0217493Y0039800D01*
X0217493Y0018300D01*
X0235493Y0018300D01*
D17*
X0207592Y0044650D02*
X0203388Y0044650D01*
X0205490Y0044650D02*
X0205490Y0050955D01*
X0203388Y0048854D01*
X0201146Y0050955D02*
X0196943Y0044650D01*
X0201146Y0044650D02*
X0196943Y0050955D01*
D18*
X0206693Y0025800D03*
X0226493Y0025800D03*
D19*
X0226493Y0022050D03*
X0206693Y0022050D03*
D20*
X0226593Y0060300D03*
X0226593Y0070300D03*
X0226593Y0080300D03*
X0226593Y0090300D03*
X0226593Y0100300D03*
X0226593Y0110300D03*
X0226593Y0120300D03*
X0226593Y0130300D03*
X0226593Y0150300D03*
X0226593Y0160300D03*
X0226593Y0170300D03*
X0226593Y0180300D03*
X0226593Y0190300D03*
X0226593Y0200300D03*
X0226593Y0210300D03*
X0226593Y0220300D03*
X0226593Y0240300D03*
X0226593Y0250300D03*
X0226593Y0260300D03*
X0226593Y0270300D03*
X0226593Y0280300D03*
X0226593Y0290300D03*
X0226593Y0300300D03*
X0226593Y0310300D03*
X0206593Y0320300D03*
X0206593Y0330300D03*
X0196593Y0330300D03*
X0196593Y0320300D03*
X0186593Y0320300D03*
X0186593Y0330300D03*
X0176593Y0330300D03*
X0176593Y0320300D03*
X0166593Y0320300D03*
X0166593Y0330300D03*
X0156593Y0330300D03*
X0156593Y0320300D03*
X0146593Y0320300D03*
X0146593Y0330300D03*
X0136593Y0330300D03*
X0136593Y0320300D03*
X0126593Y0320300D03*
X0126593Y0330300D03*
X0116593Y0330300D03*
X0116593Y0320300D03*
X0106593Y0320300D03*
X0106593Y0330300D03*
X0096593Y0330300D03*
X0096593Y0320300D03*
X0086593Y0320300D03*
X0086593Y0330300D03*
X0076593Y0330300D03*
X0076593Y0320300D03*
X0066593Y0320300D03*
X0066593Y0330300D03*
X0056593Y0330300D03*
X0056593Y0320300D03*
X0046593Y0320300D03*
X0046593Y0330300D03*
X0036593Y0330300D03*
X0036593Y0320300D03*
X0036593Y0290300D03*
X0036593Y0280300D03*
X0036593Y0270300D03*
X0036593Y0260300D03*
X0036593Y0250300D03*
X0036593Y0240300D03*
X0036593Y0240300D03*
X0036593Y0230300D03*
X0036593Y0220300D03*
X0036593Y0200300D03*
X0036593Y0190300D03*
X0036593Y0180300D03*
X0036593Y0170300D03*
X0036593Y0160300D03*
X0036593Y0150300D03*
X0036593Y0140300D03*
X0036593Y0130300D03*
X0036593Y0115300D03*
X0036593Y0105300D03*
X0036593Y0095300D03*
X0036593Y0085300D03*
X0036593Y0075300D03*
X0036593Y0065300D03*
X0036593Y0055300D03*
X0036593Y0045300D03*
X0036593Y0035300D03*
X0036593Y0025300D03*
D21*
X0027775Y0022950D02*
X0024639Y0022950D01*
X0023171Y0022950D02*
X0020035Y0022950D01*
X0020035Y0027654D01*
X0018567Y0026870D02*
X0017783Y0027654D01*
X0016215Y0027654D01*
X0015431Y0026870D01*
X0015431Y0023734D01*
X0016215Y0022950D01*
X0017783Y0022950D01*
X0018567Y0023734D01*
X0013963Y0023734D02*
X0013179Y0022950D01*
X0011611Y0022950D01*
X0010827Y0023734D01*
X0011611Y0025302D02*
X0013179Y0025302D01*
X0013963Y0024518D01*
X0013963Y0023734D01*
X0011611Y0025302D02*
X0010827Y0026086D01*
X0010827Y0026870D01*
X0011611Y0027654D01*
X0013179Y0027654D01*
X0013963Y0026870D01*
X0013179Y0032950D02*
X0011611Y0032950D01*
X0010827Y0033734D01*
X0011611Y0035302D02*
X0013179Y0035302D01*
X0013963Y0034518D01*
X0013963Y0033734D01*
X0013179Y0032950D01*
X0015431Y0032950D02*
X0015431Y0037654D01*
X0017783Y0037654D01*
X0018567Y0036870D01*
X0018567Y0033734D01*
X0017783Y0032950D01*
X0015431Y0032950D01*
X0013963Y0036870D02*
X0013179Y0037654D01*
X0011611Y0037654D01*
X0010827Y0036870D01*
X0010827Y0036086D01*
X0011611Y0035302D01*
X0020035Y0035302D02*
X0023171Y0035302D01*
X0023171Y0036086D02*
X0023171Y0032950D01*
X0024639Y0032950D02*
X0027775Y0032950D01*
X0026207Y0032950D02*
X0026207Y0037654D01*
X0024639Y0036086D01*
X0023171Y0036086D02*
X0021603Y0037654D01*
X0020035Y0036086D01*
X0020035Y0032950D01*
X0026207Y0027654D02*
X0024639Y0026086D01*
X0026207Y0027654D02*
X0026207Y0022950D01*
X0234243Y0067950D02*
X0235811Y0067950D01*
X0235027Y0067950D02*
X0235027Y0072654D01*
X0234243Y0072654D02*
X0235811Y0072654D01*
X0237312Y0071870D02*
X0237312Y0068734D01*
X0238096Y0067950D01*
X0239664Y0067950D01*
X0240448Y0068734D01*
X0240448Y0071870D01*
X0239664Y0072654D01*
X0238096Y0072654D01*
X0237312Y0071870D01*
X0241916Y0071086D02*
X0241916Y0067950D01*
X0241916Y0069518D02*
X0243484Y0071086D01*
X0244268Y0071086D01*
X0245753Y0070302D02*
X0246537Y0071086D01*
X0248105Y0071086D01*
X0248889Y0070302D01*
X0248889Y0069518D01*
X0245753Y0069518D01*
X0245753Y0068734D02*
X0245753Y0070302D01*
X0245753Y0068734D02*
X0246537Y0067950D01*
X0248105Y0067950D01*
X0251141Y0067950D02*
X0251141Y0071870D01*
X0251925Y0072654D01*
X0251925Y0070302D02*
X0250357Y0070302D01*
M02*
